<svg xmlns="http://www.w3.org/2000/svg" version="1.1" xmlns:xlink="http://www.w3.org/1999/xlink" width="512" height="512" x="0" y="0" viewBox="0 0 473.684 473.684" style="enable-background:new 0 0 512 512" xml:space="preserve" class=""><g><path d="m315.802 13.535-27.639 76.632c25.512 84.193 25.512 209.156 0 293.353l27.639 76.624c91.975-32.523 157.882-120.195 157.882-223.31 0-103.099-65.907-190.775-157.882-223.299z" style="" fill="#e61e25" data-original="#e61e25"></path><path d="M315.802 90.167V13.535C291.102 4.8 264.536.002 236.84.002c36.521 0-14.117 123.773 78.962 90.165zM236.84 473.682c27.695 0 54.262-4.798 78.962-13.534v-76.624c-92.144-9.196-78.962 90.158-78.962 90.158z" style="" fill="#e4e4e4" data-original="#e4e4e4"></path><path d="M0 236.837C0 340.297 66.355 428.2 158.806 460.461V13.229C66.355 45.49 0 133.393 0 236.837z" style="" fill="#3757a6" data-original="#3757a6" class=""></path><path d="M315.802 90.167V383.52c25.515-84.197 25.515-209.161 0-293.353z" style="" fill="#ef4f4e" data-original="#ef4f4e"></path><path d="M315.802 383.523V90.167C299.677 36.938 273.361.002 236.84.002a236.342 236.342 0 0 0-78.034 13.227v447.234a236.338 236.338 0 0 0 78.034 13.22c36.521-.001 62.837-36.937 78.962-90.16z" style="" fill="#f3f4f5" data-original="#f3f4f5" class=""></path></g></svg>