<svg xmlns="http://www.w3.org/2000/svg" version="1.1" xmlns:xlink="http://www.w3.org/1999/xlink" width="512" height="512" x="0" y="0" viewBox="0 0 473.681 473.681" style="enable-background:new 0 0 512 512" xml:space="preserve" class=""><g><circle cx="236.85" cy="236.851" r="236.83" style="" fill="#ffffff" data-original="#ffffff"></circle><path d="M460.143 157.874a6.687 6.687 0 0 0-.075-.206C429.756 72.202 351.789 9.321 258.113.974c36.248 19.872 46.834 82.832 56.109 156.901 6.335 50.593 6.376 106.339.12 156.995-9.196 74.47-19.827 137.874-56.228 157.829 93.848-8.362 171.927-71.46 202.12-157.156.079-.228.146-.452.228-.673a236.407 236.407 0 0 0 13.219-78.026c-.004-27.703-4.802-54.269-13.538-78.97z" style="" fill="#e12a28" data-original="#e12a28"></path><path d="M326.412 157.874C317.142 83.804 294.36 20.845 258.109.973 251.097.352 244.007 0 236.835 0 133.806 0 46.188 65.803 13.608 157.668a5.85 5.85 0 0 0-.075.206C4.798 182.575 0 209.141 0 236.842c0 27.348 4.693 53.588 13.219 78.026.079.221.15.445.228.673 32.452 92.102 120.19 158.135 223.387 158.135 7.173 0 14.263-.352 21.274-.98 36.401-19.954 59.227-83.359 68.423-157.829 6.257-50.658 6.216-106.4-.119-156.993z" style="" fill="#ed3432" data-original="#ed3432" class=""></path><path d="m234.718 115.454 28.133 86.593h91.055l-73.666 53.508 28.136 86.602-73.658-53.521-73.662 53.521 28.137-86.602-73.663-53.508h91.052z" style="" fill="#fdce0c" data-original="#fdce0c"></path></g></svg>