<?xml version="1.0"?>
<svg xmlns="http://www.w3.org/2000/svg" xmlns:xlink="http://www.w3.org/1999/xlink" xmlns:svgjs="http://svgjs.com/svgjs" version="1.1" width="512" height="512" x="0" y="0" viewBox="0 0 24 24" style="enable-background:new 0 0 512 512" xml:space="preserve" class=""><circle r="12" cx="12" cy="12" fill="#ddf2ff" shape="circle"/><g transform="matrix(0.7,0,0,0.7,3.6000000000000014,3.6000000000000014)"><g xmlns="http://www.w3.org/2000/svg" fill="#ff9800"><path d="m6.444 14.839 10.338 2.196.433-2.089-10.338-2.212z" fill="#ff9800" data-original="#ff9800" style=""/><path d="m6.215 17.571h10.566v2.127h-10.566z" fill="#ff9800" data-original="#ff9800" style=""/><path d="m7.8 9.831 9.572 4.526.887-1.944-9.577-4.538z" fill="#ff9800" data-original="#ff9800" style=""/><path d="m17.373 14.358-.001-.001-.001.001z" fill="#ff9800" data-original="#ff9800" style=""/></g><path xmlns="http://www.w3.org/2000/svg" d="m2 15.429v8.571h18.992v-8.571h-2.113v6.428h-14.766v-6.428z" fill="#757575" data-original="#757575" style="" class=""/><path xmlns="http://www.w3.org/2000/svg" d="m10.453 5.063 8.109 6.873 1.346-1.65-8.109-6.873z" fill="#ff9800" data-original="#ff9800" style=""/><path xmlns="http://www.w3.org/2000/svg" d="m22 8.587-6.302-8.587-1.691 1.286 6.302 8.587z" fill="#ff9800" data-original="#ff9800" style=""/></g></svg>
