<?xml version="1.0" ?><!DOCTYPE svg  PUBLIC '-//W3C//DTD SVG 1.1//EN'  'http://www.w3.org/Graphics/SVG/1.1/DTD/svg11.dtd'><svg enable-background="new 0 0 128 128" id="Social_Icons" version="1.1" viewBox="0 0 128 128" xml:space="preserve" xmlns="http://www.w3.org/2000/svg" xmlns:xlink="http://www.w3.org/1999/xlink"><g id="_x34__stroke"><g id="Stack_Overflow"><rect clip-rule="evenodd" fill="none" fill-rule="evenodd" height="128" width="128"/><g id="Stack_Overflow_1_"><path clip-rule="evenodd" d="M101.991,52.29L73.278,10.538l-8.994,6.08l28.714,41.751     L101.991,52.29z M91.228,59.85L47.332,34.177L41.8,43.471l43.898,25.674L91.228,59.85z M84.803,72.195L35.589,59.077     l-2.828,10.422l49.217,13.12L84.803,72.195z M81.455,86.279l-50.746-4.636l-0.999,10.749l50.747,4.632L81.455,86.279z      M114.667,49.789L105.949,0L95.223,1.845l8.717,49.789L114.667,49.789z M80.229,110.913l-50.964,0.024l-0.004-10.793     l50.962-0.026L80.229,110.913z" fill="#FF810F" fill-rule="evenodd"/><polygon clip-rule="evenodd" fill="#BEBCBC" fill-rule="evenodd" points="88.884,75.409 88.884,119.532 22.04,119.532      22.04,75.409 13.333,75.409 13.333,128 97.547,128 97.547,75.409    "/></g></g></g></svg>