<?xml version="1.0" encoding="iso-8859-1"?>
<!-- Generator: Adobe Illustrator 19.0.0, SVG Export Plug-In . SVG Version: 6.00 Build 0)  -->
<svg version="1.1" id="Capa_1" xmlns="http://www.w3.org/2000/svg" xmlns:xlink="http://www.w3.org/1999/xlink" x="0px" y="0px"
	 viewBox="0 0 511.999 511.999" style="enable-background:new 0 0 511.999 511.999;" xml:space="preserve">
<circle style="fill:#D6D6D6;" cx="255.999" cy="255.999" r="255.999"/>
<path style="fill:#535B70;" d="M450.344,24.869v397.771c-46.947,54.7-116.6,89.359-194.34,89.359s-147.393-34.659-194.34-89.359
	V24.869C61.663,11.139,72.792,0,86.532,0h338.943C439.205,0,450.344,11.139,450.344,24.869z"/>
<path style="fill:#E8E8E8;" d="M430.752,85.462v357.605c-3.197,2.988-6.468,5.893-9.812,8.704
	c-42.674,35.997-97.28,58.295-157.027,60.102c-2.623,0.084-5.266,0.125-7.91,0.125c-2.654,0-5.287-0.042-7.92-0.125
	c-59.747-1.808-114.353-24.106-157.016-60.102c-3.344-2.811-6.614-5.716-9.812-8.704V85.462c0-8.192,6.635-14.827,14.827-14.827
	h319.843c0.899,0,1.776,0.084,2.623,0.24C425.486,72.108,430.752,78.169,430.752,85.462z"/>
<path style="fill:#42495B;" d="M321.828,45.554h-131.65c-6.059,0-10.97-4.912-10.97-10.97l0,0c0-6.059,4.912-10.97,10.97-10.97
	h131.65c6.059,0,10.97,4.912,10.97,10.97l0,0C332.799,40.642,327.887,45.554,321.828,45.554z"/>
<path style="fill:#4ACC9A;" d="M238.376,261.279H100.778c-5.365,0-9.714-4.349-9.714-9.714V113.967c0-5.365,4.349-9.714,9.714-9.714
	h137.598c5.365,0,9.714,4.349,9.714,9.714v137.598C248.091,256.93,243.742,261.279,238.376,261.279z"/>
<path style="fill:#F44E72;" d="M411.225,321.82H273.627c-5.365,0-9.714-4.349-9.714-9.714V113.967c0-5.365,4.349-9.714,9.714-9.714
	h137.598c5.365,0,9.714,4.349,9.714,9.714v198.138C420.939,317.471,416.59,321.82,411.225,321.82z"/>
<path style="fill:#51B0E0;" d="M420.94,345.066v106.705c-42.674,35.997-97.28,58.295-157.027,60.102V345.066
	c0-5.371,4.347-9.718,9.707-9.718h137.613C416.594,335.349,420.94,339.696,420.94,345.066z"/>
<path style="fill:#FFCF4B;" d="M238.376,402.511H100.778c-5.365,0-9.714-4.349-9.714-9.714V285.468c0-5.365,4.349-9.714,9.714-9.714
	h137.598c5.365,0,9.714,4.349,9.714,9.714v107.329C248.091,398.162,243.742,402.511,238.376,402.511z"/>
<path style="fill:#F44E72;" d="M248.083,427.247v84.626c-59.747-1.808-114.353-24.106-157.016-60.102v-24.524
	c0-5.36,4.347-9.717,9.707-9.717h137.602C243.737,417.53,248.083,421.887,248.083,427.247z"/>
<circle style="fill:#FFCF4B;" cx="342.423" cy="183.411" r="59.534"/>
<g>
	<polygon style="fill:#F9F9F9;" points="342.426,215.701 317.674,190.949 322.847,185.777 342.426,205.358 362.005,185.777 
		367.176,190.949 	"/>
	<rect x="338.766" y="210.526" style="fill:#F9F9F9;" width="7.314" height="55.682"/>
</g>
<path style="fill:#535B70;" d="M371.187,256.347c6.331,0,11.464-5.133,11.464-11.464c0-6.331-5.133-11.464-11.464-11.464h-56.034
	c-6.331,0-11.464,5.133-11.464,11.464s5.133,11.464,11.464,11.464c-6.331,0-11.464,5.133-11.464,11.464l0,0
	c0,6.331,5.133,11.464,11.464,11.464h7.569c-6.331,0-11.464,5.133-11.464,11.464l0,0c0,6.331,5.133,11.464,11.464,11.464h40.894
	c6.331,0,11.464-5.133,11.464-11.464l0,0c0-6.331-5.133-11.464-11.464-11.464h7.569c6.331,0,11.464-5.133,11.464-11.464l0,0
	C382.65,261.48,377.518,256.347,371.187,256.347z"/>
<g>
</g>
<g>
</g>
<g>
</g>
<g>
</g>
<g>
</g>
<g>
</g>
<g>
</g>
<g>
</g>
<g>
</g>
<g>
</g>
<g>
</g>
<g>
</g>
<g>
</g>
<g>
</g>
<g>
</g>
</svg>
