<?xml version="1.0" encoding="iso-8859-1"?>
<!-- Generator: Adobe Illustrator 19.0.0, SVG Export Plug-In . SVG Version: 6.00 Build 0)  -->
<svg version="1.1" id="Capa_1" xmlns="http://www.w3.org/2000/svg" xmlns:xlink="http://www.w3.org/1999/xlink" x="0px" y="0px"
	 viewBox="0 0 456 456" style="enable-background:new 0 0 456 456;" xml:space="preserve">
<polygon style="fill:#999999;" points="396,408 372,456 84,456 60,408 "/>
<path style="fill:#808080;" d="M356,344h-16v-16h16c17.673,0,32-14.327,32-32v-88h-48v-16h56c4.418,0,8,3.582,8,8v96
	C403.974,322.499,382.499,343.974,356,344z"/>
<polygon style="fill:#B3B3B3;" points="308,424 52,424 36,392 420,392 404,424 356,424 "/>
<path style="fill:#E6E6E6;" d="M316.112,392H140c-22.091,0-40-17.909-40-40V168h256l0.12,184c0,22.091-17.909,40-40,40
	C316.117,392,316.115,392,316.112,392z"/>
<rect x="188" y="168" style="fill:#F15A24;" width="16" height="152"/>
<rect x="173.355" y="305.371" transform="matrix(-0.7071 0.7071 -0.7071 -0.7071 566.4946 421.3481)" style="fill:#F7931E;" width="45.256" height="45.256"/>
<path style="fill:#29ABE2;" d="M148,144h-16c0.026-22.08,17.92-39.974,40-40h148c6.627,0,12-5.373,12-12c0-6.627-5.373-12-12-12H192
	c-15.464,0-28-12.536-28-28s12.536-28,28-28h68c13.255,0,24-10.745,24-24h16c-0.026,22.08-17.92,39.974-40,40h-68
	c-6.627,0-12,5.373-12,12s5.373,12,12,12h128c15.464,0,28,12.536,28,28s-12.536,28-28,28H172C158.745,120,148,130.745,148,144z"/>
<g>
</g>
<g>
</g>
<g>
</g>
<g>
</g>
<g>
</g>
<g>
</g>
<g>
</g>
<g>
</g>
<g>
</g>
<g>
</g>
<g>
</g>
<g>
</g>
<g>
</g>
<g>
</g>
<g>
</g>
</svg>
