<?xml version="1.0" encoding="iso-8859-1"?>
<!-- Generator: Adobe Illustrator 19.0.0, SVG Export Plug-In . SVG Version: 6.00 Build 0)  -->
<svg version="1.1" id="Layer_1" xmlns="http://www.w3.org/2000/svg" xmlns:xlink="http://www.w3.org/1999/xlink" x="0px" y="0px"
	 viewBox="0 0 392.598 392.598" style="enable-background:new 0 0 392.598 392.598;" xml:space="preserve">
<path style="fill:#FFFFFF;" d="M21.818,359.822c0,6.012,4.848,10.925,10.925,10.925h327.111c6.012,0,10.925-4.848,10.925-10.925
	V106.731H21.818V359.822z"/>
<path style="fill:#56ACE0;" d="M370.78,32.711c0-6.012-4.848-10.925-10.925-10.925H32.743c-6.012,0-10.925,4.848-10.925,10.925
	v52.17H370.78L370.78,32.711L370.78,32.711z"/>
<path style="fill:#FFC10D;" d="M43.604,128.517v12.994h36.461c6.012,0,10.925,4.848,10.925,10.925
	c0,6.012-4.848,10.925-10.925,10.925H43.604v18.489h22.949c6.012,0,10.925,4.848,10.925,10.925s-4.848,10.925-10.925,10.925H43.604
	v145.325h305.325V128.517H43.604z"/>
<g>
	<path style="fill:#194F82;" d="M51.62,266.214c0,32.517,25.018,54.238,55.919,54.238c16.226,0,30.384-6.723,42.343-20.234
		l-15.063-15.515c-7.305,9.05-16.743,13.705-28.315,13.705c-18.36,0-30.513-16.162-30.513-32.517
		c0-19.523,15.321-32.065,32.129-32.065c11.055,0,20.299,4.655,27.733,13.899l14.61-16.614
		c-11.636-13.188-26.182-19.782-43.507-19.782C74.958,211.329,51.62,236.735,51.62,266.214z"/>
	<path style="fill:#194F82;" d="M216.727,296.792c-2.651,1.681-5.883,2.78-10.214,2.78c-9.632,0-20.17-4.913-31.547-14.933
		l-14.093,17.261c13.382,12.347,28.444,18.554,45.123,18.554c11.572,0,20.816-3.038,27.992-8.792
		c14.287-11.507,13.317-35.62,2.327-44.606c-5.689-4.719-13.317-8.663-23.337-11.119c-10.02-2.457-16.226-4.913-19.135-6.4
		c-4.396-2.133-6.4-10.214-0.776-14.675c2.327-1.875,5.301-2.78,9.244-2.78c9.762,0,19.265,3.491,28.38,10.408l11.895-17.261
		c-5.236-4.396-20.493-13.899-39.564-13.899c-10.731,0-19.653,2.909-26.958,8.145c-15.321,10.925-12.541,37.236-2.263,45.188
		c5.818,4.59,14.675,8.469,26.958,11.378c7.758,1.939,12.994,3.685,15.515,5.624C223.838,287.289,219.895,294.788,216.727,296.792z"
		/>
	<path style="fill:#194F82;" d="M312.986,296.792c-2.651,1.681-5.883,2.78-10.214,2.78c-9.632,0-20.17-4.913-31.547-14.933
		l-14.093,17.261c13.382,12.347,28.444,18.554,45.123,18.554c11.572,0,20.816-3.038,27.992-8.792
		c14.287-11.507,13.317-35.62,2.327-44.606c-5.689-4.719-13.317-8.663-23.337-11.119c-10.02-2.457-16.226-4.913-19.135-6.4
		c-4.396-2.133-6.4-10.214-0.776-14.675c2.327-1.875,5.301-2.78,9.244-2.78c9.762,0,19.265,3.491,28.38,10.408l11.895-17.261
		c-5.236-4.396-20.493-13.899-39.564-13.899c-10.731,0-19.653,2.909-26.958,8.145c-15.321,10.925-12.541,37.236-2.263,45.188
		c5.818,4.59,14.675,8.469,26.958,11.378c7.758,1.939,12.994,3.685,15.515,5.624C320.097,287.289,316.154,294.788,312.986,296.792z"
		/>
	<path style="fill:#194F82;" d="M359.855,0H32.743C14.707,0,0.032,14.675,0.032,32.711v327.111
		c0,18.101,14.675,32.776,32.711,32.776h327.111c18.036,0,32.711-14.675,32.711-32.711V32.711C392.566,14.675,377.891,0,359.855,0z
		 M21.818,32.711c0-6.012,4.848-10.925,10.925-10.925h327.111c6.012,0,10.925,4.848,10.925,10.925v52.17H21.818V32.711z
		 M370.78,359.822L370.78,359.822c0,6.012-4.848,10.925-10.925,10.925H32.743c-6.012,0-10.925-4.848-10.925-10.925V106.731H370.78
		L370.78,359.822L370.78,359.822z"/>
	<path style="fill:#194F82;" d="M75.216,40.533H58.279c-6.012,0-10.925,4.848-10.925,10.925s4.848,10.925,10.925,10.925h16.937
		c6.012,0,10.925-4.848,10.925-10.925S81.228,40.533,75.216,40.533z"/>
	<path style="fill:#194F82;" d="M138.828,40.533h-16.937c-6.012,0-10.925,4.848-10.925,10.925s4.848,10.925,10.925,10.925h16.937
		c5.947,0,10.925-4.848,10.925-10.925S144.84,40.533,138.828,40.533z"/>
	<path style="fill:#194F82;" d="M204.768,40.533h-17.002c-6.012,0-10.925,4.848-10.925,10.925s4.848,10.925,10.925,10.925h17.002
		c6.012,0,10.925-4.848,10.925-10.925S210.844,40.533,204.768,40.533z"/>
</g>
<g>
</g>
<g>
</g>
<g>
</g>
<g>
</g>
<g>
</g>
<g>
</g>
<g>
</g>
<g>
</g>
<g>
</g>
<g>
</g>
<g>
</g>
<g>
</g>
<g>
</g>
<g>
</g>
<g>
</g>
</svg>
