<svg id="Layer_1_1_" enable-background="new 0 0 64 64" height="512" viewBox="0 0 64 64" width="512" xmlns="http://www.w3.org/2000/svg"><path d="m2 2h60v6h-60z" fill="#50b6cf"/><path d="m5 8h54v45h-54z" fill="#ded8d0"/><path d="m59 25c-11.04386 11.18497-28.39504 19.43565-54 21.79639v6.20361h54z" fill="#c9c4bd"/><path d="m2 53h60v4h-60z" fill="#50b6cf"/><path d="m28.37598 48h-11.37598v-2h10.62402l8.32764-7.28613 8 6 7.38965-6.4668 1.31738 1.50586-8.61035 7.5332-8-6z" fill="#223b5a"/><circle cx="28" cy="47" fill="#e34e4b" r="2"/><circle cx="36" cy="40" fill="#e34e4b" r="2"/><circle cx="44" cy="46" fill="#e34e4b" r="2"/><circle cx="52" cy="39" fill="#e34e4b" r="2"/><circle cx="20" cy="23" fill="#f5a947" r="6"/><path d="m24.24268 18.75732c-1.08582-1.08575-2.58582-1.75732-4.24268-1.75732v6z" fill="#50b6cf"/><path d="m35 25h4v6h-4z" fill="#f5a947"/><path d="m39 19h4v12h-4z" fill="#f09d3a"/><path d="m43 22h4v9h-4z" fill="#f5a947"/><path d="m47 14h4v17h-4z" fill="#f09d3a"/><g fill="#223b5a"><path d="m34 62h-4c-1.6543 0-3-1.3457-3-3v-2h2v2c0 .55176.44873 1 1 1h4c.55127 0 1-.44824 1-1v-2h2v2c0 1.6543-1.3457 3-3 3z"/><path d="m20 34c-6.06543 0-11-4.93457-11-11h2c0 4.96289 4.0376 9 9 9s9-4.03711 9-9-4.0376-9-9-9v-2c6.06543 0 11 4.93457 11 11s-4.93457 11-11 11z"/><path d="m32 30h22v2h-22z"/><path d="m13 46h2v2h-2z"/><path d="m9 46h2v2h-2z"/></g></svg>