<?xml version="1.0" encoding="iso-8859-1"?>
<!-- Generator: Adobe Illustrator 19.0.0, SVG Export Plug-In . SVG Version: 6.00 Build 0)  -->
<svg version="1.1" id="Layer_1" xmlns="http://www.w3.org/2000/svg" xmlns:xlink="http://www.w3.org/1999/xlink" x="0px" y="0px"
	 viewBox="0 0 512 512" style="enable-background:new 0 0 512 512;" xml:space="preserve">
<path style="fill:#494A59;" d="M330.896,377.57H76.67v54.412h254.226c15.025,0,27.206-12.18,27.206-27.206l0,0
	C358.102,389.75,345.921,377.57,330.896,377.57z"/>
<path style="fill:#515262;" d="M315.476,458.881h-19.253V377.57h-64.653v81.311h-19.254c-29.336,0-53.119,23.782-53.119,53.119l0,0
	h209.397l0,0C368.596,482.663,344.814,458.881,315.476,458.881z"/>
<path style="fill:#65667A;" d="M215.012,327.836v114.487c0,9.146,7.414,16.559,16.559,16.559c9.146,0,16.558-7.414,16.558-16.559
	v-31.928c0-8.921,6.856-16.597,15.768-17.018c9.515-0.448,17.37,7.133,17.37,16.55v32.396c0,9.146,7.414,16.559,16.559,16.559l0,0
	c9.146,0,16.559-7.414,16.559-16.559V327.836H215.012z"/>
<rect x="215.012" y="327.835" style="opacity:0.1;enable-background:new    ;" width="99.373" height="44.802"/>
<path style="fill:#B6BBDB;" d="M414.685,35.746H114.71c-9.377,0-16.979,7.601-16.979,16.979v275.863
	c0,9.376,7.601,16.979,16.979,16.979h299.976c9.376,0,16.979-7.601,16.979-16.979V52.724
	C431.664,43.348,424.063,35.746,414.685,35.746z"/>
<path style="fill:#C9CFF2;" d="M122.64,328.588V52.725c0-9.377,7.601-16.979,16.979-16.979H114.71
	c-9.377,0-16.979,7.601-16.979,16.979v275.863c0,9.376,7.601,16.978,16.979,16.978h24.908
	C130.241,345.566,122.64,337.965,122.64,328.588z"/>
<path style="opacity:0.1;enable-background:new    ;" d="M414.685,35.746H270.094v125.611c0,22.65,18.428,41.077,41.077,41.077
	h120.494V52.725C431.664,43.348,424.063,35.746,414.685,35.746z"/>
<path style="fill:#515262;" d="M458.524,0H311.17c-7.733,0-14.003,6.269-14.003,14.003v147.353c0,7.733,6.269,14.003,14.003,14.003
	h147.353c7.733,0,14.003-6.269,14.003-14.003V14.003C472.528,6.269,466.258,0,458.524,0z"/>
<circle style="fill:#494A59;" cx="384.853" cy="87.68" r="59.054"/>
<circle style="fill:#FF8080;" cx="384.853" cy="87.68" r="26.382"/>
<path style="fill:#B9E578;" d="M244.952,71.61h-97.712c-6.835,0-12.374,5.54-12.374,12.374v87.182
	c0,6.835,5.54,12.374,12.374,12.374h97.712c6.835,0,12.374-5.54,12.374-12.374V83.984C257.327,77.149,251.786,71.61,244.952,71.61z"
	/>
<path style="fill:#CFFF86;" d="M244.952,71.61h-97.712c-6.835,0-12.374,5.54-12.374,12.374v16.244
	c0-6.835,5.54-12.374,12.374-12.374h97.712c6.835,0,12.374,5.54,12.374,12.374V83.984C257.327,77.149,251.786,71.61,244.952,71.61z"
	/>
<circle style="fill:#515262;" cx="196.093" cy="257.312" r="45.103"/>
<path style="fill:#65667A;" d="M172.652,257.319c0-21.175,14.596-38.935,34.274-43.785c-3.47-0.856-7.096-1.318-10.83-1.318
	c-24.91,0-45.103,20.193-45.103,45.103s20.193,45.103,45.103,45.103c3.734,0,7.36-0.462,10.83-1.318
	C187.248,296.252,172.652,278.494,172.652,257.319z"/>
<circle style="fill:#FF8080;" cx="285.502" cy="283.032" r="19.384"/>
<path style="fill:#A3A7C4;" d="M405.481,229.583H297.168c-4.486,0-8.122-3.637-8.122-8.122s3.637-8.122,8.122-8.122h108.314
	c4.486,0,8.122,3.637,8.122,8.122S409.967,229.583,405.481,229.583z"/>
<path style="opacity:0.1;enable-background:new    ;" d="M76.67,431.981h45.536c1.692-6.692,2.599-13.693,2.599-20.902v-12.607
	c0-7.21-0.908-14.211-2.599-20.903H76.67V431.981z"/>
<path style="fill:#515262;" d="M39.473,340.214L39.473,340.214v129.123l0,0c32.175,0,58.258-26.083,58.258-58.258v-12.606
	C97.731,366.297,71.648,340.214,39.473,340.214z"/>
<path style="fill:#65667A;" d="M39.473,340.214L39.473,340.214v24.908l0,0c30.097,0,54.86,22.823,57.933,52.107
	c0.212-2.022,0.326-4.073,0.326-6.151v-12.606C97.731,366.297,71.648,340.214,39.473,340.214z"/>
<g>
</g>
<g>
</g>
<g>
</g>
<g>
</g>
<g>
</g>
<g>
</g>
<g>
</g>
<g>
</g>
<g>
</g>
<g>
</g>
<g>
</g>
<g>
</g>
<g>
</g>
<g>
</g>
<g>
</g>
</svg>
