<svg id="Gradient" height="512" viewBox="0 0 512 512" width="512" xmlns="http://www.w3.org/2000/svg" xmlns:xlink="http://www.w3.org/1999/xlink"><linearGradient id="linear-gradient" gradientUnits="userSpaceOnUse" x1="256" x2="256" y1="496" y2="16"><stop offset="0" stop-color="#12c2e9"/><stop offset=".5" stop-color="#c471ed"/><stop offset="1" stop-color="#f64f59"/></linearGradient><path d="m416 496a40.045 40.045 0 0 0 40-40v-400a40.045 40.045 0 0 0 -40-40h-320a40.045 40.045 0 0 0 -40 40v400a40.045 40.045 0 0 0 40 40zm-344-40v-400a24.028 24.028 0 0 1 24-24h320a24.028 24.028 0 0 1 24 24v400a24.028 24.028 0 0 1 -24 24h-320a24.028 24.028 0 0 1 -24-24zm344-24a8 8 0 0 0 8-8v-368a8 8 0 0 0 -8-8h-320a8 8 0 0 0 -8 8v368a8 8 0 0 0 8 8zm-280-368h48v88l-19.2-14.4a8 8 0 0 0 -9.6 0l-19.2 14.4zm-32 0h16v104a8 8 0 0 0 12.8 6.4l27.2-20.4 27.2 20.4a8 8 0 0 0 12.8-6.4v-104h208v352h-304zm288 104a8 8 0 0 1 -8 8h-160a8 8 0 0 1 0-16h160a8 8 0 0 1 8 8zm0 32a8 8 0 0 1 -8 8h-256a8 8 0 0 1 0-16h256a8 8 0 0 1 8 8zm-272 32a8 8 0 0 1 8-8h64a8 8 0 0 1 0 16h-64a8 8 0 0 1 -8-8zm104 8a8 8 0 0 1 0-16h80a8 8 0 0 1 0 16zm168-8a8 8 0 0 1 -8 8h-48a8 8 0 0 1 0-16h48a8 8 0 0 1 8 8zm0 96a8 8 0 0 1 -8 8h-64a8 8 0 0 1 0-16h64a8 8 0 0 1 8 8zm-192 0a8 8 0 0 1 8-8h80a8 8 0 0 1 0 16h-80a8 8 0 0 1 -8-8zm-80 0a8 8 0 0 1 8-8h48a8 8 0 0 1 0 16h-48a8 8 0 0 1 -8-8zm0-64a8 8 0 0 1 8-8h128a8 8 0 0 1 0 16h-128a8 8 0 0 1 -8-8zm256 96a8 8 0 0 1 -8 8h-240a8 8 0 0 1 0-16h240a8 8 0 0 1 8 8zm16-96a8 8 0 0 1 -8 8h-96a8 8 0 0 1 0-16h96a8 8 0 0 1 8 8zm-272 32a8 8 0 0 1 8-8h56a8 8 0 0 1 0 16h-56a8 8 0 0 1 -8-8zm72 96a8 8 0 0 1 -8 8h-56a8 8 0 0 1 0-16h56a8 8 0 0 1 8 8zm200-96a8 8 0 0 1 -8 8h-168a8 8 0 0 1 0-16h168a8 8 0 0 1 8 8zm-128 96a8 8 0 0 1 -8 8h-40a8 8 0 0 1 0-16h40a8 8 0 0 1 8 8zm-48-288a8 8 0 0 1 8-8h64a8 8 0 0 1 0 16h-64a8 8 0 0 1 -8-8zm176 32a8 8 0 0 1 -8 8h-160a8 8 0 0 1 0-16h160a8 8 0 0 1 8 8z" fill="url(#linear-gradient)"/></svg>