<svg height="512pt" viewBox="-57 0 512 512" width="512pt" xmlns="http://www.w3.org/2000/svg"><path d="m198.5625 512c-54.25 0-103.824219-16.964844-139.585938-47.773438-38.582031-33.234374-58.976562-79.589843-58.976562-134.054687 0-46.570313 31.789062-115.695313 94.484375-205.453125 45.824219-65.605469 92.3125-119.046875 92.773437-119.578125 5.890626-6.75 16.71875-6.75 22.609376 0 .460937.53125 46.949218 53.972656 92.773437 119.578125 62.695313 89.757812 94.484375 158.882812 94.484375 205.453125 0 54.46875-20.394531 100.824219-58.976562 134.058594-35.757813 30.804687-85.332032 47.769531-139.585938 47.769531zm0 0" fill="#ef5f3c"/><path d="m302.640625 124.71875c-45.824219-65.605469-92.308594-119.046875-92.773437-119.578125-2.847657-3.265625-6.972657-5.140625-11.304688-5.140625v512c54.253906 0 103.828125-16.964844 139.589844-47.773438 38.582031-33.234374 58.972656-79.589843 58.972656-134.054687 0-46.570313-31.789062-115.695313-94.484375-205.453125zm0 0" fill="#ec380b"/><path d="m289.210938 422.40625c-4.21875 0-8.40625-1.769531-11.375-5.210938-5.40625-6.277343-4.699219-15.75 1.574218-21.15625 18.390625-15.839843 27.714844-38 27.714844-65.867187 0-8.285156 6.714844-15 15-15s15 6.714844 15 15c0 36.992187-12.828125 66.800781-38.132812 88.597656-2.832032 2.441407-6.316407 3.636719-9.78125 3.636719zm0 0" fill="#fff"/></svg>