<svg id="Capa_1" enable-background="new 0 0 512 512" height="512" viewBox="0 0 512 512" width="512" xmlns="http://www.w3.org/2000/svg"><g><g><path clip-rule="evenodd" d="m427.187 49.522c92.277 92.279 95.314 240.014 9.14 335.944-76.279 54.249-172.844 80.014-172.786 81.037-65.528 2.453-131.874-21.347-181.926-71.4-18.485-18.456-33.377-39.16-44.678-61.208-9.082-17.726-5.285-21.347 10.513-9.52 86.466 64.596 209.492 57.616 288.073-20.938 78.552-78.584 85.531-201.613 20.908-288.081-11.797-15.798-8.176-19.595 9.52-10.513 22.077 11.33 42.781 26.223 61.236 44.679z" fill="#fde588" fill-rule="evenodd"/></g><g><path clip-rule="evenodd" d="m193.574 147.613c-29.932 0-54.227 24.267-54.227 54.229 0 2.92.234 5.782.672 8.556-13.696 3.212-23.916 15.506-23.916 30.166 0 17.113 13.871 31.013 30.983 31.013h100.716c25.668 0 46.489-20.821 46.489-46.49s-20.821-46.49-46.489-46.49c-1.723 0-3.417.088-5.081.292-8.644-18.485-27.391-31.276-49.147-31.276z" fill="#eff6ff" fill-rule="evenodd"/></g><g><path clip-rule="evenodd" d="m363.995 352.906c20.821 0 38.634 12.761 46.022 30.896 3.446-.964 7.038-1.46 10.775-1.46 5.519 0 10.775 1.11 15.535 3.125 12.586 5.315 21.872 16.879 23.974 30.808 26.427 0 47.861 21.435 47.861 47.863s-21.434 47.863-47.861 47.863h-148.256c-25.814 0-46.898-20.091-48.504-45.497-.058-1.022-.088-2.044-.088-3.066 0-16.091 7.826-30.37 19.886-39.19-.876-3.183-1.343-6.541-1.343-9.987 0-20.442 16.557-37.029 37.028-37.029.73 0 1.46.029 2.19.058 8.644-14.602 24.588-24.384 42.781-24.384z" fill="#eff6ff" fill-rule="evenodd"/></g><g><path clip-rule="evenodd" d="m281.617 12.61 15.36 30.283 30.282 15.331c4.088 2.073 4.059 3.621-.029 5.694l-30.253 15.332-15.331 30.254c-2.073 4.088-3.621 4.118-5.694.029l-15.331-30.283-30.282-15.36c-4.088-2.073-4.088-3.592 0-5.665l30.282-15.331 15.331-30.283c2.073-4.089 3.592-4.089 5.665-.001z" fill="#fde588" fill-rule="evenodd"/></g><g><path clip-rule="evenodd" d="m58.196 73.848 15.36 30.283 30.282 15.36c4.088 2.073 4.059 3.592-.029 5.665l-30.253 15.36-15.36 30.254c-2.073 4.088-3.592 4.118-5.665.029l-15.36-30.283-30.282-15.36c-4.088-2.073-4.059-3.592.029-5.665l30.253-15.36 15.36-30.254c2.073-4.088 3.592-4.118 5.665-.029z" fill="#fde588" fill-rule="evenodd"/></g><g><path clip-rule="evenodd" d="m436.327 385.466c86.174-95.93 83.137-243.664-9.14-335.944-18.455-18.456-39.159-33.349-61.236-44.68-17.696-9.082-21.317-5.286-9.52 10.513 10.454 13.988 33.553 28.94 43.598 44.504 69.646 107.727 81.034 199.189 1.811 310.509 3.387 3.972 6.161 8.527 8.176 13.433 3.446-.964 7.038-1.46 10.775-1.46 5.52.001 10.776 1.11 15.536 3.125z" fill="#fdd76f" fill-rule="evenodd"/></g><g><path clip-rule="evenodd" d="m508.163 464.137c0-26.428-21.434-47.863-47.861-47.863-2.103-13.93-11.389-25.494-23.974-30.808-4.76-2.015-10.016-3.125-15.535-3.125-3.738 0-7.33.496-10.775 1.46-2.015-4.906-4.789-9.462-8.176-13.433-9.111-10.688-22.69-17.463-37.845-17.463-15.594 0-29.494 7.155-38.604 18.397 41.933 11.36 72.537 46.928 72.537 89.067 0 19.098-6.278 36.883-17.083 51.63h79.457c26.425.001 47.859-21.434 47.859-47.862z" fill="#d9eeff" fill-rule="evenodd"/></g><g><path clip-rule="evenodd" d="m247.802 271.577c25.668 0 46.489-20.821 46.489-46.49s-20.821-46.49-46.489-46.49c-1.723 0-3.417.088-5.081.292-8.644-18.485-27.391-31.276-49.146-31.276-5.811 0-11.418.905-16.674 2.628 21.288 13.024 35.655 37.759 35.655 66.114 0 21.756-8.468 41.351-21.989 55.222z" fill="#d9eeff" fill-rule="evenodd"/></g></g></svg>