<svg id="Capa_1" enable-background="new 0 0 492.293 492.293" height="512" viewBox="0 0 492.293 492.293" width="512" xmlns="http://www.w3.org/2000/svg"><g><path d="m458.613 132.53 3.021-8.398-58.438-33.727-8.177 1.577-9.243-2.342 2.344-7.937-64.304-37.112-5.698 1.551-10.417-3.271 1.137-6.925-61.497-35.49c-1.07-.61-2.37-.61-3.43.01l-59.071 34.74 2.378 7.997-7.047 3.834-10.065-3.166-62.976 37.037 1.706 5.482-7.998 4.624-8.472-1.423-61.395 36.107 1.846 7.158-2.724 1.81 215.527 123.2 216.46-124.924c-2.024-.234-3.467-.412-3.467-.412z" fill="#fef056"/><path d="m272.813 448.526-7.629-168.51-19.563-22.15-4.85-18.377-188.391-101.265-16.932-4.313-12.646 4.162v61.399l5.338 4.761-.492 9.771-4.846 2.766v61.602l3.2 7.096-.605 9.811-2.594.323v67.874c0 1.22.66 2.35 1.72 2.95l60.527 34.6 1.929-2.711 12.038 8.501 1.033 2.785 63.149 36.099 3.846-2.381 9.448 6.541 1.706 4.414 65.723 37.571c.58.33 1.23.48 1.87.44l-.002-3.24z" fill="#a6e7f0"/><path d="m245.603 405.024-67.405-38.531v-60.625l63.701 36.413c1.153.659 2.438.989 3.722.989v-16.159l-.018.01-67.405-38.531v-60.626l63.701 36.413c1.153.659 2.438.989 3.722.989v-7.5l-222.37-127.1c-.29.5-.45 1.08-.45 1.68v5.627l62.247 36.053v61.217l-62.247-35.872v17.298l62.247 35.85v60.625l-62.247-34.874v17.23l62.247 34.921v70.503l15 8.575v-70.503l63.149 36.098v70.505l15 8.575v-70.505l63.701 36.413c1.153.659 2.438.989 3.722.989v-16.159zm-82.405-47.105-63.149-36.098v-60.625l63.149 36.098zm0-77.903-63.149-36.098v-61.104l63.149 36.576z" fill="#efedef"/><path d="m469.491 136.786-5.642-2.023-218.228 130.588.17 226.935c.53-.02 1.04-.17 1.52-.45l65.732-37.934 1.976-5.686 10.846-5.661 2.179 2.69 63.148-36.443 2.217-4.268 10.761-5.434 2.022 1.045 61.599-35.549c1.05-.61 1.7-1.73 1.7-2.94v-69.522l-2.375-.223-.708-12.599 3.083-4.576v-58.592l-1.775-.39-1.515-11.683 3.29-5.163z" fill="#fd8087"/><path d="m469.491 274.736-63.299 37.608v-60.585l63.299-35.615v-17.237l-63.299 35.533v-60.968l63.299-36.686v-6.16c0-.6-.16-1.19-.46-1.7l-1.1.64-222.31 128.3v7.5c1.295 0 2.588-.335 3.749-1.004l63.674-36.903v60.741l-67.422 38.911v16.159c1.295 0 2.588-.335 3.749-1.004l63.674-36.748v60.585l-67.422 38.911v16.159c1.295 0 2.588-.335 3.749-1.004l63.674-36.748v70.481l15-8.656v-70.481l63.148-36.444v70.482l15-8.656v-70.483l63.299-37.528v-17.4zm-78.299 46.265-63.148 36.445v-60.585l63.148-36.444zm0-77.903-63.148 36.445v-60.778l63.148-36.599z" fill="#efedef"/><path d="m134.448 105.026c55.722-32.938 145.438-85.787 145.438-85.787l-32.545-18.783c-1.07-.61-2.37-.61-3.43.01l-59.071 34.74v6.122l-8.568 3.168-6.166-.625-62.976 37.037.273 4.358-7.039 5.401-7.998-1.077-61.395 36.107 3.75 7.184 215.339 120.566 28.13-15.775-143.367-81.942c-19.533-11.164-19.742-39.255-.375-50.704z" fill="#fee903"/><path d="m469.031 128.926c-.29-.5-.72-.94-1.24-1.24l-6.157-3.553-62.94 36.732-60.018-34.68 64.52-35.779-15.076-8.701-64.417 35.828-62.988-36.396 63.1-36.544-14.978-8.645-63.079 36.547-60.918-37.288-14.734 8.665 60.731 37.324-62.814 36.632-60.893-36.919-14.763 8.683 60.735 36.938-60.454 35.255-61.676-36.086-6.491 3.817c-.52.31-.95.74-1.23 1.25l222.37 127.1 222.31-128.3zm-223.237-39.088 62.955 36.377-62.957 36.552-62.812-36.297zm-138.109 80.542 60.373-35.208 62.779 36.278-60.168 34.933zm137.918 78.837-59.881-34.229 60.087-34.886 59.737 34.52zm74.943-43.251-59.782-34.546 62.958-36.553 59.973 34.654z" fill="#f9f7f8"/><g><g><g><path d="m271.868 234.06-26.264 15.158-59.881-34.229 26.182-15.201-15.054-8.604-26.181 15.201-62.984-36.003 26.158-15.255c-4.687-2.916-8.181-6.835-10.478-11.254l-30.718 17.914-61.676-36.086-6.491 3.817c-.52.31-.95.74-1.23 1.25l222.37 127.1 33.785-19.498z" fill="#efedef"/></g><g><path d="m134.448 105.026c2.057-1.216 4.166-2.462 6.31-3.729l-33.628-20.388-14.763 8.683 34.986 21.278c1.97-2.22 4.325-4.206 7.095-5.844z" fill="#efedef"/></g><g><path d="m179.672 38.246-9.565 5.626 33.285 20.457c5.018-2.96 9.965-5.877 14.783-8.718l-33.335-20.404z" fill="#efedef"/></g></g></g></g></svg>