<svg height="512" viewBox="0 0 64 64" width="512" xmlns="http://www.w3.org/2000/svg"><g id="sys-file_format-type-computer" data-name="sys-file format-type-computer"><path d="m21 7h40v54h-40z" fill="#ff7956"/><path d="m49 7 8 8h-10a2.006 2.006 0 0 1 -2-2v-10z" fill="#ffda44"/><path d="m57 15v42h-40v-54h28v10a2.006 2.006 0 0 0 2 2z" fill="#ffeb99"/><path d="m3 22h50v20h-50z" fill="#2488ff"/><path d="m17 42h37v1h-37z" fill="#bfb073"/><path d="m53 23h1v20h-1z" fill="#bfb073"/><path d="m21 57h37v1h-37z" fill="#bf5b41"/><path d="m58 58h-1v-42l1 1z" fill="#bf5b41"/><path d="m57 15v1h-8a2 2 0 0 1 -1.73-1z" fill="#bfb073"/><g fill="#fff"><path d="m20 25h-8a1 1 0 0 0 -1 1v6a1 1 0 0 0 1 1h7v4h-6v-2h-2v3a1 1 0 0 0 1 1h8a1 1 0 0 0 1-1v-6a1 1 0 0 0 -1-1h-7v-4h6v2h2v-3a1 1 0 0 0 -1-1z"/><path d="m44 25h-8a1 1 0 0 0 -1 1v6a1 1 0 0 0 1 1h7v4h-6v-2h-2v3a1 1 0 0 0 1 1h8a1 1 0 0 0 1-1v-6a1 1 0 0 0 -1-1h-7v-4h6v2h2v-3a1 1 0 0 0 -1-1z"/><path d="m32 25h-3v2h1.132l-2.132 3.2-2.132-3.2h1.132v-2h-3a1 1 0 0 0 -.832 1.555l3.832 5.745v6.7h2v-6.7l3.832-5.748a1 1 0 0 0 -.832-1.552z"/></g></g></svg>