<?xml version="1.0" ?><svg enable-background="new 0 0 24 24" id="Layer_1" version="1.1" viewBox="0 0 24 24" xml:space="preserve" xmlns="http://www.w3.org/2000/svg" xmlns:xlink="http://www.w3.org/1999/xlink"><g><circle cx="2.5" cy="12" fill="#F26722" id="XMLID_1320_" r="2.5"/><circle cx="19.5" cy="2.5" fill="#C90016" id="XMLID_1319_" r="2.5"/><circle cx="19.5" cy="21.5" fill="#FDB714" id="XMLID_1318_" r="2.5"/><path d="M19.5,19.25c1.1638184,0,2.1394882,0.7516365,2.4614487,1.8102913   C21.7624741,19.8787117,20.7382202,19,19.5,19s-2.2638092,0.8863029-2.4627838,2.0678825   C17.3591766,20.0092278,18.3361816,19.25,19.5,19.25z" fill="#FFFFFF" opacity="0.2"/><path d="M19.5,23.75c-1.1638184,0-2.1394882-0.7516365-2.4614487-1.8102913   C17.2375259,23.1212883,18.2617798,24,19.5,24s2.2638092-0.8863029,2.4627838-2.0678825   C21.6408234,22.9907722,20.6638184,23.75,19.5,23.75z" opacity="0.1"/><path d="M19.5,0.25c1.1638184,0,2.1394882,0.7516358,2.4614487,1.8102906   C21.7624741,0.878711,20.7382202,0,19.5,0s-2.2638092,0.886302-2.4627838,2.0678816   C17.3591766,1.0092268,18.3361816,0.25,19.5,0.25z" fill="#FFFFFF" opacity="0.2"/><path d="M19.5,4.75c-1.1638184,0-2.1394882-0.7516358-2.4614487-1.8102906C17.2375259,4.1212893,18.2617798,5,19.5,5   s2.2638092-0.886302,2.4627838-2.0678816C21.6408234,3.9907732,20.6638184,4.75,19.5,4.75z" opacity="0.1"/><path d="M11.9499512,7.4492798C12.5769043,7.1662598,13.2674561,7,14,7   c2.5901489,0,4.6953125,1.9768677,4.949585,4.5H24c-0.116272-2.3444214-1.0601196-4.4726562-2.5187988-6.119873   C20.9171143,5.7694092,20.2355957,6,19.5,6C17.5703125,6,16,4.4296875,16,2.5c0-0.1004028,0.0213623-0.1948853,0.0296631-0.2931519   C15.3741455,2.0717163,14.6954956,2,14,2c-1.6433105,0-3.1897583,0.4038086-4.5574951,1.1062012L11.9499512,7.4492798z" fill="#F26722"/><path d="M11.0855713,16.0479736C9.8270264,15.1399536,9,13.6704102,9,12s0.8270264-3.1399536,2.0855713-4.0479736   L8.576416,3.6060791C6.6168213,4.8748779,5.1278687,6.805603,4.43396,9.0869751C5.3764648,9.7148438,6,10.7852173,6,12   s-0.6235352,2.2851562-1.56604,2.9130249c0.6939087,2.2813721,2.1829224,4.2120972,4.1424561,5.480896L11.0855713,16.0479736z" fill="#FDB714"/><path d="M16,21.5c0-1.9296875,1.5703125-3.5,3.5-3.5c0.7355957,0,1.4170532,0.2305908,1.9811401,0.619873   C22.9398804,16.9725952,23.883728,14.8444214,24,12.5h-5.050415C18.6953125,15.0231323,16.5901489,17,14,17   c-0.7325439,0-1.4230957-0.1662598-2.0500488-0.4492798l-2.5074463,4.3430176C10.8102417,21.5961304,12.3566895,22,14,22   c0.6954956,0,1.3741455-0.0717163,2.0296631-0.2068481C16.0213623,21.6948853,16,21.6004028,16,21.5z" fill="#C90016"/><path d="M16.0047607,2.4530029c0.0050049-0.0829468,0.0179443-0.1636353,0.0249023-0.2461548   C15.3741455,2.0717163,14.6954956,2,14,2c-1.6433105,0-3.1897583,0.4038086-4.5574951,1.1062012l0.1149292,0.1990356   C10.8973999,2.6376953,12.4013062,2.25,14,2.25C14.6868286,2.25,15.3568115,2.321106,16.0047607,2.4530029z" fill="#FFFFFF" opacity="0.2"/><path d="M21.4812012,5.630127c1.406189,1.5879517,2.1911259,3.1816378,2.4538708,5.346344L24,11.5   c-0.0145054-0.2924805-0.0414982-0.5815954-0.0804691-0.8668327c-0.2734051-2.0011215-1.1616287-3.8113236-2.4383297-5.2530403   C20.9171143,5.7694092,20.2355957,6,19.5,6C19.5,6,20.9171143,6.0194092,21.4812012,5.630127z" fill="#FFFFFF" opacity="0.2"/><path d="M18.949585,11.25C18.6953125,8.7268677,16.5901489,6.75,14,6.75   c-0.7325439,0-1.4230957,0.1662598-2.0500488,0.4492798c0,0-2.4703369-4.1121216-2.5074463-4.0930786l2.5074463,4.3430786   C12.5769043,7.1662598,13.2674561,7,14,7c2.5901489,0,4.6953125,1.9768677,4.949585,4.5H24   c-0.0042114-0.0843506-0.0170288-0.1661987-0.0232544-0.25H18.949585z" opacity="0.1"/><path d="M8.576416,3.8560791l2.4108887,4.1757202   c0.0336304-0.0255737,0.0639648-0.0550537,0.0982666-0.0797729L8.576416,3.6060791   C6.6168213,4.8748779,5.1278687,6.805603,4.43396,9.0869751c0.024353,0.0162354,0.0458984,0.0360107,0.0698242,0.0527954   C5.2224121,6.9457397,6.6744385,5.0875854,8.576416,3.8560791z" fill="#FFFFFF" opacity="0.2"/><path d="M4.5037842,14.8602295C4.4798584,14.8770142,4.458313,14.8967896,4.43396,14.9130249   c0.6939087,2.2813721,2.1829224,4.2120972,4.1424561,5.480896l2.5091553-4.3459473   c-0.0343018-0.0247192-0.0646362-0.0541992-0.0982666-0.0797729L8.576416,20.1439209   C6.6744995,18.9124146,5.2224121,17.0542603,4.5037842,14.8602295z" opacity="0.1"/><path d="M14,17.25c2.5901489,0,4.6953125-1.9768677,4.949585-4.5l5.0333157-0.0661621   C23.9891262,12.6000366,23.9957886,12.5843506,24,12.5h-5.050415C18.6953125,15.0231323,16.5901489,17,14,17   c-0.7325439,0-1.4230957-0.1662598-2.0500488-0.4492798l-2.5074463,4.3430176   c0.0371094,0.019043,2.5074463-4.0930176,2.5074463-4.0930176C12.5769043,17.0837402,13.2674561,17.25,14,17.25z" fill="#FFFFFF" opacity="0.2"/><path d="M9.5168123,20.7650528l-0.0743074,0.128685C10.8102417,21.5961304,12.3566895,22,14,22   c0.6954956,0,1.3741455-0.0717163,2.0296631-0.2068481c-0.006958-0.0825195-0.0198975-0.163208-0.0249023-0.2461548   C15.3568115,21.678894,14.6868286,21.75,14,21.75C12.4013062,21.75,10.8567781,21.4325943,9.5168123,20.7650528z" opacity="0.1"/><path d="M21.4811401,18.3688927c-0.5640869-0.3892822-1.2455444-0.619873-1.9811401-0.619873   c-1.9296875,0-3.5,1.5703125-3.5,3.5c0,0.0427856-0.0017719,0.0569496,0.003294,0.0983315   c0.0675659-1.8706055,1.6098652-3.3483315,3.496706-3.3483315c0.7355957,0,1.4170532,0.2305908,1.9811401,0.619873   c1.2577-1.4202538,2.1391354-3.1979866,2.4257565-5.1635818C23.952713,13.1411161,23.9839764,12.8221216,24,12.4990196   l-0.0055161,0.1010151c-0.0175056,0.2346964-0.0431747,0.4660177-0.0767193,0.6939211   C23.6304798,15.2458305,22.7403622,16.9469109,21.4811401,18.3688927z" opacity="0.1"/><path d="M2.5,9.75c1.1638184,0,2.1394887,0.7516356,2.4614491,1.8102903   C4.7624745,10.3787107,3.7382202,9.5,2.5,9.5s-2.2638094,0.886302-2.4627841,2.0678816   C0.3591764,10.5092268,1.3361816,9.75,2.5,9.75z" fill="#FFFFFF" opacity="0.2"/><path d="M2.5,14.25c-1.1638184,0-2.1394887-0.7516356-2.4614494-1.8102903   C0.2375253,13.6212893,1.2617798,14.5,2.5,14.5s2.2638092-0.886302,2.4627838-2.0678816   C4.6408234,13.4907732,3.6638184,14.25,2.5,14.25z" opacity="0.1"/><linearGradient gradientUnits="userSpaceOnUse" id="SVGID_1_" x1="3.0147665" x2="25.1497974" y1="4.9791446" y2="15.3008795"><stop offset="0" style="stop-color:#FFFFFF;stop-opacity:0.2"/><stop offset="1" style="stop-color:#FFFFFF;stop-opacity:0"/></linearGradient><path d="M2.5,9.5C1.1192627,9.5,0,10.6192627,0,12c0,1.3806763,1.1192627,2.5,2.5,2.5S5,13.3806763,5,12   C5,10.6192627,3.8807373,9.5,2.5,9.5z M19.5,5C20.8807373,5,22,3.8806763,22,2.5C22,1.1192627,20.8807373,0,19.5,0   S17,1.1192627,17,2.5C17,3.8806763,18.1192627,5,19.5,5z M19.5,19c-1.3807373,0-2.5,1.1192627-2.5,2.5   c0,1.3806763,1.1192627,2.5,2.5,2.5s2.5-1.1193237,2.5-2.5C22,20.1192627,20.8807373,19,19.5,19z M14,7   c2.5901489,0,4.6953125,1.9768677,4.949585,4.5H24c-0.116272-2.3444214-1.0601196-4.4726562-2.5187988-6.119873   C20.9171143,5.7694092,20.2355957,6,19.5,6C17.5703125,6,16,4.4296875,16,2.5c0-0.1004028,0.0213623-0.1948853,0.0296631-0.2931519   C15.3741455,2.0717163,14.6954956,2,14,2c-1.6433105,0-3.1897583,0.4038086-4.5574951,1.1062012l2.5074463,4.3430786   C12.5769043,7.1662598,13.2674561,7,14,7z M9,12c0-1.6704102,0.8270264-3.1399536,2.0855713-4.0479736L8.576416,3.6060791   C6.6168213,4.8748779,5.1278687,6.805603,4.43396,9.0869751C5.3764648,9.7148438,6,10.7852173,6,12   s-0.6235352,2.2851562-1.56604,2.9130249c0.6939087,2.2813721,2.1829224,4.2120972,4.1424561,5.480896l2.5091553-4.3459473   C9.8270264,15.1399536,9,13.6704102,9,12z M14,17c-0.7325439,0-1.4230957-0.1662598-2.0500488-0.4492798l-2.5074463,4.3430176   C10.8102417,21.5961304,12.3566895,22,14,22c0.6954956,0,1.3741455-0.0717163,2.0296631-0.2068481   C16.0213623,21.6948853,16,21.6004028,16,21.5c0-1.9296875,1.5703125-3.5,3.5-3.5   c0.7355957,0,1.4170532,0.2305908,1.9811401,0.619873C22.9398804,16.9725952,23.883728,14.8444214,24,12.5h-5.050415   C18.6953125,15.0231323,16.5901489,17,14,17z" fill="url(#SVGID_1_)"/></g><g/><g/><g/><g/><g/><g/><g/><g/><g/><g/><g/><g/><g/><g/><g/></svg>