<?xml version="1.0"?>
<svg xmlns="http://www.w3.org/2000/svg" xmlns:xlink="http://www.w3.org/1999/xlink" xmlns:svgjs="http://svgjs.com/svgjs" version="1.1" width="512" height="512" x="0" y="0" viewBox="0 0 512 512" style="enable-background:new 0 0 512 512" xml:space="preserve" class=""><g><g xmlns="http://www.w3.org/2000/svg" id="Flat"><path d="m400 24a24 24 0 0 0 -24 24v272a32 32 0 0 1 -32 32h-174.059l47.03-47.029a24 24 0 0 0 -33.942-33.942l-88 88a24 24 0 0 0 0 33.942l88 88a24 24 0 0 0 33.942-33.942l-47.03-47.029h174.059a80 80 0 0 0 80-80v-272a24 24 0 0 0 -24-24z" fill="#ffffff" data-original="#ff9800" style=""/></g></g></svg>
