<?xml version="1.0" encoding="iso-8859-1"?>
<!-- Generator: Adobe Illustrator 19.0.0, SVG Export Plug-In . SVG Version: 6.00 Build 0)  -->
<svg version="1.1" id="Capa_1" xmlns="http://www.w3.org/2000/svg" xmlns:xlink="http://www.w3.org/1999/xlink" x="0px" y="0px"
	 viewBox="0 0 512 512" style="enable-background:new 0 0 512 512;" xml:space="preserve">
<circle style="fill:#FFD83B;" cx="256" cy="256" r="256"/>
<g>
	<circle style="fill:#F3C432;" cx="166.352" cy="114.544" r="48"/>
	<circle style="fill:#F3C432;" cx="380.144" cy="143.904" r="35.648"/>
	<circle style="fill:#F3C432;" cx="250.032" cy="256" r="31.376"/>
	<circle style="fill:#F3C432;" cx="285.392" cy="346.784" r="13.184"/>
	<circle style="fill:#F3C432;" cx="118.32" cy="245.84" r="13.184"/>
	<path style="fill:#F3C432;" d="M392.384,39.616C417.344,79.136,432,125.808,432,176c0,141.376-114.608,256-256,256
		c-50.192,0-96.864-14.656-136.384-39.616C84.96,464.176,164.816,512,256,512c141.392,0,256-114.624,256-256
		C512,164.816,464.176,84.96,392.384,39.616z"/>
</g>
<circle style="fill:#E8AF2A;" cx="263.744" cy="460.944" r="17.664"/>
<circle style="fill:#F3C432;" cx="157.648" cy="346.784" r="26.144"/>
<circle style="fill:#E8AF2A;" cx="420.32" cy="333.616" r="26.144"/>
<g>
</g>
<g>
</g>
<g>
</g>
<g>
</g>
<g>
</g>
<g>
</g>
<g>
</g>
<g>
</g>
<g>
</g>
<g>
</g>
<g>
</g>
<g>
</g>
<g>
</g>
<g>
</g>
<g>
</g>
</svg>
