<?xml version="1.0"?>
<svg xmlns="http://www.w3.org/2000/svg" xmlns:xlink="http://www.w3.org/1999/xlink" xmlns:svgjs="http://svgjs.com/svgjs" version="1.1" width="512" height="512" x="0" y="0" viewBox="0 0 512 512" style="enable-background:new 0 0 512 512" xml:space="preserve" class=""><g><g xmlns="http://www.w3.org/2000/svg"><path d="m38.523 327.5c4.143 0 7.5-3.357 7.5-7.5v-272.5c0-17.92 14.579-32.5 32.5-32.5h79.258c4.143 0 7.5-3.358 7.5-7.5s-3.357-7.5-7.5-7.5h-79.258c-26.191 0-47.5 21.309-47.5 47.5v272.5c0 4.143 3.357 7.5 7.5 7.5z" fill="#ffffff" data-original="#000000" style="" class=""/><path d="m219.631 142.5h-123.7c-4.143 0-7.5 3.358-7.5 7.5s3.357 7.5 7.5 7.5h123.7c4.143 0 7.5-3.358 7.5-7.5s-3.357-7.5-7.5-7.5z" fill="#ffffff" data-original="#000000" style="" class=""/><path d="m95.931 322.5c-4.143 0-7.5 3.357-7.5 7.5s3.357 7.5 7.5 7.5h123.7c4.143 0 7.5-3.357 7.5-7.5s-3.357-7.5-7.5-7.5z" fill="#ffffff" data-original="#000000" style="" class=""/><path d="m317.931 202.5h-224c-4.143 0-7.5 3.358-7.5 7.5s3.357 7.5 7.5 7.5h224c4.143 0 7.5-3.358 7.5-7.5s-3.357-7.5-7.5-7.5z" fill="#ffffff" data-original="#000000" style="" class=""/><path d="m325.431 270c0-4.143-3.357-7.5-7.5-7.5h-224c-4.143 0-7.5 3.357-7.5 7.5s3.357 7.5 7.5 7.5h224c4.143 0 7.5-3.357 7.5-7.5z" fill="#ffffff" data-original="#000000" style="" class=""/><path d="m460.294 339.104c-2.432-3.354-7.119-4.101-10.475-1.672-3.354 2.431-4.103 7.12-1.672 10.475 11.664 16.095 17.829 35.146 17.829 55.094 0 51.832-42.168 94-94 94s-94-42.168-94-94 42.168-94 94-94c6.748 0 13.407.724 19.894 2.121.09.02.181.039.273.056 11.522 2.517 22.488 7.186 32.385 13.872 3.433 2.317 8.095 1.416 10.413-2.017 2.318-3.432 1.416-8.094-2.017-10.413-9.848-6.653-20.609-11.58-31.902-14.693v-146.38c0-10.002-3.891-19.409-10.955-26.488l-113.803-114.047c-7.085-7.101-16.513-11.012-26.544-11.012h-56.743c-4.143 0-7.5 3.358-7.5 7.5s3.357 7.5 7.5 7.5h56.743c1.686 0 3.338.203 4.944.562v49.438c0 4.142 3.357 7.5 7.5 7.5s7.5-3.358 7.5-7.5v-39.366l105.78 106.006h-86.237c-10.776 0-19.543-8.793-19.543-19.603v-12.037c0-4.142-3.357-7.5-7.5-7.5s-7.5 3.358-7.5 7.5v12.037c0 19.08 15.496 34.603 34.543 34.603h96.262c.354 1.595.553 3.235.553 4.908v143.369c-4.632-.596-9.319-.916-14.046-.916-60.103 0-109 48.897-109 109 0 16.037 3.483 31.275 9.73 45h-194.183c-17.921 0-32.5-14.579-32.5-32.5v-60.501c0-4.143-3.357-7.5-7.5-7.5s-7.5 3.357-7.5 7.5v60.5c0 26.191 21.309 47.5 47.5 47.5h202.502c19.527 29.501 53.003 49 90.952 49 60.103 0 109-48.897 109-109 0-23.13-7.152-45.225-20.683-63.896z" fill="#ffffff" data-original="#000000" style="" class=""/><path d="m428.96 388.986c-1.508-4.644-5.446-7.965-10.279-8.667l-24.382-3.543-10.904-22.095s0-.001-.001-.001c-2.161-4.377-6.535-7.096-11.417-7.096s-9.256 2.719-11.418 7.097l-10.904 22.095-24.383 3.543c-4.832.702-8.771 4.023-10.278 8.667-1.509 4.644-.273 9.644 3.222 13.051l17.644 17.198-4.164 24.283c-.826 4.813 1.115 9.584 5.065 12.454 3.96 2.878 9.105 3.234 13.408.969l21.809-11.465 21.808 11.464c4.32 2.273 9.458 1.902 13.409-.968 3.95-2.87 5.892-7.642 5.066-12.453l-4.165-24.284 17.643-17.198c3.495-3.407 4.73-8.407 3.221-13.051zm-32.188 20.339c-3.004 2.928-4.373 7.143-3.662 11.271l3.589 20.931-18.796-9.881c-3.711-1.953-8.142-1.952-11.851-.001l-18.797 9.882 3.589-20.927c.711-4.132-.658-8.347-3.661-11.274l-15.207-14.822 21.018-3.054c4.149-.604 7.732-3.209 9.585-6.966l9.398-19.044 9.397 19.041c1.854 3.76 5.437 6.365 9.588 6.969l21.016 3.054z" fill="#ffffff" data-original="#000000" style="" class=""/></g></g></svg>
