<?xml version="1.0" encoding="iso-8859-1"?>
<!-- Generator: Adobe Illustrator 19.0.0, SVG Export Plug-In . SVG Version: 6.00 Build 0)  -->
<svg version="1.1" id="Capa_1" xmlns="http://www.w3.org/2000/svg" xmlns:xlink="http://www.w3.org/1999/xlink" x="0px" y="0px"
	 viewBox="0 0 512 512" style="enable-background:new 0 0 512 512;" xml:space="preserve">
<path style="fill:#FEC9A3;" d="M507.661,503.322V399.907c0-11.325-5.528-21.938-14.805-28.438l-65.25-45.681
	c-4.374-3.063-9.589-4.703-14.935-4.703h-52.536l0.868,148.48c0.321,15.473,10.431,29.028,25.166,33.757H507.661z"/>
<path style="fill:#FABD91;" d="M455.593,503.322h-60.746c-19.17,0-34.712-15.542-34.712-34.712v-34.712h60.746L455.593,503.322z"/>
<path style="fill:#88B337;" d="M229.966,60.746c-5.979,0.009-11.889,1.258-17.356,3.662V0H56.407
	C27.648,0,4.339,23.309,4.339,52.068v156.203h64.408c-9.633-21.938,0.338-47.538,22.285-57.17
	c21.938-9.633,47.538,0.338,57.17,22.285c4.886,11.116,4.886,23.778,0,34.894h64.408v-64.408
	c21.938,9.633,47.538-0.338,57.17-22.285s-0.338-47.538-22.285-57.17C241.976,61.978,236.006,60.737,229.966,60.746z"/>
<path style="fill:#E8594A;" d="M420.881,52.068C420.881,23.309,397.572,0,368.814,0H212.61v64.408
	c21.938-9.633,47.538,0.338,57.17,22.285c9.633,21.938-0.338,47.538-22.285,57.17c-11.116,4.886-23.778,4.886-34.894,0v64.408
	h64.408c-9.633,21.938,0.338,47.538,22.285,57.17c21.938,9.633,47.538-0.338,57.17-22.285c4.886-11.116,4.886-23.778,0-34.894
	h64.417V52.068z"/>
<path style="fill:#D65245;" d="M420.881,57.023C371.278,126.03,281.73,165.228,212.61,186.325v21.947h64.408
	c-9.633,21.938,0.338,47.538,22.285,57.17c21.938,9.633,47.538-0.338,57.17-22.285c4.886-11.116,4.886-23.778,0-34.894h64.408
	V57.023z"/>
<path style="fill:#FDB62F;" d="M195.254,277.695c5.979,0.009,11.889,1.258,17.356,3.662v-73.086h-64.408
	c9.633-21.938-0.338-47.538-22.285-57.17c-21.947-9.633-47.538,0.338-57.17,22.285c-4.886,11.116-4.886,23.778,0,34.894H4.339
	v156.203c0,28.759,23.309,52.068,52.068,52.068H212.61v-55.73c-21.938,9.633-47.538-0.338-57.17-22.285
	c-9.633-21.938,0.338-47.538,22.285-57.17C183.244,278.927,189.214,277.686,195.254,277.695z"/>
<path style="fill:#FFA719;" d="M4.339,364.475c0,28.759,23.309,52.068,52.068,52.068H212.61v-55.73
	c-21.834,9.615-47.33-0.286-56.945-22.12c-2.23-5.068-3.471-10.526-3.645-16.063c-46.523,20.749-96.751,31.918-147.682,32.846
	V364.475z"/>
<path style="fill:#4398D1;" d="M443.574,389.641l-54.906-146.658l-60.303,22.71c16.809,17.122,16.549,44.631-0.573,61.431
	c-17.122,16.801-44.631,16.549-61.431-0.573c-8.556-8.721-13.052-20.636-12.375-32.837l-60.295,22.71l25.687,68.634
	c-5.962-0.338-11.932,0.573-17.529,2.673c-22.407,8.695-33.514,33.905-24.819,56.311c8.548,22.016,33.098,33.202,55.322,25.183
	c5.597-2.109,10.7-5.372,14.969-9.563L266.9,512l146.241-55.079C440.094,446.716,453.71,416.62,443.574,389.641z"/>
<path style="fill:#3E8FC9;" d="M415.258,314.012c-59.878,89.557-172.127,120.832-237.872,131.601
	c9.225,21.947,34.495,32.256,56.441,23.031c5.025-2.109,9.607-5.163,13.494-8.982L266.9,512l146.241-55.079
	c26.945-10.205,40.552-40.283,30.434-67.254L415.258,314.012z"/>
<path style="fill:#80A834;" d="M229.966,60.746c-5.979,0.009-11.889,1.258-17.356,3.662V51.816
	C147.63,111.633,59.592,144.67,4.339,160.768v47.503h64.408c-9.633-21.938,0.338-47.538,22.285-57.17
	c21.938-9.633,47.538,0.338,57.17,22.285c4.886,11.116,4.886,23.778,0,34.894h64.408v-64.408
	c21.938,9.633,47.538-0.338,57.17-22.285s-0.338-47.538-22.285-57.17C241.976,61.978,236.006,60.737,229.966,60.746z"/>
<path style="fill:#FEC9A3;" d="M403.682,390.665c-8.305-8.47-21.903-8.609-30.373-0.304c-8.47,8.305-8.609,21.903-0.304,30.373
	c0.104,0.104,0.2,0.208,0.304,0.304l30.217,30.217c0,28.759,23.309,52.068,52.068,52.068l0,0h52.068v-8.678L403.682,390.665z"/>
<g>
</g>
<g>
</g>
<g>
</g>
<g>
</g>
<g>
</g>
<g>
</g>
<g>
</g>
<g>
</g>
<g>
</g>
<g>
</g>
<g>
</g>
<g>
</g>
<g>
</g>
<g>
</g>
<g>
</g>
</svg>
