<?xml version="1.0"?>
<svg xmlns="http://www.w3.org/2000/svg" xmlns:xlink="http://www.w3.org/1999/xlink" xmlns:svgjs="http://svgjs.com/svgjs" version="1.1" width="512" height="512" x="0" y="0" viewBox="0 0 512 512" style="enable-background:new 0 0 512 512" xml:space="preserve" class=""><g><g xmlns="http://www.w3.org/2000/svg"><g><g><path d="m161.42 131.595h-34.219c-4.268 0-7.727-3.459-7.727-7.727s3.46-7.727 7.727-7.727h34.219c4.268 0 7.727 3.459 7.727 7.727s-3.46 7.727-7.727 7.727z" fill="#407093" data-original="#407093" style=""/></g><g><path d="m127.201 142.361c-4.268 0-7.727-3.459-7.727-7.727v-21.53c0-4.268 3.46-7.727 7.727-7.727s7.727 3.459 7.727 7.727v21.53c0 4.267-3.46 7.727-7.727 7.727z" fill="#2b4d66" data-original="#2b4d66" style=""/></g><g><path d="m384.799 131.595h-34.219c-4.268 0-7.727-3.459-7.727-7.727s3.459-7.727 7.727-7.727h34.219c4.268 0 7.727 3.459 7.727 7.727.001 4.268-3.459 7.727-7.727 7.727z" fill="#407093" data-original="#407093" style=""/></g><g><path d="m384.799 142.361c-4.268 0-7.727-3.459-7.727-7.727v-21.53c0-4.268 3.459-7.727 7.727-7.727s7.727 3.459 7.727 7.727v21.53c.001 4.267-3.459 7.727-7.727 7.727z" fill="#2b4d66" data-original="#2b4d66" style=""/></g></g><g><path d="m360.46 198.765h-208.92v-94.305c0-57.692 46.768-104.46 104.46-104.46 57.692 0 104.46 46.768 104.46 104.46z" fill="#4393f9" data-original="#9dc6fb" style="" class=""/><path d="m360.46 104.46c0-57.692-46.768-104.46-104.46-104.46-4.117 0-8.176.246-12.169.71 51.957 6.029 92.291 50.176 92.291 103.75v94.305h24.339v-94.305z" fill="#8993da" data-original="#8993da" style="" class=""/></g><path d="m433.249 398.714h-354.498v-175.653c0-24.798 20.103-44.901 44.901-44.901h264.696c24.798 0 44.901 20.103 44.901 44.901z" fill="#dd636e" data-original="#dd636e" style=""/><path d="m433.249 223.061c0-24.798-20.103-44.901-44.901-44.901h-22.045c24.798 0 44.901 20.103 44.901 44.901v175.653h22.045z" fill="#c63d4f" data-original="#c63d4f" style=""/><path d="m368.928 364.486c0 6.593-5.345 11.937-11.937 11.937h-201.982c-6.593 0-11.937-5.345-11.937-11.937v-96.523c0-6.593 5.345-11.937 11.937-11.937h201.981c6.593 0 11.937 5.345 11.937 11.937v96.523z" fill="#d3effb" data-original="#d3effb" style=""/><path d="m368.928 267.963c0-6.593-5.345-11.937-11.937-11.937h-22.97c6.593 0 11.937 5.345 11.937 11.937v96.523c0 6.593-5.344 11.937-11.937 11.937h22.97c6.593 0 11.937-5.344 11.937-11.937z" fill="#b1e4f9" data-original="#b1e4f9" style=""/><path d="m256 303.717v208.283c-.485 0-6.118-1.83-19.431-4.945-62.157-14.331-124.335-12.837-186.492 4.492-.422.124-.876.031-1.226-.227-.35-.268-.556-.68-.556-1.123v-205.408c0-.639.422-1.185 1.03-1.36 62.415-17.226 124.829-18.772 187.244-4.626 6.29 1.432 13.18 3.172 19.431 4.914z" fill="#4393f9" data-original="#9dc6fb" style="" class=""/><path d="m256 303.717v208.283c-.532 0-8.236-2.405-19.431-4.945v-208.252c6.29 1.432 13.18 3.172 19.431 4.914z" fill="#8993da" data-original="#8993da" style="" class=""/><path d="m61.951 444.101h-27.161c-4.412 0-7.989-3.577-7.989-7.989v-70.936c0-4.412 3.577-7.989 7.989-7.989h27.162c4.412 0 7.989 3.577 7.989 7.989v70.936c-.001 4.412-3.578 7.989-7.99 7.989z" fill="#dd636e" data-original="#dd636e" style=""/><path d="m61.951 357.187h-18.48c4.412 0 7.989 3.577 7.989 7.989v70.936c0 4.412-3.577 7.989-7.989 7.989h18.48c4.412 0 7.989-3.577 7.989-7.989v-70.936c0-4.412-3.577-7.989-7.989-7.989z" fill="#c63d4f" data-original="#c63d4f" style=""/><path d="m463.706 304.789v205.408c0 .443-.206.855-.556 1.123-.35.258-.804.35-1.226.227-116.497-32.471-199.534.453-205.924.453v-208.283c68.895-19.215 137.78-19.308 206.675-.289.608.176 1.031.722 1.031 1.361z" fill="#4393f9" data-original="#9dc6fb" style="" class=""/><path d="m445.804 299.167v208.255c5.375 1.262 10.749 2.633 16.124 4.13.422.118.875.031 1.225-.234.349-.265.554-.679.554-1.117v-205.415c0-.63-.421-1.184-1.028-1.352-5.626-1.552-11.251-2.969-16.875-4.267z" fill="#8993da" data-original="#8993da" style="" class=""/><path d="m450.049 444.101h27.161c4.412 0 7.989-3.577 7.989-7.989v-70.936c0-4.412-3.577-7.989-7.989-7.989h-27.161c-4.412 0-7.989 3.577-7.989 7.989v70.936c0 4.412 3.577 7.989 7.989 7.989z" fill="#dd636e" data-original="#dd636e" style=""/><path d="m477.21 357.187h-17.279c4.412 0 7.989 3.577 7.989 7.989v70.936c0 4.412-3.577 7.989-7.989 7.989h17.279c4.412 0 7.989-3.577 7.989-7.989v-70.936c.001-4.412-3.576-7.989-7.989-7.989z" fill="#c63d4f" data-original="#c63d4f" style=""/><path d="m419.888 380.737c0 1.511-1.225 2.736-2.736 2.736h-114.598c-1.511 0-2.736-1.225-2.736-2.736v-36.145c0-1.511 1.225-2.736 2.736-2.736h114.597c1.511 0 2.736 1.225 2.736 2.736v36.145z" fill="#fff6f4" data-original="#fff6f4" style="" class=""/><path d="m400.495 341.855v41.618h16.656c1.511 0 2.736-1.225 2.736-2.736v-36.145c0-1.511-1.225-2.736-2.736-2.736h-16.656z" fill="#d8e2f1" data-original="#d8e2f1" style=""/><g><path d="m381.306 421.955h-42.907c-4.268 0-7.727-3.459-7.727-7.727s3.459-7.727 7.727-7.727h42.907c4.268 0 7.727 3.459 7.727 7.727s-3.459 7.727-7.727 7.727z" fill="#2b4d66" data-original="#2b4d66" style=""/></g><g><path d="m396.76 451.681h-73.815c-4.268 0-7.727-3.459-7.727-7.727s3.459-7.727 7.727-7.727h73.815c4.268 0 7.727 3.459 7.727 7.727s-3.459 7.727-7.727 7.727z" fill="#2b4d66" data-original="#2b4d66" style=""/></g><g><path d="m142.141 227.521h-13.909c-4.268 0-7.727-3.459-7.727-7.727s3.46-7.727 7.727-7.727h13.909c4.268 0 7.727 3.459 7.727 7.727s-3.46 7.727-7.727 7.727z" fill="#fff6f4" data-original="#fff6f4" style="" class=""/></g><g><path d="m245.069 227.521h-72.924c-4.268 0-7.727-3.459-7.727-7.727s3.46-7.727 7.727-7.727h72.924c4.268 0 7.727 3.459 7.727 7.727s-3.459 7.727-7.727 7.727z" fill="#fff6f4" data-original="#fff6f4" style="" class=""/></g><path d="m324.813 137.964c0 .549-.35 1.036-.87 1.212-45.235 15.302-90.469 15.302-135.704 0-.519-.176-.87-.663-.87-1.212v-58.771c0-.706.573-1.279 1.279-1.279h134.884c.706 0 1.279.573 1.279 1.279v58.771z" fill="#fff6f4" data-original="#fff6f4" style="" class=""/><path d="m305.389 77.914v66.668c6.185-1.52 12.369-3.316 18.554-5.407.52-.176.869-.663.869-1.212v-58.77c0-.706-.573-1.279-1.279-1.279z" fill="#d8e2f1" data-original="#d8e2f1" style=""/><g><g><path d="m216.368 127.5c-4.268 0-7.727-3.459-7.727-7.727v-11.779c0-4.268 3.46-7.727 7.727-7.727 4.268 0 7.727 3.459 7.727 7.727v11.779c0 4.268-3.46 7.727-7.727 7.727z" fill="#2b4d66" data-original="#2b4d66" style=""/></g><g><path d="m295.632 127.5c-4.268 0-7.727-3.459-7.727-7.727v-11.779c0-4.268 3.459-7.727 7.727-7.727s7.727 3.459 7.727 7.727v11.779c.001 4.268-3.459 7.727-7.727 7.727z" fill="#2b4d66" data-original="#2b4d66" style=""/></g></g></g></g></svg>
