<?xml version="1.0" encoding="iso-8859-1"?>
<!-- Generator: Adobe Illustrator 21.0.0, SVG Export Plug-In . SVG Version: 6.00 Build 0)  -->
<svg xmlns="http://www.w3.org/2000/svg" xmlns:xlink="http://www.w3.org/1999/xlink" version="1.1" id="Capa_1" x="0px" y="0px" viewBox="0 0 512 512" style="enable-background:new 0 0 512 512;" xml:space="preserve" width="512" height="512">
<g>
	<path style="fill:#CD0000;" d="M352.548,430.418l-21.213-106.066l-93.056,63.64l-21.213,106.066   c-1.139,5.696,1.09,11.669,6.07,15.206c4.848,3.418,11.259,3.656,16.355,0.59l106.066-63.64   C350.983,442.962,353.79,436.633,352.548,430.418z"/>
	<path style="fill:#FDBF00;" d="M157.527,460.539c-26.304,26.304-92.27,46.024-140.848,51.329c-4.455,0.636-9.122-1.06-12.304-4.243   l153.152-153.152C186.801,383.747,186.801,431.265,157.527,460.539z"/>
	<path style="fill:#F03800;" d="M187.648,180.666L81.582,159.452c-6.215-1.243-12.544,1.564-15.796,6.992L2.146,272.51   c-3.066,5.096-2.828,11.508,0.59,16.355c3.535,4.978,9.507,7.209,15.206,6.07l106.066-21.213L187.648,180.666z"/>
	<path style="fill:#EDF5FF;" d="M390.872,269.62L252.986,407.506H210.56L104.494,301.44v-42.426L242.38,121.128   c22.698-22.698,42.214-39.669,59.821-52.185l70.428,70.428l70.428,70.853C430.117,227.83,413.358,247.134,390.872,269.62z"/>
	<path style="fill:#D7E9FF;" d="M390.872,269.62L252.986,407.506H210.56l-53.033-53.033l215.102-215.102l70.428,70.853   C430.117,227.83,413.358,247.134,390.872,269.62z"/>
	<path style="fill:#FFDA2D;" d="M157.527,354.473c-29.274-29.274-76.792-29.274-106.066,0   c-26.304,26.304-46.024,92.27-51.329,140.848c-0.636,4.455,1.06,9.122,4.243,12.304s7.849,4.879,12.304,4.243   c48.578-5.305,114.544-25.025,140.848-51.329C186.801,431.265,186.801,383.747,157.527,354.473z"/>
	<path style="fill:#FF641A;" d="M507.545,25.668l-31.82,31.82c-5.939,5.939-15.273,5.94-21.213,0s-5.939-15.274,0-21.213   l31.82-31.82c5.94-5.94,15.273-5.94,21.213,0S513.485,19.728,507.545,25.668z"/>
	<path style="fill:#76E2F8;" d="M327.233,184.767c-17.607-17.607-46.032-17.607-63.64,0c-17.606,17.606-17.607,46.032,0,63.64   s46.034,17.606,63.64,0C344.84,230.8,344.84,202.375,327.233,184.767z"/>
	<path style="fill:#25D9F8;" d="M263.593,248.407l63.64-63.64c17.607,17.607,17.607,46.032,0,63.64   C309.626,266.013,281.2,266.014,263.593,248.407z"/>
	<path style="fill:#F03800;" d="M454.512,57.488l53.033-53.033c5.94,5.94,5.94,15.273,0,21.213l-31.82,31.82   C469.786,63.427,460.452,63.429,454.512,57.488z"/>
	<path style="fill:#FF641A;" d="M443.057,210.224c-35.426-4.88-68.52-20.577-94.611-46.669   c-25.879-25.879-41.366-59.609-46.245-94.611c9.759-7.213,18.88-12.515,28.214-17.183c39.245-19.728,75.944-19.94,134.705-19.728   c4.029-0.212,7.847,1.485,10.605,4.243c2.758,2.758,4.455,6.576,4.243,10.605c0.212,58.761,0.211,95.248-19.728,134.705   C455.572,190.919,450.058,200.253,443.057,210.224z"/>
	<path style="fill:#F03800;" d="M443.057,210.224c-35.426-4.88-68.52-20.577-94.611-46.669L475.725,36.275   c2.758,2.758,4.455,6.576,4.243,10.605c0.212,58.761,0.211,95.248-19.728,134.705C455.572,190.919,450.058,200.253,443.057,210.224   z"/>
	<path style="fill:#47568C;" d="M252.986,407.506l-54.729,18.243c-5.517,1.697-11.456,0.425-15.487-3.606l-92.914-92.914   c-4.031-4.031-5.303-9.97-3.606-15.487l18.243-54.729L252.986,407.506z"/>
	<path style="fill:#2C3B73;" d="M252.986,407.506l-54.729,18.243c-5.517,1.697-11.456,0.425-15.487-3.606l-46.457-46.457   l42.426-42.426L252.986,407.506z"/>
</g>















</svg>
