<svg id="Capa_1" enable-background="new 0 0 512 512" height="512" viewBox="0 0 512 512" width="512" xmlns="http://www.w3.org/2000/svg"><g><g><g><g><path d="m512 366.34c0 80.32-65.34 145.66-145.66 145.66h-37.11c-38.9 0-75.48-15.15-103-42.66-27.51-27.52-42.66-64.1-42.66-103 0-80.31 65.34-145.66 145.66-145.66h9.26l10.87-4.29 88.19-34.78c4.3-1.7 9.14-1.32 13.12 1.03s6.66 6.4 7.26 10.99l8.71 67.09c.9.85 1.79 1.72 2.68 2.6 27.53 27.53 42.68 64.11 42.68 103.02z" fill="#bde239"/></g></g></g><g><g><path d="m331.05 145.64v2.35c0 80.3-65.33 145.64-145.63 145.64h-39.71l-86.64 37.96c-1.93.84-3.98 1.26-6.02 1.26-2.62 0-5.22-.68-7.55-2.03-4.13-2.41-6.87-6.65-7.37-11.41l-8.77-83.72c-18.97-25.14-29.36-56.11-29.36-87.7v-2.35c0-80.3 65.33-145.64 145.63-145.64h39.79c80.3 0 145.63 65.34 145.63 145.64z" fill="#4793ff"/></g></g><path d="m331.05 145.64v2.35c0 80.3-65.33 145.64-145.63 145.64h-19.9v-293.63h19.9c80.3 0 145.63 65.34 145.63 145.64z" fill="#525cdd"/><path d="m238.14 226.16c-2.94 4.03-7.5 6.16-12.13 6.16-3.07 0-6.17-.94-8.83-2.89-.72-.52-17.78-13.07-33.08-32.06-1.2-1.49-2.39-3.01-3.57-4.55v24.5c0 8.28-6.72 15-15 15h-.01c-8.28-.01-14.99-6.72-14.99-15v-24.5c-1.18 1.54-2.36 3.06-3.57 4.55-15.3 18.99-32.36 31.54-33.08 32.06-2.66 1.95-5.76 2.89-8.83 2.89-4.63 0-9.19-2.13-12.13-6.16-4.88-6.69-3.42-16.07 3.27-20.96.13-.09 14.69-10.86 27.42-26.65 11.69-14.52 22.66-32.88 26.92-40.25v-16.34h-45.49c-8.29 0-15-6.71-15-15 0-8.28 6.71-15 15-15h45.49v-15.65c0-8.28 6.71-14.99 14.99-15h.01c8.28 0 15 6.72 15 15v15.65h45.49c8.29 0 15 6.72 15 15 0 8.29-6.71 15-15 15h-45.49v16.33c4.27 7.39 15.26 25.78 26.93 40.26 12.85 15.94 27.26 26.55 27.41 26.65 6.69 4.89 8.15 14.27 3.27 20.96z" fill="#f0f7ff"/><path d="m238.14 226.16c-2.94 4.03-7.5 6.16-12.13 6.16-3.07 0-6.17-.94-8.83-2.89-.72-.52-17.78-13.07-33.08-32.06-1.2-1.49-2.39-3.01-3.57-4.55v24.5c0 8.28-6.72 15-15 15h-.01v-171.01h.01c8.28 0 15 6.72 15 15v15.65h45.49c8.29 0 15 6.72 15 15 0 8.29-6.71 15-15 15h-45.49v16.33c4.27 7.39 15.26 25.78 26.93 40.26 12.85 15.94 27.26 26.55 27.41 26.65 6.69 4.89 8.15 14.27 3.27 20.96z" fill="#dfe7f4"/><path d="m512 366.34c0 80.32-65.34 145.66-145.66 145.66h-16.98v-295.61l88.19-34.78c4.3-1.7 9.14-1.32 13.12 1.03s6.66 6.4 7.26 10.99l8.71 67.09c.9.85 1.79 1.72 2.68 2.6 27.53 27.53 42.68 64.11 42.68 103.02z" fill="#8bbc43"/><path d="m412.53 417.87-13.41-31.54v-.01l-35.37-83.24c-2.32-5.46-7.64-9.04-13.57-9.13-.28 0-.55 0-.82.02-5.64.2-10.66 3.55-13.03 8.68l-38.5 83.24s-.01 0-.01.01l-14.58 31.54c-3.48 7.52-.2 16.43 7.32 19.91 2.03.94 4.17 1.39 6.28 1.39 5.67 0 11.09-3.23 13.63-8.71l10.56-22.85h54.36l9.53 22.42c2.42 5.71 7.97 9.14 13.81 9.14 1.95 0 3.94-.39 5.86-1.2 7.62-3.24 11.18-12.05 7.94-19.67zm-77.62-40.69 14.45-31.25 13.28 31.25z" fill="#f0f7ff"/><path d="m404.59 437.54c-1.92.81-3.91 1.2-5.86 1.2-5.84 0-11.39-3.43-13.81-9.14l-9.53-22.42h-26.03v-30h13.28l-13.28-31.25v-51.96c.27-.02.54-.02.82-.02 5.93.09 11.25 3.67 13.57 9.13l35.37 83.24v.01l13.41 31.54c3.24 7.62-.32 16.43-7.94 19.67z" fill="#dfe7f4"/></g></svg>