<svg viewBox="0 -1 466.104 466" xmlns="http://www.w3.org/2000/svg"><path d="m194.105469 440.3125c0 13.253906 10.742187 24 24 24h32c13.253906 0 24-10.746094 24-24v-48h-80zm0 0" fill="#ebebeb"/><path d="m156.40625 305.566406c-6.996094-4.507812-13.59375-9.617187-19.710938-15.261718-5.222656 20.082031-24.960937 32.816406-45.410156 29.300781-20.453125-3.515625-34.804687-22.105469-33.027344-42.78125 1.777344-20.675781 19.09375-36.542969 39.847657-36.511719 1.222656 0 2.398437.253906 3.566406.359375-7.582031-17.824219-11.492187-36.992187-11.488281-56.359375h-10.183594l-5.527344 26.292969c-.550781 2.621093-2.375 4.792969-4.859375 5.785156-2.488281.996094-5.304687.679687-7.507812-.839844l-22.105469-15.238281-24 24 15.199219 22.101562c1.519531 2.207032 1.835937 5.023438.839843 7.507813-.992187 2.488281-3.164062 4.3125-5.78125 4.859375l-26.257812 5.53125v32l26.289062 5.527344c2.617188.550781 4.789063 2.375 5.785157 4.859375.992187 2.484375.675781 5.304687-.84375 7.507812l-15.230469 22.105469 24 24 22.105469-15.203125c2.203125-1.519531 5.023437-1.839844 7.511719-.84375 2.488281.992187 4.3125 3.167969 4.863281 5.789063l5.519531 26.257812h32l5.519531-26.296875c.550781-2.625 2.375-4.796875 4.863281-5.789063 2.488282-.996093 5.308594-.679687 7.511719.84375l22.105469 15.242188 25.113281-25.113281c-2.632812-12.261719-10.097656-22.945313-20.707031-29.632813zm0 0" fill="#c9dfff"/><path d="m378.105469 184.3125c-.007813-69.042969-49.019531-128.367188-116.820313-141.398438-67.800781-13.03125-135.3125 23.890626-160.914062 88.011719-25.601563 64.121094-2.09375 137.390625 56.035156 174.640625 13.320312 8.257813 21.503906 22.746094 21.699219 38.417969v32.328125c0 13.253906 10.742187 24 24 24h64c13.253906 0 24-10.746094 24-24v-31.664062c.203125-16.042969 8.550781-30.878907 22.160156-39.378907 41.070313-26.515625 65.867187-72.070312 65.839844-120.957031zm0 0" fill="#ffb41f"/><path d="m427.648438 99.679688 25.152343-18.863282-28.800781-38.402344-25.152344 18.863282c-5.175781 3.878906-12.179687 4.257812-17.746094.960937-5.566406-3.296875-8.597656-9.621093-7.6875-16.023437l4.441407-31.113282-47.519531-6.789062-4.441407 31.109375c-.910156 6.410156-5.59375 11.636719-11.863281 13.242187-6.269531 1.609376-12.890625-.71875-16.773438-5.898437l-18.859374-25.152344-38.398438 28.800781 18.855469 25.152344c3.878906 5.179688 4.257812 12.179688.960937 17.746094s-9.621094 8.597656-16.023437 7.6875l-31.113281-4.441406-6.792969 47.519531 31.121093 4.441406c6.40625.914063 11.632813 5.597657 13.238282 11.867188 1.605468 6.269531-.722656 12.890625-5.902344 16.773437l-25.144531 18.863282 28.800781 38.398437 25.144531-18.855469c5.175781-3.882812 12.183594-4.265625 17.753907-.96875 5.566406 3.296875 8.601562 9.625 7.6875 16.03125l-4.480469 31.105469 47.519531 6.792969 4.480469-31.121094c.914062-6.40625 5.597656-11.628906 11.867187-13.234375 6.269532-1.609375 12.890625.722656 16.769532 5.898437l18.867187 25.144532 38.398437-28.800782-18.871093-25.144531c-3.882813-5.175781-4.265625-12.183593-.96875-17.753906 3.296875-5.566406 9.625-8.601563 16.03125-7.683594l31.113281 4.445313 6.792969-47.519532-31.113281-4.445312c-6.402344-.917969-11.625-5.597656-13.234376-11.867188-1.605468-6.265624.71875-12.882812 5.890626-16.765624zm-91.648438 94.734374c-30.929688 0-56-25.070312-56-56 0-30.925781 25.070312-56 56-56s56 25.074219 56 56c0 30.929688-25.070312 56-56 56zm0 0" fill="#1cc8eb"/><path d="m194.105469 416.3125h80v16h-80zm0 0" fill="#9e9e9e"/><g fill="#fa0"><path d="m226.105469 352.3125h16v24h-16zm0 0"/><path d="m242.105469 336.3125h-16c-.007813-21.152344-13.050781-40.113281-32.800781-47.683594-39.371094-15.394531-66.722657-51.644531-70.714844-93.730468-3.992188-42.085938 16.050781-82.832032 51.824218-105.355469l8.488282 13.535156c-30.671875 19.300781-47.863282 54.230469-44.441406 90.3125 3.417968 36.078125 26.863281 67.15625 60.617187 80.351563 25.929687 9.917968 43.046875 34.808593 43.027344 62.570312zm0 0"/><path d="m394.105469 296.3125h40c4.417969 0 8 3.578125 8 8 0 4.417969-3.582031 8-8 8h-40c-4.417969 0-8-3.582031-8-8 0-4.421875 3.582031-8 8-8zm0 0"/><path d="m378.105469 344.316406c2.828125-3.394531 7.871093-3.855468 11.265625-1.027344l35.710937 29.753907c3.394531 2.828125 3.855469 7.871093 1.027344 11.265625-2.832031 3.394531-7.875 3.855468-11.269531 1.027344l-35.710938-29.753907c-3.394531-2.828125-3.851562-7.871093-1.023437-11.265625zm0 0"/><path d="m346.105469 360.3125c4.417969 0 8 3.578125 8 8v40c0 4.417969-3.582031 8-8 8s-8-3.582031-8-8v-40c0-4.421875 3.582031-8 8-8zm0 0"/><path d="m7.929688 134.601562 48.476562-12.109374c4.289062-1.070313 8.628906 1.535156 9.699219 5.820312 1.070312 4.285156-1.535157 8.625-5.824219 9.695312l-48.476562 12.109376c-4.289063 1.070312-8.628907-1.535157-9.699219-5.820313-1.070313-4.285156 1.535156-8.625 5.824219-9.695313zm0 0"/><path d="m18.101562 48.316406c2.566407-3.59375 7.5625-4.421875 11.15625-1.855468l42.976563 30.699218c3.597656 2.566406 4.429687 7.5625 1.863281 11.15625s-7.5625 4.425782-11.15625 1.855469l-42.976562-30.699219c-3.597656-2.566406-4.429688-7.5625-1.863282-11.15625zm0 0"/><path d="m89.75.304688c4.28125-1.09375 8.636719 1.488281 9.730469 5.769531l12.398437 48.496093c1.09375 4.28125-1.488281 8.640626-5.769531 9.734376s-8.636719-1.492188-9.730469-5.769532l-12.398437-48.496094c-1.09375-4.28125 1.488281-8.640624 5.769531-9.734374zm0 0"/></g></svg>