<?xml version="1.0" encoding="utf-8"?>
<!-- Generator: Adobe Illustrator 22.1.0, SVG Export Plug-In . SVG Version: 6.00 Build 0)  -->
<svg xmlns="http://www.w3.org/2000/svg" xmlns:xlink="http://www.w3.org/1999/xlink" version="1.1" id="Layer_1" x="0px" y="0px" viewBox="0 0 256 256" style="enable-background:new 0 0 256 256;" xml:space="preserve" width="512" height="512">
<style type="text/css">
	.st0{fill:#FFDF74;}
	.st1{fill:#FFD551;}
	.st2{fill:#F9BB32;}
	.st3{fill:#FFA730;}
	.st4{fill:#E58D23;}
	.st5{fill:#DB9C2E;}
	.st6{fill:#FFB74B;}
	.st7{fill:#BF6C0D;}
	.st8{fill:#A56021;}
	.st9{fill:#FFC34C;}
	.st10{fill:#CCC033;}
	.st11{fill:#FFF4C1;}
	.st12{fill:#FF624B;}
	.st13{fill:#FF4B34;}
	.st14{fill:#EACF32;}
	.st15{fill:#99AF17;}
	.st16{fill:#8C4C17;}
	.st17{fill:#FCE575;}
	.st18{fill:#FF9079;}
	.st19{fill:#FCF9DE;}
	.st20{fill:#FFD59A;}
	.st21{fill:#FFEACF;}
	.st22{fill:#FCDA4F;}
</style>
<g>
	<g>
		<path class="st21" d="M182.778,67.2V8H73.222v59.2c0,21.868,12.641,40.752,30.954,49.646c4.137,2.009,6.824,6.165,6.824,10.796    v0.717c0,4.631-2.687,8.786-6.824,10.796c-18.313,8.894-30.954,27.777-30.954,49.646V248h109.556v-59.2    c0-21.868-12.641-40.752-30.954-49.646c-4.137-2.009-6.824-6.165-6.824-10.796v-0.717c0-4.631,2.687-8.786,6.824-10.796    C170.137,107.952,182.778,89.069,182.778,67.2z"/>
	</g>
	<g>
		<path class="st19" d="M174.778,191.8c-1.657,0-3-1.343-3-3c0-16.844-9.719-32.446-24.76-39.751    c-1.49-0.724-2.112-2.519-1.388-4.009c0.725-1.49,2.519-2.111,4.009-1.388c17.094,8.301,28.139,26.022,28.139,45.147    C177.778,190.457,176.435,191.8,174.778,191.8z"/>
	</g>
	<g>
		<path class="st20" d="M132.176,139.154c4.137-2.01,6.824-6.165,6.824-10.796v-0.717c0-4.631-2.687-8.786-6.824-10.796    c-18.313-8.894-30.954-27.777-30.954-49.646V8h-28v59.2c0,21.868,12.641,40.752,30.954,49.646    c4.137,2.01,6.824,6.165,6.824,10.796v0.717c0,4.631-2.687,8.786-6.824,10.796c-18.313,8.894-30.954,27.777-30.954,49.646V248h28    v-59.2C101.222,166.932,113.863,148.048,132.176,139.154z"/>
	</g>
	<g>
		<path class="st2" d="M87.509,87.683c7.45,14.86,22.729,25.079,40.339,25.079h0.303c17.61,0,32.889-10.219,40.339-25.079H87.509z"/>
	</g>
	<g>
		<path class="st2" d="M173.333,232.445v-7.454c0-25.123-20.268-45.562-45.182-45.562h-0.303c-24.913,0-45.182,20.439-45.182,45.562    v7.454H173.333z"/>
	</g>
	<g>
		<rect x="124" y="103.238" class="st2" width="8" height="80"/>
	</g>
	<g>
		<path class="st5" d="M101.222,188.8c0-0.199,0.009-0.396,0.011-0.596c-11.244,8.296-18.566,21.692-18.566,36.786v7.454h18.556    V188.8z"/>
	</g>
	<g>
		<path class="st5" d="M124,144.054c2.515-1.823,5.191-3.434,8-4.811v-22.486c-2.809-1.377-5.485-2.987-8-4.811V144.054z"/>
	</g>
	<g>
		<path class="st5" d="M125.032,112.668c-8.864-6.117-15.846-14.798-19.898-24.985H87.509    C94.559,101.745,108.62,111.645,125.032,112.668z"/>
	</g>
	<g>
		<path class="st7" d="M190.31,29.111H65.69c-3.143,0-5.69-2.548-5.69-5.69v-9.572c0-3.143,2.548-5.69,5.69-5.69H190.31    c3.143,0,5.69,2.548,5.69,5.69v9.572C196,26.563,193.452,29.111,190.31,29.111z"/>
	</g>
	<g>
		<path class="st7" d="M65.69,226.889H190.31c3.143,0,5.69,2.548,5.69,5.69v9.572c0,3.143-2.548,5.69-5.69,5.69H65.69    c-3.143,0-5.69-2.548-5.69-5.69v-9.572C60,229.437,62.548,226.889,65.69,226.889z"/>
	</g>
	<g>
		<circle class="st20" cx="115.111" cy="43.141" r="9"/>
	</g>
	<g>
		<circle class="st5" cx="115.111" cy="214.975" r="9"/>
	</g>
	<g>
		<path class="st8" d="M88,23.421V13.85c0-3.144,2.548-5.691,5.69-5.691h-28c-3.143,0-5.69,2.548-5.69,5.691v9.571    c0,3.143,2.548,5.69,5.69,5.69h28C90.548,29.111,88,26.563,88,23.421z"/>
	</g>
	<g>
		<path class="st8" d="M88,242.15v-9.571c0-3.143,2.548-5.69,5.69-5.69h-28c-3.143,0-5.69,2.548-5.69,5.69v9.571    c0,3.144,2.548,5.69,5.69,5.69h28C90.548,247.841,88,245.294,88,242.15z"/>
	</g>
</g>
</svg>
