<svg xmlns="http://www.w3.org/2000/svg" width="336" height="312" style="
        width:336px;
        height:312px;
        background: transparent;
        fill: none;
">
        <svg xmlns="http://www.w3.org/2000/svg"/>
        <svg xmlns="http://www.w3.org/2000/svg" class="role-diagram-draw-area"><g class="shapes-region" style="stroke: black; fill: none;"><g class="composite-shape" data-amt="diagram/shapes/plot" style="transform: matrix(1, 0, 0, 1, 18.5, 54);"><defs><clipPath id="dp646141900656392"><rect x="1" y="1" width="297" height="234"/></clipPath></defs><g><g clip-path="url(#dp646141900656392)"><g style="font-family: Asana-Math, Asana;"><line x1="0" y1="198.3973941368077" x2="297.5" y2="198.3973941368077" fill="none" stroke="rgba(155,155,155,1)" stroke-width="2"/><line x1="98.80181188925076" y1="192.3973941368077" x2="98.80181188925076" y2="204.3973941368077" fill="none" stroke="rgba(155,155,155,1)" stroke-width="2"/><line x1="158.92681188925076" y1="192.3973941368077" x2="158.92681188925076" y2="204.3973941368077" fill="none" stroke="rgba(155,155,155,1)" stroke-width="2"/><line x1="219.05181188925076" y1="192.3973941368077" x2="219.05181188925076" y2="204.3973941368077" fill="none" stroke="rgba(155,155,155,1)" stroke-width="2"/><line x1="279.17681188925076" y1="192.3973941368077" x2="279.17681188925076" y2="204.3973941368077" fill="none" stroke="rgba(155,155,155,1)" stroke-width="2"/><path d="M290.5,192.3973941368077 L296.5,198.3973941368077 L290.5,204.3973941368077" stroke="rgba(155,155,155,1)" stroke-width="2"/></g><g style="font-family: Asana-Math, Asana;"><line x1="38.67681188925076" y1="1.5" x2="38.67681188925076" y2="236" fill="none" stroke="rgba(155,155,155,1)" stroke-width="2"/><line x1="32.67681188925076" y1="153.59739413680768" x2="44.67681188925076" y2="153.59739413680768" fill="none" stroke="rgba(155,155,155,1)" stroke-width="2"/><line x1="32.67681188925076" y1="108.7973941368077" x2="44.67681188925076" y2="108.7973941368077" fill="none" stroke="rgba(155,155,155,1)" stroke-width="2"/><line x1="32.67681188925076" y1="63.99739413680766" x2="44.67681188925076" y2="63.99739413680766" fill="none" stroke="rgba(155,155,155,1)" stroke-width="2"/><line x1="32.67681188925076" y1="19.197394136807702" x2="44.67681188925076" y2="19.197394136807702" fill="none" stroke="rgba(155,155,155,1)" stroke-width="2"/><path d="M32.67681188925076,8.5 L38.67681188925076,2.5 L44.67681188925076,8.5" stroke="rgba(155,155,155,1)" stroke-width="2"/></g><g><path d=" M39.07,195.30 L39.57,192.09 L40.07,189.21 L40.57,186.52 L41.07,183.98 L41.57,181.56 L42.07,179.23 L42.57,176.98 L43.07,174.81 L43.57,172.69 L44.07,170.63 L44.57,168.63 L45.08,166.67 L45.58,164.75 L46.08,162.87 L46.58,161.03 L47.08,159.23 L47.58,157.46 L48.08,155.72 L48.58,154.01 L49.08,152.33 L49.58,150.68 L50.08,149.05 L50.58,147.45 L51.09,145.87 L51.59,144.31 L52.09,142.78 L52.59,141.26 L53.09,139.77 L53.59,138.30 L54.09,136.85 L54.59,135.41 L55.09,134.00 L55.59,132.60 L56.09,131.22 L56.59,129.85 L57.10,128.50 L57.60,127.17 L58.10,125.85 L58.60,124.55 L59.10,123.27 L59.60,121.99 L60.10,120.73 L60.60,119.49 L61.10,118.26 L61.60,117.04 L62.10,115.83 L62.60,114.64 L63.11,113.46 L63.61,112.29 L64.11,111.14 L64.61,110.00 L65.11,108.86 L65.61,107.74 L66.11,106.63 L66.61,105.54 L67.11,104.45 L67.61,103.37 L68.11,102.31 L68.61,101.25 L69.12,100.21 L69.62,99.17 L70.12,98.15 L70.62,97.13 L71.12,96.13 L71.62,95.13 L72.12,94.14 L72.62,93.17 L73.12,92.20 L73.62,91.24 L74.12,90.29 L74.62,89.35 L75.13,88.42 L75.63,87.50 L76.13,86.58 L76.63,85.68 L77.13,84.78 L77.63,83.89 L78.13,83.01 L78.63,82.14 L79.13,81.27 L79.63,80.42 L80.13,79.57 L80.63,78.73 L81.14,77.89 L81.64,77.07 L82.14,76.25 L82.64,75.44 L83.14,74.64 L83.64,73.84 L84.14,73.05 L84.64,72.27 L85.14,71.50 L85.64,70.74 L86.14,69.98 L86.64,69.22 L87.15,68.48 L87.65,67.74 L88.15,67.01 L88.65,66.29 L89.15,65.57 L89.65,64.86 L90.15,64.16 L90.65,63.46 L91.15,62.77 L91.65,62.09 L92.15,61.41 L92.65,60.74 L93.16,60.07 L93.66,59.41 L94.16,58.76 L94.66,58.12 L95.16,57.48 L95.66,56.85 L96.16,56.22 L96.66,55.60 L97.16,54.98 L97.66,54.38 L98.16,53.77 L98.66,53.18 L99.17,52.59 L99.67,52.00 L100.17,51.43 L100.67,50.85 L101.17,50.29 L101.67,49.73 L102.17,49.17 L102.67,48.62 L103.17,48.08 L103.67,47.54 L104.17,47.01 L104.68,46.48 L105.18,45.96 L105.68,45.45 L106.18,44.94 L106.68,44.43 L107.18,43.94 L107.68,43.44 L108.18,42.96 L108.68,42.47 L109.18,42.00 L109.68,41.53 L110.18,41.06 L110.69,40.60 L111.19,40.14 L111.69,39.69 L112.19,39.25 L112.69,38.81 L113.19,38.38 L113.69,37.95 L114.19,37.53 L114.69,37.11 L115.19,36.69 L115.69,36.29 L116.19,35.88 L116.70,35.49 L117.20,35.09 L117.70,34.71 L118.20,34.32 L118.70,33.95 L119.20,33.57 L119.70,33.21 L120.20,32.85 L120.70,32.49 L121.20,32.14 L121.70,31.79 L122.20,31.45 L122.71,31.11 L123.21,30.78 L123.71,30.45 L124.21,30.13 L124.71,29.81 L125.21,29.50 L125.71,29.19 L126.21,28.89 L126.71,28.59 L127.21,28.30 L127.71,28.01 L128.21,27.72 L128.72,27.44 L129.22,27.17 L129.72,26.90 L130.22,26.64 L130.72,26.38 L131.22,26.12 L131.72,25.87 L132.22,25.63 L132.72,25.39 L133.22,25.15 L133.72,24.92 L134.22,24.69 L134.73,24.47 L135.23,24.25 L135.73,24.04 L136.23,23.83 L136.73,23.63 L137.23,23.43 L137.73,23.23 L138.23,23.05 L138.73,22.86 L139.23,22.68 L139.73,22.50 L140.23,22.33 L140.74,22.17 L141.24,22.01 L141.74,21.85 L142.24,21.70 L142.74,21.55 L143.24,21.40 L143.74,21.26 L144.24,21.13 L144.74,21.00 L145.24,20.87 L145.74,20.75 L146.24,20.64 L146.75,20.53 L147.25,20.42 L147.75,20.32 L148.25,20.22 L148.75,20.12 L149.25,20.04 L149.75,19.95 L150.25,19.87 L150.75,19.80 L151.25,19.72 L151.75,19.66 L152.25,19.60 L152.76,19.54 L153.26,19.48 L153.76,19.44 L154.26,19.39 L154.76,19.35 L155.26,19.32 L155.76,19.29 L156.26,19.26 L156.76,19.24 L157.26,19.22 L157.76,19.21 L158.26,19.20 L158.77,19.20 L159.27,19.20 L159.77,19.20 L160.27,19.21 L160.77,19.23 L161.27,19.25 L161.77,19.27 L162.27,19.30 L162.77,19.33 L163.27,19.37 L163.77,19.41 L164.27,19.45 L164.78,19.50 L165.28,19.56 L165.78,19.62 L166.28,19.68 L166.78,19.75 L167.28,19.82 L167.78,19.90 L168.28,19.98 L168.78,20.07 L169.28,20.16 L169.78,20.25 L170.28,20.35 L170.79,20.46 L171.29,20.57 L171.79,20.68 L172.29,20.80 L172.79,20.92 L173.29,21.05 L173.79,21.18 L174.29,21.31 L174.79,21.45 L175.29,21.60 L175.79,21.75 L176.29,21.90 L176.80,22.06 L177.30,22.23 L177.80,22.39 L178.30,22.57 L178.80,22.74 L179.30,22.93 L179.80,23.11 L180.30,23.30 L180.80,23.50 L181.30,23.70 L181.80,23.90 L182.30,24.11 L182.81,24.33 L183.31,24.55 L183.81,24.77 L184.31,25.00 L184.81,25.23 L185.31,25.47 L185.81,25.71 L186.31,25.96 L186.81,26.21 L187.31,26.47 L187.81,26.73 L188.31,27.00 L188.82,27.27 L189.32,27.54 L189.82,27.82 L190.32,28.11 L190.82,28.40 L191.32,28.69 L191.82,28.99 L192.32,29.30 L192.82,29.61 L193.32,29.92 L193.82,30.24 L194.32,30.57 L194.83,30.90 L195.33,31.23 L195.83,31.57 L196.33,31.91 L196.83,32.26 L197.33,32.62 L197.83,32.97 L198.33,33.34 L198.83,33.71 L199.33,34.08 L199.83,34.46 L200.34,34.84 L200.84,35.23 L201.34,35.63 L201.84,36.03 L202.34,36.43 L202.84,36.84 L203.34,37.26 L203.84,37.68 L204.34,38.10 L204.84,38.53 L205.34,38.97 L205.84,39.41 L206.35,39.85 L206.85,40.31 L207.35,40.76 L207.85,41.22 L208.35,41.69 L208.85,42.17 L209.35,42.64 L209.85,43.13 L210.35,43.62 L210.85,44.11 L211.35,44.61 L211.85,45.12 L212.36,45.63 L212.86,46.15 L213.36,46.67 L213.86,47.20 L214.36,47.73 L214.86,48.27 L215.36,48.82 L215.86,49.37 L216.36,49.92 L216.86,50.49 L217.36,51.06 L217.86,51.63 L218.37,52.21 L218.87,52.80 L219.37,53.39 L219.87,53.99 L220.37,54.59 L220.87,55.20 L221.37,55.82 L221.87,56.44 L222.37,57.07 L222.87,57.71 L223.37,58.35 L223.87,58.99 L224.38,59.65 L224.88,60.31 L225.38,60.97 L225.88,61.65 L226.38,62.33 L226.88,63.01 L227.38,63.71 L227.88,64.41 L228.38,65.11 L228.88,65.82 L229.38,66.54 L229.88,67.27 L230.39,68.00 L230.89,68.74 L231.39,69.49 L231.89,70.25 L232.39,71.01 L232.89,71.78 L233.39,72.55 L233.89,73.33 L234.39,74.12 L234.89,74.92 L235.39,75.73 L235.89,76.54 L236.40,77.36 L236.90,78.19 L237.40,79.02 L237.90,79.87 L238.40,80.72 L238.90,81.58 L239.40,82.45 L239.90,83.32 L240.40,84.21 L240.90,85.10 L241.40,86.00 L241.90,86.91 L242.41,87.82 L242.91,88.75 L243.41,89.68 L243.91,90.63 L244.41,91.58 L244.91,92.54 L245.41,93.51 L245.91,94.49 L246.41,95.48 L246.91,96.48 L247.41,97.49 L247.91,98.51 L248.42,99.54 L248.92,100.58 L249.42,101.63 L249.92,102.68 L250.42,103.75 L250.92,104.83 L251.42,105.93 L251.92,107.03 L252.42,108.14 L252.92,109.27 L253.42,110.40 L253.92,111.55 L254.43,112.71 L254.93,113.88 L255.43,115.06 L255.93,116.26 L256.43,117.47 L256.93,118.69 L257.43,119.93 L257.93,121.18 L258.43,122.44 L258.93,123.72 L259.43,125.01 L259.93,126.32 L260.44,127.64 L260.94,128.98 L261.44,130.34 L261.94,131.71 L262.44,133.09 L262.94,134.50 L263.44,135.92 L263.94,137.36 L264.44,138.82 L264.94,140.30 L265.44,141.80 L265.94,143.32 L266.45,144.86 L266.95,146.43 L267.45,148.01 L267.95,149.63 L268.45,151.26 L268.95,152.93 L269.45,154.62 L269.95,156.34 L270.45,158.09 L270.95,159.87 L271.45,161.68 L271.95,163.54 L272.46,165.43 L272.96,167.36 L273.46,169.34 L273.96,171.36 L274.46,173.44 L274.96,175.57 L275.46,177.78 L275.96,180.05 L276.46,182.41 L276.96,184.87 L277.46,187.46 L277.96,190.21 L278.47,193.18 L278.97,196.58" style="stroke-width: 3; stroke: rgb(74, 144, 226);"/></g><g style="font-family: Asana-Math, Asana;"><text text-anchor="middle" font-size="14" dominant-baseline="hanging" stroke="none" fill="#808080" x="98.80181188925076" y="206.3973941368077">0.25</text><text text-anchor="middle" font-size="14" dominant-baseline="hanging" stroke="none" fill="#808080" x="158.92681188925076" y="206.3973941368077">0.5</text><text text-anchor="middle" font-size="14" dominant-baseline="hanging" stroke="none" fill="#808080" x="219.05181188925076" y="206.3973941368077">0.75</text><text text-anchor="middle" font-size="14" dominant-baseline="hanging" stroke="none" fill="#808080" x="279.17681188925076" y="206.3973941368077">1</text><text text-anchor="middle" font-size="14" dominant-baseline="hanging" stroke="none" fill="#808080" x="29.676811889250764" y="204.3973941368077">0</text></g><g style="font-family: Asana-Math, Asana;"><text text-anchor="end" dominant-baseline="middle" font-size="14" stroke="none" fill="#808080" x="29.676811889250757" y="153.59739413680768">0.25</text><text text-anchor="end" dominant-baseline="middle" font-size="14" stroke="none" fill="#808080" x="29.676811889250757" y="108.7973941368077">0.5</text><text text-anchor="end" dominant-baseline="middle" font-size="14" stroke="none" fill="#808080" x="29.676811889250757" y="63.99739413680766">0.75</text><text text-anchor="end" dominant-baseline="middle" font-size="14" stroke="none" fill="#808080" x="29.676811889250757" y="19.197394136807702">1</text></g><rect class="real" x="1" y="1" width="297" height="234" style="fill: transparent; stroke: none;"/></g></g></g><g/></g><g/><g/><!-- react-empty: 452 --></svg>
        <svg xmlns="http://www.w3.org/2000/svg" width="334" height="310" style="width:334px;height:310px;font-family:Asana-Math, Asana;background:transparent;"><g><g><g><g><g><g style="transform:matrix(1,0,0,1,173.78515625,297.5078125);"><path d="M176 -11C232 -11 347 62 390 125C431 186 465 296 465 371C465 438 442 482 406 482C364 482 311 456 259 409C218 374 198 348 162 289L186 408C189 425 191 440 191 452C191 471 183 482 169 482C148 482 110 461 36 408L8 388L15 368L47 389C75 407 86 412 95 412C105 412 112 403 112 389C112 381 110 361 108 351L50 8C40 -52 21 -143 1 -233L-7 -270L0 -276C21 -269 41 -264 73 -259L115 3C136 -4 158 -11 176 -11ZM143 165C165 293 272 424 355 424C381 424 393 402 393 356C393 275 353 156 300 80C280 51 248 36 207 36C176 36 151 43 125 59Z" stroke="rgb(0, 0, 0)" stroke-width="8" fill="rgb(0, 0, 0)" style="transform:matrix(0.017,0,0,-0.017,0,0);"></path></g><g><g><g><g style="transform:matrix(1,0,0,1,182.26953125,302.8921875);"><path d="M418 -3L418 27L366 30C311 33 301 44 301 96L301 700L60 598L67 548L217 614L217 96C217 44 206 33 152 30L96 27L96 -3C250 0 250 0 261 0C292 0 402 -3 418 -3Z" stroke="rgb(0, 0, 0)" stroke-width="8" fill="rgb(0, 0, 0)" style="transform:matrix(0.0119,0,0,-0.0119,0,0);"></path></g></g></g></g></g></g></g></g></g><g style="transform:matrix(0.017277899829364198,-0.9998507259473718,0.9998507259473718,0.017277899829364198,-134.2026694120454,157.4582081623993);"><g><g><g><g><g style="transform:matrix(1,0,0,1,-3.49609375,153.75);"><path d="M221 385L263 613C270 652 277 658 314 661L356 664L359 692L335 692L245 689C229 689 211 689 168 690L104 692L101 664L148 662C172 661 183 653 183 635C183 621 179 590 174 559L100 125C83 33 82 32 42 28L1 25L-3 -3L39 -2C87 -1 110 0 129 0L226 -3L252 -3L255 25L206 28C179 30 170 37 170 58C170 67 171 74 174 93L216 340L277 341C339 342 381 343 400 343C419 343 460 342 523 341L584 340L544 125C535 76 528 48 523 42C519 34 508 30 486 28L436 25L432 -3L488 -2C532 -1 562 0 573 0C589 0 620 -1 663 -2L705 -3L708 25L650 28C624 29 614 37 614 58C614 67 615 76 618 93L710 613C717 652 723 657 761 661L797 664L800 692L784 692L693 689C678 689 657 689 613 690L550 692L547 664L595 662C619 661 630 653 630 635C630 621 626 589 621 559L591 385Z" stroke="rgba(0, 0, 0, 0.86)" stroke-width="8" fill="rgba(0, 0, 0, 0.86)" style="transform:matrix(0.017,0,0,-0.017,0,0);"></path></g><g style="transform:matrix(1,0,0,1,9.71484375,153.75);"><path d="M146 266C146 526 243 632 301 700L282 726C225 675 60 542 60 266C60 159 85 58 133 -32C168 -99 200 -138 282 -215L301 -194C255 -137 146 -15 146 266Z" stroke="rgba(0, 0, 0, 0.86)" stroke-width="8" fill="rgba(0, 0, 0, 0.86)" style="transform:matrix(0.017,0,0,-0.017,0,0);"></path></g><g style="transform:matrix(1,0,0,1,15.36328125,153.75);"><path d="M176 -11C232 -11 347 62 390 125C431 186 465 296 465 371C465 438 442 482 406 482C364 482 311 456 259 409C218 374 198 348 162 289L186 408C189 425 191 440 191 452C191 471 183 482 169 482C148 482 110 461 36 408L8 388L15 368L47 389C75 407 86 412 95 412C105 412 112 403 112 389C112 381 110 361 108 351L50 8C40 -52 21 -143 1 -233L-7 -270L0 -276C21 -269 41 -264 73 -259L115 3C136 -4 158 -11 176 -11ZM143 165C165 293 272 424 355 424C381 424 393 402 393 356C393 275 353 156 300 80C280 51 248 36 207 36C176 36 151 43 125 59Z" stroke="rgba(0, 0, 0, 0.86)" stroke-width="8" fill="rgba(0, 0, 0, 0.86)" style="transform:matrix(0.017,0,0,-0.017,0,0);"></path></g><g style="transform:matrix(1,0,0,1,23.84765625,153.75);"><path d="M51 726L32 700C87 636 187 526 187 266C187 -10 83 -131 32 -194L51 -215C104 -165 273 -23 273 265C273 542 108 675 51 726Z" stroke="rgba(0, 0, 0, 0.86)" stroke-width="8" fill="rgba(0, 0, 0, 0.86)" style="transform:matrix(0.017,0,0,-0.017,0,0);"></path></g></g></g></g></g></g><g><g><g><g><g><g style="transform:matrix(1,0,0,1,38.640625,37.5078125);"><path d="M221 385L263 613C270 652 277 658 314 661L356 664L359 692L335 692L245 689C229 689 211 689 168 690L104 692L101 664L148 662C172 661 183 653 183 635C183 621 179 590 174 559L100 125C83 33 82 32 42 28L1 25L-3 -3L39 -2C87 -1 110 0 129 0L226 -3L252 -3L255 25L206 28C179 30 170 37 170 58C170 67 171 74 174 93L216 340L277 341C339 342 381 343 400 343C419 343 460 342 523 341L584 340L544 125C535 76 528 48 523 42C519 34 508 30 486 28L436 25L432 -3L488 -2C532 -1 562 0 573 0C589 0 620 -1 663 -2L705 -3L708 25L650 28C624 29 614 37 614 58C614 67 615 76 618 93L710 613C717 652 723 657 761 661L797 664L800 692L784 692L693 689C678 689 657 689 613 690L550 692L547 664L595 662C619 661 630 653 630 635C630 621 626 589 621 559L591 385Z" stroke="rgba(0, 0, 0, 0.8)" stroke-width="8" fill="rgba(0, 0, 0, 0.8)" style="transform:matrix(0.017,0,0,-0.017,0,0);"></path></g><g style="transform:matrix(1,0,0,1,51.8515625,37.5078125);"><path d="M146 266C146 526 243 632 301 700L282 726C225 675 60 542 60 266C60 159 85 58 133 -32C168 -99 200 -138 282 -215L301 -194C255 -137 146 -15 146 266Z" stroke="rgba(0, 0, 0, 0.8)" stroke-width="8" fill="rgba(0, 0, 0, 0.8)" style="transform:matrix(0.017,0,0,-0.017,0,0);"></path></g><g style="transform:matrix(1,0,0,1,57.5,37.5078125);"><path d="M176 -11C232 -11 347 62 390 125C431 186 465 296 465 371C465 438 442 482 406 482C364 482 311 456 259 409C218 374 198 348 162 289L186 408C189 425 191 440 191 452C191 471 183 482 169 482C148 482 110 461 36 408L8 388L15 368L47 389C75 407 86 412 95 412C105 412 112 403 112 389C112 381 110 361 108 351L50 8C40 -52 21 -143 1 -233L-7 -270L0 -276C21 -269 41 -264 73 -259L115 3C136 -4 158 -11 176 -11ZM143 165C165 293 272 424 355 424C381 424 393 402 393 356C393 275 353 156 300 80C280 51 248 36 207 36C176 36 151 43 125 59Z" stroke="rgba(0, 0, 0, 0.8)" stroke-width="8" fill="rgba(0, 0, 0, 0.8)" style="transform:matrix(0.017,0,0,-0.017,0,0);"></path></g><g style="transform:matrix(1,0,0,1,65.984375,37.5078125);"><path d="M51 726L32 700C87 636 187 526 187 266C187 -10 83 -131 32 -194L51 -215C104 -165 273 -23 273 265C273 542 108 675 51 726Z" stroke="rgba(0, 0, 0, 0.8)" stroke-width="8" fill="rgba(0, 0, 0, 0.8)" style="transform:matrix(0.017,0,0,-0.017,0,0);"></path></g><g style="transform:matrix(1,0,0,1,76.7265625,37.5078125);"><path d="M604 347L604 406L65 406L65 347ZM604 134L604 193L65 193L65 134Z" stroke="rgba(0, 0, 0, 0.8)" stroke-width="8" fill="rgba(0, 0, 0, 0.8)" style="transform:matrix(0.017,0,0,-0.017,0,0);"></path></g><g style="transform:matrix(1,0,0,1,96.578125,37.5078125);"><path d="M555 243L555 299L51 299L51 243Z" stroke="rgba(0, 0, 0, 0.8)" stroke-width="8" fill="rgba(0, 0, 0, 0.8)" style="transform:matrix(0.017,0,0,-0.017,0,0);"></path></g><g style="transform:matrix(1,0,0,1,110.265625,37.5078125);"><path d="M176 -11C232 -11 347 62 390 125C431 186 465 296 465 371C465 438 442 482 406 482C364 482 311 456 259 409C218 374 198 348 162 289L186 408C189 425 191 440 191 452C191 471 183 482 169 482C148 482 110 461 36 408L8 388L15 368L47 389C75 407 86 412 95 412C105 412 112 403 112 389C112 381 110 361 108 351L50 8C40 -52 21 -143 1 -233L-7 -270L0 -276C21 -269 41 -264 73 -259L115 3C136 -4 158 -11 176 -11ZM143 165C165 293 272 424 355 424C381 424 393 402 393 356C393 275 353 156 300 80C280 51 248 36 207 36C176 36 151 43 125 59Z" stroke="rgba(0, 0, 0, 0.8)" stroke-width="8" fill="rgba(0, 0, 0, 0.8)" style="transform:matrix(0.017,0,0,-0.017,0,0);"></path></g><g><g><g><g style="transform:matrix(1,0,0,1,118.75,42.8921875);"><path d="M418 -3L418 27L366 30C311 33 301 44 301 96L301 700L60 598L67 548L217 614L217 96C217 44 206 33 152 30L96 27L96 -3C250 0 250 0 261 0C292 0 402 -3 418 -3Z" stroke="rgba(0, 0, 0, 0.8)" stroke-width="8" fill="rgba(0, 0, 0, 0.8)" style="transform:matrix(0.0119,0,0,-0.0119,0,0);"></path></g></g></g></g><g><g style="transform:matrix(1,0,0,1,128.09375,37.5078125);"><path d="M23 661L79 661C97 661 104 650 104 620L104 102C104 39 101 32 67 30L21 27L21 -3C121 0 121 0 146 0C171 0 171 0 271 -3L271 27L225 30C191 32 188 39 188 102L188 718L179 726C135 709 102 701 23 689ZM569 469C423 469 322 366 322 217C322 76 411 -20 540 -20C694 -20 804 87 804 237C804 372 706 469 569 469ZM551 436C643 436 711 336 711 200C711 85 660 13 579 13C481 13 415 109 415 251C415 371 463 436 551 436ZM890 289C890 215 936 164 1010 156L931 95C921 80 916 67 916 52C916 24 934 8 982 -6L895 -53C881 -61 867 -98 867 -129C867 -220 956 -283 1083 -283C1234 -283 1353 -188 1353 -66C1353 6 1305 56 1235 56L1075 56C1023 56 999 68 999 95C999 118 1028 135 1045 152C1055 151 1061 150 1069 150C1130 150 1273 197 1273 324C1273 344 1270 357 1262 378L1354 378L1379 419L1375 431L1233 427C1196 457 1160 469 1111 469C1036 469 890 424 890 289ZM1075 435C1143 435 1189 379 1189 294C1189 229 1147 184 1086 184C1019 184 974 236 974 313C974 390 1011 435 1075 435ZM1122 -14C1235 -14 1274 -37 1274 -102C1274 -188 1195 -252 1090 -252C1003 -252 943 -201 943 -127C943 -82 969 -41 1009 -24C1025 -16 1053 -14 1122 -14Z" stroke="rgba(0, 0, 0, 0.8)" stroke-width="8" fill="rgba(0, 0, 0, 0.8)" style="transform:matrix(0.017,0,0,-0.017,0,0);"></path></g></g><g><g><g><g style="transform:matrix(1,0,0,1,151.7265625,42.2046875);"><path d="M16 23L16 -3C203 -3 203 0 239 0C275 0 275 -3 468 -3L468 82C353 77 307 81 122 77L304 270C401 373 431 428 431 503C431 618 353 689 226 689C154 689 105 669 56 619L39 483L68 483L81 529C97 587 133 612 200 612C286 612 341 558 341 473C341 398 299 324 186 204Z" stroke="rgba(0, 0, 0, 0.8)" stroke-width="8" fill="rgba(0, 0, 0, 0.8)" style="transform:matrix(0.0119,0,0,-0.0119,0,0);"></path></g></g></g></g><g style="transform:matrix(1,0,0,1,157.671875,37.5078125);"><path d="M176 -11C232 -11 347 62 390 125C431 186 465 296 465 371C465 438 442 482 406 482C364 482 311 456 259 409C218 374 198 348 162 289L186 408C189 425 191 440 191 452C191 471 183 482 169 482C148 482 110 461 36 408L8 388L15 368L47 389C75 407 86 412 95 412C105 412 112 403 112 389C112 381 110 361 108 351L50 8C40 -52 21 -143 1 -233L-7 -270L0 -276C21 -269 41 -264 73 -259L115 3C136 -4 158 -11 176 -11ZM143 165C165 293 272 424 355 424C381 424 393 402 393 356C393 275 353 156 300 80C280 51 248 36 207 36C176 36 151 43 125 59Z" stroke="rgba(0, 0, 0, 0.8)" stroke-width="8" fill="rgba(0, 0, 0, 0.8)" style="transform:matrix(0.017,0,0,-0.017,0,0);"></path></g><g><g><g><g style="transform:matrix(1,0,0,1,166.15625,42.8921875);"><path d="M418 -3L418 27L366 30C311 33 301 44 301 96L301 700L60 598L67 548L217 614L217 96C217 44 206 33 152 30L96 27L96 -3C250 0 250 0 261 0C292 0 402 -3 418 -3Z" stroke="rgba(0, 0, 0, 0.8)" stroke-width="8" fill="rgba(0, 0, 0, 0.8)" style="transform:matrix(0.0119,0,0,-0.0119,0,0);"></path></g></g></g></g><g style="transform:matrix(1,0,0,1,175.5,37.5078125);"><path d="M555 243L555 299L51 299L51 243Z" stroke="rgba(0, 0, 0, 0.8)" stroke-width="8" fill="rgba(0, 0, 0, 0.8)" style="transform:matrix(0.017,0,0,-0.017,0,0);"></path></g><g style="transform:matrix(1,0,0,1,189.1875,37.5078125);"><path d="M146 266C146 526 243 632 301 700L282 726C225 675 60 542 60 266C60 159 85 58 133 -32C168 -99 200 -138 282 -215L301 -194C255 -137 146 -15 146 266Z" stroke="rgba(0, 0, 0, 0.8)" stroke-width="8" fill="rgba(0, 0, 0, 0.8)" style="transform:matrix(0.017,0,0,-0.017,0,0);"></path></g><g style="transform:matrix(1,0,0,1,194.8359375,37.5078125);"><path d="M418 -3L418 27L366 30C311 33 301 44 301 96L301 700L60 598L67 548L217 614L217 96C217 44 206 33 152 30L96 27L96 -3C250 0 250 0 261 0C292 0 402 -3 418 -3Z" stroke="rgba(0, 0, 0, 0.8)" stroke-width="8" fill="rgba(0, 0, 0, 0.8)" style="transform:matrix(0.017,0,0,-0.017,0,0);"></path></g><g style="transform:matrix(1,0,0,1,206.71875,37.5078125);"><path d="M555 243L555 299L51 299L51 243Z" stroke="rgba(0, 0, 0, 0.8)" stroke-width="8" fill="rgba(0, 0, 0, 0.8)" style="transform:matrix(0.017,0,0,-0.017,0,0);"></path></g><g style="transform:matrix(1,0,0,1,220.40625,37.5078125);"><path d="M176 -11C232 -11 347 62 390 125C431 186 465 296 465 371C465 438 442 482 406 482C364 482 311 456 259 409C218 374 198 348 162 289L186 408C189 425 191 440 191 452C191 471 183 482 169 482C148 482 110 461 36 408L8 388L15 368L47 389C75 407 86 412 95 412C105 412 112 403 112 389C112 381 110 361 108 351L50 8C40 -52 21 -143 1 -233L-7 -270L0 -276C21 -269 41 -264 73 -259L115 3C136 -4 158 -11 176 -11ZM143 165C165 293 272 424 355 424C381 424 393 402 393 356C393 275 353 156 300 80C280 51 248 36 207 36C176 36 151 43 125 59Z" stroke="rgba(0, 0, 0, 0.8)" stroke-width="8" fill="rgba(0, 0, 0, 0.8)" style="transform:matrix(0.017,0,0,-0.017,0,0);"></path></g><g><g><g><g style="transform:matrix(1,0,0,1,228.890625,42.8921875);"><path d="M418 -3L418 27L366 30C311 33 301 44 301 96L301 700L60 598L67 548L217 614L217 96C217 44 206 33 152 30L96 27L96 -3C250 0 250 0 261 0C292 0 402 -3 418 -3Z" stroke="rgba(0, 0, 0, 0.8)" stroke-width="8" fill="rgba(0, 0, 0, 0.8)" style="transform:matrix(0.0119,0,0,-0.0119,0,0);"></path></g></g></g></g><g style="transform:matrix(1,0,0,1,234.8359375,37.5078125);"><path d="M51 726L32 700C87 636 187 526 187 266C187 -10 83 -131 32 -194L51 -215C104 -165 273 -23 273 265C273 542 108 675 51 726Z" stroke="rgba(0, 0, 0, 0.8)" stroke-width="8" fill="rgba(0, 0, 0, 0.8)" style="transform:matrix(0.017,0,0,-0.017,0,0);"></path></g><g><g style="transform:matrix(1,0,0,1,240.484375,37.5078125);"><path d="M23 661L79 661C97 661 104 650 104 620L104 102C104 39 101 32 67 30L21 27L21 -3C121 0 121 0 146 0C171 0 171 0 271 -3L271 27L225 30C191 32 188 39 188 102L188 718L179 726C135 709 102 701 23 689ZM569 469C423 469 322 366 322 217C322 76 411 -20 540 -20C694 -20 804 87 804 237C804 372 706 469 569 469ZM551 436C643 436 711 336 711 200C711 85 660 13 579 13C481 13 415 109 415 251C415 371 463 436 551 436ZM890 289C890 215 936 164 1010 156L931 95C921 80 916 67 916 52C916 24 934 8 982 -6L895 -53C881 -61 867 -98 867 -129C867 -220 956 -283 1083 -283C1234 -283 1353 -188 1353 -66C1353 6 1305 56 1235 56L1075 56C1023 56 999 68 999 95C999 118 1028 135 1045 152C1055 151 1061 150 1069 150C1130 150 1273 197 1273 324C1273 344 1270 357 1262 378L1354 378L1379 419L1375 431L1233 427C1196 457 1160 469 1111 469C1036 469 890 424 890 289ZM1075 435C1143 435 1189 379 1189 294C1189 229 1147 184 1086 184C1019 184 974 236 974 313C974 390 1011 435 1075 435ZM1122 -14C1235 -14 1274 -37 1274 -102C1274 -188 1195 -252 1090 -252C1003 -252 943 -201 943 -127C943 -82 969 -41 1009 -24C1025 -16 1053 -14 1122 -14Z" stroke="rgba(0, 0, 0, 0.8)" stroke-width="8" fill="rgba(0, 0, 0, 0.8)" style="transform:matrix(0.017,0,0,-0.017,0,0);"></path></g></g><g><g><g><g style="transform:matrix(1,0,0,1,264.1171875,42.2046875);"><path d="M16 23L16 -3C203 -3 203 0 239 0C275 0 275 -3 468 -3L468 82C353 77 307 81 122 77L304 270C401 373 431 428 431 503C431 618 353 689 226 689C154 689 105 669 56 619L39 483L68 483L81 529C97 587 133 612 200 612C286 612 341 558 341 473C341 398 299 324 186 204Z" stroke="rgba(0, 0, 0, 0.8)" stroke-width="8" fill="rgba(0, 0, 0, 0.8)" style="transform:matrix(0.0119,0,0,-0.0119,0,0);"></path></g></g></g></g><g style="transform:matrix(1,0,0,1,270.0625,37.5078125);"><path d="M146 266C146 526 243 632 301 700L282 726C225 675 60 542 60 266C60 159 85 58 133 -32C168 -99 200 -138 282 -215L301 -194C255 -137 146 -15 146 266Z" stroke="rgba(0, 0, 0, 0.8)" stroke-width="8" fill="rgba(0, 0, 0, 0.8)" style="transform:matrix(0.017,0,0,-0.017,0,0);"></path></g><g style="transform:matrix(1,0,0,1,275.7109375,37.5078125);"><path d="M418 -3L418 27L366 30C311 33 301 44 301 96L301 700L60 598L67 548L217 614L217 96C217 44 206 33 152 30L96 27L96 -3C250 0 250 0 261 0C292 0 402 -3 418 -3Z" stroke="rgba(0, 0, 0, 0.8)" stroke-width="8" fill="rgba(0, 0, 0, 0.8)" style="transform:matrix(0.017,0,0,-0.017,0,0);"></path></g><g style="transform:matrix(1,0,0,1,287.59375,37.5078125);"><path d="M555 243L555 299L51 299L51 243Z" stroke="rgba(0, 0, 0, 0.8)" stroke-width="8" fill="rgba(0, 0, 0, 0.8)" style="transform:matrix(0.017,0,0,-0.017,0,0);"></path></g><g style="transform:matrix(1,0,0,1,301.28125,37.5078125);"><path d="M176 -11C232 -11 347 62 390 125C431 186 465 296 465 371C465 438 442 482 406 482C364 482 311 456 259 409C218 374 198 348 162 289L186 408C189 425 191 440 191 452C191 471 183 482 169 482C148 482 110 461 36 408L8 388L15 368L47 389C75 407 86 412 95 412C105 412 112 403 112 389C112 381 110 361 108 351L50 8C40 -52 21 -143 1 -233L-7 -270L0 -276C21 -269 41 -264 73 -259L115 3C136 -4 158 -11 176 -11ZM143 165C165 293 272 424 355 424C381 424 393 402 393 356C393 275 353 156 300 80C280 51 248 36 207 36C176 36 151 43 125 59Z" stroke="rgba(0, 0, 0, 0.8)" stroke-width="8" fill="rgba(0, 0, 0, 0.8)" style="transform:matrix(0.017,0,0,-0.017,0,0);"></path></g><g><g><g><g style="transform:matrix(1,0,0,1,309.765625,42.8921875);"><path d="M418 -3L418 27L366 30C311 33 301 44 301 96L301 700L60 598L67 548L217 614L217 96C217 44 206 33 152 30L96 27L96 -3C250 0 250 0 261 0C292 0 402 -3 418 -3Z" stroke="rgba(0, 0, 0, 0.8)" stroke-width="8" fill="rgba(0, 0, 0, 0.8)" style="transform:matrix(0.0119,0,0,-0.0119,0,0);"></path></g></g></g></g><g style="transform:matrix(1,0,0,1,315.7109375,37.5078125);"><path d="M51 726L32 700C87 636 187 526 187 266C187 -10 83 -131 32 -194L51 -215C104 -165 273 -23 273 265C273 542 108 675 51 726Z" stroke="rgba(0, 0, 0, 0.8)" stroke-width="8" fill="rgba(0, 0, 0, 0.8)" style="transform:matrix(0.017,0,0,-0.017,0,0);"></path></g></g></g></g></g></g></svg>
</svg>
