<svg viewBox="0 0 120 120" fill="none" xmlns="http://www.w3.org/2000/svg"><rect width="120" height="120" rx="60" fill="#50C800"/><path fill-rule="evenodd" clip-rule="evenodd" d="M68.8659 39.2716L85.2931 21.6616C86.2224 20.6438 87.5094 20.8152 88.2033 21.9987C89.7131 24.5794 90.3746 27.4857 90.23 30.3602C90.2465 30.3613 90.2631 30.3628 90.2796 30.3642C90.3052 30.3664 90.331 30.3687 90.3571 30.3698L94.1614 26.2021C95.0908 25.1842 96.755 25.3556 97.4488 26.5401C98.6127 28.5286 99.2655 30.7126 99.4414 32.9265C106.324 36.5955 111 43.7725 111 52.0252V66.0231C111 78.0083 101.14 87.7247 88.9762 87.7247H87.3267C78.214 87.7247 70.3943 82.2704 67.0453 74.4934C64.4333 74.4818 62.0998 74.4729 60.0452 74.4668C57.9688 74.4729 55.6052 74.4819 52.9547 74.4937C49.6057 82.2707 41.786 87.725 32.6733 87.725H31.0238C18.8602 87.725 9 78.0086 9 66.0233V52.0255C9 43.7728 13.676 36.5957 20.5586 32.9268C20.7345 30.7129 21.3873 28.5289 22.5512 26.5403C23.245 25.3559 24.9093 25.1845 25.8386 26.2023L29.6429 30.3701C29.669 30.3689 29.6948 30.3667 29.7204 30.3645C29.7369 30.363 29.7535 30.3616 29.77 30.3605C29.6253 27.486 30.2869 24.5797 31.7967 21.9989C32.4906 20.8154 33.7776 20.644 34.7069 21.6619L51.1341 39.2718C53.7249 41.0717 56.8266 41.9791 59.9283 41.9985C63.0777 42.0066 66.2352 41.0992 68.8659 39.2716Z" fill="#8EE000"/><path fill-rule="evenodd" clip-rule="evenodd" d="M32.4217 39.7778C41.0572 39.7778 48.0664 46.7773 48.0664 55.4225V64.6873C48.0664 73.3228 41.0669 80.3319 32.4217 80.3319C23.7862 80.3319 16.7771 73.3325 16.7771 64.6873V55.4225C16.7771 46.7773 23.7862 39.7778 32.4217 39.7778Z" fill="white"/><path fill-rule="evenodd" clip-rule="evenodd" d="M87.381 39.7778C96.0165 39.7778 103.026 46.7773 103.026 55.4225V64.6873C103.026 73.3228 96.0262 80.3319 87.381 80.3319C78.7454 80.3319 71.7363 73.3325 71.7363 64.6873V55.4225C71.7363 46.7773 78.7358 39.7778 87.381 39.7778Z" fill="white"/><path fill-rule="evenodd" clip-rule="evenodd" d="M34.8321 48.7622C38.9272 48.7622 42.2575 52.0828 42.2575 56.1876V64.1164C42.2575 68.2115 38.9369 71.5418 34.8321 71.5418C30.737 71.5418 27.4067 68.2212 27.4067 64.1164V56.1876C27.4067 52.0828 30.737 48.7622 34.8321 48.7622Z" fill="#4B4B4B"/><path fill-rule="evenodd" clip-rule="evenodd" d="M60.0037 66.7622C64.699 66.7622 68.5036 70.5669 68.5036 75.2622V78.2149C68.5036 82.9103 64.699 86.7149 60.0037 86.7149C55.3083 86.7149 51.5037 82.9103 51.5037 78.2149V75.2622C51.5037 70.5669 55.3083 66.7622 60.0037 66.7622Z" fill="#F48000"/><path d="M48.27 76.0748C49.2865 70.6533 54.311 66.7422 60.323 66.7422C65.7928 66.7422 70.7398 70.7502 71.737 76.0748V76.5104C71.737 76.8492 71.6208 76.9848 71.311 76.9461L60.3326 78.9016C60.0325 78.9016 59.9938 78.9016 59.684 78.9016L48.696 76.9364C48.3862 76.9751 48.27 76.8396 48.27 76.5007V76.0748Z" fill="#FFC200"/><path fill-rule="evenodd" clip-rule="evenodd" d="M58.2029 68.6207C58.7741 68.4852 59.3646 68.4077 59.9552 68.4077C60.5844 68.4077 61.2234 68.4852 61.8526 68.6497C63.1305 68.9789 64.0212 70.1309 64.0212 71.4476C64.0212 72.5125 63.1596 73.3644 62.1044 73.3644H57.9028C56.8379 73.3644 55.9859 72.5028 55.9859 71.4476C55.9762 70.1116 56.8959 68.9402 58.2029 68.6207Z" fill="#FFE747"/><path fill-rule="evenodd" clip-rule="evenodd" d="M84.9703 48.7622C89.0654 48.7622 92.3957 52.0828 92.3957 56.1876V64.1164C92.3957 68.2115 89.0751 71.5418 84.9703 71.5418C80.8752 71.5418 77.5449 68.2212 77.5449 64.1164V56.1876C77.5546 52.0828 80.8752 48.7622 84.9703 48.7622Z" fill="#4B4B4B"/><path d="M28.5587 57.7653C31.2054 57.7653 33.3509 55.6284 33.3509 52.9925C33.3509 50.3566 31.2054 48.2197 28.5587 48.2197C25.9121 48.2197 23.7666 50.3566 23.7666 52.9925C23.7666 55.6284 25.9121 57.7653 28.5587 57.7653Z" fill="white"/><path d="M77.9708 57.7653C80.6175 57.7653 82.763 55.6284 82.763 52.9925C82.763 50.3566 80.6175 48.2197 77.9708 48.2197C75.3242 48.2197 73.1787 50.3566 73.1787 52.9925C73.1787 55.6284 75.3242 57.7653 77.9708 57.7653Z" fill="white"/></svg>