<svg xmlns="http://www.w3.org/2000/svg" version="1.1" xmlns:xlink="http://www.w3.org/1999/xlink" xmlns:svgjs="http://svgjs.com/svgjs" width="512" height="512" x="0" y="0" viewBox="0 0 60 55" style="enable-background:new 0 0 512 512" xml:space="preserve" class=""><g><g xmlns="http://www.w3.org/2000/svg" id="Page-1" fill="none" fill-rule="evenodd"><g id="002---API" fill-rule="nonzero"><g id="Icons_copy" transform="translate(0 1)"><path id="Shape" d="m54.06 35.17-2.6 6.27c-.0850336.2115702-.2519805.3797825-.4629025.4664112-.2109221.0866287-.4479059.0843165-.6570975-.0064112l-1.88-.78-2.47-1.02c-.24.34-.49.67-.74.99-1.1557373 1.4432886-2.5129515 2.7129406-4.03 3.77l1.8 4.36c.0897403.2078404.0914729.4431664.0048026.6523056s-.2543527.3742572-.4648026.4576944l-6.27 2.6c-.2079824.0883597-.4427546.0894005-.6515123.0028883-.2087576-.0865121-.3739735-.2533138-.4584877-.4628883l-.13-.32-1.68-4.04c-.9924724.1889195-1.9997635.2893139-3.01.3-.65.01-1.3-.01-1.95-.06-.5973457-.0415391-1.1917149-.1183396-1.78-.23l-.12.29-1.68 4.06c-.0850336.2115702-.2519805.3797825-.4629025.4664112-.2109221.0866287-.4479059.0843165-.6570975-.0064112l-1.88-.78-4.39-1.82c-.2104499-.0834372-.3781323-.2485552-.4648026-.4576944s-.0849377-.4444652.0048026-.6523056l1.8-4.35c-1.8554049-1.3003769-3.4696231-2.9145951-4.77-4.77l-2.39.99-1.97.81c-.43354038.1771319-.92883988-.0281274-1.11-.46l-.13-.32-2.46-5.96c-.17902515-.4308013.02152182-.9254838.45-1.11l3.52-1.45 2.15-1.37 1.93-1.23 1.35 1.38 1.58 1.62c1.8779603 4.8817534 6.3134093 8.3152764 11.51 8.91.5177951.0604516 1.0386883.0905032 1.56.09 5.8011025-.0005789 11.0002299-3.5806973 13.07-9l2.39-1.82 1.54-1.18 4.02 2.98h.01l2.57 1.07c.2101008.0868218.3768465.2539277.4632146.4642154.0863682.2102877.085211.4463537-.0032146.6557846z" fill="#7facfa" data-original="#7facfa" style=""></path><path id="Shape" d="m50.93 35.17-2.47 5.95-2.47-1.02c-.24.34-.49.67-.74.99l-2.39-.99c-1.2979502 1.8546256-2.9126545 3.4659449-4.77 4.76l1.8 4.36c.0897403.2078404.0914729.4431664.0048026.6523056s-.2543527.3742572-.4648026.4576944l-4.38 1.82-1.68-4.04c-.9924724.1889195-1.9997635.2893139-3.01.3l-.12-.3c-.61.11-1.22.19-1.83.24-.64.05-1.27.07-1.9.06-1.0097318-.0113195-2.0166803-.1083345-3.01-.29l-1.67 4.03-4.39-1.82c-.2104499-.0834372-.3781323-.2485552-.4648026-.4576944s-.0849377-.4444652.0048026-.6523056l1.8-4.35c-1.8554049-1.3003769-3.4696231-2.9145951-4.77-4.77l-2.39.99c-.25-.32-.5-.65-.74-.99l-2.47 1.02-2.46-5.96c-.17902515-.4308013.02152182-.9254838.45-1.11l3.52-1.45 5.43-1.22.65-.15 1.73 1.77c.59 1.53 1.1 2.93 1.69 4.15 1.4 2.97 3.22 4.85 7.45 4.85.5246285.0002127 1.0488325-.0298372 1.57-.09.5177951.0604516 1.0386883.0905032 1.56.09 5.8011025-.0005789 11.0002299-3.5806973 13.07-9l2.39-1.82 2.43 1.8h.01l2.57 1.07c.2101008.0868218.3768465.2539277.4632146.4642154.0863682.2102877.085211.4463537-.0032146.6557846z" fill="#a4c2f7" data-original="#a4c2f7" style=""></path><path id="Shape" d="m59 24.5c-.003144 4.6931175-3.8068825 8.496856-8.5 8.5h-37.5c-6.627417 0-12-5.372583-12-12s5.372583-12 12-12c.31 0 .61.01.91.04 2.0587349-5.43556323 7.26228-9.03338786 13.0746541-9.04005087 5.8123741-.00666302 11.0241543 3.57922198 13.0953459 9.01005087.14-.01.28-.01.42-.01 4.4500116-.00054376 8.4169737 2.8043789 9.9 7h.1c4.6931175.003144 8.496856 3.8068825 8.5 8.5z" fill="#cad9fc" data-original="#cad9fc" style=""></path><path id="Shape" d="m56 24.5c.115113 4.5704653-3.4898706 8.372247-8.06 8.5h-35.56c-6.2878 0-11.38-5.37-11.38-12s5.0922-12 11.3793-12c.2881359-.00181438.5761676.01153742.8629.04 1.8081965-5.33618074 6.7794011-8.95655376 12.413-9.04 5.6216572.0846469 10.5848113 3.68995015 12.4034 9.01.1328-.01.2655-.01.3983-.01 4.3104845.06747451 8.0932339 2.8880163 9.388 7h.0951c4.5701294.127753 8.175113 3.9295347 8.06 8.5z" fill="#e8edfc" data-original="#e8edfc" style="" class=""></path><path id="Shape" d="m13.2537 9.011c-.0851-.0018-.1673-.011-.2537-.011-.1 0-.1974.0126-.2971.015-.1081-.0033-.2133-.015-.3236-.015-6.2871 0-11.3793 5.37-11.3793 12-.09475566 5.4347239 3.51208736 10.2401822 8.757 11.6671l-3.357 1.3829c-.42847818.1845162-.62902515.6791987-.45 1.11l2.46 5.96.13.32c.18116012.4318726.67645962.6371319 1.11.46l1.78-.7317-.02-.0483-2.46-5.96c-.17902515-.4308013.02152182-.9254838.45-1.11l3.357-1.3829c-5.24491264-1.4269178-8.85175566-6.2323761-8.757-11.6671 0-6.63 2.8385-12 9.1256-12 .11 0 .2155.0117.3236.015.1-.0024.1968-.015.2971-.015.0864 0 .1686.0094.2537.0112" fill="#ffffff" data-original="#ffffff" style="" class=""></path></g><g id="Layer_2"><path id="Shape" d="m0 22c.01391375-4.809448 2.67004255-9.2220504 6.9136-11.4855 1.87987796-.98064923 3.9661647-1.4997872 6.0864-1.5145v2c-1.793401.0146004-3.55784995.4537165-5.1489 1.2814-3.58961087 1.9165849-5.83695759 5.6493981-5.8511 9.7186z" fill="#ffffff" data-original="#ffffff" style="" class=""></path><g fill="#428dff"><path id="Shape" d="m2.0311 17.1442c-.25222462-.1101434-.53953037-.1070668-.78933845.0084527s-.43822807.3324342-.51766155.5959473c-.46658833 1.3694386-.71104519 2.8047154-.7241 4.2514h2c.01307385-1.2240068.22035282-2.4381803.6141-3.5972.14766853-.5062882-.10132808-1.0438305-.583-1.2586z" fill="#428dff" data-original="#428dff" style="" class=""></path><path id="Shape" d="m13 11v-2c-2.1202516.01477459-4.20653931.53398133-6.0864 1.5147-.32.1666-.6213.3678-.932.5515-.23561637.1423881-.39994614.3778623-.45231227.6481348-.05236614.2702725.01212592.5500816.17751227.7701652.32008128.4186436.90252318.5320572 1.3563.2641.2639-.1537.5171-.3268.788-.4672 1.59105005-.8276835 3.355499-1.2667996 5.1489-1.2814z" fill="#428dff" data-original="#428dff" style="" class=""></path><path id="Shape" d="m2.7914 13.9642c-.16786185.2243254-.24702023.5027151-.2223.7818l.0479.1864c.02242774.0641503.05489862.1243328.0962.1783.03137023.0564593.07123612.1077588.1182.1521.04896882.04611.10109541.0887469.156.1276.22294114.1384711.48621498.1973367.7469.167.12502761-.0187634.24549512-.0605354.3553-.1232.31749054-.1949271.50063613-.5498945.4755-.9216-.01492237-.128558-.05214649-.2535295-.11-.3693-.05504067-.1187238-.13171509-.2261562-.2261-.3168-.19721511-.1802888-.45908431-.2729424-.7258-.2568-.28209064.0258625-.54035439.1689997-.7118.3945z" fill="#428dff" data-original="#428dff" style="" class=""></path><path id="Shape" d="m50.5 35h-37.5c-7.17641195-.0079361-12.99206392-5.8235881-13-13 .00000001-.5522847.44771526-1 1-1s.99999999.4477153 1 1c.00688858 6.0722766 4.92772338 10.9931114 11 11h37.5c4.1421356 0 7.5-3.3578644 7.5-7.5s-3.3578644-7.5-7.5-7.5h-.1c-.4239029-.0000114-.8017403-.2672906-.9429-.667-1.3462715-3.8181038-4.9667986-6.3614526-9.0152-6.333-.0977 0-.1948.0005-.292.0073-.4387092.0279128-.8450022-.2314206-1.0044-.6411-1.9230599-5.04284193-6.7623782-8.37262753-12.1594493-8.36654194-5.3970712.00608558-10.228868 3.34677606-12.1405507 8.39394194-.1595185.424165-.5847748.6876301-1.0356.6416-.2692044-.0253245-.5395136-.0370727-.8099-.0352-.5522847 0-1-.4477153-1-1 0-.55228475.4477153-1 1-1 .085 0 .1694.0005.2529.0024 2.3847004-5.46763456 7.7827498-9.00241816 13.7478-9.00241816s11.3630996 3.5347836 13.7478 9.00241816c4.5269735.10207522 8.5740845 2.8473006 10.3428 7.0157 5.1237701.316728 9.0691027 4.6466287 8.9092664 9.7776898-.1598363 5.1310612-4.3670171 9.2070052-9.5005664 9.2042102z" fill="#428dff" data-original="#428dff" style="" class=""></path><path id="Shape" d="m6.7705 28c-.30185083.0005429-.58768565-.135737-.7773-.3706-1.73245124-2.1445708-2.38301828-4.9664435-1.76436752-7.6530478.61865076-2.6866042 2.43785594-4.9397566 4.93376752-6.1106522.4994311-.2359637 1.0955863-.0223811 1.33155.47705s.0223811 1.0955863-.47705 1.33155c-2.44487847 1.1597053-4.00710635 3.6197349-4.0171 6.3257-.00614342 1.5920592.54061699 3.1368721 1.5469 4.3706.24255369.2994659.29144355.7116607.12567268 1.0595575-.16577086.3478967-.51670004.5695799-.90207268.5698425z" fill="#428dff" data-original="#428dff" style="" class=""></path><path id="Shape" d="m17 29.0005c-.3214095-.0004569-.6230586-.1551919-.8109292-.415977-.1878707-.2607851-.2391186-.5959101-.1377708-.900923l4-12c.1747429-.5239525.7411475-.8070429 1.2651-.6323s.8070429.7411475.6323 1.2651l-4 12c-.1360024.4084775-.5181765.6840602-.9487.6841z" fill="#428dff" data-original="#428dff" style="" class=""></path><path id="Shape" d="m25 29.0005c-.4305235-.0000398-.8126976-.2756225-.9487-.6841l-4-12c-.1747429-.5239525.1083475-1.0903571.6323-1.2651s1.0903571.1083475 1.2651.6323l4 12c.1013478.3050129.0500999.6401379-.1377708.900923-.1878706.2607851-.4895197.4155201-.8109292.415977z" fill="#428dff" data-original="#428dff" style="" class=""></path><path id="Shape" d="m23.33 24h-4.66c-.5522847 0-1-.4477153-1-1s.4477153-1 1-1h4.66c.5522847 0 1 .4477153 1 1s-.4477153 1-1 1z" fill="#428dff" data-original="#428dff" style="" class=""></path><path id="Shape" d="m28 29c-.5522847 0-1-.4477153-1-1v-12c0-.5522847.4477153-1 1-1s1 .4477153 1 1v12c0 .5522847-.4477153 1-1 1z" fill="#428dff" data-original="#428dff" style="" class=""></path><path id="Shape" d="m32 23h-4c-.5522847 0-1-.4477153-1-1v-6c0-.5522847.4477153-1 1-1h4c2.209139 0 4 1.790861 4 4s-1.790861 4-4 4zm-3-2h3c1.1045695 0 2-.8954305 2-2s-.8954305-2-2-2h-3z" fill="#428dff" data-original="#428dff" style="" class=""></path><path id="Shape" d="m40 29c-.5522847 0-1-.4477153-1-1v-12c0-.5522847.4477153-1 1-1s1 .4477153 1 1v12c0 .5522847-.4477153 1-1 1z" fill="#428dff" data-original="#428dff" style="" class=""></path><path id="Shape" d="m43 17h-6c-.5522847 0-1-.4477153-1-1s.4477153-1 1-1h6c.5522847 0 1 .4477153 1 1s-.4477153 1-1 1z" fill="#428dff" data-original="#428dff" style="" class=""></path><path id="Shape" d="m43 29h-6c-.5522847 0-1-.4477153-1-1s.4477153-1 1-1h6c.5522847 0 1 .4477153 1 1s-.4477153 1-1 1z" fill="#428dff" data-original="#428dff" style="" class=""></path><path id="Shape" d="m24.0464 55.0005c-.2521817-.0002492-.5016286-.0522556-.7329-.1528l-6.2564-2.5938c-.4611402-.1904211-.8266293-.5578555-1.0146-1.02-.1857256-.4560363-.1776373-.9680576.0224-1.418l1.49-3.602c-1.4662758-1.1151746-2.7745909-2.4239943-3.8892-3.8907l-3.6343 1.501c-.45269149.1891816-.96245309.1883167-1.4145-.0024-.45179007-.1864383-.81134472-.5442312-1-.9951l-2.591-6.2857c-.39251479-.9322074.04064293-2.0064832.97-2.4057l3.5435-1.4605c.33047067-.1360646.7084278-.0854895.9914985.1326742s.4282499.5707717.38085.925-.2801778.6562612-.6106485.7923258l-3.3711 1.3883 2.4765 6.0054 4.2212-1.7432c.4326366-.1781903.9309959-.0328355 1.2.35 1.2327529 1.7608218 2.7643148 3.2921806 4.5253 4.5247.3843921.2686558.5302209.7684915.3506 1.2017l-1.7422 4.2119 6.001 2.4878 1.7437-4.2144c.1793941-.4337949.636377-.6844159 1.0986-.6025 2.1128591.3764434 4.2758861.3734635 6.3877-.0088.4624125-.0824756.9200919.1671677 1.1011.6006l1.7529 4.2216 5.9927-2.4848-1.7432-4.2222c-.1792698-.4345086-.0317325-.9352197.3545-1.2031 1.7615646-1.2263089 3.2924569-2.7543912 4.522-4.5137.268826-.3831334.7677384-.5280674 1.2-.3486l4.22 1.7461 2.49-6.0044-2.4072-1.002c-.4516416-.1690115-.71816-.6364498-.633572-1.1112023.0845879-.4747525.4961499-.8213753.978372-.8239977.1350751-.0000978.2688959.0259125.3941.0766l2.57 1.07c.4573261.1867831.8196177.5506618 1.0044 1.0088.1851558.4532097.1839339.9611862-.0034 1.4135l-2.6016 6.274c-.1876967.458766-.5520682.82273-1.011044 1.0099131-.4589759.1871831-.9739592.1818446-1.428956-.0148131l-3.61-1.4942c-1.1126434 1.4657569-2.420684 2.7723172-3.8877 3.8833l1.499 3.6314c.192767.4443106.1973487.9477546.0127 1.3955-.1883714.4634016-.5552477.8315392-1.018 1.0215l-6.2661 2.5981c-.4538254.1901033-.9648404.190759-1.4191521.0018209-.4543118-.188938-.8141617-.551767-.9993479-1.0076209l-1.5054-3.626c-1.8230308.2542899-3.6723548.2569144-5.4961.0078l-1.499 3.6226c-.2841259.6932306-.958305 1.146658-1.7075 1.1484zm-.1411-1.9105v.001zm.1865-.0844h.001zm18.01-2.3892.0029.0073zm-24.1968-.0171-.0015.003zm24.2719-.1929-.0009.0005zm-24.3584-.0014h.001zm32.7167-8.345-.0005.0009zm-41.2706-.083h-.0014zm41.4566-.0015.001.0005zm2.4985-6.001h.0015zm-46.3471-.2016v.0015z" fill="#428dff" data-original="#428dff" style="" class=""></path><path id="Shape" d="m30 44c-6.2081155-.0246571-11.7664651-3.8521423-14.0039-9.6431-.1312616-.334563-.0728971-.7138322.1528792-.9934518.2257762-.2796196.5842361-.4165796.9389443-.3587509.3547081.0578287.6511047.3015511.7763765.6384027 1.9212177 5.0324229 6.7490166 8.3569788 12.1357 8.3569788s10.2144823-3.3245559 12.1357-8.3569788c.1252718-.3368516.4216684-.580574.7763765-.6384027.3547082-.0578287.7131681.0791313.9389443.3587509.2257763.2796196.2841408.6588888.1528792.9934518-2.2374349 5.7909577-7.7957845 9.6184429-14.0039 9.6431z" fill="#428dff" data-original="#428dff" style="" class=""></path><path id="Shape" d="m19 12.0005c-.3214095-.0004569-.6230586-.1551919-.8109292-.415977-.1878707-.2607851-.2391186-.5959101-.1377708-.900923 2.2026-6.6074 7.7153-6.6836 7.9487-6.6836.5522847-.00135308 1.0010969.44526526 1.00245.99755s-.4452653 1.00109689-.99755 1.00245c-.1939.0029-4.3267.1274-6.0562 5.3164-.1360024.4084775-.5181765.6840602-.9487.6841z" fill="#428dff" data-original="#428dff" style="" class=""></path></g></g></g></g></g></svg>