<svg xmlns="http://www.w3.org/2000/svg" version="1.1" xmlns:xlink="http://www.w3.org/1999/xlink" xmlns:svgjs="http://svgjs.com/svgjs" width="512" height="512" x="0" y="0" viewBox="0 0 64 64" style="enable-background:new 0 0 512 512" xml:space="preserve" class=""><g><g fill-rule="evenodd"><path fill="#2d2d2d" d="M48 64H16A16 16 0 0 1 0 48V16A16 16 0 0 1 16 0h32a16 16 0 0 1 16 16v32a16 16 0 0 1-16 16" data-original="#2d2d2d" class=""></path><path fill="#464646" d="M30 18h18A9 9 0 0 0 48.92.046C48.614.029 48.311 0 48 0H16A16 16 0 0 0 0 16v32a30 30 0 0 1 30-30" data-original="#464646"></path><path fill="#141414" d="M48 32a16 16 0 1 0 16 16V16a16 16 0 0 1-16 16" data-original="#141414"></path></g><path fill="#ffffff" d="M39.07 12.212a7.792 7.792 0 0 1-1.998 5.11 7.132 7.132 0 0 1-4.965 2.801.704.704 0 0 1-.718-.704h-.01a8.007 8.007 0 0 1 2.118-5.164 8.164 8.164 0 0 1 2.581-1.937 8.428 8.428 0 0 1 2.233-.755.657.657 0 0 1 .755.649zm7.046 27.728a19.825 19.825 0 0 1-1.964 3.53 17.945 17.945 0 0 1-2.529 3.057 4.91 4.91 0 0 1-3.25 1.432 8.151 8.151 0 0 1-3.002-.717 8.614 8.614 0 0 0-3.233-.715 8.907 8.907 0 0 0-3.324.715 8.952 8.952 0 0 1-2.872.755 4.62 4.62 0 0 1-3.324-1.47 18.796 18.796 0 0 1-2.645-3.165 21.881 21.881 0 0 1-2.798-5.556A20.346 20.346 0 0 1 16 31.183a12.094 12.094 0 0 1 1.588-6.327 9.322 9.322 0 0 1 3.326-3.364 8.947 8.947 0 0 1 4.497-1.269 10.578 10.578 0 0 1 3.478.81 11.188 11.188 0 0 0 2.758.811 16.473 16.473 0 0 0 3.06-.956 10.117 10.117 0 0 1 4.157-.738 9.569 9.569 0 0 1 5.265 1.891 1.933 1.933 0 0 1 .059 2.919 7.452 7.452 0 0 0-2.488 5.82 7.707 7.707 0 0 0 2.531 5.808 8.524 8.524 0 0 0 1.145.917 1.986 1.986 0 0 1 .73 2.423c.012.007.01.01.01.012z" data-original="#ffffff"></path></g></svg>