<svg xmlns="http://www.w3.org/2000/svg" version="1.1" xmlns:xlink="http://www.w3.org/1999/xlink" xmlns:svgjs="http://svgjs.com/svgjs" width="512" height="512" x="0" y="0" viewBox="0 0 512 512" style="enable-background:new 0 0 512 512" xml:space="preserve" class=""><g><linearGradient id="a" x1="-.011" x2="512.011" y1="256" y2="256" gradientUnits="userSpaceOnUse"><stop offset="0" stop-color="#4d62ff"></stop><stop offset=".193" stop-color="#466aff"></stop><stop offset=".492" stop-color="#3480ff"></stop><stop offset=".858" stop-color="#17a3ff"></stop><stop offset="1" stop-color="#0ab3ff"></stop></linearGradient><path fill="url(#a)" d="M419.2 287.72c6.24 6.24 10.12 14.88 10.12 24.41 0 9.55-3.88 18.17-10.12 24.43-6.26 6.24-14.88 10.09-24.41 10.09-9.55 0-18.17-3.85-24.43-10.09-6.24-6.26-10.09-14.88-10.09-24.43 0-9.52 3.86-18.17 10.09-24.41 6.26-6.24 14.88-10.12 24.43-10.12 9.53 0 18.15 3.88 24.41 10.12zm92.81 17.15v14.54c0 4.34-2.69 8.05-6.83 9.38l-10.32 3.34c-3.23 1.05-5.53 3.43-6.43 6.69a97.31 97.31 0 0 1-8.56 20.64c-1.64 2.95-1.7 6.26-.17 9.27l4.93 9.69c1.98 3.85 1.25 8.36-1.81 11.45l-10.29 10.29c-3.06 3.06-7.57 3.77-11.45 1.81l-9.69-4.93c-3-1.56-6.32-1.5-9.27.17a95.477 95.477 0 0 1-20.64 8.53c-3.26.94-5.64 3.23-6.66 6.46l-3.37 10.32c-1.33 4.14-5.02 6.8-9.38 6.8h-14.54c-4.34 0-8.05-2.67-9.38-6.8l-3.34-10.32c-1.05-3.23-3.43-5.53-6.69-6.46a95.685 95.685 0 0 1-20.64-8.53c-2.95-1.64-6.26-1.73-9.27-.17l-9.69 4.93c-3.86 1.96-8.36 1.25-11.45-1.81l-10.29-10.29c-3.06-3.09-3.77-7.6-1.81-11.45l4.93-9.69c1.56-3 1.5-6.32-.17-9.27a95.477 95.477 0 0 1-8.53-20.64c-.94-3.26-3.23-5.64-6.46-6.69l-10.32-3.34c-4.14-1.33-6.8-5.05-6.8-9.38v-14.54c0-4.37 2.66-8.05 6.8-9.38l10.35-3.37c3.2-1.05 5.5-3.4 6.43-6.66a97.22 97.22 0 0 1 8.53-20.64c1.67-2.95 1.73-6.26.17-9.27l-4.93-9.69c-1.96-3.88-1.25-8.39 1.81-11.45l10.29-10.29c3.09-3.06 7.6-3.8 11.45-1.81l9.69 4.93c3 1.53 6.32 1.47 9.27-.17 6.46-3.6 13.38-6.49 20.64-8.56 3.26-.91 5.64-3.2 6.69-6.43l3.34-10.32c1.33-4.14 5.05-6.83 9.38-6.83h14.54c4.37 0 8.05 2.69 9.38 6.83l3.37 10.32c1.02 3.23 3.4 5.53 6.66 6.43a97.31 97.31 0 0 1 20.64 8.56c2.95 1.64 6.26 1.7 9.27.17l9.69-4.93c3.88-1.98 8.39-1.25 11.45 1.81l10.29 10.29c3.06 3.06 3.8 7.57 1.81 11.45l-4.93 9.69c-1.53 3-1.47 6.32.17 9.27 3.6 6.46 6.49 13.38 8.56 20.64.91 3.26 3.2 5.64 6.43 6.66l10.32 3.37c4.14 1.33 6.83 5.01 6.83 9.38zm-66.19 7.26c0-14.09-5.7-26.84-14.94-36.08s-22-14.97-36.09-14.97c-14.12 0-26.87 5.73-36.11 14.97s-14.94 22-14.94 36.08c0 14.12 5.7 26.87 14.94 36.11s22 14.94 36.11 14.94c14.09 0 26.84-5.7 36.09-14.94 9.24-9.24 14.94-22 14.94-36.11zm-162 109.19h-36.09l-11-30.67h-78.72l-10.97 30.67h-36.09c-4.56 0-8.28 3.69-8.28 8.25s3.71 8.28 8.28 8.28h172.86c4.56 0 8.28-3.71 8.28-8.28.01-4.57-3.7-8.25-8.27-8.25zm-22.39-120.99H-.01V100.01c0-14.23 11.65-25.85 25.88-25.85h343.05c14.23 0 25.88 11.62 25.88 25.85v78.38h-7.28c-11.51 0-21.54 7.31-25.09 18.26l-2.3 7c-6.04 1.93-11.91 4.37-17.55 7.29l-6.58-3.35c-10.23-5.22-22.51-3.29-30.64 4.85l-10.29 10.29c-8.14 8.11-10.06 20.38-4.85 30.64l3.34 6.58c-2.89 5.64-5.33 11.51-7.26 17.55l-7.03 2.27c-9.45 3.07-16.2 11.01-17.84 20.56zM103.96 191.37l54.71-30.56c3.97-2.21 5.41-7.23 3.2-11.2s-7.23-5.41-11.2-3.2l-67.52 37.7a8.511 8.511 0 0 0-3.29 3.26c-2.21 3.97-.77 8.99 3.2 11.2l67.61 37.76c3.97 2.21 8.99.79 11.2-3.2 2.21-3.97.77-8.99-3.2-11.2zm109.39-69.59c-4.45-1.02-8.87 1.76-9.89 6.21l-28.2 123.11c-1.02 4.42 1.76 8.84 6.18 9.86 4.45 1.02 8.87-1.76 9.89-6.21l28.2-123.08c1.02-4.45-1.76-8.87-6.18-9.89zm30.76 114.55 67.61-37.76c3.97-2.21 5.41-7.23 3.2-11.2a8.445 8.445 0 0 0-3.29-3.26l-67.52-37.7c-3.97-2.21-8.99-.77-11.2 3.2s-.77 8.99 3.2 11.2l54.71 30.56-54.71 30.56c-3.97 2.21-5.41 7.23-3.2 11.2 2.21 3.99 7.23 5.41 11.2 3.2zm35.18 108.17c-10.94-3.54-18.23-13.58-18.23-25.09v-2.55H-.01v31.41c0 14.2 11.65 25.85 25.88 25.85h262.97c.4-1.08.85-2.15 1.39-3.2l3.34-6.58a119.11 119.11 0 0 1-7.29-17.55z" data-original="url(#a)" class=""></path></g></svg>