<svg xmlns="http://www.w3.org/2000/svg" version="1.1" xmlns:xlink="http://www.w3.org/1999/xlink" xmlns:svgjs="http://svgjs.com/svgjs" width="512" height="512" x="0" y="0" viewBox="0 0 60 60" style="enable-background:new 0 0 512 512" xml:space="preserve" class=""><g><rect width="30" height="52" x="1" y="1" fill="#2a2a49" rx="4" data-original="#2a2a49" class=""></rect><path fill="#c7dfe5" d="M22 1v2a2.006 2.006 0 0 1-2 2h-8a2.006 2.006 0 0 1-2-2V1z" data-original="#c7dfe5" class=""></path><path fill="#17172b" d="M21 50H10a1 1 0 0 1 0-2h11a1 1 0 0 1 0 2z" data-original="#17172b"></path><path fill="#c7dfe5" d="M27 54H5a5.006 5.006 0 0 1-5-5V5a5.006 5.006 0 0 1 5-5h22a5.006 5.006 0 0 1 5 5v44a5.006 5.006 0 0 1-5 5zM5 2a3 3 0 0 0-3 3v44a3 3 0 0 0 3 3h22a3 3 0 0 0 3-3V5a3 3 0 0 0-3-3z" data-original="#c7dfe5" class=""></path><path fill="#daeeef" d="M59 23v32a4 4 0 0 1-4 4H19a4 4 0 0 1-4-4V23l1-1h42z" data-original="#daeeef" class=""></path><path fill="#444477" d="M59 19v4H15v-4a4 4 0 0 1 4-4h36a4 4 0 0 1 4 4z" data-original="#444477" class=""></path><path fill="#ff4d4d" d="M20 20h-1a1 1 0 0 1 0-2h1a1 1 0 0 1 0 2z" data-original="#ff4d4d"></path><path fill="#f7bb26" d="M25 20h-1a1 1 0 0 1 0-2h1a1 1 0 0 1 0 2z" data-original="#f7bb26"></path><path fill="#25e572" d="M30 20h-1a1 1 0 0 1 0-2h1a1 1 0 0 1 0 2z" data-original="#25e572"></path><path fill="#2a2a49" d="M49 20H37a1 1 0 0 1 0-2h12a1 1 0 0 1 0 2z" data-original="#2a2a49" class=""></path><g fill="#2074ef"><path d="M50.5 48H47a1 1 0 0 1 0-2h3.5a2.5 2.5 0 0 0 0-5 4.5 4.5 0 0 1 0-9H54a1 1 0 0 1 0 2h-3.5a2.5 2.5 0 0 0 0 5 4.5 4.5 0 0 1 0 9zM24.5 48a5.506 5.506 0 0 1-5.5-5.5v-5a5.5 5.5 0 0 1 10.687-1.833 1 1 0 0 1-1.886.666A3.5 3.5 0 0 0 21 37.5v5a3.5 3.5 0 0 0 6.8 1.167 1 1 0 0 1 1.886.666A5.511 5.511 0 0 1 24.5 48zM43 48a1 1 0 0 1-1-1V36.859l-3.126 5.626a1.04 1.04 0 0 1-1.748 0L34 36.859V47a1 1 0 0 1-2 0V33a1 1 0 0 1 1.874-.485L38 39.94l4.126-7.425A1 1 0 0 1 44 33v14a1 1 0 0 1-1 1z" fill="#2074ef" data-original="#2074ef"></path></g></g></svg>