<svg xmlns="http://www.w3.org/2000/svg" version="1.1" xmlns:xlink="http://www.w3.org/1999/xlink" xmlns:svgjs="http://svgjs.com/svgjs" width="512" height="512" x="0" y="0" viewBox="0 0 468 468" style="enable-background:new 0 0 512 512" xml:space="preserve" class=""><g><path fill="#35c9ad" d="m262.678 260.727-144.399 67.612L4.329 82.964l144.398-67.612z" data-original="#35c9ad"></path><path fill="#25b79b" d="M117.706 137.828c-18.71 8.761-26.805 31.093-18.081 49.881s30.965 26.916 49.676 18.155 26.805-31.093 18.081-49.881-30.966-26.916-49.676-18.155zM176.519 75.198l-27.792-59.845-57.611 26.975c18.812 29.284 53.876 42.849 85.403 32.87zM61.94 55.989 4.329 82.964 32.12 142.81c27.879-17.837 40.069-53.527 29.82-86.821z" data-original="#25b79b"></path><path fill="#ffd085" d="M314.714 15.406c-28.951-16.797-66.13-6.551-83.042 22.885s-7.152 66.916 21.799 83.713 66.13 6.551 83.042-22.885 7.152-66.916-21.799-83.713z" data-original="#ffd085"></path><path fill="#ffffff" d="m309.09 48.609-6.104-3.539 3.164-5.503a4.6 4.6 0 0 0-7.973-4.584l-3.256 5.661c-7.636-3.157-17.121.207-21.118 7.478-4.74 8.243-1.942 18.807 6.239 23.549l3.488 2.022c3.808 2.207 5.099 7.146 2.878 11.009-2.063 3.774-7.206 5.222-10.889 2.99l-11.813-6.848a4.599 4.599 0 0 0-4.613 7.956l6.104 3.539-3.164 5.503a4.6 4.6 0 0 0 1.694 6.279c2.163 1.254 5.006.527 6.279-1.694l3.249-5.651c7.681 3.154 17.111-.221 21.125-7.489 4.739-8.244 1.941-18.808-6.239-23.549l-3.488-2.022c-3.808-2.208-5.099-7.146-2.878-11.009 2.064-3.774 7.204-5.223 10.889-2.99l11.812 6.848a4.597 4.597 0 0 0 6.284-1.672 4.595 4.595 0 0 0-1.67-6.284z" data-original="#ffffff"></path><path fill="#fdbf38" d="M373.457 94.978c-31.416-11.494-66.259 5.079-77.823 37.017s4.529 67.146 35.945 78.64 66.258-5.079 77.823-37.017c11.564-31.938-4.529-67.146-35.945-78.64z" data-original="#fdbf38"></path><path fill="#ffffff" d="m373.657 128.658-6.618-2.419 2.164-5.968a4.598 4.598 0 0 0-8.646-3.134l-2.229 6.149c-8.07-1.78-16.825 3.186-19.502 11.041-3.242 8.945 1.343 18.862 10.221 22.107l3.785 1.383c4.128 1.509 6.252 6.145 4.733 10.336-1.38 4.074-6.192 6.408-10.21 4.849l-12.818-4.684a4.598 4.598 0 0 0-3.157 8.638l6.618 2.418-2.163 5.969a4.599 4.599 0 0 0 2.756 5.89c2.324.861 5.028-.345 5.89-2.757l2.226-6.142c1.11.224 2.231.349 3.351.349 7.069.063 13.824-4.676 16.154-11.397 3.242-8.946-1.343-18.863-10.221-22.107l-3.785-1.383c-4.128-1.509-6.252-6.146-4.733-10.336 1.379-4.075 6.193-6.406 10.21-4.849l12.818 4.685a4.599 4.599 0 0 0 3.156-8.638z" data-original="#ffffff"></path><path fill="#ffdeb3" d="M260.578 116.144c-33.285-.012-60.258 27.412-60.246 61.253.011 33.841 27.003 61.284 60.288 61.296s60.258-27.412 60.246-61.253-27.003-61.284-60.288-61.296z" data-original="#ffdeb3"></path><path fill="#ffffff" d="M279.697 190.041c0-9.495-7.668-17.22-17.093-17.22h-4.009c-4.354 0-7.896-3.6-7.896-8.024s3.542-8.024 7.896-8.024h13.577a4.598 4.598 0 1 0 0-9.196h-6.974v-6.296a4.598 4.598 0 1 0-9.196 0v6.516c-8.195 1.266-14.499 8.396-14.499 17.001 0 9.496 7.668 17.221 17.093 17.221h4.009c4.354 0 7.896 3.599 7.896 8.024s-3.543 8.024-7.896 8.024h-13.578a4.598 4.598 0 1 0 0 9.196h6.975v6.296a4.598 4.598 0 1 0 9.196 0v-6.516c8.195-1.266 14.499-8.396 14.499-17.002z" data-original="#ffffff"></path><path fill="#ac9ef9" d="M38.6 202.147h137.929v258.525H38.6z" data-original="#ac9ef9"></path><path fill="#e0e9ef" d="M176.529 202.102H38.6L0 264.864h137.929z" data-original="#e0e9ef" class=""></path><path fill="#6262f4" d="M176.529 202.147H418.95v258.525H176.529z" data-original="#6262f4" class=""></path><path fill="#e0e9ef" d="M418.95 202.147H176.529l38.6 62.717H457.55z" data-original="#e0e9ef" class=""></path><path fill="#fdbf38" d="M443.415 314.711H328.601c-13.148 0-23.807 10.659-23.807 23.807v1.04c0 13.148 10.659 23.807 23.807 23.807h114.814c13.148 0 23.807-10.659 23.807-23.807v-1.04c0-13.149-10.659-23.807-23.807-23.807zM445.138 412.018H328.434c-12.626 0-22.862 10.236-22.862 22.862v2.929c0 12.626 10.236 22.862 22.862 22.862h116.704c12.626 0 22.862-10.236 22.862-22.862v-2.929c0-12.626-10.236-22.862-22.862-22.862z" data-original="#fdbf38"></path><path fill="#ffd085" d="M445.138 363.364H328.434c-12.626 0-22.862 10.236-22.862 22.862v2.929c0 12.626 10.236 22.862 22.862 22.862h116.704c12.626 0 22.862-10.236 22.862-22.862v-2.929c0-12.626-10.236-22.862-22.862-22.862z" data-original="#ffd085"></path><ellipse cx="292.901" cy="399.126" fill="#f761a6" rx="60.694" ry="61.31" data-original="#f761a6"></ellipse><path fill="#ffffff" d="M312.102 411.755c0-9.499-7.708-17.227-17.183-17.227h-4.037c-4.404 0-7.986-3.603-7.986-8.031s3.582-8.03 7.986-8.03h13.675a4.598 4.598 0 1 0 0-9.196h-7.058v-6.302a4.598 4.598 0 1 0-9.196 0v6.517c-8.252 1.254-14.603 8.394-14.603 17.011 0 9.499 7.708 17.227 17.183 17.227h4.037c4.404 0 7.986 3.602 7.986 8.03s-3.582 8.031-7.986 8.031h-13.675a4.598 4.598 0 1 0 0 9.196h7.058v6.302a4.598 4.598 0 1 0 9.196 0v-6.517c8.253-1.254 14.603-8.393 14.603-17.011z" data-original="#ffffff"></path></g></svg>