<svg id="Capa_1" enable-background="new 0 0 512 512" height="512" viewBox="0 0 512 512" width="512" xmlns="http://www.w3.org/2000/svg"><g><g><path d="m360 136v60c0 8.28-6.72 15-15 15s-15-6.72-15-15v-60c0-8.28 6.72-15 15-15s15 6.72 15 15z" fill="#fabe2c"/></g><g><path d="m420 106v90c0 8.28-6.72 15-15 15s-15-6.72-15-15v-90c0-8.28 6.72-15 15-15s15 6.72 15 15z" fill="#6aa9ff"/></g><g><path d="m480 76v120c0 8.28-6.72 15-15 15s-15-6.72-15-15v-120c0-8.28 6.72-15 15-15s15 6.72 15 15z" fill="#ff435b"/></g><path d="m270 46v195l-127-8-96.2-62.48c34.44-84.05 116.27-139.52 208.2-139.52 8.28 0 15 6.72 15 15z" fill="#fed843"/><path d="m480 256c0 119.33-92.66 216.8-210 224.5-4.96.33-9.96.5-15 .5-37.49 0-74.13-9.27-106.82-26.93l29.9-122.07 91.92-91h195c8.28 0 15 6.72 15 15z" fill="#ff7b4a"/><path d="m480 256c0 119.33-92.66 216.8-210 224.5v-239.5h195c8.28 0 15 6.72 15 15z" fill="#ff435b"/><path d="m270 241c-10.156 17.764-123.875 216.661-129.5 226.5-4.4 7.04-13.67 9.15-20.68 4.76-72.8-45.6-119.82-126.15-119.82-216.26 0-27.58 4.38-54.72 13.02-80.66 2.62-7.85 11.12-12.11 18.98-9.49.161.051 235.875 74.479 238 75.15z" fill="#7ed8f6"/><g><path d="m512 196c0 8.28-6.72 15-15 15h-182c-8.28 0-15-6.72-15-15s6.72-15 15-15h182c8.28 0 15 6.72 15 15z" fill="#61729b"/></g></g></svg>