<svg xmlns="http://www.w3.org/2000/svg" version="1.1" xmlns:xlink="http://www.w3.org/1999/xlink" xmlns:svgjs="http://svgjs.com/svgjs" width="512" height="512" x="0" y="0" viewBox="0 0 511.934 511.934" style="enable-background:new 0 0 512 512" xml:space="preserve" class=""><g><path fill="#6753b8" d="M224.032 99.376c2.386 35.113-36.554 46.863-56.191 23.275l-45.252 45.252c26.317 22.966 7.579 58.981-23.275 56.191v63.996c35.113-2.386 46.863 36.554 23.275 56.191l45.252 45.252c22.966-26.317 58.981-7.579 56.191 23.275h31.994l29.883-156.725-29.883-156.707z" data-original="#6753b8" class=""></path><path fill="#44388f" d="m389.471 167.903-45.252-45.252c-19.638 23.588-58.577 11.838-56.191-23.275h-32.001v313.433h32.001c-2.79-30.854 33.225-49.592 56.191-23.275l45.252-45.252c-23.587-19.637-11.838-58.577 23.275-56.191v-63.996c-30.855 2.789-49.592-33.226-23.275-56.192z" data-original="#44388f"></path><path fill="#ffe540" d="M185.823 256.092c0 38.773 31.431 70.205 70.203 70.207l19.247-70.215-19.247-70.198c-38.772.002-70.203 31.433-70.203 70.206z" data-original="#ffe540" class=""></path><path fill="#ffbe19" d="M256.03 185.886h-.004v140.413h.004c38.774 0 70.207-31.433 70.207-70.207s-31.433-70.206-70.207-70.206z" data-original="#ffbe19" class=""></path><g fill="#0894ff"><path d="M481.933 241.085v14.764c.123 127.045-103.976 226.405-226.025 226.025-53.097 0-104.159-18.733-144.488-52.243l18.959-.349-.553-29.995-69.942 1.289 1.289 69.943 29.995-.553-.34-18.46c45.897 38.702 104.309 60.369 165.08 60.369 143.648.126 256.423-117.426 256.025-256.025v-14.764h-30zM256.026 30.06c53.097 0 104.159 18.733 144.488 52.243l-18.959.349.553 29.995 69.942-1.288-1.289-69.943-29.995.553.34 18.46C375.209 21.727 316.797.06 256.026.06 112.378-.066-.397 117.486.001 256.085v14.764h30v-14.764C29.878 129.04 133.977 29.68 256.026 30.06z" fill="#0894ff" data-original="#0894ff"></path></g></g></svg>