<?xml version="1.0"?>
<svg xmlns="http://www.w3.org/2000/svg" xmlns:xlink="http://www.w3.org/1999/xlink" xmlns:svgjs="http://svgjs.com/svgjs" version="1.1" width="512" height="512" x="0" y="0" viewBox="0 0 384 384" style="enable-background:new 0 0 512 512" xml:space="preserve" class=""><g transform="matrix(1,0,0,1,1.1368683772161603e-13,1.1368683772161603e-13)"><path xmlns="http://www.w3.org/2000/svg" d="m16 16h352v352h-352zm0 0" fill="#282a36" data-original="#cce4ff" style="" class=""/><g xmlns="http://www.w3.org/2000/svg" fill="#007aff"><path d="m64 352h-32v-320h32v-32h-64v384h64zm0 0" fill="#79b9ff" data-original="#007aff" style="" class=""/><path d="m320 32h32v320h-32v32h64v-384h-64zm0 0" fill="#79b9ff" data-original="#007aff" style="" class=""/><path d="m96 320h192v-64h-32v32h-116.273438l81.234376-96-81.234376-96h116.273438v32h32v-64h-192v29.855469l83.039062 98.144531-83.039062 98.144531zm0 0" fill="#79b9ff" data-original="#007aff" style="" class=""/></g></g></svg>
