<svg xmlns="http://www.w3.org/2000/svg" version="1.1" xmlns:xlink="http://www.w3.org/1999/xlink" xmlns:svgjs="http://svgjs.com/svgjs" width="512" height="512" x="0" y="0" viewBox="0 0 508.877 508.877" style="enable-background:new 0 0 512 512" xml:space="preserve" class=""><g><path fill="#b3e59f" d="M162.753 404.617h212.08v-238.54c-13.73-13.96-30.06-24.79-55.43-24.79-71.27 0-71.27 85.52-142.54 85.52-5.05 0-9.73-.43-14.11-1.23z" data-original="#b3e59f" class=""></path><path fill="#95d6a4" d="M176.864 226.807c3.83 0 7.45-.25 10.89-.72v178.53h-25v-179.04c4.379.8 9.06 1.23 14.11 1.23z" data-original="#95d6a4" class=""></path><path fill="#ffe177" d="M162.753 404.247v-179.04c-50.88-9.24-60.41-68.12-107.81-81.55v260.59z" data-original="#ffe177" class=""></path><path fill="#ffd15b" d="M79.943 156.777v247.47h-25v-260.59c9.69 2.74 17.8 7.39 25 13.12z" data-original="#ffd15b" class=""></path><path fill="#ffe177" d="M462.098 404.609h-87.11v-238.54c24.87 25.25 41.2 60.73 87.11 60.73z" data-original="#ffe177" class=""></path><path fill="#ffd15b" d="M399.991 194.808v209.8h-25v-238.54c8.84 8.98 16.6 19.24 25 28.74z" data-original="#ffd15b" class=""></path><path d="m506.68 398.262-42.607-42.607a7.5 7.5 0 0 0-10.607 10.606l29.807 29.806H378.489V184.711c.859 1.026 1.718 2.055 2.579 3.089 17.758 21.308 37.884 45.458 77.032 45.458 4.143 0 7.5-3.358 7.5-7.5s-3.357-7.5-7.5-7.5c-32.123 0-48.34-19.459-65.509-40.062-17.758-21.308-37.884-45.458-77.031-45.458-39.138 0-59.263 24.144-77.02 45.445-7.802 9.359-15.171 18.2-23.929 25.313a7.5 7.5 0 1 0 9.457 11.643c9.89-8.033 18.077-17.854 25.994-27.353 17.168-20.596 33.384-40.049 65.498-40.049 21.356 0 35.679 8.606 47.929 20.426v227.904H332.44c-4.143 0-7.5 3.358-7.5 7.5s3.357 7.5 7.5 7.5h150.827l-29.802 29.801a7.5 7.5 0 0 0 5.304 12.803 7.478 7.478 0 0 0 5.304-2.197l42.607-42.607a7.498 7.498 0 0 0 0-10.605zM297.44 396.068H166.409V233.012c2.144.157 4.342.246 6.611.246 5.494 0 10.824-.477 15.843-1.418a7.5 7.5 0 0 0-2.765-14.743c-4.109.771-8.508 1.162-13.077 1.162-32.112 0-48.326-19.455-65.492-40.052-13.409-16.089-27.245-32.676-48.929-40.662V42.554l29.804 29.804c1.464 1.464 3.384 2.197 5.303 2.197s3.839-.732 5.303-2.197a7.5 7.5 0 0 0 0-10.606L56.404 19.146a7.691 7.691 0 0 0-.552-.499c-.083-.068-.172-.128-.257-.192-.11-.083-.218-.168-.332-.244-.104-.069-.211-.129-.317-.193-.104-.062-.206-.127-.313-.185-.108-.058-.219-.107-.329-.159-.112-.053-.221-.108-.336-.156-.107-.044-.216-.08-.324-.119-.122-.044-.243-.091-.369-.129-.107-.032-.216-.056-.325-.083-.129-.033-.256-.068-.387-.095-.122-.024-.245-.038-.367-.056-.12-.018-.237-.04-.359-.052a7.81 7.81 0 0 0-.648-.033c-.03 0-.059-.005-.089-.005s-.059.004-.089.005a7.788 7.788 0 0 0-.648.033c-.122.012-.24.034-.359.052-.122.018-.245.032-.367.056-.131.026-.259.062-.388.095-.108.027-.217.051-.324.083-.125.038-.246.085-.369.129-.108.039-.218.075-.324.119-.114.047-.224.103-.336.156-.11.052-.221.101-.329.159-.107.058-.209.123-.314.185-.106.063-.213.123-.316.192-.115.077-.223.162-.334.245-.085.064-.173.123-.256.191a7.44 7.44 0 0 0-.552.499L3.189 61.752a7.5 7.5 0 0 0 5.303 12.803 7.474 7.474 0 0 0 5.303-2.197L43.6 42.554v353.514H7.5a7.5 7.5 0 0 0 0 15h36.1v45.891a7.5 7.5 0 0 0 15 0v-45.891h238.84c4.143 0 7.5-3.358 7.5-7.5s-3.357-7.5-7.5-7.5zM58.6 153.846c15.151 7.302 26.023 20.305 37.405 33.963 14.15 16.979 29.817 35.75 55.404 42.677v165.583H58.6z" fill="#939393" data-original="#000000" class="" opacity="1"></path><path d="M265.865 304.813c-4.566 0-7.171-2.483-7.86-3.244a7.5 7.5 0 1 0-11.115 10.073c4.706 5.193 11.623 8.172 18.976 8.172 9.419 0 17.346-6.11 18.849-14.527 1.097-6.145-1.626-14.797-12.909-18.958a202.095 202.095 0 0 1-9.691-3.897c.063-.232.366-.595 1.172-.838 3.61-1.089 8.364 1.475 9.754 2.464a7.499 7.499 0 0 0 10.448-1.612 7.5 7.5 0 0 0-1.583-10.488c-1.146-.846-11.529-8.165-22.945-4.726-6.328 1.906-10.811 6.935-11.7 13.125-.843 5.873 1.706 11.523 6.651 14.748.332.216.679.405 1.041.566.226.101 5.607 2.497 11.662 4.73 2.628.969 3.37 2.047 3.334 2.25-.116.635-1.452 2.162-4.084 2.162zM166.409 437.594c-3.199 0-5.923 2.007-7.001 4.827a24.707 24.707 0 0 0-10.892-2.519c-13.708 0-24.859 11.152-24.859 24.859 0 13.708 11.152 24.859 24.859 24.859 3.905 0 7.601-.908 10.892-2.519 1.078 2.82 3.802 4.827 7.001 4.827a7.5 7.5 0 0 0 7.5-7.5v-39.335a7.5 7.5 0 0 0-7.5-7.499zm-17.892 37.026c-5.437 0-9.859-4.423-9.859-9.859s4.423-9.859 9.859-9.859 9.859 4.423 9.859 9.859c-.001 5.437-4.423 9.859-9.859 9.859zM370.989 438.14c-4.334 0-8.36 1.037-11.894 2.865v-14.416c0-4.142-3.357-7.5-7.5-7.5s-7.5 3.358-7.5 7.5v57.839a7.5 7.5 0 0 0 7.5 7.5 7.488 7.488 0 0 0 6.34-3.505c3.801 2.226 8.238 3.505 13.054 3.505 14.83 0 26.895-12.064 26.895-26.894s-12.065-26.894-26.895-26.894zm0 38.788c-6.559 0-11.894-5.335-11.894-11.894s5.335-11.895 11.894-11.895 11.895 5.336 11.895 11.895-5.337 11.894-11.895 11.894zM188.344 77.143v30.467a7.5 7.5 0 0 0 15 0v-30.4h1.15a7.5 7.5 0 0 0 0-15h-1.15v-5.051a9.669 9.669 0 0 1 2.415.014 7.5 7.5 0 0 0 2.482-14.793c-1.548-.266-9.556-1.353-15.158 3.368-3.056 2.576-4.739 6.38-4.739 10.712v5.817c-3.693.468-6.55 3.614-6.55 7.433s2.858 6.965 6.55 7.433zM270.647 104.002a7.467 7.467 0 0 0 4.51 1.512 7.488 7.488 0 0 0 5.994-2.985l9.38-12.44 9.976 13.146a7.49 7.49 0 0 0 5.98 2.966 7.5 7.5 0 0 0 5.968-12.034l-12.54-16.524 10.376-13.761a7.5 7.5 0 0 0-1.473-10.504 7.498 7.498 0 0 0-10.504 1.473l-7.823 10.375-7.888-10.394a7.5 7.5 0 0 0-11.949 9.068l10.452 13.772-11.933 15.826a7.501 7.501 0 0 0 1.474 10.504zM240.158 109.698a7.5 7.5 0 0 0 7.252-9.434c-6.565-24.625-.396-41.312-.268-41.648a7.501 7.501 0 0 0-13.943-5.532c-.34.851-8.244 21.186-.283 51.044a7.502 7.502 0 0 0 7.242 5.57zM334.235 100.264a7.502 7.502 0 0 0 7.252 9.434 7.504 7.504 0 0 0 7.242-5.57c7.961-29.858.057-50.193-.283-51.044a7.5 7.5 0 0 0-13.928 5.57c.065.163 6.303 16.91-.283 41.61z" fill="#939393" data-original="#000000" class="" opacity="1"></path></g></svg>