<svg xmlns="http://www.w3.org/2000/svg" version="1.1" xmlns:xlink="http://www.w3.org/1999/xlink" xmlns:svgjs="http://svgjs.com/svgjs" width="512" height="512" x="0" y="0" viewBox="0 0 512 512" style="enable-background:new 0 0 512 512" xml:space="preserve" class=""><g><path fill="#faab48" d="M505.55 58.03c-3.95-25.63-25.83-47.51-51.46-51.46-15.44-2.34-36.55-4.6-65.36-5.84-28.81-1.22-49.83-.75-65.16.32-25.45 1.78-45.57 22.73-47.79 49.27-1.3 15.95-2.22 37.84-2.13 67.79.09 29.96 1.13 51.85 2.57 67.81 2.37 26.56 23.43 47.61 49.98 49.98 15.95 1.43 37.85 2.49 67.81 2.57 29.95.08 51.85-.83 67.79-2.13 26.53-2.22 47.48-22.35 49.27-47.79 1.07-15.33 1.55-36.35.32-65.16-1.24-28.81-3.5-49.91-5.84-65.36zM236.01 326.09c-2.37-26.56-23.42-47.61-49.98-49.98-15.96-1.43-37.85-2.49-67.81-2.57s-51.85.83-67.79 2.13c-26.53 2.22-47.49 22.35-49.27 47.79-1.07 15.33-1.55 36.35-.32 65.16 1.24 28.81 3.51 49.91 5.84 65.36 3.96 25.63 25.83 47.51 51.46 51.46 15.45 2.34 36.55 4.6 65.36 5.84 28.81 1.22 49.83.75 65.16-.32 25.44-1.78 45.57-22.73 47.79-49.27 1.3-15.95 2.22-37.84 2.13-67.79-.08-29.96-1.14-51.85-2.57-67.81zM511.07 323.46c-1.78-25.44-22.73-45.57-49.27-47.79-15.95-1.3-37.84-2.22-67.79-2.13-29.96.08-51.85 1.13-67.81 2.57-26.56 2.38-47.61 23.43-49.98 49.98-1.43 15.96-2.49 37.85-2.57 67.81-.08 29.95.84 51.85 2.13 67.79 2.22 26.54 22.35 47.49 47.79 49.27 15.33 1.07 36.35 1.55 65.16.32 28.81-1.24 49.92-3.51 65.36-5.84 25.63-3.95 47.51-25.83 51.46-51.46 2.33-15.44 4.6-36.55 5.84-65.36 1.22-28.81.75-49.83-.32-65.16z" data-original="#faab48" class=""></path><g fill="#f8c358"><path d="M50.43 236.33c15.95 1.3 37.84 2.22 67.79 2.13 29.96-.08 51.85-1.14 67.81-2.57 26.55-2.38 47.6-23.43 49.98-49.98 1.43-15.96 2.49-37.85 2.57-67.81s-.84-51.85-2.13-67.79c-2.22-26.54-22.35-47.49-47.79-49.27C173.34-.02 152.31-.5 123.5.72 94.7 1.96 73.58 4.23 58.14 6.56 32.51 10.52 10.64 32.4 6.69 58.03 4.36 73.47 2.08 94.58.85 123.38c-.42 9.81-.63 18.69-.7 26.78v10.88c.1 10.76.49 19.84 1.02 27.49 1.78 25.44 22.73 45.57 49.27 47.79zM323.58 1.05c-25.45 1.78-45.57 22.73-47.79 49.27-1.3 15.95-2.22 37.84-2.13 67.79.09 29.96 1.13 51.85 2.57 67.81 2.37 26.56 23.43 47.61 49.98 49.98 12.1 1.09 27.62 1.95 47.47 2.35 16.07-35.06 25.03-74.04 25.03-115.13 0-44.18-10.37-85.93-28.79-122.98-19.43-.38-34.58.09-46.35.91zM186.03 276.11c-15.96-1.43-37.85-2.49-67.81-2.57s-51.85.83-67.79 2.13c-26.53 2.22-47.49 22.35-49.27 47.79-.53 7.66-.92 16.75-1.02 27.52v10.83c.03 3.13.07 6.38.15 9.75 36.75 18.05 78.07 28.19 121.77 28.19s80.94-9.18 116.3-25.58c-.39-20.15-1.26-35.87-2.36-48.09-2.37-26.56-23.42-47.6-49.98-49.98zM353.72 274.36c-10.71.45-19.81 1.05-27.52 1.74-26.56 2.38-47.61 23.43-49.98 49.98-.7 7.8-1.31 17.04-1.76 27.93a278.17 278.17 0 0 0 79.26-79.65z" fill="#f8c358" data-original="#f8c358" class=""></path></g></g></svg>