<svg xmlns="http://www.w3.org/2000/svg" version="1.1" xmlns:xlink="http://www.w3.org/1999/xlink" width="512" height="512" x="0" y="0" viewBox="0 0 512 512" style="enable-background:new 0 0 512 512" xml:space="preserve" class=""><g><path fill="#ff5e82" d="M377.844 316.309H134.156c-8.284 0-15-6.716-15-15v-60c0-3.564 1.27-7.014 3.581-9.728C156.076 192.445 204.648 170 256 170s99.924 22.445 133.263 61.581a15.001 15.001 0 0 1 3.581 9.728v60c0 8.284-6.716 15-15 15z" opacity="1" data-original="#ff5e82" class=""></path><path fill="#b7457d" d="M377.844 316.309c8.284 0 15-6.716 15-15v-60c0-3.564-1.27-7.014-3.581-9.728C355.924 192.445 307.352 170 256 170v146.309z" opacity="1" data-original="#b7457d"></path><path fill="#a4e9ff" d="M256 512c-1.784 0-3.569-.318-5.267-.955l-160-60A15 15 0 0 1 81 437V227a15 15 0 0 1 20.267-14.045L256 270.98l154.733-58.025A15 15 0 0 1 431 227v210a15 15 0 0 1-9.733 14.045l-160 60A14.994 14.994 0 0 1 256 512z" opacity="1" data-original="#a4e9ff" class=""></path><path fill="#91bbff" d="M421.267 451.045A15 15 0 0 0 431 437V227a15 15 0 0 0-20.267-14.045L256 270.98V512c1.784 0 3.569-.318 5.267-.955z" opacity="1" data-original="#91bbff"></path><path fill="#ffd6aa" d="M256 200c-55.141 0-100-44.859-100-100S200.859 0 256 0s100 44.859 100 100-44.859 100-100 100z" opacity="1" data-original="#ffd6aa"></path><path fill="#fac68f" d="M356 100C356 44.859 311.141 0 256 0v200c55.141 0 100-44.859 100-100zM428.5 380h-15c-9.649 0-17.5-7.851-17.5-17.5v-50c0-9.649 7.851-17.5 17.5-17.5h15c23.435 0 42.5 19.065 42.5 42.5S451.935 380 428.5 380z" opacity="1" data-original="#fac68f"></path><path fill="#ffd6aa" d="M98.5 380h-15C60.065 380 41 360.935 41 337.5S60.065 295 83.5 295h15c9.649 0 17.5 7.851 17.5 17.5v50c0 9.649-7.851 17.5-17.5 17.5z" opacity="1" data-original="#ffd6aa"></path></g></svg>