<svg xmlns="http://www.w3.org/2000/svg" version="1.1" xmlns:xlink="http://www.w3.org/1999/xlink" xmlns:svgjs="http://svgjs.com/svgjs" width="512" height="512" x="0" y="0" viewBox="0 0 512 512" style="enable-background:new 0 0 512 512" xml:space="preserve" class=""><g><g fill-rule="evenodd"><path fill="#29b933" d="M228.839 325.015c3.229 0 5.98-1.935 7.071-4.977 1.09-3.041.194-6.284-2.3-8.336-6.525-5.365-8.406-14.816-4.042-22.374 4.858-8.415 15.618-11.299 24.032-6.44 8.415 4.858 11.298 15.62 6.44 24.034a17.558 17.558 0 0 1-4.044 4.783c-2.493 2.054-3.385 5.295-2.294 8.334 1.09 3.04 3.84 4.975 7.07 4.975h27.401c5.508 0 10-4.492 10-10v-29.775c0-3.229 1.936-5.979 4.975-7.07 3.04-1.091 6.281-.198 8.334 2.294a17.573 17.573 0 0 0 4.783 4.044c8.415 4.858 19.176 1.975 24.034-6.439 4.858-8.415 1.974-19.175-6.44-24.033-7.557-4.363-17.009-2.481-22.374 4.042-2.052 2.495-5.294 3.391-8.335 2.3-3.041-1.09-4.978-3.84-4.978-7.071v-29.778c0-5.508-4.492-10-10-10h-86.733c-5.508 0-10 4.492-10 10v29.778c0 3.23-1.935 5.981-4.977 7.071-3.041 1.091-6.284.195-8.336-2.3-5.366-6.524-14.816-8.406-22.374-4.042-8.415 4.858-11.298 15.618-6.44 24.033 4.859 8.415 15.619 11.298 24.034 6.439a17.558 17.558 0 0 0 4.783-4.044c2.054-2.493 5.295-3.385 8.334-2.294 3.04 1.09 4.975 3.84 4.975 7.07v29.775c0 5.508 4.492 10 10 10h27.4z" data-original="#29b933"></path><path fill="#2dd62d" d="M228.839 325.015c3.229 0 5.98-1.935 7.071-4.977 1.09-3.041.194-6.284-2.3-8.336-6.525-5.365-8.406-14.816-4.042-22.374 4.858-8.415 15.618-11.299 24.032-6.44 8.415 4.858 11.298 15.62 6.44 24.034a17.558 17.558 0 0 1-4.044 4.783c-2.493 2.054-3.385 5.295-2.294 8.334 1.09 3.04 3.84 4.975 7.07 4.975h15.026c5.508 0 10-4.492 10-10v-91.485c0-5.508-4.492-10-10-10H201.44c-5.508 0-10 4.492-10 10v29.778c0 3.23-1.935 5.981-4.977 7.071-3.041 1.091-6.284.195-8.336-2.3-5.366-6.524-14.816-8.406-22.374-4.042-8.415 4.858-11.298 15.618-6.44 24.033 4.859 8.415 15.619 11.298 24.034 6.439a17.558 17.558 0 0 0 4.783-4.044c2.054-2.493 5.295-3.385 8.334-2.294 3.04 1.09 4.975 3.84 4.975 7.07v29.775c0 5.508 4.492 10 10 10z" data-original="#2dd62d"></path><path fill="#fdc72e" d="m445.669 178.056-71.63 70.08c-3.934 3.849-10.279 3.783-14.132-.146l-26.501-27.021c-2.302-2.348-2.856-5.727-1.423-8.686 1.434-2.96 4.428-4.621 7.698-4.27 8.55.917 16.759-4.452 19.142-13.01 2.653-9.529-2.921-19.405-12.45-22.057-9.53-2.654-19.405 2.922-22.058 12.451a17.856 17.856 0 0 0-.594 6.349c.284 3.276-1.435 6.234-4.422 7.608s-6.353.755-8.655-1.592l-26.468-26.988c-1.932-1.97-2.891-4.355-2.86-7.114s1.043-5.122 3.019-7.048l26.624-25.95c2.354-2.294 2.967-5.668 1.592-8.655-1.374-2.987-4.332-4.707-7.608-4.422a17.856 17.856 0 0 1-6.349-.594c-9.529-2.653-15.104-12.528-12.451-22.058 2.653-9.529 12.529-15.103 22.058-12.45 8.559 2.383 13.927 10.592 13.01 19.143-.351 3.27 1.31 6.265 4.27 7.698s6.339.88 8.686-1.423l21.771-21.352c3.932-3.857 10.285-3.795 14.141.137l75.734 77.222c1.93 1.968 2.889 4.349 2.86 7.105-.028 2.756-1.036 5.117-3.006 7.045z" data-original="#fdc72e"></path><path fill="#fcdb35" d="m357.167 245.197-23.762-24.228c-2.302-2.348-2.856-5.727-1.423-8.686 1.434-2.96 4.428-4.621 7.698-4.27 8.55.917 16.759-4.452 19.142-13.01 2.653-9.529-2.921-19.405-12.45-22.057-9.53-2.654-19.405 2.922-22.058 12.451a17.856 17.856 0 0 0-.594 6.349c.284 3.276-1.435 6.234-4.422 7.608s-6.353.755-8.655-1.592l-26.468-26.988c-1.932-1.97-2.891-4.355-2.86-7.114s1.043-5.122 3.019-7.048l26.624-25.95c2.354-2.294 2.967-5.668 1.592-8.655-1.374-2.987-4.332-4.707-7.608-4.422a17.856 17.856 0 0 1-6.349-.594c-9.529-2.653-15.104-12.528-12.451-22.058 2.653-9.529 12.529-15.103 22.058-12.45 8.559 2.383 13.927 10.592 13.01 19.143-.351 3.27 1.31 6.265 4.27 7.698s6.339.88 8.686-1.423l18.78-18.418 72.992 74.425c1.93 1.968 2.888 4.349 2.86 7.105s-1.036 5.117-3.006 7.045l-68.627 67.141z" data-original="#fcdb35"></path><path fill="#2a93fc" d="m145.769 189.676 100.204-1.096c5.503-.06 9.944-4.593 9.89-10.096l-.368-37.846c-.032-3.289-2.03-6.069-5.136-7.148s-6.398-.137-8.462 2.424c-5.397 6.694-14.998 8.703-22.735 4.336-8.614-4.862-11.656-15.786-6.794-24.4 4.862-8.615 15.787-11.655 24.401-6.793a17.858 17.858 0 0 1 4.909 4.069c2.115 2.517 5.423 3.394 8.507 2.253 3.084-1.14 5.026-3.958 4.994-7.246l-.368-37.799c-.027-2.76-1.035-5.124-3.008-7.053s-4.36-2.884-7.119-2.849l-37.176.477c-3.287.042-6.106-1.91-7.246-4.994s-.265-6.392 2.253-8.507a17.876 17.876 0 0 0 4.07-4.909c4.862-8.614 1.822-19.539-6.793-24.402-8.614-4.862-19.538-1.82-24.401 6.794-4.367 7.737-2.358 17.337 4.336 22.735 2.56 2.064 3.504 5.356 2.424 8.462-1.079 3.107-3.86 5.104-7.148 5.136l-30.492.296c-5.507.054-9.956 4.589-9.902 10.096l1.052 108.156c.027 2.756 1.033 5.118 3.002 7.046 1.969 1.929 4.351 2.886 7.107 2.856z" data-original="#2a93fc"></path><path fill="#4eb1fc" d="M242.319 135.43a7.918 7.918 0 0 0-.423.484c-5.397 6.694-14.998 8.703-22.735 4.336-8.614-4.862-11.656-15.786-6.794-24.4 4.862-8.615 15.787-11.655 24.401-6.793a17.858 17.858 0 0 1 4.909 4.069c.138.164.281.321.429.471l-.421-43.263c-.027-2.76-1.035-5.124-3.008-7.053-1.464-1.431-3.157-2.363-5.059-2.707l-26.111.335c-3.286.042-6.106-1.91-7.246-4.994s-.265-6.392 2.253-8.507a17.876 17.876 0 0 0 4.07-4.909c4.862-8.614 1.822-19.539-6.793-24.402-8.614-4.862-19.538-1.82-24.401 6.794-4.367 7.737-2.358 17.337 4.336 22.735 2.56 2.064 3.504 5.356 2.424 8.462-1.079 3.107-3.86 5.104-7.148 5.136l-30.492.296c-5.507.054-9.956 4.589-9.902 10.096l1.052 108.156c.027 2.756 1.033 5.118 3.002 7.046 1.534 1.503 3.32 2.416 5.338 2.731l88.848-.972c5.503-.06 9.944-4.593 9.89-10.096l-.419-43.054z" data-original="#4eb1fc"></path><path fill="#fdb0a0" d="M364.868 458.785c3.251-16.864 10.252-30.705 25.091-44.176 20.32-18.447 41.656-22.554 58.09-65.84l45.733-122.042c3.359-9.799 6.604-21.558 7.218-27.197-6.758-16.315-27.536-17.447-44.803 22.191-11.397 26.163-27.555 57.133-36.107 70.035-1.068-2.653-2.847-5.138-5.468-7.399-7.532-6.496-17.949-5.639-30.512 6.691-20.003 19.633-39.398 35.879-61.446 53.736-13.486 11.733-24.429 25.395-26.329 53.998-.629 9.48-3.657 43.43-12.462 60.003h80.996z" data-original="#fdb0a0" class=""></path><path fill="#ffcec0" d="M486.244 188.912c-8.936.627-20.077 9.921-30.047 32.808-11.397 26.163-27.555 57.133-36.107 70.035-1.068-2.653-2.847-5.138-5.468-7.399-7.532-6.496-17.949-5.639-30.512 6.691-20.003 19.633-39.398 35.879-61.446 53.736-13.486 11.733-24.429 25.395-26.329 53.998-.629 9.48-3.657 43.43-12.462 60.003h66.686c4.876-23.539 12.501-37.794 26.8-50.776 20.32-18.447 41.656-22.554 58.09-65.84l45.733-122.042c3.359-9.799 6.604-21.558 7.218-27.197a22.121 22.121 0 0 0-2.156-4.017z" data-original="#ffcec0" class=""></path><path fill="#fdb0a0" d="M420.091 291.755c-1.068-2.653-2.847-5.138-5.468-7.399-4.307-3.714-9.558-5.023-15.615-3.158 1.46.238 2.789.898 3.973 1.919 9.194 7.929.405 22.55-11.025 35.803-7.913 9.175-17.347 17.827-24.077 23.998-2.072 1.9-3.884 3.562-5.612 5.218a7.979 7.979 0 0 0 11.062 11.5c1.227-1.175 3.156-2.945 5.362-4.968 6.964-6.386 16.727-15.339 25.327-25.311 10.91-12.65 18.2-25.482 16.073-37.602z" data-original="#fdb0a0" class=""></path><path fill="#2a93fc" d="M268.984 496.219v-36.264c0-7.119 5.824-12.943 12.943-12.943h89.045c7.12 0 12.944 5.824 12.944 12.943v36.264z" data-original="#2a93fc"></path><path fill="#4eb1fc" d="M268.984 496.219v-36.264c0-7.119 5.824-12.943 12.943-12.943h71.474c7.119 0 12.944 5.824 12.944 12.943v36.264z" data-original="#4eb1fc"></path><path fill="#0062d9" d="M293.887 484.025c6.4 0 11.619-5.219 11.619-11.619s-5.219-11.619-11.619-11.619-11.62 5.22-11.62 11.619 5.22 11.619 11.62 11.619z" data-original="#0062d9"></path><path fill="#fdb0a0" d="M147.132 458.785c-3.251-16.864-10.252-30.705-25.091-44.176-20.32-18.447-41.656-22.554-58.09-65.84L18.218 226.727c-3.358-9.799-6.604-21.558-7.218-27.197 6.758-16.315 27.536-17.447 44.803 22.191 11.397 26.163 27.555 57.133 36.107 70.035 1.068-2.653 2.847-5.138 5.468-7.399 7.532-6.496 17.949-5.639 30.512 6.691 20.003 19.633 39.398 35.879 61.446 53.736 13.486 11.733 24.43 25.395 26.329 53.998.629 9.48 3.657 43.43 12.462 60.003h-80.996z" data-original="#fdb0a0" class=""></path><path fill="#ffcec0" d="M25.756 188.912c8.936.627 20.077 9.921 30.047 32.808 11.397 26.163 27.555 57.133 36.107 70.035 1.068-2.653 2.847-5.138 5.468-7.399 7.532-6.496 17.949-5.639 30.512 6.691 20.003 19.633 39.398 35.879 61.446 53.736 13.486 11.733 24.43 25.395 26.329 53.998.629 9.48 3.657 43.43 12.462 60.003h-66.686c-4.876-23.539-12.501-37.794-26.8-50.776-20.32-18.447-41.656-22.554-58.09-65.84L30.818 220.127c-3.359-9.799-6.604-21.558-7.218-27.197a22.121 22.121 0 0 1 2.156-4.017z" data-original="#ffcec0" class=""></path><path fill="#fdb0a0" d="M91.909 291.755c1.068-2.653 2.847-5.138 5.468-7.399 4.307-3.714 9.558-5.023 15.615-3.158-1.46.238-2.788.898-3.973 1.919-9.194 7.929-.405 22.55 11.025 35.803 7.913 9.175 17.347 17.827 24.077 23.998 2.072 1.9 3.884 3.562 5.612 5.218a7.979 7.979 0 0 1-11.062 11.5c-1.227-1.175-3.156-2.945-5.362-4.968-6.964-6.386-16.727-15.339-25.327-25.311-10.91-12.65-18.199-25.482-16.073-37.602z" data-original="#fdb0a0" class=""></path><path fill="#2a93fc" d="M243.016 496.219v-36.264c0-7.119-5.824-12.943-12.943-12.943h-89.045c-7.119 0-12.944 5.824-12.944 12.943v36.264z" data-original="#2a93fc"></path><path fill="#4eb1fc" d="M243.016 496.219v-36.264c0-7.119-5.824-12.943-12.943-12.943h-71.474c-7.12 0-12.944 5.824-12.944 12.943v36.264z" data-original="#4eb1fc"></path><path fill="#0062d9" d="M218.114 484.025c6.4 0 11.619-5.219 11.619-11.619s-5.219-11.619-11.619-11.619-11.619 5.22-11.619 11.619 5.22 11.619 11.619 11.619z" data-original="#0062d9"></path></g></g></svg>