<svg xmlns="http://www.w3.org/2000/svg" version="1.1" xmlns:xlink="http://www.w3.org/1999/xlink" xmlns:svgjs="http://svgjs.com/svgjs" width="512" height="512" x="0" y="0" viewBox="0 0 512 512" style="enable-background:new 0 0 512 512" xml:space="preserve" class=""><g><linearGradient id="SVGID_1_" gradientUnits="userSpaceOnUse" x1="256" x2="256" y1="434.2" y2="91"><stop offset="0" stop-color="#addcff"></stop><stop offset=".5028" stop-color="#eaf6ff"></stop><stop offset="1" stop-color="#eaf6ff"></stop></linearGradient><linearGradient id="SVGID_2_" gradientUnits="userSpaceOnUse" x1="256" x2="256" y1="496" y2="16"><stop offset="0" stop-color="#5558ff"></stop><stop offset="1" stop-color="#00c0ff"></stop></linearGradient><g><g><g><path d="m504.5 242.8-81.1-45c-4.801-2.4-10.201-2.4-15 0l-32.4 18.305v-125.105h-240v125.105l-32.401-18.305c-4.799-2.4-10.199-2.4-15 0l-81.099 45c-4.501 2.699-7.5 7.8-7.5 13.2s2.999 10.499 7.5 13.2l57.7 31.8 153.3 133.2h75l153.3-133.2 57.7-31.8c4.501-2.701 7.5-7.8 7.5-13.2s-2.999-10.501-7.5-13.2zm-248.5 41.1-75.935-42.9h151.869z" fill="url(#SVGID_1_)" data-original="url(#SVGID_1_)"></path></g></g><g><g><path d="m504.5 332.8-57.7-31.8-183.3 103.2c-2.4 1.199-5.1 1.8-7.5 1.8s-5.1-.601-7.5-1.8l-183.3-103.2-57.7 31.8c-4.501 2.699-7.5 7.8-7.5 13.2s2.999 10.499 7.5 13.2l241 135c2.4 1.199 5.1 1.8 7.5 1.8s5.1-.601 7.5-1.8l241-135c4.501-2.701 7.5-7.8 7.5-13.2s-2.999-10.501-7.5-13.2zm-497-153.6 241 135c2.4 1.199 5.1 1.8 7.5 1.8s5.1-.601 7.5-1.8l241-135c4.501-2.701 7.5-7.8 7.5-13.2s-2.999-10.501-7.5-13.2l-241-135c-4.799-2.4-10.201-2.4-15 0l-241 135c-4.501 2.699-7.5 7.8-7.5 13.2s2.999 10.499 7.5 13.2zm298.001-32.701c-6-5.7-6-15.3 0-21 5.7-5.999 15.299-5.999 20.999 0l30 30c6 5.7 6 15.3 0 21l-30 30c-5.396 6-15.6 6.002-20.999 0-6-5.7-6-15.3 0-21l19.198-19.499zm-71.701 45.901 15-60c2.1-8.101 10.199-12.9 18.3-10.802 8.101 1.8 12.9 9.901 11.1 18.001l-15 60c-2.556 9.799-13.626 13.14-18.3 10.8-8.1-1.799-12.9-9.9-11.1-17.999zm-78.299-36.901 30-30c5.7-5.999 15.299-5.999 20.999 0 6 5.7 6 15.3 0 21l-19.199 19.501 19.198 19.499c6 5.7 6 15.3 0 21-5.396 6-15.6 6.002-20.999 0l-30-30c-6-5.7-6-15.3.001-21z" fill="url(#SVGID_2_)" data-original="url(#SVGID_2_)"></path></g></g></g></g></svg>