<svg id="Capa_1" enable-background="new 0 0 512 512" height="512" viewBox="0 0 512 512" width="512" xmlns="http://www.w3.org/2000/svg"><path d="m364.166 96.5-148.645-90.479c-6.594-4.014-14.031-6.021-21.469-6.021s-14.875 2.007-21.469 6.021l-148.645 90.479c-6.175 3.759-11.142 8.996-14.56 15.102l14.615 164.065h340.117l14.616-164.062c-3.417-6.107-8.385-11.346-14.56-15.105z" fill="#ff8086"/><path d="m23.994 351.438c-12.341-7.485-19.877-20.871-19.877-35.304v-184.364c0-7.18 1.868-14.104 5.262-20.168l184.673 112.167 5.281 173.564-5.281 50.25c-7.417 0-14.833-1.995-21.413-5.986z" fill="#db4655"/><path d="m364.11 351.438c12.341-7.485 19.877-20.871 19.877-35.304v-184.364c0-7.18-1.866-14.101-5.261-20.165l-184.674 112.164v223.814c7.417 0 14.833-1.995 21.413-5.986z" fill="#e5646e"/><path d="m260.142 231.226h214.709c18.243 0 33.032 14.789 33.032 33.032v214.709c0 6.017-1.609 11.657-4.419 16.516l-28.613 7.517h-207.184c-18.243 0-33.032-14.789-33.032-33.032v-205.71l8.969-28.6c4.863-2.818 10.512-4.432 16.538-4.432z" fill="#eceaec"/><ellipse cx="94.981" cy="280.774" fill="#ff9a9f" rx="15.414" ry="27.246" transform="matrix(.92 -.392 .392 .92 -102.354 59.608)"/><ellipse cx="194.249" cy="107.011" fill="#fff" rx="27.199" ry="17.157"/><ellipse cx="278.739" cy="107.011" fill="#fff" rx="27.199" ry="17.157"/><ellipse cx="109.76" cy="107.011" fill="#fff" rx="27.199" ry="17.157"/><g fill="#e5646e"><circle cx="367.496" cy="371.613" r="24.774"/><circle cx="293.174" cy="297.291" r="24.774"/><circle cx="441.819" cy="445.936" r="24.774"/></g><path d="m293.149 495.484c-27.365 0-49.548-22.184-49.548-49.548l.003-210.277c-9.818 5.726-16.494 16.415-16.494 28.6v214.709c0 18.243 14.789 33.032 33.032 33.032h214.709c12.196 0 22.892-6.684 28.614-16.516z" fill="#dad8db"/></svg>