<svg id="Capa_1" enable-background="new 0 0 512 512" height="512" viewBox="0 0 512 512" width="512" xmlns="http://www.w3.org/2000/svg"><path d="m460.357 380.437v-109.185h-125.11l-64.247-64.247v-73.719h103.286v-133.286h-236.572v133.286h103.286v73.719l-64.247 64.247h-125.11v107.462h-51.643v133.286h133.286v-133.286h-51.643v-77.462h95.11l79.247 79.247 79.247-79.247h95.11v79.185c-29.544 6.825-51.644 33.332-51.644 64.92 0 36.747 29.896 66.643 66.644 66.643s66.643-29.896 66.643-66.643c0-31.588-22.098-58.095-51.643-64.92zm-292.643-350.437h176.572v73.286h-176.572zm-64.428 452h-73.286v-73.286h73.286zm152.714-143.927-51.821-51.821 51.821-51.821 51.821 51.821zm189.357 143.927c-20.205 0-36.644-16.438-36.644-36.643s16.438-36.644 36.644-36.644 36.643 16.439 36.643 36.644-16.437 36.643-36.643 36.643z"/></svg>