<svg id="Layer_1" enable-background="new 0 0 512 512" height="512" viewBox="0 0 512 512" width="512" xmlns="http://www.w3.org/2000/svg"><g><path d="m428.487 416.533c-8.187 4.289-17.168 6.946-26.692 7.899-2.045.205-3.917 1.24-5.178 2.864s-1.799 3.694-1.49 5.727c.432 2.833.632 5.168.632 7.348 0 31.226-29.665 56.629-66.129 56.629-26.563 0-50.461-13.545-60.884-34.509-1.186-2.384-3.017-4.31-5.246-5.636v-94.767c.57-.02 1.139-.04 1.721-.06 14.656-.52 32.886-1.174 43.041 8.625 5.228 5.044 8.273 12.915 9.103 23.426-8.615 3.16-14.779 11.438-14.779 21.127 0 12.405 10.103 22.498 22.52 22.498s22.52-10.093 22.52-22.498c0-9.856-6.38-18.246-15.228-21.28-.994-14.785-5.595-26.228-13.719-34.068-14.741-14.224-37.427-13.412-53.992-12.821-.401.014-.791.028-1.186.042v-47.15c76.506.155 115.122 3.291 118.466 44.512-8.614 3.161-14.777 11.438-14.777 21.127 0 12.405 10.103 22.498 22.52 22.498s22.52-10.093 22.52-22.498c0-9.861-6.386-18.253-15.241-21.284-1.849-26.586-15.755-43.554-42.372-51.76-23.089-7.118-54.613-7.571-91.116-7.599v-46.861c36.503-.029 68.027-.481 91.116-7.599 26.617-8.206 40.523-25.174 42.372-51.76 8.855-3.031 15.241-11.424 15.241-21.285 0-12.405-10.103-22.497-22.52-22.497s-22.52 10.092-22.52 22.497c0 9.689 6.163 17.967 14.777 21.128-3.344 41.221-41.96 44.357-118.466 44.512v-45.661c.395.014.784.027 1.186.042 3.51.125 7.294.261 11.219.261 14.603 0 31.155-1.872 42.773-13.082 8.125-7.839 12.725-19.283 13.719-34.067 8.848-3.035 15.228-11.425 15.228-21.281 0-12.405-10.103-22.497-22.52-22.497s-22.52 10.092-22.52 22.497c0 9.689 6.163 17.968 14.779 21.128-.83 10.511-3.875 18.382-9.103 23.425-10.155 9.799-28.391 9.144-43.04 8.625-.582-.021-1.151-.041-1.722-.06v-32.494c0-4.143-3.357-7.5-7.5-7.5s-7.5 3.357-7.5 7.5v326.961c-2.229 1.326-4.061 3.253-5.247 5.638-10.422 20.96-34.32 34.505-60.883 34.505-36.464 0-66.129-25.403-66.129-56.629 0-2.18.2-4.515.632-7.348.017-.124 1.839-12.554 10.387-20.8 2.981-2.875 3.066-7.623.19-10.604-2.876-2.98-7.625-3.068-10.604-.19-7.364 7.104-11.177 15.917-13.078 22.055-17.461-3.31-32.997-12.723-42.391-25.958-2.397-3.375-7.08-4.171-10.458-1.774-3.377 2.398-4.172 7.08-1.774 10.458 11.86 16.707 30.584 28.156 52.139 32.101-.027.696-.041 1.381-.041 2.062 0 39.496 36.395 71.629 81.129 71.629 31.652 0 60.371-16.237 73.63-41.489 13.258 25.251 41.976 41.487 73.628 41.487 44.734 0 81.129-32.133 81.129-71.629 0-.681-.014-1.365-.041-2.062 8.712-1.598 17.003-4.441 24.73-8.489 3.669-1.922 5.085-6.455 3.163-10.124-1.922-3.67-6.453-5.086-10.124-3.163zm-103.382-8.823c4.146 0 7.52 3.363 7.52 7.497 0 4.135-3.373 7.498-7.52 7.498s-7.52-3.363-7.52-7.498c.001-4.134 3.374-7.497 7.52-7.497zm64.604-49.639c4.146 0 7.52 3.363 7.52 7.497 0 4.135-3.373 7.498-7.52 7.498s-7.52-3.363-7.52-7.498c0-4.133 3.374-7.497 7.52-7.497zm0-208.148c4.146 0 7.52 3.363 7.52 7.497 0 4.135-3.373 7.498-7.52 7.498s-7.52-3.363-7.52-7.498c0-4.134 3.374-7.497 7.52-7.497zm-64.604-48.15c4.146 0 7.52 3.363 7.52 7.497 0 4.135-3.373 7.498-7.52 7.498s-7.52-3.363-7.52-7.498c.001-4.133 3.374-7.497 7.52-7.497z"/><path d="m51.815 368.226c0-13.564 5.701-27.079 15.642-37.076 1.918-1.93 2.642-4.746 1.89-7.361-.752-2.614-2.861-4.617-5.512-5.232-28.753-6.679-48.835-29.107-48.835-54.541 0-15.82 7.369-30.854 20.749-42.333 1.602-1.373 2.55-3.357 2.613-5.466.064-2.108-.763-4.146-2.277-5.613-7.661-7.422-11.88-16.921-11.88-26.749 0-22.033 20.302-39.834 46.218-40.524.117.001 11.556.19 19.595 7.3 1.427 1.262 3.2 1.882 4.966 1.882 2.074 0 4.139-.855 5.621-2.531 2.744-3.103 2.453-7.843-.649-10.587-8.642-7.643-19.365-10.003-25.292-10.733-2.902-5.325-4.441-11.118-4.441-16.951 0-12.392 6.554-23.957 17.981-31.729 3.425-2.329 4.313-6.994 1.983-10.419-2.329-3.425-6.995-4.314-10.419-1.983-15.6 10.609-24.546 26.695-24.546 44.132 0 6.084 1.139 12.114 3.341 17.847-28.443 5.382-49.358 27.555-49.358 54.298 0 11.42 3.927 22.437 11.188 31.696-13.205 13.616-20.393 30.576-20.393 48.463 0 28.896 19.708 54.609 49.154 65.731-7.934 11.354-12.339 24.877-12.339 38.479 0 4.143 3.357 7.5 7.5 7.5s7.5-3.358 7.5-7.5z"/><path d="m512 264.016c0-17.889-7.187-34.849-20.394-48.465 7.261-9.26 11.188-20.277 11.188-31.696 0-26.743-20.916-48.916-49.359-54.298 2.203-5.733 3.342-11.764 3.342-17.847 0-30.656-28.137-55.597-62.722-55.597-.69 0-1.431.016-2.205.044-1.918-14.145-9.302-27.347-21.215-37.707-13.418-11.669-30.887-18.22-49.189-18.443-.333-.005-.666-.007-.999-.007-27.268 0-52.325 13.731-64.447 35.278-12.122-21.548-37.176-35.278-64.447-35.278-.331 0-.667.002-.999.007-18.303.224-35.772 6.774-49.19 18.443-11.911 10.358-19.294 23.559-21.214 37.707-.774-.028-1.515-.044-2.205-.044-4.143 0-7.5 3.357-7.5 7.5s3.357 7.5 7.5 7.5c2.292 0 5.484.233 8.332.608 2.256.297 4.503-.438 6.143-1.995 1.642-1.558 2.492-3.773 2.314-6.029l-.045-.512c-.012-.135-.028-.269-.033-.332.456-25.569 26.139-47.481 56.082-47.849 22.62-.23 43.295 10.921 52.684 28.53 1.185 2.223 2.954 4.029 5.079 5.295v46.44c0 4.143 3.357 7.5 7.5 7.5s7.5-3.357 7.5-7.5v-46.439c2.125-1.265 3.894-3.072 5.079-5.295 9.274-17.395 29.567-28.535 51.859-28.535.274 0 .549.002.823.005 29.943.367 55.626 22.279 56.082 47.776-.121-.086-.213 15.035-8.276 24.672-2.658 3.177-2.237 7.906.939 10.564 1.403 1.175 3.11 1.748 4.809 1.748 2.144 0 4.272-.914 5.756-2.688 6.984-8.347 9.823-18.729 10.979-25.891.901-.047 1.754-.074 2.505-.074 26.313 0 47.722 18.212 47.722 40.597 0 6.947-2.157 13.848-6.237 19.957-1.518 2.271-1.68 5.188-.424 7.613 1.255 2.426 3.73 3.978 6.461 4.05 25.916.69 46.218 18.491 46.218 40.524 0 9.828-4.219 19.327-11.88 26.749-.076.078-8.098 8.062-18.56 8.894-4.129.328-7.21 3.941-6.882 8.071.313 3.927 3.596 6.905 7.469 6.905.199 0 .4-.008.603-.023 9.502-.755 17.311-5.007 22.244-8.495 10.494 10.82 16.21 24.134 16.21 38.062 0 25.435-20.082 47.862-48.835 54.54-2.65.615-4.76 2.618-5.512 5.232-.752 2.615-.029 5.432 1.89 7.361 9.94 9.998 15.642 23.512 15.642 37.076 0 9.489-2.803 18.875-8.104 27.145-2.236 3.486-1.222 8.126 2.266 10.361 1.253.804 2.655 1.188 4.041 1.188 2.47 0 4.889-1.219 6.32-3.453 6.854-10.689 10.478-22.876 10.478-35.24 0-13.601-4.406-27.124-12.34-38.479 29.446-11.121 49.154-36.834 49.154-65.731z"/><path d="m84.713 256.586c-.232 4.136 2.933 7.677 7.067 7.909.144.008.286.012.428.012 3.949 0 7.257-3.087 7.481-7.079.021-.377 2.552-37.757 40.382-46.959 4.025-.979 6.494-5.035 5.515-9.06s-5.032-6.497-9.06-5.515c-25.353 6.167-38.117 22.344-44.361 34.829-6.682 13.362-7.424 25.359-7.452 25.863z"/><path d="m200.854 83.125c-4.102-.385-7.781 2.638-8.171 6.763-2.221 23.538-26.596 32.554-27.664 32.937-3.895 1.379-5.942 5.649-4.575 9.551 1.082 3.089 3.98 5.021 7.078 5.021.822 0 1.66-.137 2.48-.424 1.406-.493 34.48-12.453 37.614-45.677.389-4.124-2.638-7.782-6.762-8.171z"/><path d="m194.816 417.339c1.041.495 2.138.729 3.218.729 2.803 0 5.492-1.579 6.777-4.279 1.779-3.74.19-8.216-3.55-9.995-28.863-13.733-26.393-46.382-26.271-47.796.372-4.114-2.654-7.758-6.771-8.144-4.116-.372-7.781 2.644-8.167 6.769-.167 1.805-3.696 44.416 34.764 62.716z"/><path d="m177.044 278.131c-3.741 1.779-5.33 6.254-3.551 9.994 1.284 2.701 3.974 4.28 6.777 4.28 1.08 0 2.177-.234 3.217-.729 24.281-11.552 22.06-38.39 21.953-39.526-.387-4.125-4.055-7.141-8.167-6.769-4.124.387-7.154 4.043-6.769 8.167.017.174 1.459 17.484-13.46 24.583z"/><path d="m355.338 262.24c0 4.142 3.358 7.5 7.501 7.5s7.501-3.358 7.501-7.5-3.358-7.5-7.501-7.5-7.501 3.358-7.501 7.5z"/><path d="m413.829 269.74c4.143 0 7.501-3.358 7.501-7.5s-3.358-7.5-7.501-7.5-7.501 3.358-7.501 7.5 3.359 7.5 7.501 7.5z"/><path d="m317.608 468.74c0 4.142 3.358 7.5 7.501 7.5s7.501-3.358 7.501-7.5-3.358-7.5-7.501-7.5-7.501 3.358-7.501 7.5z"/><path d="m332.609 55.74c0-4.142-3.358-7.5-7.501-7.5s-7.501 3.358-7.501 7.5 3.358 7.5 7.501 7.5 7.501-3.358 7.501-7.5z"/></g></svg>