<?xml version="1.0" encoding="iso-8859-1"?>
<!-- Generator: Adobe Illustrator 19.0.0, SVG Export Plug-In . SVG Version: 6.00 Build 0)  -->
<svg version="1.1" id="Capa_1" xmlns="http://www.w3.org/2000/svg" xmlns:xlink="http://www.w3.org/1999/xlink" x="0px" y="0px"
	 viewBox="0 0 429.056 429.056" style="enable-background:new 0 0 429.056 429.056;" xml:space="preserve">
<g>
	<g>
		<path d="M413.696,182.272h-21.504v-68.096c-0.512-8.192-7.168-14.848-15.36-15.36H229.888V4.608h-30.72v94.208H52.224
			c-8.192,0.512-14.848,7.168-15.36,15.36v68.096H15.36c-8.704,0-15.36,6.656-15.36,15.36v101.376c0,8.704,6.656,15.36,15.36,15.36
			h21.504v94.72c0.512,8.192,7.168,14.848,15.36,15.36h324.608c8.192-0.512,14.848-7.168,15.36-15.36v-94.72h21.504
			c8.704,0,15.36-6.656,15.36-15.36V197.632C429.056,188.928,422.4,182.272,413.696,182.272z M100.352,218.624
			c0-24.576,19.968-44.544,44.544-44.544s44.544,19.968,44.544,44.544s-19.968,44.544-44.544,44.544S100.352,243.2,100.352,218.624z
			 M282.112,352.256H146.944v-30.72h135.168V352.256z M328.704,218.624c0,24.576-19.968,44.544-44.544,44.544
			c-25.088,0-45.056-19.968-45.568-44.544c0-25.088,19.968-45.056,44.544-45.568c24.576-0.512,45.056,19.968,45.568,44.544
			C328.704,218.112,328.704,218.112,328.704,218.624z"/>
	</g>
</g>
<g>
</g>
<g>
</g>
<g>
</g>
<g>
</g>
<g>
</g>
<g>
</g>
<g>
</g>
<g>
</g>
<g>
</g>
<g>
</g>
<g>
</g>
<g>
</g>
<g>
</g>
<g>
</g>
<g>
</g>
</svg>
