<?xml version="1.0" encoding="iso-8859-1"?>
<!-- Generator: Adobe Illustrator 19.0.0, SVG Export Plug-In . SVG Version: 6.00 Build 0)  -->
<svg version="1.1" id="Capa_1" xmlns="http://www.w3.org/2000/svg" xmlns:xlink="http://www.w3.org/1999/xlink" x="0px" y="0px"
	 viewBox="0 0 512 512" style="enable-background:new 0 0 512 512;" xml:space="preserve">
<g>
	<g>
		<g>
			<path d="M18.286,356.571V27.429H9.143C4.096,27.435,0.007,31.525,0,36.571v338.286c0.007,5.047,4.096,9.136,9.143,9.143h301.714
				v-18.286H27.429C22.379,365.714,18.286,361.621,18.286,356.571z"/>
			<path d="M219.429,316.507V18.286C219.419,8.191,211.238,0.01,201.143,0h-54.857v146.286c0.002,2.425-0.961,4.752-2.676,6.467
				c-1.715,1.715-4.042,2.678-6.467,2.676c-2.778,0.001-5.405-1.262-7.138-3.433l-29.433-36.79l-29.433,36.79
				c-2.424,3.034-6.501,4.205-10.166,2.919c-3.665-1.285-6.117-4.746-6.116-8.629V0h-9.143c-5.047,0.007-9.136,4.096-9.143,9.143
				v301.714h163.701C207.063,310.899,213.703,312.857,219.429,316.507z"/>
			<path d="M100.571,91.429c2.778,0,5.404,1.263,7.138,3.433L128,120.223V0H73.143v120.223l20.29-25.362
				C95.167,92.692,97.794,91.429,100.571,91.429z"/>
			<path d="M457.143,192.539V36.571c-0.007-5.047-4.096-9.136-9.143-9.143h-9.143V192H448
				C451.055,192.011,454.108,192.191,457.143,192.539z"/>
			<path d="M200.272,329.143H36.571v18.286h182.642C218.507,337.386,210.334,329.495,200.272,329.143z"/>
			<path d="M329.143,448c0.04,35.33,28.67,63.96,64,64H448c35.33-0.04,63.96-28.67,64-64V347.429H329.143V448z"/>
			<path d="M237.93,347.429h72.927v-18.286h-53.942C246.841,329.484,238.649,337.374,237.93,347.429z"/>
			<path d="M448,210.286h-18.286v118.857H512v-54.857C511.96,238.956,483.33,210.325,448,210.286z"/>
			<path d="M329.143,274.286v54.857h82.286V210.286h-18.286C357.813,210.325,329.183,238.956,329.143,274.286z"/>
			<path d="M393.143,192h27.429V9.143c-0.007-5.047-4.096-9.136-9.143-9.143H256c-10.095,0.01-18.276,8.191-18.286,18.286v298.235
				c5.739-3.659,12.395-5.622,19.201-5.664h53.942v-36.571C310.91,228.862,347.72,192.053,393.143,192z"/>
		</g>
	</g>
</g>
<g>
</g>
<g>
</g>
<g>
</g>
<g>
</g>
<g>
</g>
<g>
</g>
<g>
</g>
<g>
</g>
<g>
</g>
<g>
</g>
<g>
</g>
<g>
</g>
<g>
</g>
<g>
</g>
<g>
</g>
</svg>
