<svg id="Capa_1" enable-background="new 0 0 512 512" height="512" viewBox="0 0 512 512" width="512" xmlns="http://www.w3.org/2000/svg"><g><path d="m119.415 368.209c-2.929 2.929-2.929 7.678 0 10.606 23.562 23.561 54.51 35.34 85.458 35.34s61.896-11.78 85.458-35.34c2.929-2.929 2.929-7.678 0-10.606-2.93-2.929-7.678-2.93-10.607 0-41.271 41.271-108.43 41.271-149.701 0-2.93-2.928-7.678-2.928-10.608 0z"/><path d="m167.25 333.258v-32.099c0-4.142-3.357-7.5-7.5-7.5s-7.5 3.358-7.5 7.5v32.099c0 4.142 3.357 7.5 7.5 7.5s7.5-3.358 7.5-7.5z"/><path d="m257.496 333.258v-32.099c0-4.142-3.357-7.5-7.5-7.5s-7.5 3.358-7.5 7.5v32.099c0 4.142 3.357 7.5 7.5 7.5s7.5-3.358 7.5-7.5z"/><path d="m466.62 3.19h-212.31c-25.017 0-45.369 20.357-45.369 45.38v138.71h-50.76c.839-2.357 1.3-4.893 1.3-7.535 0-12.426-10.109-22.535-22.535-22.535h-16.304v-75.812c15.781-3.446 27.635-17.522 27.635-34.321 0-19.374-15.762-35.135-35.135-35.135-19.374 0-35.136 15.761-35.136 35.135 0 16.799 11.854 30.875 27.636 34.321v75.812h-16.304c-12.426 0-22.535 10.109-22.535 22.535 0 3.925 1.011 7.617 2.782 10.834-40.048 10.899-69.585 47.577-69.585 91.031v132.87c0 22.595 8.114 44.458 22.848 61.564 1.483 1.722 3.578 2.605 5.686 2.605 1.733 0 3.476-.598 4.892-1.817 3.139-2.703 3.491-7.439.788-10.577-12.391-14.384-19.214-32.772-19.214-51.775v-132.87c0-43.736 35.577-79.319 79.311-79.33h115.017c2.872 22.272 21.942 39.54 44.982 39.54h30.271v32.14c0 9.368 5.13 17.938 13.388 22.366 3.767 2.02 7.89 3.021 12.002 3.02 4.909 0 9.803-1.426 14.051-4.25l64.983-43.177c3.811 9.397 5.746 19.348 5.746 29.69v132.87c0 43.743-35.587 79.33-79.33 79.33h-221.091c-13.733 0-27.252-3.558-39.093-10.29-3.604-2.048-8.181-.789-10.228 2.813-2.047 3.601-.787 8.179 2.813 10.227 14.097 8.014 30.179 12.25 46.507 12.25h221.09c52.014 0 94.33-42.316 94.33-94.33v-132.869c0-13.128-2.773-26.176-8.046-38.128l2.501-1.662h47.415c4.143 0 7.5-3.358 7.5-7.5s-3.357-7.5-7.5-7.5h-49.68c-1.477 0-2.921.436-4.15 1.253l-82.07 54.53c-3.246 2.156-7.231 2.343-10.664.503-3.429-1.838-5.476-5.258-5.476-9.146v-39.64c0-4.142-3.357-7.5-7.5-7.5h-37.769c-16.745 0-30.369-13.624-30.369-30.37v-147.88c0-16.751 13.624-30.38 30.369-30.38h212.31c16.752 0 30.38 13.628 30.38 30.38v147.88c0 12.253-7.292 23.239-18.578 27.987-3.818 1.606-5.611 6.003-4.005 9.821s6.006 5.609 9.821 4.005c16.865-7.095 27.762-23.507 27.762-41.813v-147.88c0-25.023-20.357-45.38-45.38-45.38zm-373.614 43.887c0-11.103 9.033-20.135 20.136-20.135s20.135 9.032 20.135 20.135-9.032 20.135-20.135 20.135-20.136-9.033-20.136-20.135zm-3.668 140.203c-4.155 0-7.535-3.38-7.535-7.535s3.38-7.535 7.535-7.535h47.607c4.155 0 7.535 3.38 7.535 7.535 0 4.152-3.375 7.529-7.526 7.535z"/><path d="m448.83 73.841h-176.723c-4.143 0-7.5 3.358-7.5 7.5s3.357 7.5 7.5 7.5h176.723c4.143 0 7.5-3.358 7.5-7.5s-3.357-7.5-7.5-7.5z"/><path d="m456.33 124.503c0-4.142-3.357-7.5-7.5-7.5h-176.723c-4.143 0-7.5 3.358-7.5 7.5s3.357 7.5 7.5 7.5h176.723c4.143 0 7.5-3.357 7.5-7.5z"/><path d="m272.107 160.166c-4.143 0-7.5 3.358-7.5 7.5s3.357 7.5 7.5 7.5h115.509c4.143 0 7.5-3.358 7.5-7.5s-3.357-7.5-7.5-7.5z"/></g></svg>