<svg height="388pt" viewBox="0 -38 388.139 388" width="388pt" xmlns="http://www.w3.org/2000/svg"><path d="m277 61.679688c-.003906-3.90625-1.574219-7.648438-4.355469-10.390626-2.855469-2.777343-6.683593-4.324218-10.667969-4.3125-8.171874-.011718-14.839843 6.535157-14.976562 14.703126v11.390624h30zm0 0"/><path d="m89 61.679688c.046875-3.890626-1.46875-7.632813-4.210938-10.390626-2.6875-2.765624-6.382812-4.324218-10.242187-4.3125-3.882813.011719-7.597656 1.566407-10.328125 4.328126-2.730469 2.757812-4.25 6.492187-4.21875 10.375v11.390624h29zm0 0"/><path d="m168.339844 147.429688c9.390625.03125 18.40625-3.695313 25.03125-10.351563 5.15625-5.175781 8.601562-11.8125 9.867187-19.007813h-69.796875c2.832032 17.035157 17.628906 29.480469 34.898438 29.359376zm0 0"/><path d="m122.664062 207.574219c1.042969-.96875 2.414063-1.507813 3.835938-1.503907h185.121094c13.902344-.003906 25.214844-11.183593 25.378906-25.082031v-155.820312c-.164062-13.898438-11.472656-25.0859378-25.378906-25.0976565h-286.566406c-13.839844.0351565-25.0429692 11.2578125-25.054688 25.0976565v155.820312c.0117188 13.839844 11.21875 25.054688 25.054688 25.082031h18.632812c3.371094-.035156 6.164062 2.605469 6.3125 5.972657v60.339843zm112.335938-145.894531c.121094-10.84375 6.714844-20.5625 16.746094-24.675782 10.03125-4.117187 21.550781-1.835937 29.253906 5.792969 5.078125 4.976563 7.957031 11.773437 8 18.882813v17.246093c-.035156 3.359375-2.738281 6.082031-6.101562 6.144531h-41.40625c-3.3125 0-6.492188-2.832031-6.492188-6.144531zm-108.066406 44.390624h82.808594c1.589843-.011718 3.113281.609376 4.238281 1.730469 1.128906 1.117188 1.761719 2.636719 1.761719 4.222657-.117188 26.097656-21.308594 47.1875-47.402344 47.1875-26.097656 0-47.285156-21.089844-47.40625-47.1875.003906-1.585938.636718-3.105469 1.761718-4.222657 1.128907-1.117187 2.652344-1.742187 4.238282-1.730469zm-78.933594-27.144531v-17.246093c-.035156-14.71875 11.875-26.675782 26.59375-26.703126.445312 0 .835938.011719 1.277344.035157.167968.007812.3125.023437.480468.035156.269532.019531.53125.035156.800782.0625.269531.023437.527344.0625.792968.097656.167969.023438.335938.039063.5.0625.328126.050781.652344.109375.976563.167969.101563.019531.210937.035156.3125.054688.417969.082031.828125.175781 1.242187.277343l.03125.007813c.339844.085937.671876.179687 1.007813.277344.082031.027343.167969.046874.25.070312.800781.242188 1.585937.523438 2.355469.839844l.089844.035156c.355468.148438.707031.304688 1.058593.46875.042969.019531.085938.035156.125.058594.347657.164062.691407.335937 1.03125.515625.042969.023437.085938.042969.128907.066406.320312.171875.636718.355469.949218.539063.058594.035156.125.066406.183594.101562.261719.15625.515625.320312.773438.488281.109374.070313.222656.136719.328124.210938.226563.148437.445313.308593.664063.46875.136719.097656.273437.1875.40625.285156.226563.167969.441406.34375.660156.515625.125.097656.253907.195312.375.296875.203125.167969.402344.34375.601563.519531.132812.117188.273437.226563.398437.347656.175781.160157.34375.328126.515625.492188.148438.140625.300782.277344.445313.421875h-.085938c5.003907 5.003906 7.789063 11.804687 7.730469 18.882813v17.246093c.046875 1.585938-.539062 3.125-1.632812 4.277344-1.089844 1.152344-2.59375 1.824219-4.179688 1.867187h-41.410156c-1.582032-.042968-3.082032-.714843-4.167969-1.871093-1.085937-1.152344-1.664063-2.691407-1.609375-4.273438zm0 0"/><path d="m216.773438 311.890625c19.140624.109375 35.441406-13.886719 38.226562-32.820313h50.199219c40.152343.074219 72.753906-32.429687 72.800781-72.578124v-74.960938c6.414062-8.109375 9.976562-18.109375 10.140625-28.449219-.023437-22.707031-16.671875-41.976562-39.140625-45.292969v90.582032c6.035156-.890625 11.824219-3.011719 17-6.242188v64.359375c-.019531 16.101563-6.4375 31.53125-17.839844 42.894531-11.40625 11.363282-26.859375 17.726563-42.960937 17.6875h-50.199219c-3.253906-20.316406-21.839844-34.535156-42.300781-32.363281-20.460938 2.171875-35.644531 19.976563-34.558594 40.523438 1.085937 20.550781 18.0625 36.65625 38.636719 36.660156zm0 0"/></svg>