<?xml version="1.0" encoding="iso-8859-1"?>
<!-- Generator: Adobe Illustrator 19.0.0, SVG Export Plug-In . SVG Version: 6.00 Build 0)  -->
<svg version="1.1" id="Capa_1" xmlns="http://www.w3.org/2000/svg" xmlns:xlink="http://www.w3.org/1999/xlink" x="0px" y="0px"
	 viewBox="0 0 512 512" style="enable-background:new 0 0 512 512;" xml:space="preserve">
<g>
	<g>
		<path d="M460.8,200.748V51.2c-0.015-14.132-11.468-25.585-25.6-25.6h-8.533c-0.015-14.132-11.468-25.585-25.6-25.6H256
			c-9.841,0.032-19.182,4.337-25.6,11.796C223.982,4.337,214.641,0.032,204.8,0H59.733c-14.132,0.015-25.585,11.468-25.6,25.6H25.6
			C11.468,25.615,0.015,37.068,0,51.2v315.733c0.015,14.132,11.468,25.585,25.6,25.6h281.6V435.2
			c0.049,42.395,34.405,76.751,76.8,76.8h51.2c42.395-0.049,76.751-34.405,76.8-76.8V273.067
			C511.943,240.559,491.442,211.602,460.8,200.748z M426.667,42.667h8.533c4.71,0.006,8.527,3.823,8.533,8.533v145.57
			c-2.833-0.326-5.682-0.494-8.533-0.503h-8.533V42.667z M85.333,17.067h51.2v112.208l-18.938-23.671
			c-1.618-2.025-4.07-3.204-6.662-3.204c-2.592,0-5.044,1.179-6.662,3.204l-18.938,23.671V17.067z M51.2,25.6
			c0.006-4.71,3.823-8.527,8.533-8.533h8.533V153.6c-0.002,3.625,2.287,6.854,5.708,8.054c3.42,1.2,7.225,0.107,9.488-2.725
			l27.471-34.337l27.471,34.337c1.618,2.026,4.07,3.205,6.662,3.204c2.264,0.002,4.435-0.897,6.036-2.497
			c1.601-1.601,2.499-3.772,2.497-6.036V17.067h51.2c9.422,0.009,17.057,7.645,17.067,17.067v278.34
			c-5.344-3.407-11.542-5.235-17.879-5.274H51.2V25.6z M51.2,324.267h152.788c9.391,0.329,17.019,7.693,17.678,17.067H51.2V324.267z
			 M307.2,375.467H25.6c-4.71-0.006-8.527-3.823-8.533-8.533V51.2c0.006-4.71,3.823-8.527,8.533-8.533h8.533v307.2
			c0,4.713,3.82,8.533,8.533,8.533H307.2V375.467z M307.2,341.333h-68.066c0.671-9.384,8.317-16.748,17.72-17.067H307.2V341.333z
			 M307.2,307.2h-50.346c-6.352,0.038-12.565,1.871-17.921,5.286V34.133c0.009-9.422,7.645-17.057,17.067-17.067h145.067
			c4.71,0.006,8.527,3.823,8.533,8.533v170.667H384c-42.395,0.049-76.751,34.405-76.8,76.8V307.2z M401.067,213.333v110.933h-76.8
			v-51.2c0.037-32.974,26.759-59.696,59.733-59.733H401.067z M494.933,435.2c-0.037,32.974-26.759,59.696-59.733,59.733H384
			c-32.974-0.037-59.696-26.759-59.733-59.733v-93.867h170.667V435.2z M494.933,324.267h-76.8V213.333H435.2
			c32.974,0.037,59.696,26.759,59.733,59.733V324.267z"/>
	</g>
</g>
<g>
</g>
<g>
</g>
<g>
</g>
<g>
</g>
<g>
</g>
<g>
</g>
<g>
</g>
<g>
</g>
<g>
</g>
<g>
</g>
<g>
</g>
<g>
</g>
<g>
</g>
<g>
</g>
<g>
</g>
</svg>
