<?xml version="1.0" encoding="iso-8859-1"?>
<!-- Generator: Adobe Illustrator 19.0.0, SVG Export Plug-In . SVG Version: 6.00 Build 0)  -->
<svg version="1.1" id="Capa_1" xmlns="http://www.w3.org/2000/svg" xmlns:xlink="http://www.w3.org/1999/xlink" x="0px" y="0px"
	 viewBox="0 0 480 480" style="enable-background:new 0 0 480 480;" xml:space="preserve">
<g>
	<g>
		<path d="M104,0C46.562,0,0,46.562,0,104c0.066,57.41,46.59,103.934,104,104c57.438,0,104-46.562,104-104S161.438,0,104,0z
			 M104,192c-48.601,0-88-39.399-88-88c0.057-48.577,39.423-87.943,88-88c48.601,0,88,39.399,88,88S152.601,192,104,192z"/>
	</g>
</g>
<g>
	<g>
		<path d="M160,104c-0.035,30.913-25.087,55.965-56,56v16c39.746-0.044,71.956-32.254,72-72H160z"/>
	</g>
</g>
<g>
	<g>
		<path d="M392,32c-48.601,0-88,39.399-88,88s39.399,88,88,88c48.601,0,88-39.399,88-88C479.943,71.423,440.577,32.057,392,32z
			 M392,192c-39.764,0-72-32.236-72-72c0-39.765,32.236-72,72-72c39.765,0,72,32.235,72,72C463.956,159.746,431.746,191.956,392,192
			z"/>
	</g>
</g>
<g>
	<g>
		<path d="M336,120h16c0.026-22.08,17.92-39.974,40-40V64C361.087,64.035,336.035,89.087,336,120z"/>
	</g>
</g>
<g>
	<g>
		<path d="M176,304c-48.601,0-88,39.399-88,88c0,48.601,39.399,88,88,88s88-39.399,88-88C263.943,343.423,224.577,304.057,176,304z
			 M176,464c-39.764,0-72-32.236-72-72c0-39.765,32.236-72,72-72c39.765,0,72,32.235,72,72C247.956,431.746,215.746,463.956,176,464
			z"/>
	</g>
</g>
<g>
	<g>
		<path d="M136,392h-16c0.035,30.913,25.087,55.965,56,56v-16C153.92,431.974,136.026,414.08,136,392z"/>
	</g>
</g>
<g>
	<g>
		<path d="M240,192c-26.51,0-48,21.49-48,48c0,26.51,21.49,48,48,48c26.51,0,48-21.49,48-48
			C287.974,213.501,266.499,192.026,240,192z M240,272c-17.673,0-32-14.327-32-32s14.327-32,32-32c17.673,0,32,14.327,32,32
			S257.673,272,240,272z"/>
	</g>
</g>
<g>
	<g>
		<path d="M400,272c-26.51,0-48,21.49-48,48c0,26.51,21.49,48,48,48c26.51,0,48-21.49,48-48
			C447.974,293.501,426.499,272.026,400,272z M400,352c-17.673,0-32-14.327-32-32c0-17.673,14.327-32,32-32
			c17.673,0,32,14.327,32,32C432,337.673,417.673,352,400,352z"/>
	</g>
</g>
<g>
	<g>
		<path d="M48,248c-13.255,0-24,10.745-24,24s10.745,24,24,24s24-10.745,24-24S61.255,248,48,248z M48,280c-4.418,0-8-3.582-8-8
			s3.582-8,8-8s8,3.582,8,8S52.418,280,48,280z"/>
	</g>
</g>
<g>
	<g>
		<path d="M240,24c-13.255,0-24,10.745-24,24s10.745,24,24,24s24-10.745,24-24S253.255,24,240,24z M240,56c-4.418,0-8-3.582-8-8
			s3.582-8,8-8s8,3.582,8,8S244.418,56,240,56z"/>
	</g>
</g>
<g>
	<g>
		<path d="M344,408c-13.255,0-24,10.745-24,24s10.745,24,24,24s24-10.745,24-24S357.255,408,344,408z M344,440c-4.418,0-8-3.582-8-8
			s3.582-8,8-8s8,3.582,8,8S348.418,440,344,440z"/>
	</g>
</g>
<g>
</g>
<g>
</g>
<g>
</g>
<g>
</g>
<g>
</g>
<g>
</g>
<g>
</g>
<g>
</g>
<g>
</g>
<g>
</g>
<g>
</g>
<g>
</g>
<g>
</g>
<g>
</g>
<g>
</g>
</svg>
