<?xml version="1.0" encoding="iso-8859-1"?>
<!-- Generator: Adobe Illustrator 21.0.0, SVG Export Plug-In . SVG Version: 6.00 Build 0)  -->
<svg version="1.1" id="Capa_1" xmlns="http://www.w3.org/2000/svg" xmlns:xlink="http://www.w3.org/1999/xlink" x="0px" y="0px"
	 viewBox="0 0 465.987 465.987" style="enable-background:new 0 0 465.987 465.987;" xml:space="preserve">
<g>
	<g>
		<path d="M372.735,236.547c-2.651-3.535-7.665-4.251-11.2-1.6c-1.698,1.274-2.821,3.17-3.12,5.272l-4.44,31.12
			c-0.107,0.4-0.247,0.79-0.416,1.168c8.159-10.834,14.744-22.769,19.56-35.448L372.735,236.547z"/>
	</g>
</g>
<g>
	<g>
		<path d="M346.047,278.203c-0.377,0-0.754-0.024-1.128-0.072l-47.52-6.792c-4.374-0.627-7.411-4.68-6.784-9.054
			c0-0.001,0-0.001,0-0.002l4.44-31.12c0.619-4.375-2.425-8.423-6.8-9.042c-2.093-0.296-4.219,0.248-5.912,1.514l-25.152,18.856
			c-3.535,2.651-8.549,1.935-11.2-1.6v0l-28.8-38.4c-2.651-3.535-1.935-8.549,1.6-11.2l25.144-18.856
			c3.535-2.651,4.251-7.665,1.6-11.2c-1.274-1.698-3.17-2.821-5.272-3.12l-31.12-4.448c-4.374-0.622-7.416-4.673-6.793-9.047
			c0-0.003,0.001-0.006,0.001-0.009l6.792-47.512c0.622-4.374,4.673-7.416,9.047-6.793c0.003,0,0.006,0.001,0.009,0.001l31.12,4.448
			c3.201,0.464,6.364-1.058,8-3.848c1.699-2.773,1.508-6.307-0.48-8.88l-18.84-25.136c-2.651-3.535-1.935-8.549,1.6-11.2l4.536-3.4
			c-7.348-0.355-14.713-0.158-22.032,0.592C143.087,51.905,86.347,123.274,95.369,202.29c4.915,43.045,28.949,81.589,65.438,104.945
			c13.322,8.26,21.504,22.75,21.696,38.424v32.328c0,13.255,10.745,24,24,24h64c13.255,0,24-10.745,24-24v-31.664
			c0.203-16.042,8.553-30.878,22.16-39.376c12.612-8.182,23.875-18.276,33.384-29.92
			C348.841,277.766,347.461,278.172,346.047,278.203z M246.503,377.987h-16v-24h16V377.987z M230.503,337.987
			c-0.005-21.152-13.048-40.112-32.8-47.68c-57.609-22.526-86.049-87.487-63.523-145.096c8.722-22.307,24.366-41.23,44.635-53.992
			l8.488,13.536c-44.875,28.237-58.362,87.505-30.125,132.38c10.94,17.386,27.169,30.805,46.301,38.284
			c25.928,9.917,43.044,34.808,43.024,62.568H230.503z"/>
	</g>
</g>
<g>
	<g>
		<path d="M206.503,441.987v8c0,8.837,7.163,16,16,16h32c8.837,0,16-7.163,16-16v-8H206.503z"/>
	</g>
</g>
<g>
	<g>
		<path d="M156.487,313.987c-4.74-3.073-9.305-6.409-13.672-9.992c-12.077,23.51-40.925,32.778-64.435,20.702
			c-16.002-8.22-26.042-24.72-25.989-42.71c0.037-24.187,18.05-44.575,42.048-47.592c-2.936-8.83-5.057-17.911-6.336-27.128
			l-1.4,6.656c-1.818,8.647-10.303,14.183-18.95,12.365c-2.071-0.435-4.035-1.277-5.778-2.477l-16.64-11.424l-14.576,14.544
			l11.456,16.656c5.014,7.276,3.18,17.24-4.096,22.254c-1.745,1.202-3.711,2.046-5.784,2.482l-19.944,4.2v19.008l19.944,4.2
			c8.647,1.821,14.181,10.307,12.36,18.954c-0.437,2.076-1.283,4.044-2.488,5.79l-11.448,16.568l14.576,14.544l16.624-11.456
			c7.276-5.014,17.24-3.18,22.254,4.096c1.202,1.745,2.046,3.711,2.482,5.784l4.192,19.976h19.016l4.192-19.944
			c1.82-8.647,10.305-14.182,18.952-12.362c2.073,0.436,4.039,1.28,5.784,2.482l16.616,11.424l17.16-17.16
			C169.73,325.971,164.04,318.756,156.487,313.987z"/>
	</g>
</g>
<g>
	<g>
		<rect x="206.503" y="409.987" width="64" height="16"/>
	</g>
</g>
<g>
	<g>
		<path d="M438.255,137.915c-13.121-1.876-22.237-14.035-20.361-27.156c0.901-6.301,4.268-11.986,9.361-15.804l18.744-14.064
			l-19.2-25.6l-18.744,14.056c-10.602,7.956-25.646,5.81-33.601-4.791c-3.815-5.084-5.458-11.475-4.567-17.769l3.312-23.2
			l-31.672-4.52l-3.312,23.2c-1.877,13.121-14.035,22.237-27.156,20.361c-6.301-0.901-11.986-4.268-15.804-9.361l-14.064-18.776
			l-25.6,19.2l14.056,18.744c7.954,10.603,5.807,25.646-4.796,33.601c-5.095,3.822-11.499,5.462-17.804,4.559l-23.2-3.312
			l-4.544,31.68l23.2,3.312c13.121,1.877,22.237,14.035,20.361,27.156c-0.901,6.301-4.268,11.986-9.361,15.804l-18.736,14.064
			l19.2,25.6l18.744-14.056c10.603-7.954,25.646-5.807,33.601,4.796c3.822,5.095,5.462,11.5,4.559,17.804l-3.312,23.2l31.744,4.544
			l3.312-23.2c1.877-13.121,14.035-22.237,27.156-20.361c6.301,0.901,11.986,4.268,15.804,9.361l14.064,18.736l25.6-19.2
			l-14.104-18.776c-7.951-10.605-5.8-25.648,4.805-33.599c5.084-3.812,11.472-5.452,17.763-4.561l23.2,3.312l4.52-31.672
			L438.255,137.915z M340.391,188.099c-26.51,0-48-21.49-48-48s21.49-48,48-48c26.51,0,48,21.49,48,48
			C388.36,166.596,366.888,188.068,340.391,188.099z"/>
	</g>
</g>
<g>
	<g>
		<rect x="390.503" y="297.987" width="56" height="16"/>
	</g>
</g>
<g>
	<g>
		<rect x="398.504" y="334.75" transform="matrix(0.6401 -0.7683 0.7683 0.6401 -134.8876 444.0254)" width="16" height="62.48"/>
	</g>
</g>
<g>
	<g>
		<rect x="342.503" y="361.987" width="16" height="56"/>
	</g>
</g>
<g>
	<g>
		<rect x="5.519" y="129.987" transform="matrix(0.9701 -0.2425 0.2425 0.9701 -32.3155 13.4577)" width="65.968" height="15.992"/>
	</g>
</g>
<g>
	<g>
		<rect x="42.502" y="35.585" transform="matrix(0.5812 -0.8137 0.8137 0.5812 -35.8088 70.4021)" width="15.992" height="68.816"/>
	</g>
</g>
<g>
	<g>
		<rect x="94.329" y="0.952" transform="matrix(0.9688 -0.2477 0.2477 0.9688 -5.2277 26.401)" width="16" height="66.056"/>
	</g>
</g>
<g>
</g>
<g>
</g>
<g>
</g>
<g>
</g>
<g>
</g>
<g>
</g>
<g>
</g>
<g>
</g>
<g>
</g>
<g>
</g>
<g>
</g>
<g>
</g>
<g>
</g>
<g>
</g>
<g>
</g>
</svg>
