<?xml version="1.0" ?><!DOCTYPE svg  PUBLIC '-//W3C//DTD SVG 1.1//EN'  'http://www.w3.org/Graphics/SVG/1.1/DTD/svg11.dtd'><svg enable-background="new 0 0 1024 1024" height="1024px" id="Layer_1" version="1.1" viewBox="0 0 1024 1024" width="1024px" xml:space="preserve" xmlns="http://www.w3.org/2000/svg" xmlns:xlink="http://www.w3.org/1999/xlink"><g><g><path clip-rule="evenodd" d="M511.847,757.279c0,10.586,0,20.188,0,30.832c80.904,0,161.375,0,241.785,0     c0,37.582,0,74.129-0.01,110.672c0,0.328-0.164,0.652-0.221,0.984c-5.341,30.986-22.589,54.121-47.641,72.006     c-30.986,22.119-66.561,32.812-103.044,41.27c-85.164,19.752-168.318,12.871-248.585-21.24     c-19.08-8.107-36.901-20.795-52.854-34.273c-22.846-19.307-33.87-45.564-33.9-75.832c-0.073-78.047-0.805-156.102,0.225-234.133     c0.925-70.191,55.389-122.805,125.531-123.01c77.975-0.227,155.967-1.086,233.918,0.23     C705.86,526.119,772.818,466,783.688,391.142c1.251-8.611,1.377-17.432,1.425-26.162c0.163-30.611,0.064-61.224,0.064-91.837     c0-3.605,0-7.213,0-11.838c12.517,0,23.854,0,35.193,0c18.148,0.002,36.3,0.142,54.448-0.023     c43.185-0.395,75.38,18.446,97.422,55.311c16.096,26.917,24.123,56.681,30.942,86.92c10.478,46.456,16.828,93.305,13.369,141.044     c-4.067,56.15-20.297,108.848-47.128,158.115c-20.56,37.752-53.253,54.877-96.167,54.734     c-115.953-0.381-231.907-0.129-347.859-0.127C521.083,757.279,516.769,757.279,511.847,757.279z M648.96,850.41     c-25.734-0.252-46.009,19.758-46.221,45.611c-0.214,25.793,19.813,46.887,44.912,47.307     c25.027,0.418,46.009-20.428,46.279-45.986C694.203,871.342,674.386,850.658,648.96,850.41z" fill-rule="evenodd"/><path clip-rule="evenodd" d="M510.621,261.305c0-10.549,0-20.083,0-30.812c-81.056,0-161.535,0-242.22,0     c-0.474-3.074-1.038-5.012-1.03-6.947c0.141-34.312-0.533-68.657,0.749-102.928c2.042-54.623,23.93-84.223,76.56-98.907     c31.827-8.878,64.892-14.673,97.789-18.063c64.773-6.675,129.604-4.182,193.803,7.426c37.246,6.734,68.971,24.009,92.947,53.935     c16.724,20.873,25.52,44.756,25.516,71.703c-0.017,77.714,0.374,155.43-0.115,233.142     c-0.449,71.218-53.786,123.692-125.062,123.814c-78.651,0.136-157.304-0.036-235.956,0.057     c-76.784,0.088-139.957,52.139-154.399,127.492c-1.883,9.83-2.224,20.059-2.314,30.111c-0.285,31.285-0.105,62.574-0.105,93.861     c0,3.617,0,7.23,0,12.09c-7.474,0-13.77,0.051-20.063-0.008c-24.864-0.227-49.776,0.426-74.576-0.945     c-39.027-2.16-68.304-21.814-89.938-53.754c-18.086-26.703-25.991-57.164-33.359-88.004     C-0.209,534.822,3.376,455.854,25.584,377.35c20.668-73.063,76.843-115.872,152.937-115.998     c106.549-0.177,213.097-0.047,319.646-0.047C502.121,261.305,506.076,261.305,510.621,261.305z M373.439,75.404     c-25.309,0.176-45.207,20.863-45.057,46.848c0.149,25.682,20.729,46.29,45.985,46.043c25.146-0.245,45.418-21.308,45.201-46.962     C419.35,95.679,398.811,75.23,373.439,75.404z" fill-rule="evenodd"/></g></g></svg>