<svg id="Layer_1" enable-background="new 0 0 512.105 512.105" height="512" viewBox="0 0 512.105 512.105" width="512" xmlns="http://www.w3.org/2000/svg"><g><path d="m482.6 201.45h-23.016v-54.329c0-34.387-27.976-62.362-62.362-62.362h-24.667v-28.1c0-16.27-13.235-29.506-29.505-29.506h-71.944v-12.14c0-8.284-6.716-15-15-15s-15 6.716-15 15v12.14h-71.946c-16.269 0-29.505 13.236-29.505 29.506v28.1h-24.124c-34.388 0-62.363 27.976-62.363 62.362v54.329h-23.662c-16.27 0-29.506 13.236-29.506 29.506v106.915c0 16.27 13.236 29.506 29.506 29.506h23.662v82.353c0 34.387 27.976 62.363 62.363 62.363h281.69c34.387 0 62.362-27.977 62.362-62.363v-82.353h23.017c16.27 0 29.506-13.236 29.506-29.506v-106.915c-.001-16.27-13.237-29.506-29.506-29.506zm-312.945-144.297h172.899v27.605h-172.899zm-139.655 280.223v-105.926h23.168v105.927h-23.168zm399.584 112.353c0 17.845-14.518 32.363-32.362 32.363h-281.69c-17.845 0-32.363-14.519-32.363-32.363v-302.608c0-17.845 14.519-32.362 32.363-32.362h281.69c17.845 0 32.362 14.518 32.362 32.362zm52.521-112.353h-22.521v-105.926h22.521z"/><path d="m325.49 325.556h-138.77c-31.531 0-57.185 25.653-57.185 57.185s25.653 57.185 57.185 57.185h138.77c31.531 0 57.185-25.653 57.185-57.185s-25.654-57.185-57.185-57.185zm-113.456 30h27.22v54.369h-27.22zm57.22 0h27.219v54.369h-27.219zm-109.719 27.185c0-13.391 9.736-24.544 22.499-26.772v53.544c-12.763-2.228-22.499-13.381-22.499-26.772zm166.938 27.159v-54.319c14.535.52 26.202 12.5 26.202 27.16s-11.667 26.639-26.202 27.159z"/><path d="m337.659 170.71c-28.475 0-51.64 23.165-51.64 51.64s23.165 51.64 51.64 51.64 51.64-23.165 51.64-51.64-23.165-51.64-51.64-51.64zm0 73.28c-11.933 0-21.64-9.707-21.64-21.64s9.707-21.64 21.64-21.64 21.64 9.707 21.64 21.64-9.707 21.64-21.64 21.64z"/><path d="m174.551 273.99c28.475 0 51.64-23.165 51.64-51.64s-23.165-51.64-51.64-51.64-51.64 23.165-51.64 51.64 23.165 51.64 51.64 51.64zm0-73.28c11.933 0 21.64 9.707 21.64 21.64s-9.707 21.64-21.64 21.64-21.64-9.707-21.64-21.64 9.707-21.64 21.64-21.64z"/></g></svg>