<svg id="Capa_1" enable-background="new 0 0 512 512" height="512" viewBox="0 0 512 512" width="512" xmlns="http://www.w3.org/2000/svg"><g><path d="m211 512v-46c-33.091 0-60-26.909-60-60s26.909-60 60-60v-45h-83.848l7.134-20.039c1.143-3.179 1.714-6.533 1.714-9.961 0-16.538-13.462-30-30-30s-30 13.462-30 30c0 3.428.571 6.782 1.714 9.961l7.134 20.039h-84.848c7.443 112.092 98.908 203.557 211 211z"/><path d="m106 211c33.091 0 60 26.909 60 60h45v-83.848l20.039 7.134c18.472 6.577 39.946-8.335 39.961-28.286-.015-19.966-21.475-34.995-39.961-28.286l-20.039 7.134v-83.088c-112.092 7.443-203.557 97.148-211 209.24h46c0-33.091 26.909-60 60-60z"/><path d="m450.24 301h-44.24c0 33.091-26.909 60-60 60s-60-26.909-60-60h-45v83.848l-20.039-7.134c-18.545-6.665-39.976 8.32-39.961 28.286-.015 19.966 21.431 34.951 39.961 28.286l20.039-7.134v84.848c112.092-7.443 201.797-98.908 209.24-211z"/><path d="m451 121v-60h-60c0-33.091-26.909-61-60-61s-60 27.909-60 61h-30v45c33.091 0 60 26.909 60 60s-26.909 60-60 60v45h83.848l-7.134 20.039c-1.143 3.179-1.714 6.533-1.714 9.961 0 16.538 13.462 30 30 30s30-13.462 30-30c0-3.428-.571-6.782-1.714-9.961l-7.134-20.039h83.848v-30c33.091 0 61-26.909 61-60s-27.909-60-61-60z"/></g></svg>