<svg id="Layer_1" enable-background="new 0 0 512.056 512.056" height="512" viewBox="0 0 512.056 512.056" width="512" xmlns="http://www.w3.org/2000/svg"><path d="m507.662 107.829c3.51-3.509 5.056-8.527 4.13-13.403-.925-4.876-4.203-8.979-8.754-10.958l-50.566-21.993-17.745-51.242c-1.691-4.883-5.777-8.552-10.813-9.71-5.035-1.156-10.313.358-13.968 4.012l-28.604 28.604c-38.487-21.293-82.598-32.929-125.489-32.929-68.341 0-132.591 26.613-180.916 74.938s-74.937 112.574-74.937 180.914 26.613 132.591 74.938 180.915c48.324 48.324 112.575 74.938 180.916 74.938s132.591-26.613 180.916-74.938c48.324-48.324 74.938-112.574 74.938-180.915 0-42.573-10.59-84.351-30.71-121.567zm-105.065 62.64-31-8.319 72.206-71.731 27.07 11.774zm-5.649 85.593c0 77.8-63.295 141.095-141.095 141.095s-141.095-63.295-141.095-141.095 63.295-141.095 141.095-141.095c23.427 0 43.393 4.622 62.508 14.492l7.735 35.604-19.021 18.896c-14.465-10.306-32.148-16.373-51.223-16.373-48.787 0-88.477 39.69-88.477 88.477s39.69 88.477 88.477 88.477 88.477-39.69 88.477-88.477c0-18.903-5.962-36.439-16.1-50.831l18.75-18.627 36.891 9.9c8.906 18.238 13.078 37.258 13.078 59.557zm-82.618 0c0 32.244-26.233 58.477-58.477 58.477s-58.477-26.233-58.477-58.477 26.233-58.477 58.477-58.477c10.738 0 20.801 2.922 29.459 7.994l-40.554 40.287c-5.877 5.838-5.908 15.336-.07 21.213 2.932 2.951 6.786 4.428 10.642 4.428 3.822 0 7.646-1.452 10.571-4.358l40.573-40.306c4.986 8.605 7.856 18.58 7.856 29.219zm99.888-213.374 8.975 25.916-71.846 71.374-6.143-28.275zm67.488 213.374c0 60.328-23.493 117.044-66.151 159.702s-99.375 66.15-159.702 66.15-117.044-23.493-159.702-66.15c-42.658-42.658-66.151-99.374-66.151-159.702s23.493-117.044 66.151-159.701c42.658-42.658 99.375-66.151 159.702-66.151 35.067 0 71.102 8.835 103.301 25.116l-40.954 40.954c-.04.04-.075.082-.115.122-19.245-7.671-39.768-11.435-62.233-11.435-94.342 0-171.095 76.753-171.095 171.095s76.753 171.095 171.095 171.095 171.095-76.753 171.095-171.095c0-21.124-3.138-39.913-9.738-57.826.157-.144.322-.277.474-.429l41.048-41.048c15.076 30.778 22.975 64.742 22.975 99.303z"/></svg>