<svg id="Capa_1" enable-background="new 0 0 512 512" height="512" viewBox="0 0 512 512" width="512" xmlns="http://www.w3.org/2000/svg"><g><path d="m437.02 74.98c-48.353-48.351-112.64-74.98-181.02-74.98s-132.667 26.629-181.02 74.98c-48.351 48.353-74.98 112.64-74.98 181.02s26.629 132.667 74.98 181.02c48.353 48.351 112.64 74.98 181.02 74.98s132.667-26.629 181.02-74.98c48.351-48.353 74.98-112.64 74.98-181.02s-26.629-132.667-74.98-181.02zm25.883 89.804h-44.077c-6.411-22.048-26.569-38.29-50.541-38.791-13.791-35.82-32.88-65.835-56.459-89.078 39.01 9.868 74.786 30.084 103.98 59.279 20.106 20.106 35.953 43.335 47.097 68.59zm19.097 91.216c0 20.99-2.849 41.54-8.351 61.216h-87.032c4.659-28.928 6.016-59.049 3.89-88.95 13.611-6.584 24.033-18.74 28.319-33.482h54.823c5.502 19.676 8.351 40.226 8.351 61.216zm-403.488 61.216h-40.161c-5.502-19.676-8.351-40.226-8.351-61.216s2.849-41.54 8.351-61.216h87.063c-3.952 24.52-5.548 49.922-4.646 75.291-20.877 7.593-36.933 25.287-42.256 47.141zm288.636-113.612c-13.134 0-23.82-10.686-23.82-23.82s10.686-23.819 23.82-23.819c13.135 0 23.82 10.686 23.82 23.819.001 13.135-10.685 23.82-23.82 23.82zm-51.676-38.82h-44.472v-123.225c34.766 25.017 55.72 61.168 68.134 92.291-11.319 6.928-19.879 17.924-23.662 30.934zm-74.472-123.18v123.18h-78.474c3.34-12.164 7.356-23.907 12.027-35.069 15.877-37.949 38.594-67.96 66.447-88.111zm0 153.18v122.432h-32.297c-6.601-27.101-29.715-47.803-58.043-50.781-.692-24.238 1.078-48.435 5.157-71.651zm-97.393 101.278c20.406 0 37.007 16.602 37.007 37.007s-16.601 37.007-37.007 37.007c-20.405 0-37.006-16.602-37.006-37.007s16.601-37.007 37.006-37.007zm65.491 51.154h31.902v123.366c-26.495-18.789-47.591-45.599-62.979-80.045 15.624-9.392 27.116-24.97 31.077-43.321zm61.902 123.201v-123.201h78.485c-2.789 10.14-6.046 20.005-9.777 29.503-15.961 40.633-39.461 72.566-68.708 93.698zm0-153.201v-122.432h44.471c5.938 20.424 23.67 35.865 45.305 38.43 1.795 28.352.213 56.824-4.564 84.001h-85.212zm-174.806-221.022c29.229-29.23 65.057-49.462 104.121-59.316-21.827 21.541-39.913 48.933-53.437 81.258-6.171 14.749-11.295 30.401-15.34 46.648h-82.441c11.144-25.255 26.991-48.484 47.097-68.59zm-47.097 251.022h29.02c6.513 30.174 33.396 52.859 65.49 52.859 1.929 0 3.833-.101 5.721-.261 12.953 29.919 29.75 55.012 50.228 75.108-38.769-9.924-74.323-30.077-103.363-59.117-20.105-20.105-35.952-43.334-47.096-68.589zm366.709 68.59c-29.221 29.221-65.036 49.45-104.088 59.307 23.202-22.891 42.145-52.375 55.913-87.426 5.086-12.947 9.38-26.497 12.864-40.472h82.408c-11.144 25.256-26.991 48.485-47.097 68.591z"/></g></svg>