<svg xmlns="http://www.w3.org/2000/svg" version="1.1" xmlns:xlink="http://www.w3.org/1999/xlink" xmlns:svgjs="http://svgjs.com/svgjs" width="512" height="512" x="0" y="0" viewBox="0 0 58 57" style="enable-background:new 0 0 512 512" xml:space="preserve" class=""><g><g xmlns="http://www.w3.org/2000/svg" id="Page-1" fill="none" fill-rule="evenodd"><g id="021---Lightweight-Fabric" fill-rule="nonzero"><path id="Shape" d="m44 0c-3.7340394.04120579-7.4399647.6515538-10.99 1.81-.098992.03139857-.1859253.0924963-.249.175-1.2600914 1.55541487-2.2074857 3.33984395-2.79 5.255-.1325484.53626847-.6747315.86354829-1.211.73099996-.5362685-.13254834-.8635483-.67473148-.731-1.21099996.221086-.85394454.5332077-1.68168711.931-2.469.0938856-.18714269.0612286-.41296323-.0818288-.56584051s-.3662163-.20043249-.5591712-.11915949c-2.4198535 1.08932668-4.736565 2.39461053-6.922 3.9-.0684866.04645461-.1233669.11030915-.159.185-1.410574 2.9045869-2.1741384 6.0806466-2.238 9.309 0 .5522847-.4477153 1-1 1s-1-.4477153-1-1c.0105168-1.8303318.2500445-3.6521535.713-5.423.0530733-.2149301-.0415112-.4391733-.2324795-.551168s-.4328495-.0850742-.5945205.066168c-.9805405.8898151-1.9150864 1.8290337-2.8 2.814-.0545404.0618297-.0933102.1359383-.113.216-.9017098 3.5831501-1.5489898 7.2255621-1.937 10.9-.0118883.1920238-.1341791.359677-.313396.4296467s-.382753.0295255-.521604-.1036467c-1.0535648-.9172063-1.79380127-2.1410266-2.117-3.5-.02998408-.1733991-.15135902-.3170447-.31732226-.3755468-.16596323-.058502-.35058622-.0227206-.48267774.0935468-1.903 1.702-6.72 7.442-4.284 20.434l4.24 3.54c2.12.474 5.287.388 10.017-.994.2051947-.0596964.3509266-.2416476.3643686-.4549264.0134419-.2132787-.1082926-.4120871-.3043686-.4970736-1.4389515-.6512835-2.5284532-1.8897675-2.991-3.4-.0704656-.1901015-.0191604-.403937.1298901-.5413703.1490506-.1374334.3663381-.1712562.5501099-.0856297 3.1654394 1.3653495 6.7223337 1.5194555 9.994.433 4.2951388-3.1355332 8.3771345-6.5530646 12.219-10.23.1366518-.1319514.1849305-.3308889.123962-.5107993-.0609684-.1799103-.220244-.3085114-.408962-.3302007-2.5174408-.212605-4.9124727-1.1785629-6.873-2.772-.1610273-.1460213-.2092609-.3793531-.1193275-.5772521.0899333-.197899.2974261-.3150183.5133275-.2897479 2.494.418 7.6.917 10.545-1.29 1.533984-1.1910291 2.9683945-2.5050413 4.289-3.929.1527334-.1578797.1845338-.3969544.0783813-.5892696s-.3253925-.2928228-.5403813-.2477304c-2.2423222.4951555-4.530701.7519151-6.827.766-.5522847 0-1-.4477153-1-1s.4477153-1 1-1c3.6112725-.0448134 7.1898778-.6906454 10.589-1.911.0801008-.0292114.1633262-.049011.248-.059 1.211-1.473 2.3-2.88 3.163-4.03 1.9250339-2.68365231 3.5475513-5.57185403 4.838-8.612.0974309-.2305287.0094096-.49758351-.206-.625-1.192-.71-5.359-2.763-13.632-2.763z" fill="#53b073" data-original="#556080" class=""></path><path id="Shape" d="m57.84 3.39c-.0150565.03261796-.0284078.0659963-.04.1-9.6451996 1.85774271-18.7230651 5.94295341-26.51 11.93-7.8580988 6.064116-14.8026103 13.2275379-20.62 21.27-1.69871821 2.2280375-3.26797265 4.5518696-4.7 6.96l-1.97-1.65c-2.44-12.99 2.38-18.73 4.28-20.43.13066143-.1196498.31651892-.1577858.48374038-.0992582.16722147.0585275.28873132.204242.31625962.3792582.32539029 1.3587871 1.0664655 2.5822603 2.12 3.5.1393987.1311773.3421278.1698084.519999.0990885.1778713-.0707199.2987296-.2380062.310001-.4290885.3890924-3.6744967 1.0373739-7.3169029 1.94-10.9.0203077-.0774203.0579187-.1492231.11-.21.8884866-.9868093 1.8263532-1.9280135 2.81-2.82.1630458-.146464.4024715-.1696709.5906106-.0572463s.2811305.334271.2293894.5472463c-.4631354 1.7697214-.7016769 3.5906999-.71 5.42 0 .5522847.4477153 1 1 1s1-.4477153 1-1c.0619236-3.229152.8262992-6.4060877 2.24-9.31.036198-.07328181.0914675-.13545997.16-.18 2.1829718-1.50820616 4.4992819-2.8136411 6.92-3.9.1921996-.08774826.4189455-.04326916.5637513.11058702s.1754737.38287922.0762487.56941298c-.3999565.78659835-.7118459 1.61494972-.93 2.47-.1017414.352104-.0027126.73165424.2580846.98916804s.6415716.35172602.9923583.24553197c.3507868-.10619406.6153744-.39577738.6895571-.75470001.5779182-1.91553481 1.5257965-3.69917677 2.79-5.25.0596853-.08742277.1481604-.15112482.25-.18 3.5507537-1.15549953 7.2562251-1.7657728 10.99-1.81 8.27 0 12.44 2.05 13.63 2.76.2194849.12648177.3096989.39712362.21.63z" fill="#4fc687" data-original="#8697cb" class=""></path><path id="Shape" d="m1.76 56.592c-.31264428.250254-.74443569.2898542-1.09738397.1006426-.35294827-.1892116-.55897726-.5707402-.52361603-.9696426.45960991-4.7677418 1.76714365-9.4150574 3.861-13.723 3.381-6.762 17.479-23.527 30.82-29.761.4662763-.2221741 1.0250353-.0526945 1.2893229.3910701s.1471367 1.0157878-.2703229 1.3199299c-7.368 5.256-19.723 15.818-27.839 32.05-1.03684583 2.1124997-1.9022966 4.3048858-2.588 6.556-.29336116.963063-.87094688 1.8149757-1.657 2.444z" fill="#1b7e3c" data-original="#2c2f38" class=""></path></g></g></g></svg>