<svg xmlns="http://www.w3.org/2000/svg" version="1.1" xmlns:xlink="http://www.w3.org/1999/xlink" width="512" height="512" x="0" y="0" viewBox="0 0 510 510" style="enable-background:new 0 0 512 512" xml:space="preserve" class=""><g><linearGradient id="d" x1="79.429" x2="426.548" y1="95.045" y2="442.164" gradientUnits="userSpaceOnUse"><stop offset="0" stop-color="#f7e07d"></stop><stop offset="1" stop-color="#e69642"></stop></linearGradient><linearGradient id="a"><stop offset="0" stop-color="#d52c1c" stop-opacity="0"></stop><stop offset=".28" stop-color="#d12c1e" stop-opacity=".28"></stop><stop offset=".574" stop-color="#c42c23" stop-opacity=".574"></stop><stop offset=".872" stop-color="#af2b2c" stop-opacity=".872"></stop><stop offset="1" stop-color="#a42b31"></stop></linearGradient><linearGradient xlink:href="#a" id="e" x1="512.968" x2="471.917" y1="263.488" y2="259.181" gradientUnits="userSpaceOnUse"></linearGradient><linearGradient xlink:href="#a" id="f" x1="255" x2="255" y1="381.642" y2="470.332" gradientUnits="userSpaceOnUse"></linearGradient><linearGradient xlink:href="#a" id="g" x1="405.75" x2="405.75" y1="366.116" y2="447.267" gradientUnits="userSpaceOnUse"></linearGradient><linearGradient xlink:href="#a" id="h" x1="707.25" x2="707.25" y1="366.116" y2="447.267" gradientTransform="matrix(-1 0 0 1 811.5 0)" gradientUnits="userSpaceOnUse"></linearGradient><linearGradient id="b"><stop offset="0" stop-color="#eef4ff"></stop><stop offset="1" stop-color="#cfe7fd"></stop></linearGradient><linearGradient xlink:href="#b" id="i" x1="255" x2="255" y1="322.309" y2="398.976" gradientUnits="userSpaceOnUse"></linearGradient><linearGradient id="c"><stop offset="0" stop-color="#8aaadc" stop-opacity="0"></stop><stop offset="1" stop-color="#8aaadc"></stop></linearGradient><linearGradient xlink:href="#c" id="j" x1="255" x2="255" y1="342.976" y2="473.979" gradientUnits="userSpaceOnUse"></linearGradient><linearGradient xlink:href="#c" id="k" x1="315.5" x2="243.998" y1="366.157" y2="366.157" gradientUnits="userSpaceOnUse"></linearGradient><linearGradient xlink:href="#b" id="l" x1="-31.679" x2="272.735" y1="55.012" y2="359.426" gradientUnits="userSpaceOnUse"></linearGradient><linearGradient xlink:href="#b" id="m" x1="62.28" x2="285.008" y1="264.72" y2="487.449" gradientUnits="userSpaceOnUse"></linearGradient><linearGradient xlink:href="#b" id="n" x1="141.386" x2="364.115" y1="185.614" y2="408.342" gradientUnits="userSpaceOnUse"></linearGradient><linearGradient xlink:href="#b" id="o" x1="251.389" x2="474.295" y1="119.827" y2="342.733" gradientUnits="userSpaceOnUse"></linearGradient><linearGradient xlink:href="#c" id="p" x1="472.447" x2="275.447" y1="224.859" y2="87.359" gradientUnits="userSpaceOnUse"></linearGradient><linearGradient id="q" x1="280.629" x2="361.43" y1="73.68" y2="154.482" gradientUnits="userSpaceOnUse"><stop offset="0" stop-color="#dc4955"></stop><stop offset="1" stop-color="#c4237c"></stop></linearGradient><linearGradient id="r" x1="329" x2="329" y1="120.976" y2="184.983" gradientUnits="userSpaceOnUse"><stop offset="0" stop-color="#8a1958" stop-opacity="0"></stop><stop offset="1" stop-color="#8a1958"></stop></linearGradient><path fill="url(#d)" d="M493.075 93.469C414.554 67.074 333.063 69.122 255 99.618 176.882 69.101 95.327 67.07 16.75 93.528 6.725 96.903 0 106.342 0 116.92v307.314c0 16.515 15.832 28.443 31.695 23.849 58.393-16.908 118.194-18.209 176.805-3.932v.001c0 9.291 7.532 16.822 16.822 16.822h59.355c9.291 0 16.822-7.532 16.822-16.822 58.613-14.278 118.414-12.978 176.806 3.93C494.169 452.677 510 440.75 510 424.235V116.92c0-10.645-6.834-20.059-16.925-23.451z" opacity="1" data-original="url(#d)"></path><path fill="url(#e)" d="M510 116.916v307.32c0 5.47-1.74 10.43-4.65 14.46-2.96-4.13-7.2-7.35-12.27-9.05a359.443 359.443 0 0 0-31.095-8.933c-14.856-3.548-25.315-16.852-25.315-32.125V79.476c18.91 3.05 37.75 7.72 56.41 13.99 10.09 3.4 16.92 12.81 16.92 23.45z" opacity="1" data-original="url(#e)" class=""></path><path fill="url(#f)" d="M0 320.976v103.259c0 16.515 15.832 28.443 31.695 23.849 58.393-16.908 118.194-18.209 176.805-3.932v.001c0 9.291 7.532 16.823 16.823 16.823h59.355c9.291 0 16.823-7.532 16.823-16.823 58.613-14.278 118.414-12.978 176.806 3.93C494.169 452.677 510 440.75 510 424.235v-103.26H0z" opacity="1" data-original="url(#f)"></path><path fill="url(#g)" d="M478.306 448.084C494.169 452.677 510 440.75 510 424.235v-103.26H301.5v123.177c58.613-14.277 118.414-12.977 176.806 3.932z" opacity="1" data-original="url(#g)"></path><path fill="url(#h)" d="M31.694 448.084C15.831 452.677 0 440.75 0 424.235v-103.26h208.5v123.177c-58.613-14.277-118.414-12.977-176.806 3.932z" opacity="1" data-original="url(#h)"></path><path fill="url(#i)" d="M472.135 96.157C400.52 72.083 326.196 73.951 255 101.765c-71.247-27.833-145.628-29.686-217.295-5.554-9.143 3.079-15.276 11.687-15.276 21.335V397.83c0 15.063 14.439 25.941 28.908 21.752 53.257-15.421 103.798-16.608 157.253-3.586v.001c0 8.474 6.869 15.343 15.343 15.343h62.134c8.474 0 15.343-6.869 15.343-15.343 53.457-13.022 103.999-11.836 157.255 3.585 14.468 4.189 28.906-6.688 28.906-21.75V117.545c0-9.709-6.233-18.294-15.436-21.388z" opacity="1" data-original="url(#i)"></path><path fill="url(#j)" d="M472.135 96.157C400.52 72.083 326.196 73.951 255 101.765c-71.247-27.833-145.628-29.686-217.295-5.554-9.143 3.079-15.276 11.687-15.276 21.335V397.83c0 15.063 14.439 25.941 28.908 21.752 53.257-15.421 103.798-16.608 157.253-3.586v.001c0 8.474 6.869 15.343 15.343 15.343h62.134c8.474 0 15.343-6.869 15.343-15.343 53.457-13.022 103.999-11.836 157.255 3.585 14.468 4.189 28.906-6.688 28.906-21.75V117.545c0-9.709-6.233-18.294-15.436-21.388z" opacity="1" data-original="url(#j)"></path><path fill="url(#k)" d="M255 300.976v130.363h31.067c8.474 0 15.343-6.869 15.343-15.343 53.457-13.022 103.999-11.837 157.254 3.585 14.468 4.189 28.906-6.688 28.906-21.75v-96.854H255z" opacity="1" data-original="url(#k)"></path><path fill="url(#l)" d="M37.865 67.064c-9.203 3.094-15.436 11.679-15.436 21.388v280.284c0 15.005 14.365 25.969 28.777 21.789 67.473-19.567 137.012-16.307 203.794 9.784V72.672c-71.194-27.813-145.518-29.683-217.135-5.608z" opacity="1" data-original="url(#l)" class=""></path><path fill="url(#m)" d="M213.493 366.441c-49.767-8.972-98.494-8.974-148.266 0-8.204 1.627-14.807-3.456-14.807-11.722v-23.757c0-8.266 6.603-16.584 14.807-18.211 49.772-8.973 98.499-8.972 148.266 0 8.204 1.627 14.807 9.945 14.807 18.211v23.757c0 8.266-6.603 13.35-14.807 11.722z" opacity="1" data-original="url(#m)"></path><path fill="url(#n)" d="M213.493 282.035c-49.767-8.972-98.494-8.973-148.266 0-8.204 1.627-14.807-3.456-14.807-11.722V98.943c0-8.266 6.603-16.584 14.807-18.212 49.773-8.974 98.499-8.972 148.266.001 8.204 1.627 14.807 9.945 14.807 18.211v171.37c0 8.265-6.603 13.349-14.807 11.722z" opacity="1" data-original="url(#n)" class=""></path><path fill="url(#o)" d="M472.135 67.064C400.52 42.99 326.196 44.858 255 72.672v327.637c66.785-26.09 136.324-29.352 203.795-9.784 14.411 4.179 28.776-6.783 28.776-21.788V88.452c0-9.709-6.233-18.295-15.436-21.388z" opacity="1" data-original="url(#o)"></path><path fill="url(#p)" d="M472.135 67.064c-59.541-20.015-120.953-22.091-180.885-6.239-6.027 1.594-10.25 7.014-10.25 13.248v116.403l196.866 196.866c5.789-4.051 9.705-10.775 9.705-18.605V88.452c0-9.709-6.233-18.295-15.436-21.388z" opacity="1" data-original="url(#p)"></path><path fill="url(#q)" d="M278 74.136v110.202c0 6.823 8.249 10.239 13.073 5.415l24.866-24.866c7.213-7.213 18.908-7.213 26.121 0l24.866 24.866c4.824 4.824 13.073 1.408 13.073-5.415V61.882c0-7.203-5.916-12.96-13.118-12.857-26.193.376-52.37 4.103-78.261 11.183A14.44 14.44 0 0 0 278 74.136z" opacity="1" data-original="url(#q)" class=""></path><path fill="url(#r)" d="M278 112.976v71.362c0 6.823 8.249 10.24 13.073 5.415l24.866-24.866c7.213-7.213 18.908-7.213 26.121 0l24.866 24.866c4.824 4.824 13.073 1.407 13.073-5.415v-71.362z" opacity="1" data-original="url(#r)"></path></g></svg>