<svg xmlns="http://www.w3.org/2000/svg" version="1.1" xmlns:xlink="http://www.w3.org/1999/xlink" width="512" height="512" x="0" y="0" viewBox="0 0 510 510" style="enable-background:new 0 0 512 512" xml:space="preserve" class=""><g><linearGradient id="a"><stop offset="0" stop-color="#f7e07d"></stop><stop offset="1" stop-color="#e69642"></stop></linearGradient><linearGradient xlink:href="#a" id="f" x1="126.088" x2="338.018" y1="70.912" y2="282.843" gradientUnits="userSpaceOnUse"></linearGradient><linearGradient xlink:href="#a" id="g" x1="210.602" x2="391.403" y1="133.398" y2="314.199" gradientUnits="userSpaceOnUse"></linearGradient><linearGradient id="b"><stop offset="0" stop-color="#d52c1c" stop-opacity="0"></stop><stop offset=".28" stop-color="#d12c1e" stop-opacity=".28"></stop><stop offset=".574" stop-color="#c42c23" stop-opacity=".574"></stop><stop offset=".872" stop-color="#af2b2c" stop-opacity=".872"></stop><stop offset="1" stop-color="#a42b31"></stop></linearGradient><linearGradient xlink:href="#b" id="h" x1="401.107" x2="119.948" y1="320.893" y2="39.734" gradientUnits="userSpaceOnUse"></linearGradient><linearGradient id="c"><stop offset="0" stop-color="#e38523"></stop><stop offset="1" stop-color="#c4237c"></stop></linearGradient><linearGradient xlink:href="#c" id="i" x1="209.883" x2="319.534" y1="129.666" y2="239.317" gradientUnits="userSpaceOnUse"></linearGradient><linearGradient xlink:href="#a" id="j" x1="419.045" x2="527.54" y1="155.662" y2="196.348" gradientUnits="userSpaceOnUse"></linearGradient><linearGradient xlink:href="#a" id="k" x1="-21.297" x2="87.199" y1="155.662" y2="196.348" gradientUnits="userSpaceOnUse"></linearGradient><linearGradient xlink:href="#a" id="l" x1="392.556" x2="499.484" y1="270.159" y2="310.257" gradientUnits="userSpaceOnUse"></linearGradient><linearGradient xlink:href="#a" id="m" x1="6.814" x2="113.742" y1="41.774" y2="81.872" gradientUnits="userSpaceOnUse"></linearGradient><linearGradient xlink:href="#a" id="n" x1="22.309" x2="99.284" y1="275.969" y2="304.835" gradientUnits="userSpaceOnUse"></linearGradient><linearGradient xlink:href="#a" id="o" x1="408.051" x2="485.026" y1="47.585" y2="76.451" gradientUnits="userSpaceOnUse"></linearGradient><linearGradient xlink:href="#b" id="p" x1="340.609" x2="252.203" y1="400.891" y2="312.485" gradientUnits="userSpaceOnUse"></linearGradient><linearGradient xlink:href="#c" id="q" x1="240.615" x2="267.065" y1="300.886" y2="327.336" gradientUnits="userSpaceOnUse"></linearGradient><linearGradient xlink:href="#b" id="r" x1="255.004" x2="255.004" y1="285" y2="366.514" gradientUnits="userSpaceOnUse"></linearGradient><linearGradient id="d"><stop offset="0" stop-color="#eef4ff"></stop><stop offset="1" stop-color="#cfe7fd"></stop></linearGradient><linearGradient xlink:href="#d" id="s" x1="255" x2="255" y1="376" y2="410" gradientUnits="userSpaceOnUse"></linearGradient><linearGradient id="t" x1="185.511" x2="312.88" y1="480.524" y2="480.524" gradientUnits="userSpaceOnUse"><stop offset="0" stop-color="#5a5a5a"></stop><stop offset="1" stop-color="#464646"></stop></linearGradient><linearGradient id="u" x1="255" x2="255" y1="501.5" y2="479.994" gradientUnits="userSpaceOnUse"><stop offset="0" stop-color="#464646" stop-opacity="0"></stop><stop offset="1" stop-color="#202020"></stop></linearGradient><linearGradient xlink:href="#d" id="v" x1="255" x2="255" y1="424" y2="464.05" gradientUnits="userSpaceOnUse"></linearGradient><linearGradient id="e"><stop offset="0" stop-color="#8aaadc" stop-opacity="0"></stop><stop offset="1" stop-color="#8aaadc"></stop></linearGradient><linearGradient xlink:href="#e" id="w" x1="255" x2="255" y1="389" y2="424" gradientUnits="userSpaceOnUse"></linearGradient><linearGradient xlink:href="#e" id="x" x1="255" x2="255" y1="445.292" y2="468.911" gradientUnits="userSpaceOnUse"></linearGradient><path fill="url(#f)" d="M431.05 176.05C431.05 78.707 352.046-.184 254.66 0 158.271.182 80.434 76.935 78.971 173.314c-.937 61.707 29.88 116.276 77.167 148.426.188.128.301.34.301.568a31.874 31.874 0 0 1 15 27.041v39.662h167.122v-40.02a31.876 31.876 0 0 1 14.536-26.746l.464-.301c46.756-31.649 77.489-85.182 77.489-145.894z" opacity="1" data-original="url(#f)"></path><circle cx="255" cy="177.797" r="119.244" fill="url(#g)" opacity="1" data-original="url(#g)"></circle><path fill="url(#h)" d="M421.746 232.61 310.964 121.828c-1.65-3.045-4.256-5.174-7.99-5.174h-93.946c-7.177 0-10.222 7.829-10.222 15.005 0 6.67 2.411 12.626 6.771 14.677l33.46 34.121v84.727c0 3.428 2.063 6.007 5.165 7.746l94.36 94.359V348.99a31.874 31.874 0 0 1 14.536-26.746l.464-.301c31.515-21.332 55.733-52.617 68.184-89.333z" opacity="1" data-original="url(#h)"></path><path fill="url(#i)" d="M301.974 115.655h-93.946c-7.177 0-10.222 7.829-10.222 15.005 0 8.264 3.697 15.44 10.222 15.44h30.01v118.085c0 6.959 8.481 10.438 16.963 10.438s16.963-3.479 16.963-10.438V146.1h30.011c6.523 0 10.221-7.176 10.221-15.44-.002-7.177-3.047-15.005-10.222-15.005z" opacity="1" data-original="url(#i)" class=""></path><path fill="url(#j)" d="M493.875 160.585h-37.409c-8.905 0-16.125 7.219-16.125 16.125 0 8.905 7.219 16.125 16.125 16.125h37.409c8.905 0 16.125-7.219 16.125-16.125 0-8.906-7.219-16.125-16.125-16.125z" opacity="1" data-original="url(#j)"></path><path fill="url(#k)" d="M69.659 176.71c0-8.905-7.219-16.125-16.125-16.125H16.125C7.219 160.585 0 167.804 0 176.71c0 8.905 7.219 16.125 16.125 16.125h37.409c8.905-.001 16.125-7.22 16.125-16.125z" opacity="1" data-original="url(#k)"></path><path fill="url(#l)" d="M446.047 266.274c-6.297-6.297-16.507-6.297-22.804 0-6.297 6.297-6.297 16.507 0 22.804l26.452 26.452c6.297 6.297 16.507 6.297 22.804 0 6.297-6.297 6.297-16.507 0-22.804z" opacity="1" data-original="url(#l)"></path><path fill="url(#m)" d="M60.305 37.89c-6.297-6.297-16.507-6.297-22.804 0-6.297 6.297-6.297 16.507 0 22.804l26.452 26.452c6.297 6.297 16.507 6.297 22.804 0 6.297-6.297 6.297-16.507 0-22.804z" opacity="1" data-original="url(#m)"></path><path fill="url(#n)" d="M86.757 266.274c-6.297-6.297-16.507-6.297-22.804 0l-26.452 26.452c-6.297 6.297-6.297 16.507 0 22.804 6.297 6.297 16.507 6.297 22.804 0l26.452-26.452c6.297-6.298 6.297-16.507 0-22.804z" opacity="1" data-original="url(#n)"></path><path fill="url(#o)" d="M423.243 87.146c6.297 6.297 16.507 6.297 22.804 0l26.452-26.452c6.297-6.297 6.297-16.507 0-22.804-6.297-6.297-16.507-6.297-22.804 0l-26.452 26.452c-6.297 6.297-6.297 16.507 0 22.804z" opacity="1" data-original="url(#o)"></path><path fill="url(#p)" d="m338.561 358.143-60.973-60.973c-5.3-6.24-13.2-10.21-22.03-10.21-15.95 0-28.88 12.93-28.88 28.88 0 1.04.05 2.07.16 3.08.8 7.57 4.54 14.27 10.05 18.95l51.14 51.14h50.533z" opacity="1" data-original="url(#p)"></path><circle cx="254.998" cy="315.27" r="28.882" fill="url(#q)" opacity="1" data-original="url(#q)"></circle><path fill="url(#r)" d="M90.94 240c13.032 33.407 35.96 61.861 65.198 81.74.188.128.301.34.301.567a31.874 31.874 0 0 1 15 27.041v39.662h167.122v-40.02a31.874 31.874 0 0 1 14.536-26.746l.464-.301c29.381-19.888 52.428-48.421 65.505-81.944H90.94z" opacity="1" data-original="url(#r)"></path><path fill="url(#s)" d="M328.75 359.649h-147.5c-15.418 0-27.916 12.499-27.916 27.916 0 15.418 12.499 27.916 27.916 27.916h147.5c15.418 0 27.916-12.499 27.916-27.916.001-15.417-12.498-27.916-27.916-27.916z" opacity="1" data-original="url(#s)"></path><path fill="url(#t)" d="M173.333 451.047C187.925 485.92 219.009 510 255 510s67.074-24.08 81.667-58.953z" opacity="1" data-original="url(#t)"></path><path fill="url(#u)" d="M173.333 451.047C187.925 485.92 219.009 510 255 510s67.074-24.08 81.667-58.953z" opacity="1" data-original="url(#u)"></path><path fill="url(#v)" d="M328.75 415.482h-147.5c-15.418 0-27.916 12.499-27.916 27.916 0 15.418 12.499 27.916 27.916 27.916h147.5c15.418 0 27.916-12.499 27.916-27.916.001-15.418-12.498-27.916-27.916-27.916z" opacity="1" data-original="url(#v)"></path><path fill="url(#w)" d="M328.75 359.649h-147.5c-15.418 0-27.916 12.499-27.916 27.916 0 15.418 12.499 27.916 27.916 27.916h147.5c15.418 0 27.916-12.499 27.916-27.916.001-15.417-12.498-27.916-27.916-27.916z" opacity="1" data-original="url(#w)"></path><path fill="url(#x)" d="m328.75 415.482-73.447-2.717-74.054 2.717c-15.418 0-27.916 12.499-27.916 27.916 0 15.418 12.499 27.916 27.916 27.916H328.75c15.418 0 27.916-12.499 27.916-27.916.001-15.418-12.498-27.916-27.916-27.916z" opacity="1" data-original="url(#x)"></path></g></svg>