<svg xmlns="http://www.w3.org/2000/svg" version="1.1" xmlns:xlink="http://www.w3.org/1999/xlink" width="512" height="512" x="0" y="0" viewBox="0 0 510 510" style="enable-background:new 0 0 512 512" xml:space="preserve" class=""><g><linearGradient id="g" x1="101.652" x2="452.378" y1="298.133" y2="503.73" gradientUnits="userSpaceOnUse"><stop offset="0" stop-color="#d9b1ee"></stop><stop offset="1" stop-color="#814aa0"></stop></linearGradient><linearGradient id="a"><stop offset="0" stop-color="#5b3374" stop-opacity="0"></stop><stop offset="1" stop-color="#5b3374"></stop></linearGradient><linearGradient xlink:href="#a" id="h" x1="255" x2="255" y1="444.64" y2="496.645" gradientUnits="userSpaceOnUse"></linearGradient><linearGradient xlink:href="#a" id="i" x1="408.091" x2="274.224" y1="503.466" y2="387.448" gradientUnits="userSpaceOnUse"></linearGradient><linearGradient id="b"><stop offset="0" stop-color="#e6eeff"></stop><stop offset="1" stop-color="#bac8fa"></stop></linearGradient><linearGradient xlink:href="#b" id="j" x1="148.624" x2="173.893" y1="354.773" y2="485.82" gradientUnits="userSpaceOnUse"></linearGradient><linearGradient xlink:href="#b" id="k" x1="308.638" x2="345.661" y1="368.951" y2="477.668" gradientUnits="userSpaceOnUse"></linearGradient><linearGradient id="c"><stop offset="0" stop-color="#a7b7f1" stop-opacity="0"></stop><stop offset="1" stop-color="#a7b7f1"></stop></linearGradient><linearGradient xlink:href="#c" id="l" x1="252.42" x2="258.884" y1="522.386" y2="388.988" gradientUnits="userSpaceOnUse"></linearGradient><linearGradient xlink:href="#b" id="m" x1="89.923" x2="296.325" y1="312.504" y2="433.917" gradientUnits="userSpaceOnUse"></linearGradient><linearGradient xlink:href="#b" id="n" x1="249.709" x2="448.799" y1="312.118" y2="428.826" gradientUnits="userSpaceOnUse"></linearGradient><linearGradient xlink:href="#c" id="o" x1="332.105" x2="411.05" y1="342.222" y2="421.167" gradientUnits="userSpaceOnUse"></linearGradient><linearGradient xlink:href="#c" id="p" x1="90.696" x2="254.976" y1="235.985" y2="453.96" gradientUnits="userSpaceOnUse"></linearGradient><linearGradient id="d"><stop offset="0" stop-color="#a7b7f1" stop-opacity="0"></stop><stop offset="1" stop-color="#fff5c6"></stop></linearGradient><linearGradient xlink:href="#d" id="q" x1="140.581" x2="217.914" y1="406.705" y2="302.705" gradientUnits="userSpaceOnUse"></linearGradient><linearGradient xlink:href="#d" id="r" x1="383.769" x2="277.862" y1="410.231" y2="304.324" gradientUnits="userSpaceOnUse"></linearGradient><linearGradient id="e"><stop offset="0" stop-color="#fee45a"></stop><stop offset="1" stop-color="#fea613"></stop></linearGradient><linearGradient xlink:href="#e" id="s" x1="199.905" x2="338.446" y1="91.772" y2="230.313" gradientUnits="userSpaceOnUse"></linearGradient><linearGradient id="t" x1="254.998" x2="254.998" y1="223.333" y2="276.87" gradientUnits="userSpaceOnUse"><stop offset="0" stop-color="#fe7701" stop-opacity="0"></stop><stop offset=".185" stop-color="#f87204" stop-opacity=".185"></stop><stop offset=".431" stop-color="#e7630c" stop-opacity=".431"></stop><stop offset=".711" stop-color="#cb4b19" stop-opacity=".711"></stop><stop offset="1" stop-color="#a72b2b"></stop></linearGradient><linearGradient id="u" x1="255" x2="255" y1="333.784" y2="364.274" gradientUnits="userSpaceOnUse"><stop offset="0" stop-color="#5a5a5a"></stop><stop offset="1" stop-color="#444"></stop></linearGradient><linearGradient id="f"><stop offset="0" stop-color="#b4d2e2"></stop><stop offset="1" stop-color="#7bacdf"></stop></linearGradient><linearGradient xlink:href="#f" id="v" x1="255" x2="255" y1="324.5" y2="339.542" gradientUnits="userSpaceOnUse"></linearGradient><linearGradient xlink:href="#f" id="w" x1="255" x2="255" y1="287.5" y2="302.542" gradientUnits="userSpaceOnUse"></linearGradient><linearGradient id="x" x1="255" x2="255" y1="217" y2="44.432" gradientUnits="userSpaceOnUse"><stop offset="0" stop-color="#fff5c6" stop-opacity="0"></stop><stop offset="1" stop-color="#fff5c6"></stop></linearGradient><linearGradient xlink:href="#e" id="y" x1="8025.106" x2="8069.621" y1="4393.437" y2="4393.437" gradientTransform="rotate(90 6387.987 -1534.251)" gradientUnits="userSpaceOnUse"></linearGradient><linearGradient xlink:href="#e" id="z" x1="7587.968" x2="7632.484" y1="5913.44" y2="5913.44" gradientTransform="rotate(45 11095.171 -5665.201)" gradientUnits="userSpaceOnUse"></linearGradient><linearGradient xlink:href="#e" id="A" x1="7255.375" x2="7299.891" y1="2999.037" y2="2999.037" gradientTransform="rotate(135 4438.57 175.691)" gradientUnits="userSpaceOnUse"></linearGradient><linearGradient xlink:href="#e" id="B" x1="8025.106" x2="8069.621" y1="3974.849" y2="3974.849" gradientTransform="matrix(0 1 1 0 -3925.148 -7922.238)" gradientUnits="userSpaceOnUse"></linearGradient><linearGradient xlink:href="#e" id="C" x1="7883.957" x2="7928.473" y1="5617.451" y2="5617.451" gradientTransform="scale(-1 1) rotate(45 10632.678 -6784.68)" gradientUnits="userSpaceOnUse"></linearGradient><linearGradient xlink:href="#e" id="D" x1="6959.386" x2="7003.902" y1="2703.048" y2="2703.048" gradientTransform="scale(1 -1) rotate(-45 39.84 9595.378)" gradientUnits="userSpaceOnUse"></linearGradient><path fill="url(#g)" d="M430.308 265.586c-58.435-21.897-116.946-19.872-175.308 6.007v9.414-9.414c-58.417-25.904-116.928-27.883-175.309-6.007-8.85 3.316-14.684 11.819-14.684 21.269v208.337c0 8.508 8.457 14.479 16.446 11.551 52.814-19.356 105.733-19.188 158.59.551a42.725 42.725 0 0 0 29.917-.001c52.812-19.723 105.731-19.921 158.589-.549 7.988 2.928 16.445-3.044 16.445-11.552V286.855c-.001-9.45-5.836-17.953-14.686-21.269z" opacity="1" data-original="url(#g)"></path><path fill="url(#a)" d="M65.007 495.193c0 8.508 8.457 14.479 16.446 11.551 52.814-19.356 105.732-19.188 158.59.551a42.72 42.72 0 0 0 29.917-.001c52.812-19.723 105.73-19.921 158.589-.549 7.988 2.928 16.445-3.044 16.445-11.552V390.706H65.006l.001 104.487z" opacity="1" data-original="url(#a)"></path><path fill="url(#a)" d="M444.99 286.853v208.34c0 8.51-8.45 14.48-16.44 11.55-52.86-19.37-105.78-19.17-158.59.55a42.684 42.684 0 0 1-29.92 0c-45.11-16.84-90.27-19.43-135.37-7.79l-16.09-16.09v-220.95c55.43-18.48 110.96-15.46 166.42 9.13 58.36-25.88 116.87-27.9 175.31-6.01 8.85 3.32 14.68 11.82 14.68 21.27z" opacity="1" data-original="url(#a)"></path><path fill="url(#b)" d="M255 450.425v40.548c-52.043-23.072-104.18-25.058-156.199-5.994-7.193 2.633-14.797-2.738-14.797-10.39v-40.548c0 7.651 7.604 13.022 14.797 10.39 52.019-19.063 104.156-17.077 156.199 5.994z" opacity="1" data-original="url(#b)"></path><path fill="url(#b)" d="M425.996 434.042v40.548c0 7.651-7.604 13.034-14.797 10.39-52.066-19.075-104.203-17.065-156.199 5.994v-40.548c51.996-23.06 104.133-25.07 156.199-5.994 7.193 2.644 14.797-2.739 14.797-10.39z" opacity="1" data-original="url(#b)"></path><path fill="url(#c)" d="M411.199 473.814c-52.066-19.075-104.203-17.066-156.199 5.994-52.043-23.072-104.18-25.058-156.199-5.994-7.193 2.633-14.797-2.738-14.797-10.39v11.165c0 7.651 7.604 13.022 14.797 10.39 52.019-19.064 104.156-17.077 156.199 5.994 51.996-23.06 104.133-25.069 156.199-5.994 7.193 2.644 14.797-2.738 14.797-10.39v-11.165c0 7.652-7.604 13.034-14.797 10.39z" opacity="1" data-original="url(#c)"></path><path fill="url(#b)" d="M84 271.426v183.18c0 7.658 7.612 13.032 14.802 10.397 52.018-19.065 104.149-17.084 156.197 5.994L255 257.688c-52.577-23.314-105.238-25.096-157.783-5.406C89.252 255.267 84 262.92 84 271.426z" opacity="1" data-original="url(#b)"></path><path fill="url(#b)" d="M255 257.688v213.309c52-23.059 104.131-25.075 156.198-5.993 7.19 2.635 14.801-2.74 14.801-10.397V271.426c0-8.506-5.252-16.159-13.217-19.144-52.593-19.708-105.254-17.885-157.782 5.406z" opacity="1" data-original="url(#b)"></path><path fill="url(#c)" d="M408.325 359.981c-10.94-3.167-21.883-5.401-32.829-6.705-5.773-.688-10.869 3.763-10.869 9.576v67.801a9.638 9.638 0 0 0 8.609 9.587c10.191 1.093 20.38 2.99 30.566 5.699 5.292 1.408 10.492-2.523 10.492-7.999v-69.984c0-3.686-2.427-6.949-5.969-7.975z" opacity="1" data-original="url(#c)"></path><path fill="url(#c)" d="M118.131 365.403c23.914-6.364 47.847-8.28 71.779-5.75 4.896.518 9.158-3.324 9.158-8.247v-70.518c0-4.191-3.12-7.76-7.282-8.241-26.055-3.008-52.112-.746-78.144 6.788a8.305 8.305 0 0 0-5.982 7.979v69.984c-.001 5.468 5.187 9.411 10.471 8.005z" opacity="1" data-original="url(#c)"></path><g fill="#7bacdf"><path d="M106.595 412.894a7.193 7.193 0 0 1-2.227-14.031c42.185-13.752 84.968-14.086 127.162-.988a7.193 7.193 0 0 1-4.264 13.737c-39.293-12.197-79.142-11.885-118.439.926a7.217 7.217 0 0 1-2.232.356zM106.595 442.938a7.193 7.193 0 0 1-2.227-14.031c42.183-13.754 84.966-14.086 127.162-.988a7.192 7.192 0 0 1-4.264 13.736c-39.296-12.199-79.144-11.886-118.439.926a7.19 7.19 0 0 1-2.232.357zM353.76 395.498v.009c0 3.988-3.243 7.178-7.231 7.192-20.047.07-40.094 3.349-60.003 9.837a7.179 7.179 0 0 1-2.225.355c-3.03 0-5.849-1.927-6.837-4.957-1.237-3.778.834-7.834 4.602-9.071 21.412-6.976 42.98-10.501 64.542-10.559 3.958-.011 7.152 3.238 7.152 7.194zM353.76 425.532c0 3.986-3.241 7.176-7.228 7.192-20.037.08-40.098 3.374-60.006 9.862a7.19 7.19 0 0 1-9.062-4.612c-1.237-3.778.834-7.834 4.602-9.071 21.394-6.967 42.975-10.499 64.539-10.566 3.959-.012 7.155 3.237 7.155 7.195zM284.3 352.167a7.194 7.194 0 0 1-2.227-14.031c42.184-13.752 84.967-14.083 127.161-.988a7.192 7.192 0 0 1-4.264 13.736c-39.292-12.196-79.141-11.884-118.44.926a7.138 7.138 0 0 1-2.23.357zM353.76 364.816v.009c0 3.988-3.243 7.178-7.231 7.192-20.047.07-40.094 3.349-60.003 9.837a7.179 7.179 0 0 1-2.225.355c-3.03 0-5.849-1.927-6.837-4.957-1.237-3.778.834-7.834 4.602-9.071 21.412-6.976 42.98-10.5 64.542-10.559 3.958-.012 7.152 3.237 7.152 7.194zM284.3 291.441a7.193 7.193 0 0 1-2.227-14.031c42.182-13.753 84.967-14.085 127.161-.988a7.192 7.192 0 0 1-4.264 13.736c-39.293-12.197-79.142-11.886-118.44.926a7.168 7.168 0 0 1-2.23.357zM284.3 321.485a7.193 7.193 0 0 1-2.227-14.031c28.918-9.427 58.273-12.585 87.262-9.382a7.193 7.193 0 0 1 6.358 7.938 7.184 7.184 0 0 1-7.938 6.358c-26.938-2.978-54.264-.031-81.224 8.76a7.178 7.178 0 0 1-2.231.357z" fill="#7bacdf" opacity="1" data-original="#7bacdf"></path></g><path fill="url(#d)" d="M84 271.426v183.18c0 7.658 7.612 13.032 14.802 10.397 52.018-19.065 104.149-17.084 156.197 5.994L255 257.688c-52.577-23.314-105.238-25.096-157.783-5.406C89.252 255.267 84 262.92 84 271.426z" opacity="1" data-original="url(#d)"></path><path fill="url(#d)" d="M255 257.688v213.309c52-23.059 104.131-25.075 156.198-5.993 7.19 2.635 14.801-2.74 14.801-10.397V271.426c0-8.506-5.252-16.159-13.217-19.144-52.593-19.708-105.254-17.885-157.782 5.406z" opacity="1" data-original="url(#d)"></path><path fill="url(#e)" d="M382.391 127.391C382.391 57.035 325.357.001 255.001 0 184.798-.001 127.944 56.569 127.61 126.772c-.18 37.752 16.065 71.71 42 95.149 19.78 17.876 30.89 43.417 30.89 70.078V292h109c0-26.927 11.585-52.419 31.454-70.592 25.465-23.291 41.437-56.787 41.437-94.017z" opacity="1" data-original="url(#e)"></path><path fill="url(#t)" d="M150.321 200a128.132 128.132 0 0 0 19.289 21.921c19.78 17.876 30.89 43.417 30.89 70.079h109c0-26.927 11.585-52.419 31.454-70.592A128.117 128.117 0 0 0 359.675 200z" opacity="1" data-original="url(#t)"></path><circle cx="255" cy="350" r="37.5" fill="url(#u)" opacity="1" data-original="url(#u)"></circle><path fill="url(#f)" d="M300.5 351h-91c-10.217 0-18.5-8.283-18.5-18.5s8.283-18.5 18.5-18.5h91c10.217 0 18.5 8.283 18.5 18.5s-8.283 18.5-18.5 18.5z" opacity="1" data-original="url(#f)"></path><path fill="url(#f)" d="M300.5 314h-91c-10.217 0-18.5-8.283-18.5-18.5s8.283-18.5 18.5-18.5h91c10.217 0 18.5 8.283 18.5 18.5s-8.283 18.5-18.5 18.5z" opacity="1" data-original="url(#f)"></path><circle cx="255" cy="185.667" r="77.576" fill="url(#x)" opacity="1" data-original="url(#x)"></circle><path fill="url(#e)" d="M427.607 117.23c0-8.852 7.176-16.028 16.028-16.028h33.329c8.852 0 16.028 7.176 16.028 16.028 0 8.852-7.176 16.028-16.028 16.028h-33.329c-8.852-.001-16.028-7.177-16.028-16.028z" opacity="1" data-original="url(#e)"></path><path fill="url(#e)" d="M416.686 75.928c-6.259-6.259-6.259-16.407 0-22.667l23.567-23.567c6.259-6.259 16.407-6.259 22.667 0 6.259 6.259 6.259 16.407 0 22.667l-23.567 23.567c-6.26 6.259-16.408 6.259-22.667 0z" opacity="1" data-original="url(#e)"></path><path fill="url(#e)" d="M416.686 158.531c6.259-6.259 16.407-6.259 22.667 0l23.567 23.567c6.259 6.259 6.259 16.407 0 22.667-6.259 6.259-16.407 6.259-22.667 0l-23.567-23.567c-6.259-6.259-6.259-16.408 0-22.667z" opacity="1" data-original="url(#e)"></path><path fill="url(#e)" d="M82.393 117.23c0-8.852-7.176-16.028-16.028-16.028H33.036c-8.852 0-16.028 7.176-16.028 16.028 0 8.852 7.176 16.028 16.028 16.028h33.329c8.852-.001 16.028-7.177 16.028-16.028z" opacity="1" data-original="url(#e)"></path><path fill="url(#e)" d="M93.314 75.928c6.259-6.259 6.259-16.407 0-22.667L69.747 29.694c-6.259-6.259-16.407-6.259-22.667 0-6.259 6.259-6.259 16.407 0 22.667l23.567 23.567c6.26 6.259 16.408 6.259 22.667 0z" opacity="1" data-original="url(#e)"></path><path fill="url(#e)" d="M93.314 158.531c-6.259-6.259-16.407-6.259-22.667 0L47.08 182.098c-6.259 6.259-6.259 16.407 0 22.667 6.259 6.259 16.407 6.259 22.667 0l23.567-23.567c6.26-6.259 6.259-16.408 0-22.667z" opacity="1" data-original="url(#e)"></path></g></svg>