<svg xmlns="http://www.w3.org/2000/svg" version="1.1" xmlns:xlink="http://www.w3.org/1999/xlink" width="512"
  height="512" x="0" y="0" viewBox="0 0 512.009 512.009" style="enable-background:new 0 0 512 512" xml:space="preserve"
  class="">
  <g>
    <path fill="#79cb9c"
      d="M432.008 40h-162.75c-10.68 0-20.73 4.16-28.28 11.72L10.838 281.86c-14.458 14.458-14.444 37.836 0 52.28l167.03 167.03c14.459 14.458 37.836 14.444 52.28 0 120.064-120.051 67.046-67.033 230.14-230.14 7.56-7.56 11.72-17.6 11.72-28.28V80c0-22.06-17.94-40-40-40zm-56 128c-17.65 0-32-14.36-32-32s14.35-32 32-32 32 14.36 32 32-14.35 32-32 32z"
      opacity="1" data-original="#79cb9c" class=""></path>
    <path fill="#63ac7d"
      d="M432.008 40h-40c22.06 0 40 17.94 40 40v162.75c0 10.68-4.16 20.72-11.72 28.28-248.691 248.71-231.108 231.752-236.28 235.094 13.974 9.03 33.327 7.859 46.14-4.954 120.064-120.051 67.046-67.033 230.14-230.14 7.56-7.56 11.72-17.6 11.72-28.28V80c0-22.06-17.94-40-40-40z"
      opacity="1" data-original="#63ac7d"></path>
    <path fill="#f1cc76"
      d="M376.008 144c-7.064 0-10.711-8.602-5.657-13.657l128-128a8.001 8.001 0 0 1 11.313 0 7.999 7.999 0 0 1 0 11.314l-128 128a7.97 7.97 0 0 1-5.656 2.343z"
      opacity="1" data-original="#f1cc76"></path>
  </g>
</svg>