<svg xmlns="http://www.w3.org/2000/svg" version="1.1" xmlns:xlink="http://www.w3.org/1999/xlink" width="512" height="512" x="0" y="0" viewBox="0 0 510 510" style="enable-background:new 0 0 512 512" xml:space="preserve" class=""><g><linearGradient id="e" x1="408.043" x2="408.043" y1="126.316" y2="296.019" gradientUnits="userSpaceOnUse"><stop offset="0" stop-color="#bce097"></stop><stop offset="1" stop-color="#7dc03a"></stop></linearGradient><linearGradient id="a"><stop offset="0" stop-color="#8cc951" stop-opacity="0"></stop><stop offset="1" stop-color="#3e6e66"></stop></linearGradient><linearGradient xlink:href="#a" id="f" x1="402.625" x2="306.125" y1="236.468" y2="195.968" gradientUnits="userSpaceOnUse"></linearGradient><linearGradient xlink:href="#a" id="g" x1="431.113" x2="431.113" y1="257.333" y2="293.334" gradientUnits="userSpaceOnUse"></linearGradient><linearGradient id="h" x1="143.737" x2="248.99" y1="71.196" y2="328.333" gradientUnits="userSpaceOnUse"><stop offset="0" stop-color="#76ccf8"></stop><stop offset=".833" stop-color="#518ef8"></stop><stop offset="1" stop-color="#4981f8"></stop></linearGradient><linearGradient id="i" x1="136.348" x2="136.348" y1="248" y2="279.065" gradientUnits="userSpaceOnUse"><stop offset="0" stop-color="#4071f7" stop-opacity="0"></stop><stop offset="1" stop-color="#30569f"></stop></linearGradient><linearGradient id="j" x1="383.284" x2="383.284" y1="310.732" y2="557.491" gradientUnits="userSpaceOnUse"><stop offset="0" stop-color="#f7e07d"></stop><stop offset=".289" stop-color="#f3cf6f"></stop><stop offset=".862" stop-color="#e9a24b"></stop><stop offset="1" stop-color="#e69642"></stop></linearGradient><linearGradient id="b"><stop offset="0" stop-color="#d52c1c" stop-opacity="0"></stop><stop offset=".28" stop-color="#d12c1e" stop-opacity=".28"></stop><stop offset=".574" stop-color="#c42c23" stop-opacity=".574"></stop><stop offset=".872" stop-color="#af2b2c" stop-opacity=".872"></stop><stop offset="1" stop-color="#a42b31"></stop></linearGradient><linearGradient xlink:href="#b" id="k" x1="383.284" x2="383.284" y1="449" y2="511.29" gradientUnits="userSpaceOnUse"></linearGradient><linearGradient xlink:href="#b" id="l" x1="411.07" x2="248.07" y1="454.757" y2="407.757" gradientUnits="userSpaceOnUse"></linearGradient><linearGradient id="m" x1="192.64" x2="192.64" y1="302.407" y2="474.905" gradientUnits="userSpaceOnUse"><stop offset="0" stop-color="#dc4955"></stop><stop offset="1" stop-color="#c4237c"></stop></linearGradient><linearGradient id="n" x1="192.64" x2="192.64" y1="419" y2="464.1" gradientUnits="userSpaceOnUse"><stop offset="0" stop-color="#8a1958" stop-opacity="0"></stop><stop offset="1" stop-color="#8a1958"></stop></linearGradient><linearGradient id="c"><stop offset="0" stop-color="#eef4ff"></stop><stop offset="1" stop-color="#cfe7fd"></stop></linearGradient><linearGradient xlink:href="#c" id="o" x1="144.841" x2="165.164" y1="381.313" y2="401.635" gradientUnits="userSpaceOnUse"></linearGradient><linearGradient xlink:href="#c" id="p" x1="184.728" x2="205.05" y1="381.313" y2="401.635" gradientUnits="userSpaceOnUse"></linearGradient><linearGradient xlink:href="#c" id="q" x1="224.615" x2="244.937" y1="381.313" y2="401.635" gradientUnits="userSpaceOnUse"></linearGradient><linearGradient xlink:href="#c" id="r" x1="81.701" x2="119.23" y1="128.014" y2="165.542" gradientUnits="userSpaceOnUse"></linearGradient><linearGradient xlink:href="#c" id="s" x1="155.358" x2="192.886" y1="128.014" y2="165.542" gradientUnits="userSpaceOnUse"></linearGradient><linearGradient xlink:href="#c" id="t" x1="229.014" x2="266.542" y1="128.014" y2="165.542" gradientUnits="userSpaceOnUse"></linearGradient><linearGradient xlink:href="#c" id="u" x1="318.329" x2="345.946" y1="391.009" y2="418.625" gradientUnits="userSpaceOnUse"></linearGradient><linearGradient xlink:href="#c" id="v" x1="372.532" x2="400.148" y1="391.009" y2="418.625" gradientUnits="userSpaceOnUse"></linearGradient><linearGradient xlink:href="#c" id="w" x1="426.734" x2="454.351" y1="391.009" y2="418.625" gradientUnits="userSpaceOnUse"></linearGradient><linearGradient id="d"><stop offset="0" stop-color="#8aaadc" stop-opacity="0"></stop><stop offset="1" stop-color="#8aaadc"></stop></linearGradient><linearGradient xlink:href="#d" id="x" x1="349.968" x2="295.968" y1="430.532" y2="376.532" gradientUnits="userSpaceOnUse"></linearGradient><linearGradient xlink:href="#c" id="y" x1="360.244" x2="380.567" y1="188.661" y2="208.983" gradientUnits="userSpaceOnUse"></linearGradient><linearGradient xlink:href="#d" id="z" x1="409.792" x2="345.003" y1="238.208" y2="173.42" gradientUnits="userSpaceOnUse"></linearGradient><linearGradient xlink:href="#c" id="A" x1="400.131" x2="420.453" y1="188.661" y2="208.983" gradientUnits="userSpaceOnUse"></linearGradient><linearGradient xlink:href="#c" id="B" x1="440.017" x2="460.34" y1="188.661" y2="208.983" gradientUnits="userSpaceOnUse"></linearGradient><linearGradient xlink:href="#d" id="C" x1="423.942" x2="382.21" y1="224.058" y2="182.326" gradientUnits="userSpaceOnUse"></linearGradient><path fill="url(#e)" d="M387.236 116.19h41.615c44.817 0 81.149 36.332 81.149 81.149s-36.332 81.149-81.149 81.149h-41.615c-4.719 0-9.337-.426-13.835-1.199l-24.506 12.173c-6.092 3.026-13.105-1.938-12.275-8.69l2.247-18.274c-19.891-14.79-32.781-38.467-32.781-65.159 0-44.818 36.332-81.149 81.15-81.149z" opacity="1" data-original="url(#e)"></path><path fill="url(#f)" d="M339.952 131.408c-20.5 14.729-33.866 38.761-33.866 65.931 0 26.692 12.89 50.369 32.781 65.159l-2.247 18.274c-.83 6.752 6.182 11.716 12.275 8.69l24.506-12.173a81.604 81.604 0 0 0 13.835 1.199h41.615c16.535 0 31.906-4.957 44.732-13.449z" opacity="1" data-original="url(#f)"></path><path fill="url(#g)" d="M488.825 252h-66.466L373.4 277.289a81.595 81.595 0 0 0 13.835 1.199h41.615c23.761 0 45.134-10.214 59.975-26.488z" opacity="1" data-original="url(#g)"></path><path fill="url(#h)" d="M204.656 0h-69.375C60.567 0 0 60.567 0 135.281s60.567 135.281 135.281 135.281h69.375c7.867 0 15.565-.709 23.064-1.998l40.852 20.293c10.156 5.045 21.847-3.231 20.463-14.487l-3.746-30.464c33.16-24.655 54.648-64.128 54.648-108.624C339.938 60.568 279.37 0 204.656 0z" opacity="1" data-original="url(#h)" class=""></path><path fill="url(#i)" d="M44.976 236c23.948 21.487 55.598 34.562 90.305 34.562h69.375c7.867 0 15.565-.709 23.064-1.998L178.325 236z" opacity="1" data-original="url(#i)"></path><path fill="url(#j)" d="M357.424 510h51.721C464.845 510 510 464.845 510 409.145c0-55.701-45.154-100.855-100.855-100.855h-51.721c-5.865 0-11.604.529-17.195 1.49l-30.456-15.129c-7.572-3.761-16.287 2.409-15.255 10.8l2.793 22.712c-24.721 18.381-40.741 47.809-40.741 80.982C256.568 464.845 301.723 510 357.424 510z" opacity="1" data-original="url(#j)"></path><path fill="url(#k)" d="M259.847 434.732C271.172 478.041 310.564 510 357.424 510h51.721c46.859 0 86.251-31.959 97.577-75.268z" opacity="1" data-original="url(#k)"></path><path fill="url(#l)" d="M281.659 342.595c-15.614 17.759-25.091 41.043-25.091 66.549 0 55.701 45.155 100.855 100.856 100.855h51.721c11.942 0 23.397-2.081 34.028-5.891z" opacity="1" data-original="url(#l)"></path><path fill="url(#m)" d="M213.448 467.702h-41.615c-44.817 0-81.149-36.332-81.149-81.149s36.332-81.149 81.149-81.149h41.615c4.719 0 9.337.426 13.835 1.199l24.506-12.173c6.092-3.026 13.105 1.938 12.275 8.69l-2.247 18.274c19.891 14.79 32.781 38.467 32.781 65.159-.001 44.818-36.333 81.149-81.15 81.149z" opacity="1" data-original="url(#m)"></path><path fill="url(#n)" d="M92.127 401.761c7.122 37.545 40.088 65.941 79.705 65.941h41.615c39.617 0 72.584-28.396 79.705-65.941z" opacity="1" data-original="url(#n)"></path><circle cx="152.754" cy="389.225" r="14.316" fill="url(#o)" opacity="1" data-original="url(#o)"></circle><circle cx="192.64" cy="389.225" r="14.316" fill="url(#p)" opacity="1" data-original="url(#p)"></circle><circle cx="232.527" cy="389.225" r="14.316" fill="url(#q)" opacity="1" data-original="url(#q)"></circle><circle cx="96.313" cy="142.625" r="26.436" fill="url(#r)" opacity="1" data-original="url(#r)"></circle><circle cx="169.969" cy="142.625" r="26.436" fill="url(#s)" opacity="1" data-original="url(#s)"></circle><circle cx="243.625" cy="142.625" r="26.436" fill="url(#t)" opacity="1" data-original="url(#t)" class=""></circle><circle cx="329.082" cy="401.761" r="19.454" fill="url(#u)" opacity="1" data-original="url(#u)"></circle><circle cx="383.284" cy="401.761" r="19.454" fill="url(#v)" opacity="1" data-original="url(#v)"></circle><circle cx="437.486" cy="401.761" r="19.454" fill="url(#w)" opacity="1" data-original="url(#w)"></circle><path fill="url(#x)" d="M322.528 383.464c-7.514 2.693-12.9 9.857-12.9 18.298 0 10.744 8.71 19.454 19.454 19.454 8.441 0 15.605-5.385 18.298-12.9z" opacity="1" data-original="url(#x)"></path><circle cx="368.156" cy="196.573" r="14.316" fill="url(#y)" opacity="1" data-original="url(#y)"></circle><circle cx="368.156" cy="196.573" r="14.316" fill="url(#z)" opacity="1" data-original="url(#z)"></circle><circle cx="408.043" cy="196.573" r="14.316" fill="url(#A)" opacity="1" data-original="url(#A)"></circle><circle cx="447.93" cy="196.573" r="14.316" fill="url(#B)" opacity="1" data-original="url(#B)"></circle><path fill="url(#C)" d="M396.575 188.031a14.234 14.234 0 0 0-2.847 8.542c0 7.906 6.409 14.316 14.316 14.316 3.206 0 6.156-1.067 8.542-2.847z" opacity="1" data-original="url(#C)"></path></g></svg>