<svg xmlns="http://www.w3.org/2000/svg" xmlns:xlink="http://www.w3.org/1999/xlink" xmlns:svgjs="http://svgjs.com/svgjs" version="1.1" x="0" y="0" style="enable-background:new 0 0 512 512" xml:space="preserve" class="" viewBox="68.63 0 372.75 510"><g><linearGradient xmlns="http://www.w3.org/2000/svg" id="lg1"><stop offset="0" stop-color="#883f2e"/><stop offset="1" stop-color="#433f43"/></linearGradient><linearGradient xmlns="http://www.w3.org/2000/svg" xmlns:xlink="http://www.w3.org/1999/xlink" id="SVGID_1_" gradientUnits="userSpaceOnUse" x1="255" x2="255" xlink:href="#lg1" y1="21.333" y2="98.347"/><linearGradient xmlns="http://www.w3.org/2000/svg" id="lg2"><stop offset="0" stop-color="#433f43" stop-opacity="0"/><stop offset="1" stop-color="#1a1a1a"/></linearGradient><linearGradient xmlns="http://www.w3.org/2000/svg" xmlns:xlink="http://www.w3.org/1999/xlink" id="SVGID_00000022560759305250324120000005881346200019483265_" gradientUnits="userSpaceOnUse" x1="255" x2="255" xlink:href="#lg2" y1="21.333" y2="98.347"/><linearGradient xmlns="http://www.w3.org/2000/svg" id="lg3"><stop offset="0" stop-color="#f9f5f3"/><stop offset="1" stop-color="#efe2dd"/></linearGradient><linearGradient xmlns="http://www.w3.org/2000/svg" xmlns:xlink="http://www.w3.org/1999/xlink" id="SVGID_00000176026558150314443880000015517788633112676525_" gradientUnits="userSpaceOnUse" x1="255" x2="255" xlink:href="#lg3" y1="480.667" y2="500.844"/><linearGradient xmlns="http://www.w3.org/2000/svg" id="lg4"><stop offset="0" stop-color="#9e9797" stop-opacity="0"/><stop offset=".3107" stop-color="#979090" stop-opacity=".311"/><stop offset=".7858" stop-color="#817a7a" stop-opacity=".786"/><stop offset="1" stop-color="#766e6e"/></linearGradient><linearGradient xmlns="http://www.w3.org/2000/svg" xmlns:xlink="http://www.w3.org/1999/xlink" id="SVGID_00000094617285579707396670000011499090320678481280_" gradientUnits="userSpaceOnUse" x1="255" x2="255" xlink:href="#lg4" y1="479.333" y2="515.335"/><linearGradient xmlns="http://www.w3.org/2000/svg" xmlns:xlink="http://www.w3.org/1999/xlink" id="SVGID_00000166675364936241038250000017191848947856395680_" gradientUnits="userSpaceOnUse" x1="159" x2="267.78" xlink:href="#lg3" y1="274.195" y2="274.195"/><linearGradient xmlns="http://www.w3.org/2000/svg" xmlns:xlink="http://www.w3.org/1999/xlink" id="SVGID_00000171714851154971810450000000056409578158175878_" gradientUnits="userSpaceOnUse" x1="254.981" x2="254.981" xlink:href="#lg4" y1="173" y2="101.656"/><linearGradient xmlns="http://www.w3.org/2000/svg" xmlns:xlink="http://www.w3.org/1999/xlink" id="SVGID_00000157267652064080095340000014907535621639835788_" gradientUnits="userSpaceOnUse" x1="255" x2="255" xlink:href="#lg4" y1="429" y2="495.03"/><linearGradient xmlns="http://www.w3.org/2000/svg" xmlns:xlink="http://www.w3.org/1999/xlink" id="SVGID_00000062883290685518522150000017557343783771291281_" gradientUnits="userSpaceOnUse" x1="255" x2="255" xlink:href="#lg4" y1="400" y2="370.983"/><linearGradient xmlns="http://www.w3.org/2000/svg" id="lg5"><stop offset="0" stop-color="#f89580"/><stop offset="1" stop-color="#c4573a"/></linearGradient><linearGradient xmlns="http://www.w3.org/2000/svg" xmlns:xlink="http://www.w3.org/1999/xlink" id="SVGID_00000062155800504610052440000003281453369182228363_" gradientUnits="userSpaceOnUse" x1="159.097" x2="321.097" xlink:href="#lg5" y1="230.202" y2="298.869"/><linearGradient xmlns="http://www.w3.org/2000/svg" id="lg6"><stop offset="0" stop-color="#c4573a" stop-opacity="0"/><stop offset="1" stop-color="#883f2e"/></linearGradient><linearGradient xmlns="http://www.w3.org/2000/svg" xmlns:xlink="http://www.w3.org/1999/xlink" id="SVGID_00000065784800873205667450000008432677321810996896_" gradientUnits="userSpaceOnUse" x1="255" x2="255" xlink:href="#lg6" y1="344.667" y2="380.673"/><linearGradient xmlns="http://www.w3.org/2000/svg" xmlns:xlink="http://www.w3.org/1999/xlink" id="SVGID_00000160162201530297450250000012113859116053127866_" gradientUnits="userSpaceOnUse" x1="298.906" x2="241.906" xlink:href="#lg6" y1="236.483" y2="20.483"/><linearGradient xmlns="http://www.w3.org/2000/svg" xmlns:xlink="http://www.w3.org/1999/xlink" id="SVGID_00000124856418632571139910000013284416277546296464_" gradientUnits="userSpaceOnUse" x1="392.659" x2="205.771" xlink:href="#lg2" y1="411.873" y2="224.984"/><linearGradient xmlns="http://www.w3.org/2000/svg" id="SVGID_00000019671073235857915370000017236879011818201773_" gradientUnits="userSpaceOnUse" x1="214.8" x2="310.93" y1="233.995" y2="330.125"><stop offset="0" stop-color="#f2f2f2"/><stop offset="1" stop-color="#fff5c6"/></linearGradient><linearGradient xmlns="http://www.w3.org/2000/svg" id="SVGID_00000142150778921042656230000016522643067460298132_" gradientUnits="userSpaceOnUse" x1="323.393" x2="215.389" y1="342.607" y2="234.602"><stop offset="0" stop-color="#fea613" stop-opacity="0"/><stop offset=".1832" stop-color="#fc9b19" stop-opacity=".183"/><stop offset=".5086" stop-color="#f57d28" stop-opacity=".509"/><stop offset=".9356" stop-color="#eb4c40" stop-opacity=".936"/><stop offset="1" stop-color="#e94444"/></linearGradient><linearGradient xmlns="http://www.w3.org/2000/svg" xmlns:xlink="http://www.w3.org/1999/xlink" id="SVGID_00000170962746629284225090000011068956287941466251_" gradientUnits="userSpaceOnUse" x1="255" x2="255" xlink:href="#lg1" y1="65.493" y2="117.296"/><linearGradient xmlns="http://www.w3.org/2000/svg" xmlns:xlink="http://www.w3.org/1999/xlink" id="SVGID_00000124871085913674715120000008219232794994157968_" gradientUnits="userSpaceOnUse" x1="255" x2="255" xlink:href="#lg2" y1="65.493" y2="117.296"/><linearGradient xmlns="http://www.w3.org/2000/svg" xmlns:xlink="http://www.w3.org/1999/xlink" id="SVGID_00000125578803304244585760000011395345837365526963_" gradientUnits="userSpaceOnUse" x1="250.833" x2="256.383" xlink:href="#lg5" y1="234.611" y2="287.33"/><linearGradient xmlns="http://www.w3.org/2000/svg" xmlns:xlink="http://www.w3.org/1999/xlink" id="SVGID_00000061441878687715525240000004960026054304453527_" gradientTransform="matrix(.707 .707 -.707 .707 -1073.989 -201.655)" gradientUnits="userSpaceOnUse" x1="1310.153" x2="1257.608" xlink:href="#lg6" y1="-626.133" y2="-582.432"/><linearGradient xmlns="http://www.w3.org/2000/svg" xmlns:xlink="http://www.w3.org/1999/xlink" id="SVGID_00000176022862646327753260000015325482192220815788_" gradientTransform="matrix(.707 .707 -.707 .707 -1073.989 -201.655)" gradientUnits="userSpaceOnUse" x1="1288.7" x2="1322.012" xlink:href="#lg6" y1="-603.26" y2="-603.26"/><linearGradient xmlns="http://www.w3.org/2000/svg" xmlns:xlink="http://www.w3.org/1999/xlink" id="SVGID_00000147906365294970165880000006246826994289591191_" gradientTransform="matrix(.707 .707 -.707 .707 -1073.989 -201.655)" gradientUnits="userSpaceOnUse" x1="1276.214" x2="1276.214" xlink:href="#lg6" y1="-585.572" y2="-541.241"/><g xmlns="http://www.w3.org/2000/svg"><g><path d="m422.49 73.256h-334.98l11.967-56.907c2.085-9.915 11.075-16.839 21.194-16.322l271.245 13.85c8.931.456 16.546 6.626 18.844 15.268z" fill="url(#SVGID_1_)" data-original="url(#SVGID_1_)"/><path d="m422.49 73.256h-334.98l11.967-56.907c2.085-9.915 11.075-16.839 21.194-16.322l271.245 13.85c8.931.456 16.546 6.626 18.844 15.268z" fill="url(#SVGID_00000022560759305250324120000005881346200019483265_)" data-original="url(#SVGID_00000022560759305250324120000005881346200019483265_)"/><path d="m360.034 510h-210.068c-11.681 0-21.151-9.469-21.151-21.151v-18.64h252.369v18.64c.001 11.682-9.469 21.151-21.15 21.151z" fill="url(#SVGID_00000176026558150314443880000015517788633112676525_)" data-original="url(#SVGID_00000176026558150314443880000015517788633112676525_)"/><path d="m360.034 510h-210.068c-11.681 0-21.151-9.469-21.151-21.151v-18.64h252.369v18.64c.001 11.682-9.469 21.151-21.15 21.151z" fill="url(#SVGID_00000094617285579707396670000011499090320678481280_)" data-original="url(#SVGID_00000094617285579707396670000011499090320678481280_)"/><path d="m374.293 477.703h-238.586c-10.559 0-19.361-8.084-20.257-18.605l-33.096-388.412h345.292l-33.095 388.413c-.897 10.521-9.699 18.604-20.258 18.604z" fill="url(#SVGID_00000166675364936241038250000017191848947856395680_)" data-original="url(#SVGID_00000166675364936241038250000017191848947856395680_)"/><path d="m397.543 423.981 27.217-319.431-339.559-.45.702 8.242z" fill="url(#SVGID_00000171714851154971810450000000056409578158175878_)" data-original="url(#SVGID_00000171714851154971810450000000056409578158175878_)"/><path d="m104.052 325.333 11.398 133.765c.896 10.521 9.698 18.605 20.257 18.605h238.586c10.559 0 19.361-8.083 20.257-18.605l11.398-133.765z" fill="url(#SVGID_00000157267652064080095340000014907535621639835788_)" data-original="url(#SVGID_00000157267652064080095340000014907535621639835788_)"/><path d="m104.052 325.333 11.398 133.765c.896 10.521 9.698 18.605 20.257 18.605h238.586c10.559 0 19.361-8.083 20.257-18.605l11.398-133.765z" fill="url(#SVGID_00000062883290685518522150000017557343783771291281_)" data-original="url(#SVGID_00000062883290685518522150000017557343783771291281_)"/><path d="m406.679 365.204 15.767-180.003c.591-6.748-4.727-12.552-11.501-12.552h-311.89c-6.774 0-12.092 5.805-11.501 12.552l15.767 180.003c.522 5.963 5.515 10.538 11.501 10.538h280.356c5.986-.001 10.979-4.575 11.501-10.538z" fill="url(#SVGID_00000062155800504610052440000003281453369182228363_)" data-original="url(#SVGID_00000062155800504610052440000003281453369182228363_)"/><path d="m96.659 289.148 6.662 76.056c.522 5.963 5.515 10.538 11.501 10.538h280.356c5.986 0 10.979-4.575 11.501-10.538l6.662-76.056z" fill="url(#SVGID_00000065784800873205667450000008432677321810996896_)" data-original="url(#SVGID_00000065784800873205667450000008432677321810996896_)"/><path d="m418.702 175.649c-2.043-1.857-4.755-3.001-7.758-3.001h-264.734l203.093 203.093h45.875c2.472 0 4.768-.789 6.656-2.125z" fill="url(#SVGID_00000160162201530297450250000012113859116053127866_)" data-original="url(#SVGID_00000160162201530297450250000012113859116053127866_)"/><path d="m303.567 224.564-98.217 98.217 52.961 52.961h136.867c5.986 0 10.979-4.575 11.501-10.538l3.022-34.505z" fill="url(#SVGID_00000124856418632571139910000013284416277546296464_)" data-original="url(#SVGID_00000124856418632571139910000013284416277546296464_)"/><circle cx="255" cy="274.195" fill="url(#SVGID_00000019671073235857915370000017236879011818201773_)" r="84.506" data-original="url(#SVGID_00000019671073235857915370000017236879011818201773_)"/><path d="m205.35 322.781 34.548 34.548c4.903.885 9.944 1.372 15.102 1.372 46.672 0 84.506-37.835 84.506-84.506 0-5.142-.484-10.167-1.364-15.056l-34.575-34.575z" fill="url(#SVGID_00000142150778921042656230000016522643067460298132_)" data-original="url(#SVGID_00000142150778921042656230000016522643067460298132_)"/><path d="m424.349 111.423h-338.698c-10.796 0-18.863-9.922-16.661-20.491l4.87-23.374c1.644-7.892 8.6-13.547 16.661-13.547h328.957c8.061 0 15.017 5.656 16.661 13.547l4.87 23.374c2.203 10.569-5.865 20.491-16.66 20.491z" fill="url(#SVGID_00000170962746629284225090000011068956287941466251_)" data-original="url(#SVGID_00000170962746629284225090000011068956287941466251_)"/><path d="m424.349 111.423h-338.698c-10.796 0-18.863-9.922-16.661-20.491l4.87-23.374c1.644-7.892 8.6-13.547 16.661-13.547h328.957c8.061 0 15.017 5.656 16.661 13.547l4.87 23.374c2.203 10.569-5.865 20.491-16.66 20.491z" fill="url(#SVGID_00000124871085913674715120000008219232794994157968_)" data-original="url(#SVGID_00000124871085913674715120000008219232794994157968_)"/></g><g><path d="m290.038 309.233c-27.122 27.122-64.795 33.421-84.146 14.07s-13.051-57.025 14.07-84.146 64.795-33.421 84.146-14.07c19.351 19.35 13.052 57.024-14.07 84.146z" fill="url(#SVGID_00000125578803304244585760000011395345837365526963_)" data-original="url(#SVGID_00000125578803304244585760000011395345837365526963_)"/><path d="m304.108 225.086c-.178-.178-.36-.349-.541-.522-16.41.769-29.468 14.391-29.325 31.023.18 20.978-16.872 38.029-37.85 37.85-16.632-.142-30.253 12.916-31.023 29.325.173.181.345.363.522.541 19.351 19.351 57.025 13.051 84.146-14.07 27.123-27.122 33.422-64.796 14.071-84.147z" fill="url(#SVGID_00000061441878687715525240000004960026054304453527_)" data-original="url(#SVGID_00000061441878687715525240000004960026054304453527_)"/><path d="m304.108 225.086c-.178-.178-.36-.349-.541-.522-16.41.769-29.468 14.391-29.325 31.023.18 20.978-16.872 38.029-37.85 37.85-16.632-.142-30.253 12.916-31.023 29.325.173.181.345.363.522.541 19.351 19.351 57.025 13.051 84.146-14.07 27.123-27.122 33.422-64.796 14.071-84.147z" fill="url(#SVGID_00000176022862646327753260000015325482192220815788_)" data-original="url(#SVGID_00000176022862646327753260000015325482192220815788_)"/><path d="m212.67 247.315c-20.807 26.095-24.253 58.513-6.778 75.988s49.893 14.029 75.988-6.778z" fill="url(#SVGID_00000147906365294970165880000006246826994289591191_)" data-original="url(#SVGID_00000147906365294970165880000006246826994289591191_)"/></g></g></g></svg>