<svg xmlns="http://www.w3.org/2000/svg" version="1.1" xmlns:xlink="http://www.w3.org/1999/xlink" xmlns:svgjs="http://svgjs.com/svgjs" width="512" height="512" x="0" y="0" viewBox="0 0 512.001 512.001" style="enable-background:new 0 0 512 512" xml:space="preserve" class=""><g><path xmlns="http://www.w3.org/2000/svg" d="m403.717 368.339-22.205-235.89c-2.679-28.217-26.376-49.771-54.72-49.771h-18.973-103.637-18.972c-28.345 0-52.041 21.553-54.721 49.771l-22.205 235.89z" fill="#ff656f" data-original="#ff656f"></path><path xmlns="http://www.w3.org/2000/svg" d="m233.586 82.678h-29.403-18.973c-28.345 0-52.041 21.553-54.721 49.771l-22.205 235.89h48.376l22.205-235.89c2.679-28.217 26.376-49.771 54.721-49.771z" fill="#ff4756" data-original="#ff4756" class=""></path><g xmlns="http://www.w3.org/2000/svg" fill="#ff656f"><path d="m408.503 78.881c-2.346-3.488-1.42-8.217 2.068-10.564l33.596-22.597c3.487-2.345 8.218-1.421 10.563 2.068 2.346 3.488 1.42 8.217-2.068 10.564l-33.596 22.597c-3.492 2.348-8.22 1.417-10.563-2.068z" fill="#ff656f" data-original="#ff656f"></path><path d="m462.863 138.241-39.734-7.778c-4.125-.808-6.815-4.807-6.007-8.932.808-4.126 4.808-6.814 8.932-6.008l39.734 7.778c4.125.808 6.815 4.807 6.007 8.932-.804 4.108-4.783 6.815-8.932 6.008z" fill="#ff656f" data-original="#ff656f"></path><path d="m372.25 54.817c-4.125-.808-6.815-4.807-6.007-8.932l7.778-39.735c.808-4.126 4.805-6.813 8.932-6.008 4.125.808 6.815 4.807 6.007 8.932l-7.779 39.735c-.803 4.108-4.782 6.816-8.931 6.008z" fill="#ff656f" data-original="#ff656f"></path><path d="m92.934 80.949-33.596-22.596c-3.488-2.347-4.414-7.076-2.068-10.564 2.346-3.489 7.076-4.412 10.563-2.068l33.596 22.597c3.488 2.347 4.414 7.076 2.068 10.564-2.343 3.484-7.07 4.415-10.563 2.067z" fill="#ff656f" data-original="#ff656f"></path><path d="m40.206 132.233c-.808-4.125 1.882-8.124 6.007-8.932l39.734-7.778c4.125-.801 8.124 1.882 8.932 6.008.808 4.125-1.882 8.124-6.007 8.932l-39.734 7.778c-4.144.807-8.127-1.897-8.932-6.008z" fill="#ff656f" data-original="#ff656f"></path><path d="m130.818 48.809-7.778-39.735c-.808-4.125 1.882-8.124 6.007-8.932 4.125-.805 8.124 1.882 8.932 6.008l7.778 39.735c.808 4.125-1.882 8.124-6.007 8.932-4.144.808-8.127-1.896-8.932-6.008z" fill="#ff656f" data-original="#ff656f"></path></g><path xmlns="http://www.w3.org/2000/svg" d="m255.999 131.133c-19.767 0-23.418 18.466-22.321 37.488l3.017 67.319c4.278 21.034 34.343 20.984 38.611 0l3.017-67.319c1.097-20.522-2.55-37.488-22.324-37.488z" fill="#dfebfa" data-original="#dfebfa"></path><circle xmlns="http://www.w3.org/2000/svg" cx="256" cy="299.45" fill="#dfebfa" r="21.698" data-original="#dfebfa"></circle><path xmlns="http://www.w3.org/2000/svg" d="m261.728 235.94-3.017-67.319c-.812-14.073.984-27.833 9.974-34.045-3.209-2.202-7.358-3.443-12.686-3.443-19.767 0-23.419 18.466-22.321 37.488l3.017 67.319c3.255 16.002 21.425 19.788 31.816 11.449-3.26-2.62-5.761-6.426-6.783-11.449z" fill="#b4dbff" data-original="#b4dbff"></path><path xmlns="http://www.w3.org/2000/svg" d="m259.336 299.45c0-7.317 3.633-13.774 9.181-17.704-3.539-2.506-7.85-3.994-12.517-3.994-11.983 0-21.698 9.714-21.698 21.698 0 11.983 9.714 21.698 21.698 21.698 4.667 0 8.978-1.487 12.517-3.994-5.548-3.93-9.181-10.387-9.181-17.704z" fill="#b4dbff" data-original="#b4dbff"></path><path xmlns="http://www.w3.org/2000/svg" d="m416.824 391.468c-2.461 1.968-5.571 3.154-8.948 3.154h-303.752c-3.377 0-6.486-1.187-8.948-3.154-23.134 14.692-38.604 44.552-38.704 73.815h399.055c-.099-29.263-15.568-59.122-38.703-73.815z" fill="#685e68" data-original="#685e68"></path><path xmlns="http://www.w3.org/2000/svg" d="m143.412 394.622h-39.288c-3.377 0-6.486-1.187-8.948-3.154-23.134 14.693-38.604 44.552-38.704 73.815h52.773c.094-27.304 13.571-55.123 34.167-70.661z" fill="#554e56" data-original="#554e56" class=""></path><path xmlns="http://www.w3.org/2000/svg" d="m466.523 463.253h-421.046c-7.911 0-14.384 6.473-14.384 14.384v19.979c0 7.912 6.473 14.384 14.384 14.384h421.046c7.911 0 14.385-6.473 14.385-14.384v-19.979c0-7.911-6.473-14.384-14.385-14.384z" fill="#554e56" data-original="#554e56" class=""></path><path xmlns="http://www.w3.org/2000/svg" d="m83.866 497.616v-19.978c0-7.911 6.473-14.385 14.384-14.385h-52.773c-7.911 0-14.384 6.473-14.384 14.385v19.978c0 7.912 6.473 14.385 14.384 14.385h52.773c-7.911 0-14.384-6.473-14.384-14.385z" fill="#433f43" data-original="#433f43"></path><path xmlns="http://www.w3.org/2000/svg" d="m422.261 382.268v-1.575c0-7.911-6.473-14.385-14.384-14.385h-303.753c-7.911 0-14.384 6.473-14.384 14.385v1.575c0 7.911 6.473 14.384 14.384 14.384h303.753c7.911 0 14.384-6.473 14.384-14.384z" fill="#554e56" data-original="#554e56" class=""></path><path xmlns="http://www.w3.org/2000/svg" d="m142.513 382.268v-1.575c0-7.911 6.473-14.385 14.384-14.385h-52.773c-7.912 0-14.384 6.473-14.384 14.385v1.575c0 7.911 6.473 14.384 14.384 14.384h52.773c-7.911 0-14.384-6.473-14.384-14.384z" fill="#433f43" data-original="#433f43"></path></g></svg>