<svg xmlns="http://www.w3.org/2000/svg" version="1.1" xmlns:xlink="http://www.w3.org/1999/xlink" xmlns:svgjs="http://svgjs.com/svgjs" width="512" height="512" x="0" y="0" viewBox="0 0 512 512" style="enable-background:new 0 0 512 512" xml:space="preserve" class=""><g>
<path xmlns="http://www.w3.org/2000/svg" style="" d="M508.278,256.001c0,77.122-34.355,146.216-88.595,192.821  c-11.877,10.217-24.708,19.345-38.349,27.239c-10.445,6.058-21.368,11.389-32.685,15.922c-11.576,4.637-23.567,8.454-35.911,11.358  c-13.298,3.143-26.99,5.238-41.004,6.193c-5.809,0.405-11.68,0.602-17.592,0.602s-11.784-0.197-17.592-0.602  c-14.014-0.954-27.716-3.05-41.014-6.193c-12.344-2.904-24.335-6.722-35.901-11.358c-11.317-4.533-22.239-9.865-32.685-15.922  c-13.64-7.894-26.482-17.032-38.359-27.239C34.352,402.206,0.007,333.113,0.007,256.001c0-140.355,113.78-254.135,254.135-254.135  S508.278,115.645,508.278,256.001z" fill="#ffcc4e" data-original="#ffcc4e"></path>
<path xmlns="http://www.w3.org/2000/svg" style="" d="M494.337,339.222c-34.459,99.486-128.987,170.914-240.194,170.914  c-40.745,0-79.249-9.585-113.386-26.627C88.249,383.172,46.27,277.524,15.556,168.267C10.401,149.948,5.567,131.516,1.055,113  c-4.896-20.082,7.728-40.268,27.924-44.697c24.428-5.352,48.846-10.715,73.274-16.078C170.454,37.268,238.646,22.3,306.847,7.342  c2.977-0.653,5.964-1.307,8.941-1.96c4.035-0.882,8.07-1.774,12.116-2.655c11.369-2.489,22.654,0.55,31.067,7.375  c6.037,4.875,10.591,11.701,12.613,19.812c0.062,0.249,0.124,0.508,0.197,0.757c4.398,17.572,9.17,35.029,14.315,52.362  c6.244,21.015,13.028,41.844,20.352,62.476C430.191,212.445,459.598,277.244,494.337,339.222z" fill="#f2f2f2" data-original="#f2f2f2" class=""></path>
<g xmlns="http://www.w3.org/2000/svg">
	<path style="" d="M386.096,83.033L286.071,359.843l-21.555-113.936L315.789,5.382   c4.035-0.882,8.07-1.774,12.116-2.655c11.369-2.489,22.654,0.55,31.067,7.375c6.037,4.875,10.591,11.701,12.613,19.812   c0.062,0.249,0.124,0.508,0.197,0.757C376.18,48.242,380.951,65.7,386.096,83.033z" fill="#d5d4e2" data-original="#d5d4e2" class=""></path>
	<path style="" d="M494.337,339.222c-34.459,99.486-128.987,170.914-240.194,170.914   c-40.745,0-79.249-9.585-113.386-26.627c-11.089-21.181-21.7-42.601-31.834-64.239c10.103,7.054,20.735,13.391,31.834,18.931   c34.137,17.043,72.641,26.627,113.386,26.627c101.281,0,188.734-59.25,229.562-144.982   C487.19,326.339,490.738,332.791,494.337,339.222z" fill="#d5d4e2" data-original="#d5d4e2" class=""></path>
	<path style="" d="M79.873,188.861c-6.68,0-12.855-4.336-14.888-11.061c-2.486-8.226,2.165-16.91,10.391-19.396   l267.62-80.908c8.229-2.486,16.91,2.166,19.396,10.391c2.486,8.226-2.165,16.91-10.391,19.396l-267.62,80.908   C82.88,188.644,81.364,188.861,79.873,188.861z" fill="#d5d4e2" data-original="#d5d4e2" class=""></path>
	<path style="" d="M119.299,282.217c-6.284,0-12.202-3.834-14.556-10.06c-3.039-8.038,1.012-17.018,9.05-20.057   l246.874-93.356c8.036-3.04,17.018,1.012,20.057,9.05c3.039,8.038-1.012,17.018-9.05,20.057l-246.874,93.356   C122.987,281.892,121.127,282.217,119.299,282.217z" fill="#d5d4e2" data-original="#d5d4e2" class=""></path>
	<path style="" d="M165.465,382.833c-5.853,0-11.46-3.318-14.104-8.97c-3.641-7.784-0.283-17.046,7.501-20.687   l153-71.573c7.783-3.641,17.045-0.283,20.687,7.501c3.641,7.784,0.283,17.046-7.501,20.687l-153,71.573   C169.916,382.361,167.673,382.833,165.465,382.833z" fill="#d5d4e2" data-original="#d5d4e2" class=""></path>
	<polygon style="" points="403.159,283.307 346.044,320.644 286.074,359.845 284.024,288.228 282.076,220.02    309.911,221.239 384.736,224.538  " fill="#d5d4e2" data-original="#d5d4e2" class=""></polygon>
</g>
<polygon xmlns="http://www.w3.org/2000/svg" style="" points="286.074,359.845 284.024,288.228 282.076,220.02 309.911,221.239 321.643,248.176 " fill="#cbcbd3" data-original="#cbcbd3" class=""></polygon>
<path xmlns="http://www.w3.org/2000/svg" style="" d="M509.314,80.21l-24.363,46.612L363.868,63.534l24.363-46.612  c6.032-11.541,20.276-16.005,31.816-9.974l79.292,41.445C510.88,54.426,515.345,68.67,509.314,80.21z" fill="#cf3067" data-original="#cf3067"></path>
<path xmlns="http://www.w3.org/2000/svg" style="" d="M509.314,80.21l-24.363,46.612l-84.115-43.965l24.363-46.612c6.032-11.54,20.276-16.005,31.816-9.974  l42.326,22.122C510.88,54.426,515.345,68.67,509.314,80.21z" fill="#f14881" data-original="#f14881"></path>
<path xmlns="http://www.w3.org/2000/svg" style="" d="M484.391,127.892l-81.232,155.414c-16.716-8.737-37.356-2.268-46.093,14.448  c8.737-16.716,2.268-37.356-14.448-46.093s-37.356-2.268-46.093,14.448c8.737-16.716,2.268-37.356-14.448-46.093l81.232-155.414  L484.391,127.892z" fill="#2176c4" data-original="#2176c4"></path>
<path xmlns="http://www.w3.org/2000/svg" style="" d="M484.391,127.892l-81.232,155.414c-16.716-8.737-37.356-2.268-46.093,14.448  c8.737-16.716,2.268-37.356-14.448-46.093l81.232-155.414L484.391,127.892z" fill="#72baed" data-original="#72baed" class=""></path>
<path xmlns="http://www.w3.org/2000/svg" style="" d="M454.119,112.071l-97.054,185.685c8.737-16.716,2.268-37.356-14.448-46.093  s-37.356-2.268-46.093,14.448l97.054-185.685L454.119,112.071z" fill="#55ace5" data-original="#55ace5" class=""></path>
<path xmlns="http://www.w3.org/2000/svg" style="" d="M491.891,131.813c-1.86,3.558-4.976,6.021-8.516,7.131c-3.54,1.11-7.506,0.865-11.063-0.994  L361.945,80.264c-7.104-3.713-9.851-12.474-6.138-19.579c1.86-3.558,4.976-6.021,8.516-7.131s7.506-0.865,11.063,0.994  l110.367,57.687C492.858,115.947,495.605,124.709,491.891,131.813z" fill="#cbcbd3" data-original="#cbcbd3" class=""></path>
<path xmlns="http://www.w3.org/2000/svg" style="" d="M491.891,131.813c-1.86,3.558-4.976,6.021-8.516,7.131c-3.54,1.11-7.506,0.865-11.063-0.994  l-77.149-40.325c-7.104-3.713-9.851-12.474-6.138-19.579c1.86-3.558,4.976-6.021,8.516-7.131c3.54-1.11,7.506-0.865,11.063,0.994  l77.149,40.325C492.858,115.947,495.605,124.709,491.891,131.813z" fill="#d5d4e2" data-original="#d5d4e2" class=""></path>
<path xmlns="http://www.w3.org/2000/svg" style="" d="M346.044,320.644l-59.971,39.2l-2.049-71.616c7.927-0.237,15.981,0.85,23.799,3.354  c3.883,1.237,7.704,2.827,11.433,4.776C330.519,302.243,339.56,310.707,346.044,320.644z" fill="#454a5b" data-original="#454a5b"></path>
<path xmlns="http://www.w3.org/2000/svg" style="" d="M286.074,359.845l-2.049-71.616c7.927-0.237,15.981,0.85,23.799,3.354L286.074,359.845z" fill="#33384a" data-original="#33384a"></path>
<g xmlns="http://www.w3.org/2000/svg">
</g>
<g xmlns="http://www.w3.org/2000/svg">
</g>
<g xmlns="http://www.w3.org/2000/svg">
</g>
<g xmlns="http://www.w3.org/2000/svg">
</g>
<g xmlns="http://www.w3.org/2000/svg">
</g>
<g xmlns="http://www.w3.org/2000/svg">
</g>
<g xmlns="http://www.w3.org/2000/svg">
</g>
<g xmlns="http://www.w3.org/2000/svg">
</g>
<g xmlns="http://www.w3.org/2000/svg">
</g>
<g xmlns="http://www.w3.org/2000/svg">
</g>
<g xmlns="http://www.w3.org/2000/svg">
</g>
<g xmlns="http://www.w3.org/2000/svg">
</g>
<g xmlns="http://www.w3.org/2000/svg">
</g>
<g xmlns="http://www.w3.org/2000/svg">
</g>
<g xmlns="http://www.w3.org/2000/svg">
</g>
</g></svg>