<svg xmlns="http://www.w3.org/2000/svg" version="1.1" xmlns:xlink="http://www.w3.org/1999/xlink" xmlns:svgjs="http://svgjs.com/svgjs" width="512" height="512" x="0" y="0" viewBox="0 0 511.026 511.026" style="enable-background:new 0 0 512 512" xml:space="preserve" class=""><g><g xmlns="http://www.w3.org/2000/svg"><g><path d="m255.835 6.622c-86.288-.113-156.599 70.103-156.598 156.391.001 57.362 30.889 107.503 76.936 134.717 8.177 4.833 13.126 13.689 13.126 23.187v38.092c1.514-.633 3.174-.984 4.917-.984h122.822c1.743 0 3.403.352 4.917.984v-38.094c0-9.61 5.134-18.44 13.398-23.347 45.897-27.251 76.664-77.307 76.664-134.558 0-86.301-69.906-156.275-156.182-156.388z" fill="#ffe07d" data-original="#ffe07d" class=""></path><g><path d="m230.632 320.918c0-9.498-4.949-18.355-13.125-23.187-46.047-27.214-76.936-77.355-76.936-134.717-.001-79.226 59.273-144.893 135.762-155.027-6.708-.887-13.549-1.356-20.498-1.365-86.288-.113-156.599 70.103-156.598 156.391.001 57.362 30.889 107.503 76.936 134.717 8.177 4.833 13.126 13.689 13.126 23.187v38.092c1.513-.633 3.174-.984 4.917-.984h36.416z" fill="#ffc250" data-original="#ffc250" class=""></path></g><g><path d="m364.724 132.391c-8.116-30.245-28.967-55.533-57.207-69.38-3.719-1.824-5.256-6.317-3.432-10.036 1.823-3.719 6.318-5.255 10.036-3.432 32.128 15.753 55.853 44.534 65.091 78.96 1.074 4-1.299 8.114-5.3 9.188-3.998 1.073-8.114-1.297-9.188-5.3z" fill="#ffeac8" data-original="#ffeac8"></path></g><path d="m225.341 467.843v5.495c0 16.658 13.629 30.287 30.286 30.287 16.657 0 30.286-13.629 30.286-30.287v-5.495z" fill="#8479c2" data-original="#8479c2" class=""></path><path d="m252.452 473.337v-5.495h-27.112v5.495c0 16.658 13.629 30.287 30.286 30.287 4.866 0 9.47-1.17 13.556-3.232-9.897-4.997-16.73-15.264-16.73-27.055z" fill="#6e60b8" data-original="#6e60b8"></path><g><path d="m62.859 166.508h-25.8c-4.142 0-7.5-3.358-7.5-7.5s3.358-7.5 7.5-7.5h25.8c4.142 0 7.5 3.358 7.5 7.5s-3.358 7.5-7.5 7.5z" fill="#ffc250" data-original="#ffc250" class=""></path></g><g><path d="m70.223 118.914-24.122-9.155c-3.873-1.47-5.821-5.801-4.351-9.673s5.8-5.819 9.673-4.351l24.122 9.155c3.873 1.47 5.821 5.801 4.351 9.673-1.469 3.87-5.797 5.82-9.673 4.351z" fill="#ffc250" data-original="#ffc250" class=""></path></g><g><path d="m41.75 217.93c-1.47-3.873.479-8.204 4.351-9.673l24.122-9.155c3.871-1.469 8.203.478 9.673 4.351s-.479 8.204-4.351 9.673l-24.122 9.155c-3.874 1.469-8.203-.479-9.673-4.351z" fill="#ffc250" data-original="#ffc250" class=""></path></g><g><path d="m474.195 166.508h-25.801c-4.142 0-7.5-3.358-7.5-7.5s3.358-7.5 7.5-7.5h25.801c4.142 0 7.5 3.358 7.5 7.5s-3.358 7.5-7.5 7.5z" fill="#ffc250" data-original="#ffc250" class=""></path></g><g><path d="m431.358 114.563c-1.47-3.873.479-8.204 4.351-9.673l24.122-9.155c3.871-1.468 8.203.478 9.673 4.351s-.479 8.204-4.351 9.673l-24.122 9.155c-3.873 1.469-8.203-.479-9.673-4.351z" fill="#ffc250" data-original="#ffc250" class=""></path></g><g><path d="m459.832 222.281-24.122-9.155c-3.873-1.47-5.821-5.801-4.351-9.673s5.8-5.82 9.673-4.351l24.122 9.155c3.873 1.47 5.821 5.801 4.351 9.673-1.47 3.87-5.797 5.82-9.673 4.351z" fill="#ffc250" data-original="#ffc250" class=""></path></g><path d="m307.044 430.987h-102.834c-7.176 0-13.014 5.838-13.014 13.014v11.078c0 7.176 5.838 13.014 13.014 13.014h102.833c7.176 0 13.014-5.838 13.014-13.014v-11.078c.001-7.176-5.837-13.014-13.013-13.014z" fill="#efecef" data-original="#efecef"></path><path d="m307.044 449.54h-102.834c-5.877 0-10.851-3.917-12.461-9.276-.356 1.185-.553 2.438-.553 3.737v11.078c0 7.176 5.838 13.014 13.014 13.014h102.833c7.176 0 13.014-5.838 13.014-13.014v-11.078c0-1.299-.197-2.552-.553-3.737-1.61 5.358-6.584 9.276-12.46 9.276z" fill="#e2dfe2" data-original="#e2dfe2"></path><path d="m317.038 394.381h-122.822c-7.176 0-13.014 5.838-13.014 13.014v11.078c0 7.176 5.838 13.014 13.014 13.014h122.822c7.176 0 13.014-5.838 13.014-13.014v-11.078c0-7.176-5.838-13.014-13.014-13.014z" fill="#efecef" data-original="#efecef"></path><path d="m317.038 412.934h-122.822c-5.876 0-10.85-3.917-12.461-9.277-.356 1.185-.553 2.438-.553 3.737v11.078c0 7.176 5.838 13.014 13.014 13.014h122.822c7.176 0 13.014-5.838 13.014-13.014v-11.078c0-1.299-.197-2.552-.553-3.737-1.61 5.36-6.584 9.277-12.461 9.277z" fill="#e2dfe2" data-original="#e2dfe2"></path><path d="m317.038 357.775h-122.822c-7.176 0-13.014 5.838-13.014 13.014v11.078c0 7.176 5.838 13.014 13.014 13.014h122.822c7.176 0 13.014-5.838 13.014-13.014v-11.078c0-7.176-5.838-13.014-13.014-13.014z" fill="#efecef" data-original="#efecef"></path><path d="m317.038 376.328h-122.822c-5.876 0-10.85-3.917-12.461-9.276-.356 1.185-.553 2.438-.553 3.737v11.078c0 7.176 5.838 13.014 13.014 13.014h122.822c7.176 0 13.014-5.838 13.014-13.014v-11.078c0-1.299-.197-2.552-.553-3.737-1.61 5.359-6.584 9.276-12.461 9.276z" fill="#e2dfe2" data-original="#e2dfe2"></path></g><g><path d="m313.891 49.445c-3.72-1.824-8.213-.287-10.036 3.432s-.287 8.212 3.433 10.036c28.24 13.848 49.092 39.136 57.207 69.38 1.075 4.004 5.192 6.374 9.188 5.3 4.001-1.073 6.374-5.187 5.301-9.188-9.239-34.427-32.965-63.207-65.093-78.96z" fill="#000000" data-original="#000000" class=""></path><path d="m70.13 158.91c0-4.142-3.357-7.5-7.5-7.5h-25.8c-4.143 0-7.5 3.358-7.5 7.5s3.357 7.5 7.5 7.5h25.8c4.143 0 7.5-3.358 7.5-7.5z" fill="#000000" data-original="#000000" class=""></path><path d="m75.316 104.791-24.122-9.155c-3.87-1.468-8.203.478-9.673 4.351s.478 8.204 4.351 9.673l24.122 9.155c3.878 1.47 8.205-.482 9.673-4.351 1.469-3.872-.478-8.203-4.351-9.673z" fill="#000000" data-original="#000000" class=""></path><path d="m69.994 199.003-24.122 9.155c-3.873 1.47-5.82 5.801-4.351 9.673 1.468 3.871 5.796 5.821 9.673 4.351l24.122-9.155c3.873-1.47 5.82-5.801 4.351-9.673-1.469-3.873-5.801-5.819-9.673-4.351z" fill="#000000" data-original="#000000" class=""></path><path d="m473.966 151.41h-25.801c-4.143 0-7.5 3.358-7.5 7.5s3.357 7.5 7.5 7.5h25.801c4.143 0 7.5-3.358 7.5-7.5s-3.357-7.5-7.5-7.5z" fill="#000000" data-original="#000000" class=""></path><path d="m440.803 118.816 24.122-9.155c3.873-1.47 5.82-5.801 4.351-9.673-1.469-3.874-5.802-5.819-9.673-4.351l-24.122 9.155c-3.873 1.47-5.82 5.801-4.351 9.673 1.468 3.87 5.796 5.82 9.673 4.351z" fill="#000000" data-original="#000000" class=""></path><path d="m464.925 208.158-24.122-9.155c-3.871-1.468-8.204.478-9.673 4.351-1.47 3.873.478 8.204 4.351 9.673l24.122 9.155c3.878 1.47 8.205-.482 9.673-4.351 1.47-3.872-.478-8.203-4.351-9.673z" fill="#000000" data-original="#000000" class=""></path><path d="m272.069 14.955c67.733 7.543 121.524 59.964 130.812 127.477.562 4.089 4.329 6.972 8.452 6.408 4.104-.564 6.972-4.349 6.407-8.452-4.92-35.774-21.929-69.43-47.892-94.768-26.007-25.382-60.143-41.566-96.119-45.573-4.118-.456-7.826 2.507-8.284 6.624s2.507 7.825 6.624 8.284z" fill="#000000" data-original="#000000" class=""></path><path d="m411.831 168.937c-4.108-.347-7.758 2.706-8.111 6.833-4.076 47.661-31.15 90.746-72.424 115.251-10.528 6.251-17.069 17.668-17.069 29.796v29.609h-31.74v-59.621c0-3.444 1.16-6.842 3.266-9.568l10.733-13.896c4.123-5.338 6.394-11.993 6.394-18.738v-54.229c4.141-.002 7.496-3.359 7.496-7.5s-3.355-7.498-7.496-7.5v-.818c0-4.142-3.357-7.5-7.5-7.5s-7.5 3.358-7.5 7.5v.817h-64.96v-.817c0-4.142-3.357-7.5-7.5-7.5s-7.5 3.358-7.5 7.5v.817c-4.141.002-7.497 3.359-7.497 7.5s3.356 7.498 7.497 7.5v54.229c0 6.745 2.271 13.4 6.394 18.738l10.733 13.895c2.105 2.727 3.266 6.125 3.266 9.569v59.621h-31.74v-29.608c0-12.157-6.441-23.516-16.81-29.644-45.184-26.703-73.252-75.85-73.253-128.261-.001-75.905 56.844-139.51 132.226-147.951 4.116-.461 7.079-4.172 6.618-8.288s-4.159-7.081-8.288-6.619c-39.746 4.451-76.479 23.379-103.432 53.298-27.164 30.154-42.125 69.063-42.124 109.56.002 59.772 32.112 112.505 80.62 141.174 5.824 3.442 9.442 9.853 9.442 16.73v33.893c-4.765 3.711-7.848 9.486-7.848 15.979v11.078c0 4.835 1.708 9.276 4.545 12.764-2.837 3.487-4.545 7.928-4.545 12.764v11.078c0 7.989 4.658 14.892 11.391 18.19-.889 2.279-1.396 4.748-1.396 7.338v11.078c0 11.173 9.09 20.264 20.264 20.264h13.684c1.046 19.907 17.57 35.781 37.733 35.781 20.162 0 36.686-15.875 37.732-35.781h13.684c11.174 0 20.264-9.09 20.264-20.264v-11.078c0-2.59-.507-5.059-1.396-7.338 6.732-3.298 11.391-10.201 11.391-18.19v-11.078c0-4.835-1.708-9.276-4.545-12.764 2.837-3.487 4.545-7.928 4.545-12.764v-11.078c0-6.494-3.083-12.269-7.848-15.979v-33.894c0-6.86 3.728-13.335 9.728-16.898 45.425-26.971 75.224-74.399 79.711-126.871.351-4.125-2.709-7.756-6.835-8.109zm-185.648 89.237c-2.105-2.726-3.265-6.124-3.265-9.569v-54.229h64.96v54.229c0 3.445-1.159 6.843-3.265 9.568l-10.733 13.896c-4.124 5.339-6.395 11.994-6.395 18.738v59.621h-24.175v-59.621c0-6.744-2.271-13.399-6.395-18.738zm29.215 237.852c-11.889 0-21.68-9.152-22.698-20.781h45.397c-1.018 11.628-10.809 20.781-22.699 20.781zm56.681-41.045c0 2.902-2.361 5.264-5.264 5.264-12.51 0-93.599 0-102.833 0-2.902 0-5.264-2.361-5.264-5.264v-11.078c0-2.902 2.361-5.264 5.264-5.264h102.833c2.902 0 5.264 2.361 5.264 5.264zm9.995-36.606c0 2.903-2.361 5.264-5.265 5.264-5.737 0-119.202 0-122.821 0-2.903 0-5.265-2.361-5.265-5.264v-11.078c0-2.902 2.361-5.264 5.265-5.264h122.821c2.903 0 5.265 2.361 5.265 5.264zm0-36.606c0 2.902-2.361 5.264-5.265 5.264h-122.821c-2.903 0-5.265-2.361-5.265-5.264v-11.078c0-2.987 2.506-5.264 5.265-5.264h122.821c2.88 0 5.265 2.382 5.265 5.264z" fill="#000000" data-original="#000000" class=""></path></g></g></g></svg>