<svg xmlns="http://www.w3.org/2000/svg" version="1.1" xmlns:xlink="http://www.w3.org/1999/xlink"
  xmlns:svgjs="http://svgjs.com/svgjs" width="512" height="512" x="0" y="0" viewBox="0 0 24 24"
  style="enable-background:new 0 0 512 512" xml:space="preserve" class="">
  <g>
    <g xmlns="http://www.w3.org/2000/svg" fill="#ffc107">
      <path
        d="m12 3.457c-.414 0-.75-.336-.75-.75v-1.957c0-.414.336-.75.75-.75s.75.336.75.75v1.957c0 .414-.336.75-.75.75z"
        fill="#ffc107" data-original="#ffc107" class=""></path>
      <path
        d="m18.571 6.179c-.192 0-.384-.073-.53-.22-.293-.293-.293-.768 0-1.061l1.384-1.384c.293-.293.768-.293 1.061 0s.293.768 0 1.061l-1.384 1.384c-.147.146-.339.22-.531.22z"
        fill="#ffc107" data-original="#ffc107" class=""></path>
      <path d="m23.25 12.75h-1.957c-.414 0-.75-.336-.75-.75s.336-.75.75-.75h1.957c.414 0 .75.336.75.75s-.336.75-.75.75z"
        fill="#ffc107" data-original="#ffc107" class=""></path>
      <path
        d="m19.955 20.705c-.192 0-.384-.073-.53-.22l-1.384-1.384c-.293-.293-.293-.768 0-1.061s.768-.293 1.061 0l1.384 1.384c.293.293.293.768 0 1.061-.147.147-.339.22-.531.22z"
        fill="#ffc107" data-original="#ffc107" class=""></path>
      <path
        d="m4.045 20.705c-.192 0-.384-.073-.53-.22-.293-.293-.293-.768 0-1.061l1.384-1.384c.293-.293.768-.293 1.061 0s.293.768 0 1.061l-1.384 1.384c-.147.147-.339.22-.531.22z"
        fill="#ffc107" data-original="#ffc107" class=""></path>
      <path d="m2.707 12.75h-1.957c-.414 0-.75-.336-.75-.75s.336-.75.75-.75h1.957c.414 0 .75.336.75.75s-.336.75-.75.75z"
        fill="#ffc107" data-original="#ffc107" class=""></path>
      <path
        d="m5.429 6.179c-.192 0-.384-.073-.53-.22l-1.384-1.384c-.293-.293-.293-.768 0-1.061s.768-.293 1.061 0l1.384 1.384c.293.293.293.768 0 1.061-.148.146-.339.22-.531.22z"
        fill="#ffc107" data-original="#ffc107" class=""></path>
      <path
        d="m19 12c0 2.16-.98 4.16-2.67 5.5-.69.54-1.14 1.25-1.28 2.01-.02-.01-.03-.01-.05-.01h-6c-.02 0-.05 0-.07.01-.14-.79-.55-1.48-1.14-1.92-2.18-1.65-3.2-4.35-2.64-7.07.55-2.65 2.7-4.81 5.35-5.36 2.11-.45 4.27.07 5.91 1.4 1.65 1.34 2.59 3.32 2.59 5.44z"
        fill="#ffc107" data-original="#ffc107" class=""></path>
    </g>
    <path xmlns="http://www.w3.org/2000/svg"
      d="m15.05 19.51c-.03.17-.05.34-.05.52v2.22c0 .96-.79 1.75-1.75 1.75h-2.5c-.84 0-1.75-.64-1.75-2.04v-1.77c0-.23-.02-.46-.07-.68.02-.01.05-.01.07-.01h6c.02 0 .03 0 .05.01z"
      fill="#4babda" data-original="#607d8b" class=""></path>
    <path xmlns="http://www.w3.org/2000/svg"
      d="m15.75 12.5c-.414 0-.75-.336-.75-.75 0-1.517-1.233-2.75-2.75-2.75-.414 0-.75-.336-.75-.75s.336-.75.75-.75c2.343 0 4.25 1.907 4.25 4.25 0 .414-.336.75-.75.75z"
      fill="#ffd54f" data-original="#ffd54f" class=""></path>
  </g>
</svg>