<svg xmlns="http://www.w3.org/2000/svg" version="1.1" xmlns:xlink="http://www.w3.org/1999/xlink" xmlns:svgjs="http://svgjs.com/svgjs" width="512" height="512" x="0" y="0" viewBox="0 0 512 512" style="enable-background:new 0 0 512 512" xml:space="preserve" class=""><g><g xmlns="http://www.w3.org/2000/svg"><g><path d="m256 512c-46.992 0-92.842-13.964-132.949-38.544l-112.676 28.154 28.184-112.676c-24.58-40.107-38.559-85.927-38.559-132.934 0-140.61 115.404-256 256-256s256 115.39 256 256-115.404 256-256 256z" fill="#00aaff" data-original="#00d5ff" class=""></path></g><path d="m512 256c0-140.61-115.404-256-256-256v512c140.596 0 256-115.39 256-256z" fill="#00aaff" data-original="#00aaff" class=""></path><g id="Info_2_"><g><path d="m256 181c-24.814 0-45-20.186-45-45s20.186-45 45-45 45 20.186 45 45-20.186 45-45 45z" fill="#ecf2ff" data-original="#ecf2ff" class=""></path></g><g><path d="m316 391h-120v-30c8.262 0 15-6.724 15-15v-90c0-8.276-6.738-15-15-15v-30h105v135c0 8.276 6.738 15 15 15z" fill="#ecf2ff" data-original="#ecf2ff" class=""></path></g></g><g fill="#d9e5ff"><path d="m301 136c0-24.814-20.186-45-45-45v90c24.814 0 45-20.186 45-45z" fill="#ecf2ff" data-original="#d9e5ff" class=""></path><path d="m301 346v-135h-45v180h60v-30c-8.262 0-15-6.724-15-15z" fill="#ecf2ff" data-original="#d9e5ff" class=""></path></g></g></g></svg>