<svg xmlns="http://www.w3.org/2000/svg" version="1.1" xmlns:xlink="http://www.w3.org/1999/xlink"
  xmlns:svgjs="http://svgjs.com/svgjs" width="512" height="512" x="0" y="0" viewBox="0 0 512.092 512.092"
  style="enable-background:new 0 0 512 512" xml:space="preserve" class="">
  <g>
    <path xmlns="http://www.w3.org/2000/svg" style=""
      d="M396.784,446.553L266.011,115.886c-1.446-3.641-4.771-6.196-8.661-6.656L54.683,85.38  c-5.752-0.808-11.07,3.2-11.878,8.952c-0.018,0.13-0.034,0.261-0.048,0.392L0.091,436.057c-0.763,5.841,3.353,11.196,9.194,11.959  c0.085,0.011,0.171,0.021,0.256,0.03l373.333,42.667h1.216c5.521,0.024,10.148-4.168,10.667-9.664l2.773-29.589  C397.672,449.788,397.416,448.107,396.784,446.553z"
      fill="#ffa000" data-original="#ffa000" class=""></path>
    <path xmlns="http://www.w3.org/2000/svg" style=""
      d="M469.424,94.724c-0.684-5.851-5.983-10.04-11.834-9.355c-0.031,0.004-0.061,0.007-0.092,0.011  l-91.733,10.795L94.832,128.046c-5.801,0.659-9.994,5.86-9.408,11.669l32,341.333c0.519,5.496,5.146,9.688,10.667,9.664h1.216  l373.333-42.667c5.853-0.671,10.053-5.96,9.382-11.813c-0.005-0.045-0.01-0.089-0.016-0.134L469.424,94.724z"
      fill="#ffe082" data-original="#ffe082" class=""></path>
    <path xmlns="http://www.w3.org/2000/svg" style=""
      d="M309.424,170.713c-5.891,0.011-10.675-4.757-10.686-10.648c-0.005-2.84,1.123-5.565,3.134-7.571  l53.333-53.333c4.093-4.237,10.845-4.355,15.083-0.262c4.237,4.093,4.354,10.845,0.262,15.083c-0.086,0.089-0.173,0.176-0.262,0.262  l-53.333,53.333C314.96,169.579,312.251,170.707,309.424,170.713z"
      fill="#455a64" data-original="#455a64"></path>
    <circle xmlns="http://www.w3.org/2000/svg" style="" cx="394.758" cy="74.713" r="53.333" fill="#f44336"
      data-original="#f44336"></circle>
    <g xmlns="http://www.w3.org/2000/svg">
    </g>
    <g xmlns="http://www.w3.org/2000/svg">
    </g>
    <g xmlns="http://www.w3.org/2000/svg">
    </g>
    <g xmlns="http://www.w3.org/2000/svg">
    </g>
    <g xmlns="http://www.w3.org/2000/svg">
    </g>
    <g xmlns="http://www.w3.org/2000/svg">
    </g>
    <g xmlns="http://www.w3.org/2000/svg">
    </g>
    <g xmlns="http://www.w3.org/2000/svg">
    </g>
    <g xmlns="http://www.w3.org/2000/svg">
    </g>
    <g xmlns="http://www.w3.org/2000/svg">
    </g>
    <g xmlns="http://www.w3.org/2000/svg">
    </g>
    <g xmlns="http://www.w3.org/2000/svg">
    </g>
    <g xmlns="http://www.w3.org/2000/svg">
    </g>
    <g xmlns="http://www.w3.org/2000/svg">
    </g>
    <g xmlns="http://www.w3.org/2000/svg">
    </g>
  </g>
</svg>