<svg xmlns="http://www.w3.org/2000/svg" version="1.1" xmlns:xlink="http://www.w3.org/1999/xlink" xmlns:svgjs="http://svgjs.com/svgjs" width="512" height="512" x="0" y="0" viewBox="0 0 512.00005 512" style="enable-background:new 0 0 512 512" xml:space="preserve" class=""><g><path xmlns="http://www.w3.org/2000/svg" d="m502.003906 256c0 135.863281-110.140625 246.003906-246.003906 246.003906s-246-110.140625-246-246.003906 110.136719-246 246-246 246.003906 110.136719 246.003906 246zm0 0" fill="#58e573" data-original="#cbe558" class=""></path><path xmlns="http://www.w3.org/2000/svg" d="m341.667969 139.847656-119.167969 119.167969-52.164062-52.164063-56.570313 56.570313 52.164063 52.164063 56.570312 56.566406 175.734375-175.734375zm0 0" fill="#ffffff" data-original="#ffffff" class=""></path><path xmlns="http://www.w3.org/2000/svg" d="m222.5 382.152344c-2.652344 0-5.195312-1.054688-7.070312-2.929688l-108.734376-108.730468c-3.90625-3.90625-3.90625-10.238282 0-14.144532l56.566407-56.566406c3.90625-3.90625 10.238281-3.90625 14.144531 0l45.09375 45.09375 112.09375-112.097656c1.875-1.875 4.421875-2.929688 7.074219-2.929688 2.648437 0 5.195312 1.054688 7.070312 2.929688l56.566407 56.570312c3.90625 3.902344 3.90625 10.234375 0 14.140625l-175.734376 175.738281c-1.875 1.875-4.417968 2.925782-7.070312 2.925782zm-94.589844-118.730469 94.589844 94.589844 161.59375-161.59375-42.425781-42.429688-112.097657 112.097657c-3.90625 3.90625-10.238281 3.90625-14.140624 0l-45.09375-45.09375zm0 0" fill="#000000" data-original="#000000" class=""></path><path xmlns="http://www.w3.org/2000/svg" d="m255.9375 512c-6.53125 0-13.070312-.25-19.621094-.75-60.835937-4.664062-118.132812-31.027344-161.335937-74.226562-48.351563-48.355469-74.980469-112.640626-74.980469-181.023438 0-68.378906 26.628906-132.667969 74.980469-181.019531 48.351562-48.351563 112.640625-74.980469 181.019531-74.980469 68.382812 0 132.667969 26.628906 181.023438 74.980469 43.199218 43.203125 69.5625 100.5 74.226562 161.335937 4.613281 60.175782-12.144531 120.15625-47.183594 168.898438-3.222656 4.484375-9.472656 5.503906-13.957031 2.28125s-5.503906-9.472656-2.28125-13.957032c67.726563-94.207031 57.234375-222.230468-24.949219-304.417968-92.015625-92.015625-241.738281-92.015625-333.753906 0-92.019531 92.019531-92.019531 241.738281 0 333.757812 82.183594 82.179688 210.210938 92.675782 304.417969 24.945313 4.484375-3.222657 10.730469-2.199219 13.957031 2.285156 3.222656 4.484375 2.199219 10.730469-2.285156 13.957031-43.4375 31.226563-95.804688 47.933594-149.277344 47.933594zm0 0" fill="#000000" data-original="#000000" class=""></path><path xmlns="http://www.w3.org/2000/svg" d="m429.953125 439.953125c-2.632813 0-5.210937-1.070313-7.070313-2.929687-1.859374-1.863282-2.929687-4.441407-2.929687-7.070313 0-2.632813 1.070313-5.210937 2.929687-7.070313 1.859376-1.859374 4.4375-2.929687 7.070313-2.929687 2.628906 0 5.207031 1.070313 7.070313 2.929687 1.859374 1.859376 2.929687 4.4375 2.929687 7.070313 0 2.628906-1.070313 5.207031-2.929687 7.070313-1.863282 1.859374-4.441407 2.929687-7.070313 2.929687zm0 0" fill="#000000" data-original="#000000" class=""></path></g></svg>