<svg xmlns="http://www.w3.org/2000/svg" version="1.1" xmlns:xlink="http://www.w3.org/1999/xlink" xmlns:svgjs="http://svgjs.com/svgjs" width="512" height="512" x="0" y="0" viewBox="0 0 512 512" style="enable-background:new 0 0 512 512" xml:space="preserve" class=""><g><g xmlns="http://www.w3.org/2000/svg"><g><path d="m408.09 69.326h-13.837l-138.253 20-138.254-20h-15.836c-17.073 0-30.913-13.84-30.913-30.913-.001-17.073 13.84-30.913 30.913-30.913h306.18c17.073 0 30.913 13.84 30.913 30.913.001 17.073-13.84 30.913-30.913 30.913z" fill="#b98080" data-original="#b98080" style=""></path><path d="m410.09 7.5h-30c17.073 0 30.913 13.84 30.913 30.913 0 17.073-13.84 30.913-30.913 30.913h30c17.073 0 30.913-13.84 30.913-30.913.001-17.073-13.84-30.913-30.913-30.913z" fill="#ae6c6c" data-original="#ae6c6c" style=""></path><path d="m392.254 108.133v-38.807h-274.508v38.807c0 60.2 38.478 111.406 92.181 130.382 7.412 2.619 12.368 9.624 12.368 17.484 0 7.861-4.956 14.866-12.368 17.484-53.702 18.976-92.181 70.182-92.181 130.382v38.807h274.507v-38.807c0-60.2-38.478-111.406-92.181-130.382-7.412-2.619-12.368-9.624-12.368-17.484h2c0-7.861 2.956-14.865 10.368-17.484 53.703-18.975 92.182-70.182 92.182-130.382z" fill="#efedef" data-original="#efedef" style=""></path><path d="m117.746 69.326v19.599h227.3c10.608 0 19.208 8.6 19.208 19.208 0 60.013-38.24 111.088-91.681 130.204-6.612 2.365-11.67 8.01-12.673 14.96-1.287 8.918 3.921 17.27 12.173 20.186 53.702 18.976 92.181 70.183 92.181 130.382v38.807h30v-38.807c0-60.013-38.24-111.088-91.681-130.204-6.612-2.365-11.67-8.01-12.673-14.961-1.287-8.918 3.921-17.27 12.173-20.186 53.702-18.976 92.181-70.183 92.181-130.382v-19.206-19.6z" fill="#d7d0d6" data-original="#d7d0d6" style=""></path><path d="m408.09 504.5h-306.18c-17.073 0-30.913-13.84-30.913-30.913 0-17.073 13.84-30.913 30.913-30.913h15.837l138.254-20 138.254 20h13.837c17.073 0 30.913 13.84 30.913 30.913-.001 17.073-13.842 30.913-30.915 30.913z" fill="#b98080" data-original="#b98080" style=""></path><path d="m410.09 442.674h-30c17.073 0 30.913 13.84 30.913 30.913 0 17.073-13.84 30.913-30.913 30.913h30c17.073 0 30.913-13.84 30.913-30.913.001-17.073-13.84-30.913-30.913-30.913z" fill="#ae6c6c" data-original="#ae6c6c" style=""></path><path d="m322.575 334.217h-14.561c-14.643 0-29.136-10.593-31.531-25.038l-5.941-35.833c-3.024-18.238 11.044-34.83 29.531-34.83 35.875-12.676 64.934-39.748 80.289-74.263h-250.724c15.354 34.516 44.414 61.587 80.289 74.263 18.487 0 32.555 16.592 29.531 34.83l-5.941 35.833c-2.395 14.445-14.889 25.038-29.531 25.038h-16.561c-38.174 0-69.47 30.715-69.676 68.888-.001.254-.002.508-.002.762v38.807h274.507v-38.807c0-.254-.001-.508-.002-.762-.207-38.173-31.503-68.888-69.677-68.888z" fill="#fed402" data-original="#fed402" style="" class=""></path><path d="m394.252 403.105c-.207-38.173-31.502-68.888-69.676-68.888h-16.562c-14.643 0-27.136-10.593-29.531-25.038l-5.941-35.833c-3.024-18.238 11.044-34.83 29.531-34.83 35.875-12.676 64.934-39.748 80.289-74.263h-30c-15.354 34.516-44.414 61.587-80.289 74.263-18.487 0-32.555 16.592-29.531 34.83l5.941 35.833c2.395 14.445 14.889 25.038 29.531 25.038h16.562c38.174 0 69.47 30.715 69.676 68.888.001.254.002.508.002.762v38.807h30v-38.807c0-.254-.001-.508-.002-.762z" fill="#fac600" data-original="#fac600" style="" class=""></path></g><path id="_x32_9_hourglass_1_" d="m410.09 435.174h-8.336v-31.307l-.002-.803c-.001-.095-.008-.189-.009-.284-.456-61.238-39.386-115.95-97.171-136.368-4.406-1.558-7.367-5.742-7.367-10.413s2.961-8.855 7.367-10.413c2.417-.854 4.813-1.778 7.181-2.759 24.236-10.033 44.81-26.231 60.142-46.369.574-.757 1.142-1.518 1.703-2.284 6.109-8.328 11.367-17.325 15.615-26.874.097-.218.172-.441.247-.665 7.945-18.087 12.293-37.936 12.293-58.503v-31.306h8.336c21.182 0 38.414-17.232 38.414-38.413s-17.231-38.413-38.413-38.413h-308.18c-21.181 0-38.414 17.232-38.414 38.413s17.232 38.413 38.414 38.413h8.336v16.108c0 4.143 3.357 7.5 7.5 7.5s7.5-3.357 7.5-7.5v-16.108h261.508v31.307c0 16.998-3.319 33.446-9.412 48.619h-42.806c-4.143 0-7.5 3.357-7.5 7.5s3.357 7.5 7.5 7.5h35.646c-3.024 5.422-6.421 10.625-10.175 15.562-2.747 3.6-5.679 7.056-8.777 10.359-9.863 10.484-21.419 19.331-34.186 26.098-5.296 2.799-10.776 5.23-16.406 7.274-10.484.398-20.301 5.158-27.118 13.197-7.126 8.404-10.179 19.46-8.377 30.33l5.94 35.833c3.009 18.143 18.54 31.311 36.931 31.311h16.561c33.724 0 61.358 26.955 62.142 60.302.008.584.034 1.165.035 1.751l.001 31.404h-45.243c-4.143 0-7.5 3.358-7.5 7.5 0 4.143 3.357 7.5 7.5 7.5h68.579c12.91 0 23.414 10.503 23.414 23.413.001 12.911-10.503 23.414-23.413 23.414h-308.18c-12.91 0-23.414-10.503-23.414-23.413s10.504-23.413 23.414-23.413h206.862c4.143 0 7.5-3.357 7.5-7.5 0-4.142-3.357-7.5-7.5-7.5h-183.526v-31.307c0-.608.027-1.21.036-1.817.774-33.367 28.412-60.334 62.143-60.334h16.561c18.39 0 33.922-13.168 36.931-31.311l5.94-35.833c1.802-10.87-1.251-21.926-8.377-30.33-6.819-8.042-16.639-12.802-27.128-13.198-7.346-2.669-14.489-5.982-21.221-9.96-20.122-11.783-36.92-28.854-48.361-49.333h160.08c4.143 0 7.5-3.357 7.5-7.5s-3.357-7.5-7.5-7.5h-167.245c-4.108-10.247-6.926-21.012-8.322-32.07-.52-4.11-4.282-7.017-8.381-6.502-4.109.52-7.021 4.271-6.502 8.381 3.403 26.952 14.294 52.37 31.494 73.506 12.152 14.931 27.048 27.22 43.783 36.281 6.656 3.613 13.61 6.716 20.751 9.24 4.406 1.558 7.367 5.742 7.367 10.413s-2.961 8.855-7.367 10.413c-57.79 20.42-96.722 75.14-97.171 136.385-.001.093-.008.185-.009.278v.596c0 .065-.002.13-.002.195v31.307h-8.336c-21.182 0-38.414 17.233-38.414 38.413 0 21.181 17.232 38.413 38.414 38.413h308.18c21.182 0 38.414-17.232 38.414-38.413s-17.232-38.413-38.414-38.413zm-292.344-373.348h-15.836c-12.91 0-23.414-10.503-23.414-23.413s10.504-23.413 23.414-23.413h308.18c12.91 0 23.414 10.503 23.414 23.413s-10.504 23.413-23.414 23.413h-15.836zm206.829 264.891h-16.561c-11.022 0-20.329-7.892-22.132-18.765l-5.94-35.833c-.817-4.925.032-9.911 2.338-14.228.747 10.241 7.505 19.206 17.294 22.665 31.557 11.151 56.829 33.714 71.881 62.048-13.018-9.949-29.277-15.887-46.88-15.887zm-112.149-46.161c9.79-3.459 16.548-12.424 17.295-22.665 2.307 4.317 3.155 9.304 2.338 14.229l-5.94 35.833c-1.803 10.873-11.11 18.765-22.132 18.765h-16.561c-17.604 0-33.862 5.939-46.88 15.888 15.05-28.335 40.322-50.899 71.88-62.05z" fill="#000000" data-original="#000000" style="" class=""></path></g></g></svg>