<svg xmlns="http://www.w3.org/2000/svg" version="1.1" xmlns:xlink="http://www.w3.org/1999/xlink" xmlns:svgjs="http://svgjs.com/svgjs" width="512" height="512" x="0" y="0" viewBox="0 0 497 497" style="enable-background:new 0 0 512 512" xml:space="preserve" class=""><g><g xmlns="http://www.w3.org/2000/svg"><path d="m400.59 61.826h-13.837l-138.254 20-138.254-20h-15.835c-17.073 0-30.913-13.84-30.913-30.913-.001-17.073 13.84-30.913 30.913-30.913h306.18c17.073 0 30.913 13.84 30.913 30.913.001 17.073-13.84 30.913-30.913 30.913z" fill="#b98080" data-original="#b98080"></path><path d="m402.59 0h-30c17.073 0 30.913 13.84 30.913 30.913 0 17.073-13.84 30.913-30.913 30.913h30c17.073 0 30.913-13.84 30.913-30.913.001-17.073-13.84-30.913-30.913-30.913z" fill="#ae6c6c" data-original="#ae6c6c"></path><path d="m384.754 100.633v-38.807h-274.508v38.807c0 60.2 38.478 111.406 92.181 130.382 7.412 2.619 12.368 9.624 12.368 17.484 0 7.861-4.956 14.866-12.368 17.484-53.702 18.976-92.181 70.182-92.181 130.382v38.807h274.507v-38.807c0-60.2-38.478-111.406-92.181-130.382-7.412-2.619-12.368-9.624-12.368-17.484h2c0-7.861 2.956-14.865 10.368-17.484 53.703-18.975 92.182-70.182 92.182-130.382z" fill="#efedef" data-original="#efedef"></path><path d="m110.246 61.826v19.599h227.3c10.608 0 19.208 8.6 19.208 19.208 0 60.013-38.24 111.088-91.681 130.204-6.612 2.365-11.67 8.01-12.673 14.96-1.287 8.918 3.921 17.27 12.173 20.186 53.702 18.976 92.181 70.183 92.181 130.382v38.807h30v-38.807c0-60.013-38.24-111.088-91.681-130.204-6.612-2.365-11.67-8.01-12.673-14.96-1.287-8.918 3.921-17.27 12.173-20.186 53.702-18.976 92.181-70.183 92.181-130.382v-19.207-19.6z" fill="#d7d0d6" data-original="#d7d0d6" class=""></path><path d="m400.59 497h-306.18c-17.073 0-30.913-13.84-30.913-30.913 0-17.073 13.84-30.913 30.913-30.913h15.837l138.254-20 138.254 20h13.837c17.073 0 30.913 13.84 30.913 30.913-.001 17.073-13.842 30.913-30.915 30.913z" fill="#b98080" data-original="#b98080"></path><path d="m402.59 435.174h-30c17.073 0 30.913 13.84 30.913 30.913 0 17.073-13.84 30.913-30.913 30.913h30c17.073 0 30.913-13.84 30.913-30.913.001-17.073-13.84-30.913-30.913-30.913z" fill="#ae6c6c" data-original="#ae6c6c"></path><path d="m315.075 326.717h-14.561c-14.643 0-29.136-10.593-31.531-25.038l-5.941-35.833c-3.024-18.238 11.044-34.83 29.531-34.83 35.875-12.676 64.934-39.748 80.289-74.263h-250.724c15.354 34.516 44.414 61.587 80.289 74.263 18.487 0 32.555 16.592 29.531 34.83l-5.941 35.833c-2.395 14.445-14.889 25.038-29.531 25.038h-16.561c-38.174 0-69.47 30.715-69.676 68.888-.001.254-.002.508-.002.762v38.807h274.507v-38.807c0-.254-.001-.508-.002-.762-.207-38.173-31.503-68.888-69.677-68.888z" fill="#fed402" data-original="#fed402" class=""></path><path d="m386.752 395.605c-.207-38.173-31.502-68.888-69.676-68.888h-16.562c-14.643 0-27.136-10.593-29.531-25.038l-5.941-35.833c-3.024-18.238 11.044-34.83 29.531-34.83 35.875-12.676 64.934-39.748 80.289-74.263h-30c-15.354 34.516-44.414 61.587-80.289 74.263-18.487 0-32.555 16.592-29.531 34.83l5.941 35.833c2.395 14.445 14.889 25.038 29.531 25.038h16.562c38.174 0 69.47 30.715 69.676 68.888.001.254.002.508.002.762v38.807h30v-38.807c0-.254-.001-.508-.002-.762z" fill="#fac600" data-original="#fac600"></path></g></g></svg>