<?xml version="1.0" encoding="iso-8859-1"?>
<!-- Generator: Adobe Illustrator 19.0.0, SVG Export Plug-In . SVG Version: 6.00 Build 0)  -->
<svg version="1.1" id="Capa_1" xmlns="http://www.w3.org/2000/svg" xmlns:xlink="http://www.w3.org/1999/xlink" x="0px" y="0px"
	 viewBox="0 0 464 464" style="enable-background:new 0 0 464 464;" xml:space="preserve">
<path style="fill:#0378A3;" d="M48,163.68V59.96C48.022,51.139,55.179,44,64,44h384c8.821,0,15.978,7.139,16,15.96v224.08
	c-0.022,8.821-7.179,15.96-16,15.96h-32"/>
<path style="fill:#29ABE2;" d="M16,164h384c8.837,0,16,7.163,16,16v224c0,8.837-7.163,16-16,16H16c-8.837,0-16-7.163-16-16V180
	C0,171.163,7.163,164,16,164z"/>
<circle style="fill:#ED1C24;" cx="128" cy="244" r="48"/>
<g>
	<path style="fill:#29485A;" d="M104,332H48c-4.418,0-8-3.582-8-8s3.582-8,8-8h56c4.418,0,8,3.582,8,8S108.418,332,104,332z"/>
	<path style="fill:#29485A;" d="M192,332h-56c-4.418,0-8-3.582-8-8s3.582-8,8-8h56c4.418,0,8,3.582,8,8S196.418,332,192,332z"/>
	<path style="fill:#29485A;" d="M280,332h-56c-4.418,0-8-3.582-8-8s3.582-8,8-8h56c4.418,0,8,3.582,8,8S284.418,332,280,332z"/>
	<path style="fill:#29485A;" d="M368,332h-56c-4.418,0-8-3.582-8-8s3.582-8,8-8h56c4.418,0,8,3.582,8,8S372.418,332,368,332z"/>
	<path style="fill:#29485A;" d="M280,364h-32c-4.418,0-8-3.582-8-8s3.582-8,8-8h32c4.418,0,8,3.582,8,8S284.418,364,280,364z"/>
	<path style="fill:#29485A;" d="M368,364h-32c-4.418,0-8-3.582-8-8s3.582-8,8-8h32c4.418,0,8,3.582,8,8S372.418,364,368,364z"/>
	<path style="fill:#29485A;" d="M48,76h416v56H48V76z"/>
</g>
<circle style="fill:#F8CF26;" cx="80" cy="244" r="48"/>
<g>
</g>
<g>
</g>
<g>
</g>
<g>
</g>
<g>
</g>
<g>
</g>
<g>
</g>
<g>
</g>
<g>
</g>
<g>
</g>
<g>
</g>
<g>
</g>
<g>
</g>
<g>
</g>
<g>
</g>
</svg>
