<?xml version="1.0"?>
<svg xmlns="http://www.w3.org/2000/svg" xmlns:xlink="http://www.w3.org/1999/xlink" xmlns:svgjs="http://svgjs.com/svgjs" version="1.1" width="512" height="512" x="0" y="0" viewBox="0 0 512 512" style="enable-background:new 0 0 512 512" xml:space="preserve"><g><g xmlns="http://www.w3.org/2000/svg"><g><path d="m158.5 257.5h195c12.406 0 22.5-10.093 22.5-22.5s-10.094-22.5-22.5-22.5h-195c-12.406 0-22.5 10.093-22.5 22.5s10.094 22.5 22.5 22.5zm0-30h195c4.136 0 7.5 3.364 7.5 7.5s-3.364 7.5-7.5 7.5h-195c-4.136 0-7.5-3.364-7.5-7.5s3.364-7.5 7.5-7.5z" fill="#ffffff" data-original="#000000" style=""/><path d="m158.5 317.5h195c12.406 0 22.5-10.093 22.5-22.5s-10.094-22.5-22.5-22.5h-195c-12.406 0-22.5 10.093-22.5 22.5s10.094 22.5 22.5 22.5zm0-30h195c4.136 0 7.5 3.364 7.5 7.5s-3.364 7.5-7.5 7.5h-195c-4.136 0-7.5-3.364-7.5-7.5s3.364-7.5 7.5-7.5z" fill="#ffffff" data-original="#000000" style=""/><path d="m158.5 377.5h195c12.406 0 22.5-10.093 22.5-22.5s-10.094-22.5-22.5-22.5h-195c-12.406 0-22.5 10.093-22.5 22.5s10.094 22.5 22.5 22.5zm0-30h195c4.136 0 7.5 3.364 7.5 7.5s-3.364 7.5-7.5 7.5h-195c-4.136 0-7.5-3.364-7.5-7.5s3.364-7.5 7.5-7.5z" fill="#ffffff" data-original="#000000" style=""/><path d="m158.5 437.5h32.859c4.143 0 7.5-3.358 7.5-7.5s-3.357-7.5-7.5-7.5h-32.859c-4.136 0-7.5-3.364-7.5-7.5s3.364-7.5 7.5-7.5h111c4.136 0 7.5 3.364 7.5 7.5s-3.364 7.5-7.5 7.5h-44.91c-4.143 0-7.5 3.358-7.5 7.5s3.357 7.5 7.5 7.5h44.91c12.406 0 22.5-10.093 22.5-22.5s-10.094-22.5-22.5-22.5h-111c-12.406 0-22.5 10.093-22.5 22.5s10.094 22.5 22.5 22.5z" fill="#ffffff" data-original="#000000" style=""/><path d="m436 440.269c-4.143 0-7.5 3.358-7.5 7.5v36.731c0 6.893-5.607 12.5-12.5 12.5h-320c-6.893 0-12.5-5.607-12.5-12.5v-388.731c0-4.142-3.357-7.5-7.5-7.5s-7.5 3.358-7.5 7.5v388.731c0 15.164 12.337 27.5 27.5 27.5h320c15.163 0 27.5-12.336 27.5-27.5v-36.731c0-4.142-3.357-7.5-7.5-7.5z" fill="#ffffff" data-original="#000000" style=""/><path d="m441.304 142.197-140-140c-1.408-1.407-3.315-2.197-5.304-2.197h-200c-15.163 0-27.5 12.336-27.5 27.5v35.859c0 4.142 3.357 7.5 7.5 7.5s7.5-3.358 7.5-7.5v-35.859c0-6.893 5.607-12.5 12.5-12.5h192.5v112.5c0 15.164 12.337 27.5 27.5 27.5h112.5v260.769c0 4.142 3.357 7.5 7.5 7.5s7.5-3.358 7.5-7.5v-268.269c0-1.989-.79-3.897-2.196-5.303zm-137.804-14.697v-101.894l114.394 114.394h-101.894c-6.893 0-12.5-5.607-12.5-12.5z" fill="#ffffff" data-original="#000000" style=""/></g></g></g></svg>
