<?xml version="1.0"?>
<svg xmlns="http://www.w3.org/2000/svg" xmlns:xlink="http://www.w3.org/1999/xlink" xmlns:svgjs="http://svgjs.com/svgjs" version="1.1" width="512" height="512" x="0" y="0" viewBox="0 0 512 512" style="enable-background:new 0 0 512 512" xml:space="preserve" class=""><g transform="matrix(1,0,0,1,0,8.526512829121202e-14)"><g xmlns="http://www.w3.org/2000/svg"><path d="m140.064 468h-61.413c-17.858 0-32.387-14.579-32.387-32.5v-184.874c0-4.143-3.358-7.5-7.5-7.5s-7.5 3.357-7.5 7.5v184.874c0 26.191 21.258 47.5 47.387 47.5h61.413c4.142 0 7.5-3.357 7.5-7.5s-3.358-7.5-7.5-7.5z" fill="#ffffff" data-original="#000000" style="" class=""/><path d="m95.758 157.481h123.611c4.142 0 7.5-3.357 7.5-7.5s-3.358-7.5-7.5-7.5h-123.611c-4.142 0-7.5 3.357-7.5 7.5s3.358 7.5 7.5 7.5z" fill="#ffffff" data-original="#000000" style="" class=""/><path d="m95.758 322.522c-4.142 0-7.5 3.357-7.5 7.5s3.358 7.5 7.5 7.5h173.611c4.142 0 7.5-3.357 7.5-7.5s-3.358-7.5-7.5-7.5z" fill="#ffffff" data-original="#000000" style="" class=""/><path d="m93.76 217.495h223.837c4.142 0 7.5-3.357 7.5-7.5s-3.358-7.5-7.5-7.5h-223.837c-4.142 0-7.5 3.357-7.5 7.5s3.358 7.5 7.5 7.5z" fill="#ffffff" data-original="#000000" style="" class=""/><path d="m93.76 277.509h223.874c4.142 0 7.5-3.357 7.5-7.5s-3.358-7.5-7.5-7.5h-223.874c-4.142 0-7.5 3.357-7.5 7.5s3.358 7.5 7.5 7.5z" fill="#ffffff" data-original="#000000" style="" class=""/><path d="m480.685 403.749c-.407-8.499-4.119-16.797-10.156-22.738l-70.265-69.857v-159.605c0-9.997-3.879-19.401-10.923-26.481l-113.483-114.048c-6.969-7.003-16.625-11.02-26.493-11.02h-170.714c-26.129 0-47.387 21.309-47.387 47.501v168.125c0 4.143 3.358 7.5 7.5 7.5s7.5-3.357 7.5-7.5v-168.125c0-17.921 14.529-32.501 32.387-32.501h170.714c1.708 0 3.381.211 5.006.582v42.202c0 4.143 3.358 7.5 7.5 7.5s7.5-3.357 7.5-7.5v-32.017l105.327 105.852h-85.804c-10.765 0-19.523-8.797-19.523-19.609v-19.226c0-4.143-3.358-7.5-7.5-7.5s-7.5 3.357-7.5 7.5v19.226c0 19.084 15.487 34.609 34.523 34.609h95.813c.355 1.602.557 3.249.557 4.93v149.453c-12.234-4.289-26.417-1.58-36.186 8.131-13.512 12.89-13.512 36.098 0 48.989 0 0 12.834 12.76 12.834 12.76h-44.279c-4.142 0-7.5 3.357-7.5 7.5s3.358 7.5 7.5 7.5h62.46c3.038 0 5.775-1.832 6.933-4.64 1.159-2.809.509-6.037-1.645-8.179l-25.727-25.578c-7.653-7.303-7.652-20.413 0-27.716 7.721-7.675 20.282-7.675 28.001 0l72.324 71.904c7.592 7.217 7.626 20.439-.027 27.689l-72.302 71.883c-7.718 7.687-20.275 7.688-27.996-.005-7.653-7.303-7.652-20.414 0-27.717l25.727-25.577c2.154-2.141 2.804-5.37 1.646-8.179-1.158-2.808-3.896-4.64-6.933-4.64h-145.577c-10.908 0-19.782-8.804-19.782-19.624s8.875-19.623 19.782-19.623h48.117c4.142 0 7.5-3.357 7.5-7.5s-3.358-7.5-7.5-7.5h-48.117c-19.179 0-34.782 15.532-34.782 34.623 0 19.092 15.603 34.624 34.782 34.624h127.395l-12.833 12.759c-4.291 4.266-7.315 9.454-8.906 15.112h-165.109c-4.142 0-7.5 3.357-7.5 7.5s3.358 7.5 7.5 7.5h164.274c1.16 7.118 4.512 13.68 9.736 18.873 13.551 13.501 35.607 13.504 49.158.005l72.263-71.844c6.928-6.798 10.736-16.648 10.19-26.283z" fill="#ffffff" data-original="#000000" style="" class=""/></g></g></svg>
