<?xml version="1.0"?>
<svg xmlns="http://www.w3.org/2000/svg" xmlns:xlink="http://www.w3.org/1999/xlink" xmlns:svgjs="http://svgjs.com/svgjs" version="1.1" width="512" height="512" x="0" y="0" viewBox="0 0 512 512" style="enable-background:new 0 0 512 512" xml:space="preserve" class=""><g><path xmlns="http://www.w3.org/2000/svg" d="m106 512h300c24.814 0 45-20.186 45-45v-317h-105c-24.814 0-45-20.186-45-45v-105h-195c-24.814 0-45 20.186-45 45v422c0 24.814 20.186 45 45 45zm60-301h180c8.291 0 15 6.709 15 15s-6.709 15-15 15h-180c-8.291 0-15-6.709-15-15s6.709-15 15-15zm0 60h180c8.291 0 15 6.709 15 15s-6.709 15-15 15h-180c-8.291 0-15-6.709-15-15s6.709-15 15-15zm0 60h180c8.291 0 15 6.709 15 15s-6.709 15-15 15h-180c-8.291 0-15-6.709-15-15s6.709-15 15-15zm0 60h120c8.291 0 15 6.709 15 15s-6.709 15-15 15h-120c-8.291 0-15-6.709-15-15s6.709-15 15-15z" fill="#e9e9e9" data-original="#000000" style="" class=""/><path xmlns="http://www.w3.org/2000/svg" d="m346 120h96.211l-111.211-111.211v96.211c0 8.276 6.724 15 15 15z" fill="#e9e9e9" data-original="#000000" style="" class=""/></g></svg>
