<?xml version="1.0"?>
<svg xmlns="http://www.w3.org/2000/svg" xmlns:xlink="http://www.w3.org/1999/xlink" xmlns:svgjs="http://svgjs.com/svgjs" version="1.1" width="512" height="512" x="0" y="0" viewBox="0 0 512 512" style="enable-background:new 0 0 512 512" xml:space="preserve" class=""><g>
<g xmlns="http://www.w3.org/2000/svg">
	<path style="" d="M423.724,26.483h17.655c9.751,0,17.655,7.904,17.655,17.655v326.621   c0,9.751-7.904,17.655-17.655,17.655H17.655C7.905,388.414,0,380.509,0,370.759V44.138c0-9.751,7.904-17.655,17.655-17.655H423.724   z" fill="#378080" data-original="#804537" class=""/>
	<path style="" d="M229.517,26.483v320c0.335-15.467-11.9-28.294-27.366-28.69H35.31V17.655   C35.339,7.916,43.227,0.028,52.966,0h150.069c7.027-0.009,13.768,2.778,18.736,7.746S229.527,19.456,229.517,26.483z" fill="#cbb292" data-original="#cbb292" class=""/>
	<path style="" d="M229.517,346.483v6.621H35.31v-35.31h166.841C217.618,318.189,229.852,331.015,229.517,346.483z" fill="#7f6e5d" data-original="#7f6e5d" class=""/>
	<polygon style="" points="141.241,150.069 105.931,105.931 70.621,150.069 70.621,0 141.241,0  " fill="#e64c3c" data-original="#e64c3c" class=""/>
	<path style="" d="M229.517,26.483v320c-0.335-15.467,11.9-28.294,27.366-28.69h166.841V17.655   C423.696,7.916,415.808,0.028,406.069,0H256c-7.027-0.009-13.768,2.778-18.736,7.746C232.295,12.715,229.508,19.456,229.517,26.483   z" fill="#fdd7ad" data-original="#fdd7ad" class=""/>
	<path style="" d="M229.517,346.483v6.621h194.207v-35.31H256.883C241.417,318.189,229.182,331.015,229.517,346.483z" fill="#cbb292" data-original="#cbb292" class=""/>
	<path style="" d="M441.379,203.035h-52.966c-18.731-0.005-36.697,7.434-49.942,20.679s-20.684,31.211-20.679,49.942   v167.724c-0.005,18.731,7.434,36.697,20.679,49.942c13.245,13.245,31.211,20.684,49.942,20.679h52.966   c18.731,0.005,36.697-7.434,49.942-20.679c13.245-13.245,20.684-31.211,20.679-49.942V273.655   c0.005-18.731-7.433-36.697-20.679-49.942S460.111,203.029,441.379,203.035z" fill="#646464" data-original="#ecf0f1" class=""/>
	<path style="" d="M512,273.655v61.793h-97.103V203.035h26.483c18.731-0.005,36.697,7.434,49.942,20.679   S512.005,254.924,512,273.655z" fill="#bdc3c7" data-original="#bdc3c7"/>
	<path style="" d="M512,335.448v105.931c0.005,18.731-7.434,36.697-20.679,49.942   c-13.245,13.245-31.211,20.684-49.942,20.679h-52.966c-18.731,0.005-36.697-7.434-49.942-20.679   c-13.245-13.245-20.684-31.211-20.679-49.942V335.448H512z" fill="#c9c9c9" data-original="#95a5a5" class=""/>
</g>
<g xmlns="http://www.w3.org/2000/svg">
</g>
<g xmlns="http://www.w3.org/2000/svg">
</g>
<g xmlns="http://www.w3.org/2000/svg">
</g>
<g xmlns="http://www.w3.org/2000/svg">
</g>
<g xmlns="http://www.w3.org/2000/svg">
</g>
<g xmlns="http://www.w3.org/2000/svg">
</g>
<g xmlns="http://www.w3.org/2000/svg">
</g>
<g xmlns="http://www.w3.org/2000/svg">
</g>
<g xmlns="http://www.w3.org/2000/svg">
</g>
<g xmlns="http://www.w3.org/2000/svg">
</g>
<g xmlns="http://www.w3.org/2000/svg">
</g>
<g xmlns="http://www.w3.org/2000/svg">
</g>
<g xmlns="http://www.w3.org/2000/svg">
</g>
<g xmlns="http://www.w3.org/2000/svg">
</g>
<g xmlns="http://www.w3.org/2000/svg">
</g>
</g></svg>
