<svg id="Capa_1" enable-background="new 0 0 512 512" height="512" viewBox="0 0 512 512" width="512" xmlns="http://www.w3.org/2000/svg"><g><g><path d="m268.617 59.878c-101.687 0-184.12 82.433-184.12 184.12 0 62.491 31.14 118.732 78.741 152.017h210.757c47.602-33.285 78.742-89.526 78.742-152.017 0-101.686-82.433-184.12-184.12-184.12z" fill="#60b8ff"/></g><g><path d="m268.617 59.878c-101.687 0-184.12 82.433-184.12 184.12 0 62.491 31.14 118.732 78.741 152.017h210.757c47.602-33.285 78.742-89.526 78.742-152.017 0-101.686-82.433-184.12-184.12-184.12z" fill="#60b8ff"/></g><path d="m159.974 244.364c0-90.557 50.821-166.175 118.543-184.22-3.278-.174-6.578-.267-9.9-.267-101.686 0-184.12 82.433-184.12 184.12 0 62.491 31.14 118.732 78.741 152.017h56.582c-36.335-34.43-59.846-90.068-59.846-151.65z" fill="#22a7ff"/><g><g><g><path d="m416.281 251.061c-4.267 0-7.726-3.459-7.726-7.726 0-49.316-25.197-94.063-67.403-119.696-3.647-2.215-4.808-6.967-2.593-10.615 2.214-3.647 6.966-4.809 10.615-2.593 45.306 27.516 74.834 77.139 74.834 132.904-.001 4.267-3.46 7.726-7.727 7.726z" fill="#8bcaff"/></g></g></g><path d="m400.04 17.881c-6.655-3.404-12.091-8.85-15.48-15.514-.737-1.447-2.214-2.367-3.839-2.367s-3.102.92-3.838 2.368c-3.389 6.664-8.825 12.109-15.48 15.514-1.443.738-2.358 2.213-2.358 3.833v.106c0 1.603.887 3.083 2.315 3.811 6.633 3.383 12.056 8.793 15.455 15.417.73 1.423 2.207 2.305 3.806 2.305h.2c1.599 0 3.076-.882 3.806-2.305 3.399-6.624 8.822-12.034 15.455-15.417 1.428-.728 2.315-2.208 2.315-3.811v-.106c.001-1.621-.914-3.096-2.357-3.834z" fill="#ffea7e"/><path d="m87.282 386.655c-6.655-3.404-12.091-8.85-15.48-15.514-.736-1.448-2.214-2.368-3.838-2.368s-3.102.92-3.838 2.368c-3.389 6.664-8.825 12.109-15.48 15.514-1.443.738-2.358 2.213-2.358 3.833v.106c0 1.603.887 3.083 2.315 3.811 6.633 3.383 12.056 8.793 15.455 15.417.73 1.423 2.207 2.305 3.806 2.305h.2c1.599 0 3.076-.882 3.806-2.305 3.399-6.624 8.822-12.034 15.455-15.417 1.428-.728 2.315-2.208 2.315-3.811v-.106c0-1.62-.915-3.095-2.358-3.833z" fill="#ffea7e"/><g fill="#ffe02f"><path d="m490.303 83.177c-8.671-4.436-15.755-11.531-20.171-20.214-.96-1.886-2.885-3.085-5.001-3.085-2.117 0-4.042 1.198-5.001 3.085-4.416 8.683-11.499 15.778-20.171 20.214-1.88.962-3.072 2.883-3.072 4.995v.138c0 2.089 1.156 4.017 3.016 4.966 8.643 4.408 15.709 11.457 20.138 20.088.951 1.854 2.876 3.003 4.959 3.003h.261c2.083 0 4.008-1.149 4.959-3.003 4.429-8.631 11.495-15.68 20.138-20.088 1.861-.949 3.016-2.877 3.016-4.966v-.138c.001-2.112-1.191-4.034-3.071-4.995z"/><path d="m383.036 25.631c-1.428-.728-2.315-2.208-2.315-3.811v-.106c0-1.62.915-3.095 2.358-3.833 3.13-1.601 5.976-3.668 8.48-6.086-2.821-2.724-5.205-5.898-7-9.428-.736-1.447-2.213-2.367-3.838-2.367s-3.102.92-3.838 2.367c-3.389 6.664-8.825 12.109-15.48 15.514-1.443.738-2.358 2.213-2.358 3.833v.106c0 1.603.887 3.083 2.315 3.811 6.633 3.383 12.056 8.793 15.455 15.417.73 1.423 2.207 2.305 3.806 2.305h.2c1.599 0 3.076-.882 3.806-2.305 1.787-3.482 4.145-6.616 6.932-9.309-2.514-2.43-5.376-4.503-8.523-6.108z"/><path d="m70.279 394.406c-1.428-.728-2.315-2.208-2.315-3.811v-.106c0-1.62.915-3.095 2.358-3.833 3.13-1.601 5.976-3.667 8.481-6.086-2.821-2.724-5.205-5.898-7-9.428-.736-1.448-2.214-2.367-3.838-2.367s-3.102.92-3.838 2.367c-3.389 6.664-8.825 12.109-15.481 15.514-1.442.738-2.358 2.213-2.358 3.833v.106c0 1.603.887 3.083 2.315 3.811 6.633 3.383 12.056 8.793 15.455 15.417.73 1.423 2.207 2.305 3.806 2.305h.2c1.599 0 3.076-.882 3.806-2.305 1.787-3.482 4.145-6.616 6.932-9.309-2.515-2.43-5.377-4.504-8.523-6.108z"/></g><path d="m461.58 93.275c-1.861-.949-3.017-2.877-3.017-4.966v-.138c0-2.111 1.192-4.033 3.072-4.995 5.514-2.82 10.382-6.72 14.334-11.415-2.263-2.689-4.229-5.637-5.837-8.799-.96-1.886-2.885-3.085-5.001-3.085s-4.042 1.198-5.001 3.085c-4.416 8.683-11.499 15.778-20.171 20.214-1.88.962-3.072 2.883-3.072 4.995v.138c0 2.089 1.155 4.017 3.016 4.966 8.643 4.408 15.709 11.457 20.138 20.088.951 1.854 2.876 3.003 4.959 3.003h.261c2.084 0 4.008-1.149 4.959-3.003 1.591-3.1 3.527-5.992 5.749-8.634-3.964-4.715-8.85-8.629-14.389-11.454z" fill="#fbc700"/><path d="m50.284 304.364h-4.24v-4.24c0-4.267-3.459-7.726-7.726-7.726s-7.726 3.459-7.726 7.726v4.24h-4.24c-4.267 0-7.726 3.459-7.726 7.726s3.459 7.726 7.726 7.726h4.24v4.24c0 4.267 3.459 7.726 7.726 7.726s7.726-3.459 7.726-7.726v-4.24h4.24c4.267 0 7.726-3.459 7.726-7.726s-3.458-7.726-7.726-7.726z" fill="#ffe02f"/><path d="m382.487 394.985h-227.739c-5.651 0-10.233 4.581-10.233 10.233v22.533h248.205v-22.533c0-5.651-4.582-10.233-10.233-10.233z" fill="#d9edff"/><path d="m219.134 394.985h-64.387c-5.651 0-10.233 4.582-10.233 10.233v22.533h64.387v-22.533c.001-5.651 4.582-10.233 10.233-10.233z" fill="#b4dbff"/><g><path d="m408.124 485.416v-49.627c0-6.121-5.008-11.128-11.128-11.128h-256.758c-6.12 0-11.128 5.008-11.128 11.128v49.627z" fill="#df7f66"/></g><path d="m204.625 424.66h-64.387c-6.121 0-11.128 5.007-11.128 11.128v49.628h64.387v-49.628c0-6.12 5.008-11.128 11.128-11.128z" fill="#d8694b"/><path d="m414.328 482.325h-291.421c-5.651 0-10.233 4.581-10.233 10.233v9.209c0 5.652 4.581 10.233 10.233 10.233h291.421c5.651 0 10.233-4.581 10.233-10.233v-9.209c-.001-5.652-4.582-10.233-10.233-10.233z" fill="#d8694b"/><path d="m177.061 501.767v-9.209c0-5.651 4.582-10.233 10.233-10.233h-64.387c-5.651 0-10.233 4.581-10.233 10.233v9.209c0 5.652 4.582 10.233 10.233 10.233h64.387c-5.651 0-10.233-4.581-10.233-10.233z" fill="#c5573a"/></g></svg>