<?xml version="1.0"?>
<svg xmlns="http://www.w3.org/2000/svg" xmlns:xlink="http://www.w3.org/1999/xlink" xmlns:svgjs="http://svgjs.com/svgjs" version="1.1" width="512" height="512" x="0" y="0" viewBox="0 0 64 64" style="enable-background:new 0 0 512 512" xml:space="preserve" class=""><g><circle xmlns="http://www.w3.org/2000/svg" cx="9" cy="9" fill="#50b6cf" r="6" data-original="#50b6cf" style="" class=""/><circle xmlns="http://www.w3.org/2000/svg" cx="37" cy="9" fill="#50b6cf" r="6" data-original="#50b6cf" style="" class=""/><g xmlns="http://www.w3.org/2000/svg" fill="#223b5a"><path d="m14 8h15v2h-15z" fill="#ffffff" data-original="#223b5a" style="" class=""/><path d="m32 54h15v2h-15z" fill="#ffffff" data-original="#223b5a" style="" class=""/><path d="m49.5 33h-18.5v-2h18.5c5.79004 0 10.5-4.71045 10.5-10.5s-4.70996-10.5-10.5-10.5h-7.5v-2h7.5c6.89258 0 12.5 5.60742 12.5 12.5s-5.60742 12.5-12.5 12.5z" fill="#ffffff" data-original="#223b5a" style="" class=""/><path d="m19 56h-4.5c-6.89258 0-12.5-5.60742-12.5-12.5s5.60742-12.5 12.5-12.5h3.5v2h-3.5c-5.79004 0-10.5 4.71045-10.5 10.5s4.70996 10.5 10.5 10.5h4.5z" fill="#ffffff" data-original="#223b5a" style="" class=""/></g><circle xmlns="http://www.w3.org/2000/svg" cx="27" cy="55" fill="#50b6cf" r="6" data-original="#50b6cf" style="" class=""/><circle xmlns="http://www.w3.org/2000/svg" cx="55" cy="55" fill="#e34e4b" r="6" data-original="#e34e4b" style=""/><circle xmlns="http://www.w3.org/2000/svg" cx="23" cy="32" fill="#50b6cf" r="6" data-original="#50b6cf" style="" class=""/><path xmlns="http://www.w3.org/2000/svg" d="m12.11865 3.88135c.55548.9096.88135 1.97479.88135 3.11865 0 3.31372-2.68628 6-6 6-1.14386 0-2.20905-.32587-3.11865-.88135 1.05371 1.72559 2.94879 2.88135 5.11865 2.88135 3.31372 0 6-2.68628 6-6 0-2.16986-1.15576-4.06494-2.88135-5.11865z" fill="#3cadc9" data-original="#3cadc9" style="" class=""/><path xmlns="http://www.w3.org/2000/svg" d="m40.11865 3.88135c.55548.9096.88135 1.97479.88135 3.11865 0 3.31372-2.68628 6-6 6-1.14386 0-2.20905-.32587-3.11865-.88135 1.05371 1.72559 2.94879 2.88135 5.11865 2.88135 3.31372 0 6-2.68628 6-6 0-2.16986-1.15576-4.06494-2.88135-5.11865z" fill="#3cadc9" data-original="#3cadc9" style="" class=""/><path xmlns="http://www.w3.org/2000/svg" d="m30.11865 49.88135c.55548.9096.88135 1.97479.88135 3.11865 0 3.31372-2.68628 6-6 6-1.14386 0-2.20905-.32587-3.11865-.88135 1.05371 1.72559 2.94879 2.88135 5.11865 2.88135 3.31372 0 6-2.68628 6-6 0-2.16986-1.15576-4.06494-2.88135-5.11865z" fill="#3cadc9" data-original="#3cadc9" style="" class=""/><path xmlns="http://www.w3.org/2000/svg" d="m58.11865 49.88135c.55548.9096.88135 1.97479.88135 3.11865 0 3.31372-2.68628 6-6 6-1.14386 0-2.20905-.32587-3.11865-.88135 1.05371 1.72559 2.94879 2.88135 5.11865 2.88135 3.31372 0 6-2.68628 6-6 0-2.16986-1.15576-4.06494-2.88135-5.11865z" fill="#de4542" data-original="#de4542" style=""/><path xmlns="http://www.w3.org/2000/svg" d="m26.11865 26.88135c.55548.9096.88135 1.97479.88135 3.11865 0 3.31372-2.68628 6-6 6-1.14386 0-2.20905-.32587-3.11865-.88135 1.05371 1.72559 2.94879 2.88135 5.11865 2.88135 3.31372 0 6-2.68628 6-6 0-2.16986-1.15576-4.06494-2.88135-5.11865z" fill="#3cadc9" data-original="#3cadc9" style="" class=""/><path xmlns="http://www.w3.org/2000/svg" d="m26.70703 12.70703-1.41406-1.41406 2.29297-2.29297-2.29297-2.29297 1.41406-1.41406 3.70703 3.70703z" fill="#ffffff" data-original="#223b5a" style="" class=""/><path xmlns="http://www.w3.org/2000/svg" d="m33.29297 35.70703-3.70703-3.70703 3.70703-3.70703 1.41406 1.41406-2.29297 2.29297 2.29297 2.29297z" fill="#ffffff" data-original="#223b5a" style="" class=""/><path xmlns="http://www.w3.org/2000/svg" d="m44.70703 58.70703-1.41406-1.41406 2.29297-2.29297-2.29297-2.29297 1.41406-1.41406 3.70703 3.70703z" fill="#ffffff" data-original="#223b5a" style="" class=""/><path xmlns="http://www.w3.org/2000/svg" d="m16.70703 58.70703-1.41406-1.41406 2.29297-2.29297-2.29297-2.29297 1.41406-1.41406 3.70703 3.70703z" fill="#ffffff" data-original="#223b5a" style="" class=""/></g></svg>
