<?xml version="1.0" encoding="iso-8859-1"?>
<!-- Generator: Adobe Illustrator 19.0.0, SVG Export Plug-In . SVG Version: 6.00 Build 0)  -->
<svg version="1.1" id="Capa_1" xmlns="http://www.w3.org/2000/svg" xmlns:xlink="http://www.w3.org/1999/xlink" x="0px" y="0px"
	 viewBox="0 0 511.999 511.999" style="enable-background:new 0 0 511.999 511.999;" xml:space="preserve">
<path style="fill:#F9A13E;" d="M221.415,132.327c-11.67,25.841-30.432,40.497-30.432,40.497H38.689c0,0-22.693-10.339-33.318-38.469
	c-6.258-16.572-8.336-39.327,0.883-69.771c24.87-82.113,191.46-83.37,217.575-10.575
	C235.201,85.721,230.423,112.358,221.415,132.327z"/>
<g>
	<path style="fill:#E2780E;" d="M221.415,132.327c-11.67,25.841-30.432,40.497-30.432,40.497h-43.906
		c0-26.587,21.623-48.21,48.21-48.21C204.906,124.613,213.876,127.45,221.415,132.327z"/>
	<path style="fill:#E2780E;" d="M82.594,172.823H38.689c0,0-22.693-10.339-33.318-38.469c8.075-6.109,18.127-9.742,29.013-9.742
		C60.971,124.613,82.594,146.236,82.594,172.823z"/>
</g>
<path style="fill:#D2E3F1;" d="M215.607,382.826v128.051H14.886V382.826c0-20.531,6.171-39.641,16.761-55.547
	c17.987-27.001,48.717-44.813,83.61-44.813c27.702,0,52.797,11.239,70.959,29.391c4.708,4.698,8.952,9.879,12.63,15.442
	C209.436,343.195,215.607,362.294,215.607,382.826z"/>
<g>
	<path style="fill:#A5C6E3;" d="M122.468,317.337v193.54h-15.453v-193.54c0-4.265,3.461-7.726,7.726-7.726
		C119.007,309.611,122.468,313.072,122.468,317.337z"/>
	<path style="fill:#A5C6E3;" d="M198.847,327.295l-38.245,35.943c-5.798,5.449-14.843,5.362-20.528-0.187l-24.821-24.223
		l-24.82,24.223c-5.686,5.549-14.743,5.636-20.528,0.187l-38.257-35.956c17.99-27.01,48.72-44.814,83.606-44.814
		c27.707,0,52.801,11.235,70.966,29.387C190.922,316.559,195.164,321.734,198.847,327.295z"/>
</g>
<path style="fill:#5A9BCC;" d="M187.087,312.745l-33.723,31.69c-1.608,1.511-4.121,1.487-5.7-0.054l-32.411-31.636l-32.411,31.636
	c-1.579,1.541-4.092,1.565-5.7,0.054l-33.722-31.69c18.215-18.69,43.676-30.287,71.834-30.287c27.713,0,52.807,11.229,70.961,29.398
	C186.505,312.148,186.796,312.439,187.087,312.745z"/>
<path style="fill:#FCCE99;" d="M115.249,312.745L115.249,312.745c-12.276,0-22.228-9.952-22.228-22.228v-38.336h44.455v38.336
	C137.477,302.793,127.525,312.745,115.249,312.745z"/>
<path style="fill:#5A9BCC;" d="M187.088,420.203H147.93c-4.268,0-7.726-3.459-7.726-7.726s3.459-7.726,7.726-7.726h39.158
	c4.268,0,7.726,3.459,7.726,7.726S191.355,420.203,187.088,420.203z"/>
<g>
	<circle style="fill:#FCCE99;" cx="195.29" cy="172.819" r="29.554"/>
	<circle style="fill:#FCCE99;" cx="34.38" cy="172.819" r="29.554"/>
</g>
<path style="fill:#FEE6CC;" d="M195.288,93.957l-3.832,45.921l-5.163,61.821c-3.098,37.162-34.164,65.74-71.463,65.74
	c-37.287,0-68.353-28.578-71.451-65.74l-5.412-64.82l-3.583-42.923L195.288,93.957L195.288,93.957z"/>
<path style="fill:#FCCE99;" d="M195.288,93.957l-3.832,45.921c-12.292,2.314-24.771,3.471-37.411,3.471
	c-41.604,0-74.885-12.653-92.34-21.026c-5.773,4.79-13.686,10.214-23.738,14.556l-3.583-42.923h160.904V93.957z"/>
<path style="fill:#F9A13E;" d="M180.359,70.957c24.883,18.815,68.428,27.852,68.428,27.852
	c-100.776,57.863-190.354,0.61-190.354,0.61s-11.461,14.914-33.546,22.534V70.957H180.359z"/>
<path style="fill:#E2780E;" d="M153.775,132.353c-14.835,0.001-28.185-1.68-39.488-3.968c-26.042-5.269-45.313-14.347-54.342-19.196
	c-5.698,5.612-16.615,14.574-32.537,20.068c-4.039,1.392-8.433-0.751-9.824-4.784c-1.391-4.034,0.751-8.433,4.784-9.824
	c19.665-6.785,29.839-19.808,29.94-19.939c2.444-3.177,6.91-3.96,10.288-1.802c0.207,0.132,22.021,13.817,55.358,20.452
	c37.868,7.534,74.56,3.42,109.338-12.227c-15.377-4.688-36.484-12.591-51.592-24.014c-3.403-2.573-4.076-7.42-1.503-10.823
	c2.572-3.403,7.417-4.077,10.823-1.503c23.226,17.563,64.92,26.363,65.338,26.45c3.142,0.652,5.553,3.179,6.059,6.347
	c0.506,3.169-1,6.321-3.783,7.919C216.906,126.023,182.553,132.353,153.775,132.353z"/>
<g>
	<path style="fill:#1D71B8;" d="M76.682,175.938c-4.268,0-7.726-3.459-7.726-7.726v-1.582c0-4.268,3.459-7.726,7.726-7.726
		c4.268,0,7.726,3.459,7.726,7.726v1.582C84.408,172.479,80.95,175.938,76.682,175.938z"/>
	<path style="fill:#1D71B8;" d="M152.798,175.938c-4.268,0-7.726-3.459-7.726-7.726v-1.582c0-4.268,3.459-7.726,7.726-7.726
		s7.726,3.459,7.726,7.726v1.582C160.524,172.479,157.065,175.938,152.798,175.938z"/>
</g>
<path style="fill:#E8A96B;" d="M116.019,227.8c-8.542,0-16.513-2.497-22.443-7.031c-3.389-2.593-4.036-7.442-1.445-10.831
	c2.592-3.389,7.44-4.038,10.831-1.445c3.203,2.45,7.962,3.854,13.056,3.854c5.095,0,9.853-1.404,13.056-3.854
	c3.389-2.591,8.239-1.945,10.831,1.445c2.592,3.389,1.945,8.238-1.445,10.831C132.532,225.303,124.561,227.8,116.019,227.8z"/>
<g>
	<path style="fill:#5A9BCC;" d="M265.954,434.411c-4.268,0-7.726-3.459-7.726-7.726v-18.458c0-4.268,3.459-7.726,7.726-7.726
		c4.268,0,7.726,3.459,7.726,7.726v18.458C273.68,430.952,270.221,434.411,265.954,434.411z"/>
	<path style="fill:#5A9BCC;" d="M294.366,434.411c-4.268,0-7.726-3.459-7.726-7.726v-18.458c0-4.268,3.459-7.726,7.726-7.726
		c4.268,0,7.726,3.459,7.726,7.726v18.458C302.093,430.952,298.634,434.411,294.366,434.411z"/>
	<path style="fill:#5A9BCC;" d="M322.779,434.411c-4.268,0-7.726-3.459-7.726-7.726v-18.458c0-4.268,3.459-7.726,7.726-7.726
		c4.268,0,7.726,3.459,7.726,7.726v18.458C330.505,430.952,327.046,434.411,322.779,434.411z"/>
	<path style="fill:#5A9BCC;" d="M351.191,434.411c-4.268,0-7.726-3.459-7.726-7.726v-18.458c0-4.268,3.459-7.726,7.726-7.726
		c4.268,0,7.726,3.459,7.726,7.726v18.458C358.918,430.952,355.459,434.411,351.191,434.411z"/>
</g>
<path style="fill:#D2E3F1;" d="M503.759,179.248H269.656c-4.552,0-8.241-3.69-8.241-8.241v-38.152c0-4.552,3.69-8.241,8.241-8.241
	h234.102c4.552,0,8.241,3.69,8.241,8.241v38.152C512,175.558,508.31,179.248,503.759,179.248z"/>
<path style="fill:#FF2796;" d="M333.01,179.248h-63.354c-4.552,0-8.241-3.69-8.241-8.241v-38.152c0-4.552,3.69-8.241,8.241-8.241
	h63.354V179.248z"/>
<path style="fill:#D2E3F1;" d="M503.759,273.099H269.656c-4.552,0-8.241-3.69-8.241-8.241v-38.152c0-4.552,3.69-8.241,8.241-8.241
	h234.102c4.552,0,8.241,3.69,8.241,8.241v38.152C512,269.409,508.31,273.099,503.759,273.099z"/>
<path style="fill:#8AE46D;" d="M448.927,273.099H269.656c-4.552,0-8.241-3.69-8.241-8.241v-38.152c0-4.552,3.69-8.241,8.241-8.241
	h179.271V273.099z"/>
<path style="fill:#D2E3F1;" d="M503.759,366.949H269.656c-4.552,0-8.241-3.69-8.241-8.241v-38.152c0-4.552,3.69-8.241,8.241-8.241
	h234.102c4.552,0,8.241,3.69,8.241,8.241v38.152C512,363.259,508.31,366.949,503.759,366.949z"/>
<path style="fill:#FEC007;" d="M408.016,366.949h-138.36c-4.552,0-8.241-3.69-8.241-8.241v-38.152c0-4.552,3.69-8.241,8.241-8.241
	h138.36V366.949z"/>
<g>
</g>
<g>
</g>
<g>
</g>
<g>
</g>
<g>
</g>
<g>
</g>
<g>
</g>
<g>
</g>
<g>
</g>
<g>
</g>
<g>
</g>
<g>
</g>
<g>
</g>
<g>
</g>
<g>
</g>
</svg>
