<?xml version="1.0"?>
<svg xmlns="http://www.w3.org/2000/svg" xmlns:xlink="http://www.w3.org/1999/xlink" xmlns:svgjs="http://svgjs.com/svgjs" version="1.1" width="512" height="512" x="0" y="0" viewBox="0 0 512 512" style="enable-background:new 0 0 512 512" xml:space="preserve" class=""><g><g xmlns="http://www.w3.org/2000/svg"><path d="m166.286 496c1.24-50.872 89.714-15.266 89.714-60 0 44.734 88.475 9.128 89.48 60h33.73c38.685-158.518-17.488-195.189-78.51-219.3-23.101-9-29.7-12.9-29.7-20.7 0-8.401-6.599-15-15-15s-15 6.599-15 15c0 7.8-6.599 11.7-29.7 20.7-61.022 24.111-117.195 60.782-78.51 219.3z" fill="#edf5ff" data-original="#edf5ff" style="" class=""/><path d="m345.48 496h33.73c38.685-158.518-17.488-195.189-78.51-219.3-23.101-9-29.7-12.9-29.7-20.7 0-8.401-6.599-15-15-15v195c0 44.734 88.475 9.128 89.48 60z" fill="#d5e8fe" data-original="#d5e8fe" style=""/><g><path d="m360.821 496c-1.617-38.099-32.67-61.339-55.631-78.413-18.311-13.623-34.116-25.386-34.116-38.73 0-8.291-6.709-15-15-15s-15 6.709-15 15c0 13.345-15.806 25.107-34.116 38.73-24.06 17.908-54.518 40.728-55.873 78.413z" fill="#fed843" data-original="#fed843" style=""/></g><path d="m271.073 378.856c0-8.291-6.709-15-15-15-.026 0-.048.015-.073.015v132.129h104.821c-1.617-38.099-32.67-61.339-55.631-78.413-18.311-13.623-34.117-25.386-34.117-38.731z" fill="#fabe2c" data-original="#fabe2c" style="" class=""/><path d="m365.501 106s-27.301-15-54.899-15c-27.305 0-54.602 15-54.602 15s-27.297 15-54.602 15c-27.598 0-54.899-15-54.899-15l-25.8 15.899c4.801 72.001 46.501 96 90.601 113.401 23.101 9 29.7 12.9 29.7 20.7 0 8.399 6.599 15 15 15s15-6.601 15-15c0-7.8 6.599-11.7 29.7-20.7 38.401-15 74.7-35.099 86.7-87.301z" fill="#fed843" data-original="#fed843" style=""/><path d="m271 256c0-7.8 6.599-11.7 29.7-20.7 38.401-15 74.7-35.099 86.7-87.301l-21.899-41.999s-27.301-15-54.899-15c-27.305 0-54.602 15-54.602 15v165c8.401 0 15-6.601 15-15z" fill="#fabe2c" data-original="#fabe2c" style="" class=""/><g><g><g><path d="m132.807 16c-10.66 43.799-14.15 78.483-12.107 105.899l25.8 14.101s27.301 15 54.899 15c27.304 0 54.601-15 54.601-15s27.297-15 54.602-15c27.598 0 54.899 15 54.899 15l21.899 11.999c7.635-30.831 6.167-73.123-8.238-131.999-56.984 0-189.422 0-246.355 0z" fill="#edf5ff" data-original="#edf5ff" style="" class=""/></g></g></g><path d="m256 16v120s27.297-15 54.602-15c27.598 0 54.899 15 54.899 15l21.899 11.999c7.635-30.831 6.167-73.123-8.238-131.999-28.485 0-75.824 0-123.162 0z" fill="#d5e8fe" data-original="#d5e8fe" style=""/><g fill="#5c6699"><path d="m406 482c-5.105 0-313.427 0-300 0-8.291 0-15 6.709-15 15s6.709 15 15 15c22.198 0 310.737 0 300 0 8.291 0 15-6.709 15-15s-6.709-15-15-15z" fill="#2599ff" data-original="#5c6699" style="" class=""/><path d="m406 0c-3.021 0-300 0-300 0-8.291 0-15 6.709-15 15s6.709 15 15 15h300c8.291 0 15-6.709 15-15s-6.709-15-15-15z" fill="#2599ff" data-original="#5c6699" style="" class=""/></g><g fill="#404a80"><path d="m406 482c-2.476 0-76.208 0-150 0v30h150c8.291 0 15-6.709 15-15s-6.709-15-15-15z" fill="#026fbf" data-original="#404a80" style="" class=""/><path d="m406 0c-1.503 0-75.754 0-150 0v30h150c8.291 0 15-6.709 15-15s-6.709-15-15-15z" fill="#026fbf" data-original="#404a80" style="" class=""/></g></g></g></svg>
