<svg id="svg" version="1.1" xmlns="http://www.w3.org/2000/svg" xmlns:xlink="http://www.w3.org/1999/xlink" width="400" height="400" viewBox="0, 0, 400,400"><g id="svgg"><path id="path0" d="M212.400 112.854 C 208.302 113.973,207.325 119.059,206.390 144.126 C 205.854 158.512,206.027 157.982,201.600 158.812 C 196.637 159.742,195.000 162.319,195.000 169.200 C 195.000 175.517,196.289 177.777,200.600 179.012 C 203.643 179.884,205.011 180.582,205.452 181.485 C 205.643 181.878,205.899 197.410,206.021 216.000 C 206.236 248.820,206.266 249.881,207.081 252.600 C 207.542 254.140,208.310 256.840,208.787 258.600 C 210.723 265.732,215.081 270.144,223.038 273.024 L 226.840 274.400 234.471 274.400 L 242.103 274.400 244.151 273.222 C 247.278 271.424,248.311 268.464,247.900 262.474 C 247.468 256.166,245.305 254.400,238.015 254.400 C 227.557 254.400,227.623 254.676,227.609 210.759 L 227.600 182.518 228.515 181.159 L 229.429 179.800 234.576 179.513 C 243.634 179.008,245.375 177.197,245.068 168.600 C 244.767 160.185,243.345 158.828,234.800 158.803 C 227.179 158.780,227.848 160.826,227.600 136.783 L 227.400 117.367 226.483 116.183 C 225.978 115.533,225.252 114.578,224.868 114.062 C 223.742 112.546,216.203 111.816,212.400 112.854 M113.200 113.812 C 111.550 114.349,108.547 115.150,106.526 115.590 C 104.505 116.031,101.895 116.744,100.726 117.174 C 99.557 117.604,97.099 118.235,95.264 118.576 C 91.598 119.258,91.638 119.242,89.512 120.932 C 87.322 122.672,86.997 124.036,87.017 131.400 C 87.044 140.980,88.521 143.083,94.507 142.062 C 98.554 141.372,99.158 141.438,99.610 142.626 C 99.857 143.276,100.005 165.834,100.013 204.126 C 100.028 272.229,99.916 269.440,102.733 272.041 C 105.052 274.182,106.001 274.400,112.984 274.400 C 119.227 274.400,121.148 273.459,123.191 269.400 L 124.600 266.600 124.714 195.000 C 124.838 117.126,124.872 118.415,122.641 115.311 C 120.528 112.369,118.583 112.060,113.200 113.812 M166.800 113.809 C 165.150 114.345,162.397 115.070,160.682 115.422 C 158.966 115.773,156.301 116.490,154.757 117.015 C 153.214 117.539,150.318 118.269,148.321 118.636 C 141.333 119.920,139.974 122.550,140.503 133.764 C 140.866 141.456,142.805 143.257,149.281 141.919 C 153.412 141.066,152.970 134.000,153.211 204.714 C 153.448 274.237,153.215 269.275,156.374 272.129 C 160.038 275.439,171.444 275.413,174.897 272.086 C 178.054 269.044,177.800 276.024,177.800 192.400 L 177.800 117.800 176.903 116.357 C 174.488 112.474,172.477 111.967,166.800 113.809 M255.725 159.223 C 251.534 160.494,251.077 168.605,254.612 179.000 C 255.360 181.200,256.235 184.548,256.555 186.440 C 256.876 188.331,257.434 190.581,257.795 191.440 C 258.156 192.298,258.802 194.710,259.231 196.800 C 259.660 198.890,260.630 202.850,261.387 205.600 C 262.144 208.350,262.877 211.320,263.017 212.200 C 263.157 213.080,263.784 215.420,264.411 217.400 C 265.037 219.380,266.392 224.600,267.422 229.000 C 268.452 233.400,269.719 238.450,270.237 240.222 C 270.755 241.995,271.459 244.785,271.801 246.422 C 272.144 248.060,272.794 250.390,273.247 251.600 C 273.699 252.810,274.490 256.320,275.005 259.400 C 275.520 262.480,276.135 265.507,276.371 266.126 C 277.267 268.479,275.620 278.248,273.998 280.203 C 273.029 281.370,270.593 281.682,267.283 281.065 C 260.656 279.829,259.000 281.574,259.000 289.792 L 259.000 295.526 260.223 297.037 C 262.079 299.330,263.138 299.955,266.613 300.808 C 279.837 304.055,290.077 298.267,293.806 285.439 C 294.176 284.166,294.898 282.197,295.411 281.063 C 295.947 279.876,296.624 277.060,297.005 274.433 C 297.369 271.922,298.013 268.748,298.435 267.381 C 299.427 264.171,299.837 261.955,300.393 256.800 C 300.642 254.490,301.266 251.250,301.780 249.600 C 302.294 247.950,303.008 244.311,303.366 241.513 C 303.725 238.715,304.366 235.295,304.792 233.913 C 305.218 232.531,306.120 228.250,306.798 224.400 C 307.476 220.550,308.191 216.770,308.388 216.000 C 308.584 215.230,309.126 212.170,309.593 209.200 C 310.060 206.230,310.864 202.000,311.380 199.800 C 311.896 197.600,312.527 194.540,312.782 193.000 C 313.038 191.460,313.600 188.803,314.033 187.096 C 314.465 185.389,315.183 181.609,315.627 178.696 C 316.072 175.783,316.698 172.264,317.018 170.875 C 318.197 165.759,317.202 160.892,314.701 159.543 C 313.380 158.831,305.578 158.590,303.418 159.195 C 299.973 160.160,298.035 164.563,296.801 174.231 C 296.354 177.734,295.635 181.680,295.205 183.000 C 294.774 184.320,294.056 187.774,293.610 190.675 C 293.164 193.577,292.547 197.177,292.239 198.675 C 291.931 200.174,291.288 204.010,290.812 207.200 C 289.498 215.996,289.280 216.873,288.109 218.095 C 286.072 220.221,285.865 219.945,284.617 213.449 C 284.090 210.706,283.296 207.143,282.852 205.531 C 282.408 203.919,281.844 201.070,281.599 199.200 C 281.355 197.330,280.640 194.090,280.011 192.000 C 279.382 189.910,278.576 186.277,278.219 183.928 C 277.863 181.578,277.132 178.365,276.596 176.787 C 276.059 175.209,275.343 171.936,275.005 169.514 C 274.668 167.091,274.276 164.905,274.134 164.655 C 272.688 162.092,271.207 160.212,270.209 159.668 C 268.792 158.898,257.904 158.563,255.725 159.223 " stroke="none" fill="#f1f1f1" fill-rule="evenodd"></path><path id="path1" d="M51.600 200.000 L 51.600 400.000 200.200 400.000 L 348.800 400.000 348.800 200.000 L 348.800 0.000 200.200 0.000 L 51.600 0.000 51.600 200.000 M222.385 112.779 C 223.516 112.998,224.427 113.468,224.868 114.062 C 225.252 114.578,225.978 115.533,226.483 116.183 L 227.400 117.367 227.600 136.783 C 227.848 160.826,227.179 158.780,234.800 158.803 C 243.345 158.828,244.767 160.185,245.068 168.600 C 245.375 177.197,243.634 179.008,234.576 179.513 L 229.429 179.800 228.515 181.159 L 227.600 182.518 227.609 210.759 C 227.623 254.676,227.557 254.400,238.015 254.400 C 245.305 254.400,247.468 256.166,247.900 262.474 C 248.311 268.464,247.278 271.424,244.151 273.222 L 242.103 274.400 234.471 274.400 L 226.840 274.400 223.038 273.024 C 215.081 270.144,210.723 265.732,208.787 258.600 C 208.310 256.840,207.542 254.140,207.081 252.600 C 206.266 249.881,206.236 248.820,206.021 216.000 C 205.899 197.410,205.643 181.878,205.452 181.485 C 205.011 180.582,203.643 179.884,200.600 179.012 C 196.289 177.777,195.000 175.517,195.000 169.200 C 195.000 162.319,196.637 159.742,201.600 158.812 C 206.027 157.982,205.854 158.512,206.390 144.126 C 207.325 119.059,208.302 113.973,212.400 112.854 C 214.171 112.371,220.040 112.327,222.385 112.779 M120.558 113.039 C 122.169 113.657,124.092 117.267,124.465 120.371 C 124.674 122.117,124.780 153.737,124.714 195.000 L 124.600 266.600 123.191 269.400 C 121.148 273.459,119.227 274.400,112.984 274.400 C 106.001 274.400,105.052 274.182,102.733 272.041 C 99.916 269.440,100.028 272.229,100.013 204.126 C 100.005 165.834,99.857 143.276,99.610 142.626 C 99.158 141.438,98.554 141.372,94.507 142.062 C 88.521 143.083,87.044 140.980,87.017 131.400 C 86.997 124.036,87.322 122.672,89.512 120.932 C 91.638 119.242,91.598 119.258,95.264 118.576 C 97.099 118.235,99.557 117.604,100.726 117.174 C 101.895 116.744,104.505 116.031,106.526 115.590 C 108.547 115.150,111.550 114.349,113.200 113.812 C 116.089 112.872,119.255 112.539,120.558 113.039 M174.948 113.857 C 175.530 114.439,176.409 115.564,176.903 116.357 L 177.800 117.800 177.800 192.400 C 177.800 276.024,178.054 269.044,174.897 272.086 C 171.444 275.413,160.038 275.439,156.374 272.129 C 153.215 269.275,153.448 274.237,153.211 204.714 C 152.970 134.000,153.412 141.066,149.281 141.919 C 142.805 143.257,140.866 141.456,140.503 133.764 C 139.974 122.550,141.333 119.920,148.321 118.636 C 150.318 118.269,153.214 117.539,154.757 117.015 C 156.301 116.490,158.966 115.773,160.682 115.422 C 162.397 115.070,165.150 114.345,166.800 113.809 C 170.954 112.461,173.568 112.477,174.948 113.857 M270.209 159.668 C 271.207 160.212,272.688 162.092,274.134 164.655 C 274.276 164.905,274.668 167.091,275.005 169.514 C 275.343 171.936,276.059 175.209,276.596 176.787 C 277.132 178.365,277.863 181.578,278.219 183.928 C 278.576 186.277,279.382 189.910,280.011 192.000 C 280.640 194.090,281.355 197.330,281.599 199.200 C 281.844 201.070,282.408 203.919,282.852 205.531 C 283.296 207.143,284.090 210.706,284.617 213.449 C 285.865 219.945,286.072 220.221,288.109 218.095 C 289.280 216.873,289.498 215.996,290.812 207.200 C 291.288 204.010,291.931 200.174,292.239 198.675 C 292.547 197.177,293.164 193.577,293.610 190.675 C 294.056 187.774,294.774 184.320,295.205 183.000 C 295.635 181.680,296.354 177.734,296.801 174.231 C 298.035 164.563,299.973 160.160,303.418 159.195 C 305.578 158.590,313.380 158.831,314.701 159.543 C 317.202 160.892,318.197 165.759,317.018 170.875 C 316.698 172.264,316.072 175.783,315.627 178.696 C 315.183 181.609,314.465 185.389,314.033 187.096 C 313.600 188.803,313.038 191.460,312.782 193.000 C 312.527 194.540,311.896 197.600,311.380 199.800 C 310.864 202.000,310.060 206.230,309.593 209.200 C 309.126 212.170,308.584 215.230,308.388 216.000 C 308.191 216.770,307.476 220.550,306.798 224.400 C 306.120 228.250,305.218 232.531,304.792 233.913 C 304.366 235.295,303.725 238.715,303.366 241.513 C 303.008 244.311,302.294 247.950,301.780 249.600 C 301.266 251.250,300.642 254.490,300.393 256.800 C 299.837 261.955,299.427 264.171,298.435 267.381 C 298.013 268.748,297.369 271.922,297.005 274.433 C 296.624 277.060,295.947 279.876,295.411 281.063 C 294.898 282.197,294.176 284.166,293.806 285.439 C 290.077 298.267,279.837 304.055,266.613 300.808 C 263.138 299.955,262.079 299.330,260.223 297.037 L 259.000 295.526 259.000 289.792 C 259.000 281.574,260.656 279.829,267.283 281.065 C 270.593 281.682,273.029 281.370,273.998 280.203 C 275.620 278.248,277.267 268.479,276.371 266.126 C 276.135 265.507,275.520 262.480,275.005 259.400 C 274.490 256.320,273.699 252.810,273.247 251.600 C 272.794 250.390,272.144 248.060,271.801 246.422 C 271.459 244.785,270.755 241.995,270.237 240.222 C 269.719 238.450,268.452 233.400,267.422 229.000 C 266.392 224.600,265.037 219.380,264.411 217.400 C 263.784 215.420,263.157 213.080,263.017 212.200 C 262.877 211.320,262.144 208.350,261.387 205.600 C 260.630 202.850,259.660 198.890,259.231 196.800 C 258.802 194.710,258.156 192.298,257.795 191.440 C 257.434 190.581,256.876 188.331,256.555 186.440 C 256.235 184.548,255.360 181.200,254.612 179.000 C 251.077 168.605,251.534 160.494,255.725 159.223 C 257.904 158.563,268.792 158.898,270.209 159.668 " stroke="none" fill="#242424" fill-rule="evenodd"></path></g></svg>