<svg xmlns="http://www.w3.org/2000/svg" version="1.1" xmlns:xlink="http://www.w3.org/1999/xlink" xmlns:svgjs="http://svgjs.com/svgjs" width="512" height="512" x="0" y="0" viewBox="0 0 512.023 512.023" style="enable-background:new 0 0 512 512" xml:space="preserve" class=""><g><path d="M493.248 160.021H256.021c-53.019-.052-96.042 42.886-96.095 95.905a95.999 95.999 0 0 0 12.255 47.028L53.568 99.434c86.393-111.815 247.073-132.423 358.888-46.03a255.85 255.85 0 0 1 80.792 106.617z" style="" fill="#f44336" data-original="#f44336" class=""></path><path d="M512.021 256.021c-.118 141.336-114.664 255.882-256 256a228.332 228.332 0 0 1-32-2.133l115.2-205.867c26.403-45.964 10.664-104.625-35.2-131.2a95.106 95.106 0 0 0-47.787-12.8h237.013a252.409 252.409 0 0 1 18.774 96z" style="" fill="#ffc107" data-original="#ffc107"></path><path d="m339.221 304.021-115.2 205.867h-.213C83.62 492.176-15.666 364.172 2.046 223.984a255.853 255.853 0 0 1 51.522-124.55l118.613 203.52.64 1.067c26.451 45.95 85.143 61.757 131.093 35.307a95.992 95.992 0 0 0 35.307-35.307z" style="" fill="#4caf50" data-original="#4caf50" class=""></path><path d="M339.221 304.021c-26.451 45.95-85.143 61.757-131.093 35.307a96.007 96.007 0 0 1-35.307-35.307l-.64-1.067c-25.921-46.251-9.439-104.758 36.812-130.679a96.004 96.004 0 0 1 47.028-12.255h.213a95.106 95.106 0 0 1 47.787 12.8c45.865 26.576 61.603 85.237 35.2 131.201z" style="" fill="#f44336" data-original="#f44336" class=""></path><path d="M339.221 304.021c-26.451 45.95-85.143 61.757-131.093 35.307a96.007 96.007 0 0 1-35.307-35.307l-.64-1.067c-25.921-46.251-9.439-104.758 36.812-130.679a96.004 96.004 0 0 1 47.028-12.255h.213a95.106 95.106 0 0 1 47.787 12.8c45.865 26.576 61.603 85.237 35.2 131.201z" style="" fill="#2196f3" data-original="#2196f3"></path><path d="M255.659 362.688a105.899 105.899 0 0 1-52.971-14.208 107.06 107.06 0 0 1-39.104-39.125c-29.455-51.018-11.975-116.254 39.043-145.709a106.678 106.678 0 0 1 53.395-14.291c58.91-.046 106.704 47.674 106.749 106.584a106.663 106.663 0 0 1-14.291 53.416 107.265 107.265 0 0 1-92.821 53.333zm.554-192a85.099 85.099 0 0 0-74.219 42.667c-23.564 40.86-9.543 93.087 31.317 116.651s93.087 9.543 116.651-31.317c23.564-40.814 9.58-93.003-31.234-116.568a85.337 85.337 0 0 0-42.494-11.432h-.021z" style="" fill="#fafafa" data-original="#fafafa"></path></g></svg>