<svg xmlns="http://www.w3.org/2000/svg" version="1.1" xmlns:xlink="http://www.w3.org/1999/xlink" xmlns:svgjs="http://svgjs.com/svgjs" width="512" height="512" x="0" y="0" viewBox="0 0 176 176" style="enable-background:new 0 0 512 512" xml:space="preserve" class=""><g><g data-name="Layer 2"><rect width="176" height="176" fill="#0077b5" rx="24" data-original="#0077b5" class=""></rect><g fill="#fff"><path d="M63.4 48a15 15 0 1 1-15-15 15 15 0 0 1 15 15zM60 73v66.27a3.71 3.71 0 0 1-3.71 3.73H40.48a3.71 3.71 0 0 1-3.72-3.72V73a3.72 3.72 0 0 1 3.72-3.72h15.81A3.72 3.72 0 0 1 60 73zM142.64 107.5v32.08a3.41 3.41 0 0 1-3.42 3.42h-17a3.41 3.41 0 0 1-3.42-3.42v-31.09c0-4.64 1.36-20.32-12.13-20.32-10.45 0-12.58 10.73-13 15.55v35.86A3.42 3.42 0 0 1 90.3 143H73.88a3.41 3.41 0 0 1-3.41-3.42V72.71a3.41 3.41 0 0 1 3.41-3.42H90.3a3.42 3.42 0 0 1 3.42 3.42v5.78c3.88-5.82 9.63-10.31 21.9-10.31 27.18 0 27.02 25.38 27.02 39.32z" fill="#ffffff" data-original="#ffffff" class=""></path></g></g></g></svg>