<svg version="1.1" id="Layer_1" xmlns:x="ns_extend;" xmlns:i="ns_ai;" xmlns:graph="ns_graphs;" xmlns="http://www.w3.org/2000/svg" xmlns:xlink="http://www.w3.org/1999/xlink" x="0px" y="0px" viewBox="0 0 87.2 87" style="enable-background:new 0 0 87.2 87;" xml:space="preserve">
 <style type="text/css">
  .st0{fill:#E54B4D;}
 </style>
 <metadata>
  <sfw xmlns="ns_sfw;">
   <slices>
   </slices>
   <sliceSourceBounds bottomLeftOrigin="true" height="87" width="87.2" x="-109" y="-218.7">
   </sliceSourceBounds>
  </sfw>
 </metadata>
 <g>
  <path class="st0" d="M43.5,0C19.5,0-0.1,19.8,0,43.9C0.1,66.1,17,84.7,39.2,87c0.2,0,0.4-0.1,0.5-0.3c0-0.1,0-0.1,0-0.2V43.6h-3.4
		c-0.3,0-0.5-0.2-0.5-0.5c0,0,0,0,0,0v-6.8c0-0.3,0.2-0.5,0.5-0.5c0,0,0,0,0,0H47c0.3,0,0.5,0.2,0.5,0.5c0,0,0,0,0,0v50.2
		c0,0.3,0.2,0.5,0.5,0.5c0,0,0,0,0.1,0c24-2.4,41.4-23.8,39-47.8C84.7,16.9,65.9,0,43.5,0L43.5,0z M55.9,77.3
		c-0.3,0.1-0.5,0-0.6-0.3c0-0.1,0-0.1,0-0.2v-7.2c0-0.3,0.2-0.6,0.4-0.7c14-6.7,20-23.4,13.3-37.4c-4.7-9.9-14.8-16.2-25.8-16
		C28.3,15.8,16,27.8,15.5,42.7c-0.4,11.2,5.9,21.5,16,26.3c0.3,0.1,0.4,0.4,0.4,0.7v7.2c0,0.3-0.2,0.5-0.5,0.5c-0.1,0-0.1,0-0.2,0
		c-14.2-5.2-23.7-18.8-23.5-34C7.9,23.8,23.9,7.9,43.3,7.8c19.9-0.2,36.1,16,36.1,35.8C79.5,59.1,69.6,72.2,55.9,77.3z">
  </path>
 </g>
</svg>