<?xml version="1.0" ?><!DOCTYPE svg  PUBLIC '-//W3C//DTD SVG 1.1//EN'  'http://www.w3.org/Graphics/SVG/1.1/DTD/svg11.dtd'><svg enable-background="new 0 0 128 128" id="Social_Icons" version="1.1" viewBox="0 0 128 128" xml:space="preserve" xmlns="http://www.w3.org/2000/svg" xmlns:xlink="http://www.w3.org/1999/xlink"><g id="_x35__stroke"><g id="Foursquare_1_"><rect clip-rule="evenodd" fill="none" fill-rule="evenodd" height="128" width="128"/><path clip-rule="evenodd" d="M98.194,0H30.708    c-9.269,0-12.042,7.096-12.042,11.563v108.448c0,5.343,2.686,6.92,4.158,7.533c1.473,0.613,5.371,1.051,8.143-1.752    c0,0,32.054-37.755,32.573-38.368c0.52-0.613,0.78-0.613,1.126-0.613h20.272c8.663,0,10.309-6.044,11.262-9.723    c0.78-3.066,9.703-46.866,12.475-60.706C110.755,5.694,108.07,0,98.194,0 M94.209,18.484l-3.032,14.804    c-0.346,1.577-1.819,2.978-3.639,2.978H61.202c-2.946,0-5.371,2.453-5.371,5.431v3.241c0,2.978,2.426,5.431,5.371,5.431h22.264    c2.079,0,3.812,2.015,3.379,4.205c-0.433,2.278-2.772,13.841-3.032,15.067c-0.173,1.314-1.559,2.978-3.638,2.978H61.982    c-3.812,0.088-4.591,0.175-6.844,2.978c-2.252,2.803-22.178,28.032-22.178,28.032c-0.173,0.263-0.346,0.175-0.346-0.088v-85.76    c0-2.015,1.646-3.679,3.638-3.679h54.664C92.823,14.103,94.729,16.031,94.209,18.484" fill="#FA4778" fill-rule="evenodd" id="Foursquare"/></g></g></svg>