<?xml version="1.0" standalone="no"?><!DOCTYPE svg PUBLIC "-//W3C//DTD SVG 1.1//EN" "http://www.w3.org/Graphics/SVG/1.1/DTD/svg11.dtd"><svg class="icon" height="512" viewBox="0 0 1024 1024" version="1.1" xmlns="http://www.w3.org/2000/svg"><path d="M1016.64384 841.728h-238.72c-3.968 0-7.232 2.56-7.232 7.36v64.64c0 4.032 2.432 7.296 7.296 7.296h238.72c4.032 0 7.296-1.92 7.296-7.04v-64.64c0-4.48-2.432-7.04-7.36-7.04z m-314.24-736.512c0.64 1.472 1.28 2.944 2.048 5.12V912c0 2.56-0.832 4.096-1.6 4.928a7.36 7.36 0 0 1-5.76 2.56H6.53184c-1.6 0-3.2 0-4.096-0.896a7.488 7.488 0 0 1-2.432-5.76V109.44c0-3.2 1.664-5.632 4.096-6.4h692.992c1.664 0 4.096 0.768 4.928 1.536v0.64zM77.57184 835.2c0 3.2 1.664 5.76 4.096 6.528h539.392c2.432-0.768 4.096-3.2 4.096-6.528V187.968c0-3.2-1.728-5.76-4.16-6.528H81.73184c-2.432 0.832-4.096 3.2-4.096 6.528V835.2z m218.24-360.32c27.776 0 45.76 10.56 62.08 29.44 2.432 3.2 6.528 4.032 9.792 1.536l44.16-39.232c3.2-1.92 2.432-7.04 0.832-9.6-27.072-32.64-66.304-53.12-116.928-53.12-67.84 0-119.04 33.92-138.88 94.08-7.04 21.12-10.24 48-10.24 84.48s3.2 63.36 10.88 84.48c19.84 60.8 71.04 94.08 138.88 94.08 51.2 0 90.24-20.48 117.12-51.84 1.92-3.2 2.56-7.04-0.64-9.6l-44.16-39.04c-3.2-1.92-7.04-1.92-9.6 1.28-16.64 19.2-33.92 29.44-62.08 29.44-30.08 0-53.12-14.72-62.72-44.16-5.76-16.64-7.04-37.12-7.04-63.36 0-26.24 1.92-45.44 7.68-62.72 10.24-28.16 32.64-42.88 63.36-42.88z" fill="" /></svg>