<svg id="svg" version="1.1" xmlns="http://www.w3.org/2000/svg" xmlns:xlink="http://www.w3.org/1999/xlink" width="400" height="400" viewBox="0, 0, 400,400"><g id="svgg"><path id="path0" d="M182.967 13.259 C 168.823 14.814,163.849 15.696,151.895 18.769 C 108.695 29.874,67.325 59.506,43.855 96.154 C 42.307 98.571,39.744 102.527,38.160 104.945 C 31.158 115.630,22.155 137.874,17.701 155.495 C 15.452 164.390,15.157 166.111,13.181 181.839 C 12.145 190.081,12.405 220.890,13.526 222.765 C 13.809 223.239,14.376 226.540,14.785 230.101 C 20.997 284.198,62.654 341.355,115.231 367.924 C 178.669 399.980,265.446 391.568,315.551 348.506 C 316.970 347.285,319.368 345.245,320.879 343.972 C 350.659 318.877,377.484 275.098,382.985 242.616 C 383.321 240.633,383.807 238.269,384.066 237.363 C 389.125 219.642,388.609 182.192,382.971 157.882 C 373.728 118.026,339.851 65.280,314.450 51.193 C 313.453 50.640,312.390 49.894,312.088 49.536 C 310.808 48.017,295.336 38.226,287.745 34.131 C 272.382 25.844,244.407 16.503,229.779 14.774 C 227.604 14.517,223.986 14.014,221.739 13.656 C 215.651 12.687,190.516 12.429,182.967 13.259 M208.752 73.352 C 238.896 90.962,257.367 126.160,257.625 166.484 L 257.745 185.165 261.764 193.128 C 275.013 219.383,269.784 253.596,249.560 272.972 L 246.237 276.156 240.426 271.674 C 216.012 252.843,183.681 252.814,159.983 271.603 C 153.485 276.754,153.559 276.771,146.859 268.599 C 128.478 246.180,125.687 214.552,139.932 190.110 C 143.297 184.336,143.415 183.746,142.551 176.923 C 137.482 136.884,158.914 92.486,192.999 72.420 C 199.835 68.395,200.317 68.424,208.752 73.352 M191.227 92.641 C 147.047 128.513,146.752 201.069,190.639 237.246 C 198.425 243.664,202.193 243.496,210.779 236.351 C 254.455 200.004,252.223 124.154,206.489 90.583 C 199.902 85.747,199.681 85.777,191.227 92.641 M212.433 114.531 C 231.996 125.293,228.796 162.778,207.778 169.075 C 185.819 175.654,168.999 152.290,177.575 127.122 C 182.203 113.539,199.362 107.341,212.433 114.531 M197.096 127.440 C 187.169 131.545,189.910 154.945,200.317 154.945 C 206.528 154.945,208.791 151.287,208.791 141.251 C 208.791 129.210,204.647 124.316,197.096 127.440 M149.008 207.519 C 146.985 210.792,145.811 224.482,146.932 231.725 C 148.047 238.932,154.504 255.388,155.947 254.703 C 156.302 254.534,160.852 252.247,166.057 249.621 L 175.521 244.846 171.722 240.830 C 164.826 233.539,158.010 223.750,153.787 215.074 C 151.498 210.370,149.348 206.970,149.008 207.519 M248.301 211.264 C 245.433 218.495,238.476 229.345,231.389 237.637 C 227.386 242.321,224.758 246.154,225.548 246.154 C 226.641 246.154,237.895 251.330,244.039 254.658 C 245.089 255.227,250.420 243.461,252.189 236.669 C 254.168 229.072,254.288 222.347,252.596 213.920 C 251.162 206.780,250.292 206.242,248.301 211.264 M206.257 274.081 C 211.015 278.173,211.015 297.651,206.257 301.743 C 200.141 307.005,192.202 303.663,190.606 295.155 C 187.316 277.622,196.305 265.520,206.257 274.081 M240.559 288.410 C 251.506 294.070,247.673 331.868,236.153 331.868 C 228.747 331.868,227.468 328.583,227.507 309.665 C 227.545 291.780,227.991 290.040,233.067 288.011 C 236.677 286.567,237.033 286.586,240.559 288.410 M169.830 290.609 C 173.838 294.617,174.012 323.502,170.055 327.900 C 166.293 332.082,160.625 332.154,156.543 328.072 C 152.374 323.903,152.372 295.318,156.541 290.820 C 160.152 286.923,166.051 286.830,169.830 290.609 M206.202 314.693 C 212.473 320.086,208.351 330.769,200.000 330.769 C 198.245 330.769,195.472 329.605,193.798 328.164 C 187.527 322.771,191.649 312.088,200.000 312.088 C 201.755 312.088,204.528 313.252,206.202 314.693 " stroke="none" fill="#000000" fill-rule="evenodd"></path></g></svg>