<svg id="svg" xmlns="http://www.w3.org/2000/svg" xmlns:xlink="http://www.w3.org/1999/xlink" width="400" height="400" viewBox="0, 0, 400,400"><g id="svgg"><path id="path0" d="M0.000 200.000 L 0.000 400.000 200.000 400.000 L 400.000 400.000 400.000 200.000 L 400.000 0.000 200.000 0.000 L 0.000 0.000 0.000 200.000 M188.865 116.041 C 208.402 130.309,228.364 132.924,247.834 123.765 C 262.410 116.908,264.746 121.686,262.121 152.983 C 259.928 179.144,258.973 177.761,274.164 170.415 C 292.175 161.705,294.951 162.794,292.048 177.430 C 288.351 196.064,275.121 214.549,256.601 226.955 C 250.040 231.350,247.903 233.993,243.526 243.125 C 222.345 287.324,173.212 285.621,158.892 240.192 C 156.548 232.757,155.369 231.430,142.664 221.922 C 115.578 201.653,102.813 178.330,108.087 158.746 C 110.453 149.959,113.523 150.054,132.316 159.492 C 153.237 169.999,155.132 168.705,155.425 143.704 C 155.858 106.908,165.470 98.956,188.865 116.041 M183.704 155.543 C 183.704 157.166,182.370 159.326,180.741 160.344 C 175.581 163.566,179.480 173.333,185.926 173.333 C 189.638 173.333,194.074 167.688,194.074 162.963 C 194.074 158.238,189.638 152.593,185.926 152.593 C 184.695 152.593,183.704 153.908,183.704 155.543 M235.556 159.306 C 235.556 161.368,234.556 163.440,233.333 163.909 C 230.202 165.110,230.573 169.832,234.074 173.333 C 241.596 180.855,250.049 168.028,243.620 158.848 C 240.366 154.203,235.556 154.475,235.556 159.306 M208.889 176.296 C 205.049 180.136,205.151 181.686,209.674 188.212 C 217.210 199.086,222.295 199.158,225.450 188.436 C 228.616 177.674,216.438 168.747,208.889 176.296 M203.023 188.422 C 202.918 192.764,205.769 198.519,208.024 198.519 C 211.980 198.519,211.781 196.099,207.406 190.982 C 204.314 187.365,203.066 186.637,203.023 188.422 M237.386 273.507 C 240.176 279.631,232.163 284.979,224.566 282.064 C 221.394 280.847,221.619 278.203,225.293 273.533 C 229.375 268.343,235.027 268.331,237.386 273.507 M205.079 282.328 C 208.298 285.547,207.992 288.312,204.115 291.027 C 198.338 295.073,188.148 293.041,188.148 287.842 C 188.148 281.055,199.960 277.208,205.079 282.328 " stroke="none" fill="#000000" fill-rule="evenodd"></path></g></svg>