<svg id="svg" xmlns="http://www.w3.org/2000/svg" xmlns:xlink="http://www.w3.org/1999/xlink" width="400" height="269.4736842105263" viewBox="0, 0, 400,269.4736842105263"><g id="svgg"><path id="path0" d="M63.421 0.907 C 47.385 7.402,20.637 42.982,9.766 72.277 C 2.540 91.753,0.263 105.832,0.263 131.053 C 0.263 183.216,16.394 224.827,49.448 257.929 C 60.843 269.340,68.384 272.124,73.863 266.940 C 79.614 261.499,77.949 256.965,65.520 244.214 C 39.639 217.665,26.686 191.108,21.748 154.474 C 20.567 145.712,20.409 118.219,21.496 110.526 C 26.426 75.620,38.786 51.070,65.347 23.421 C 74.216 14.190,76.358 11.302,76.720 8.088 C 77.401 2.045,70.205 -1.841,63.421 0.907 M327.363 1.711 C 319.997 6.724,321.551 12.055,334.146 24.989 C 366.622 58.338,380.447 94.459,379.325 143.032 C 378.367 184.502,365.330 214.494,334.429 246.317 C 323.056 258.030,321.699 260.513,324.080 265.253 C 333.497 283.996,375.823 239.157,391.391 193.947 C 401.692 164.032,402.924 125.567,394.670 91.579 C 387.284 61.166,370.536 31.185,349.673 11.030 C 339.455 1.159,332.464 -1.761,327.363 1.711 M163.953 7.030 L 161.853 7.662 163.567 8.372 C 165.920 9.347,172.709 16.692,175.321 21.089 C 184.537 36.601,181.805 52.200,163.443 88.913 C 145.135 125.517,141.135 148.640,149.232 171.053 C 156.751 191.862,177.586 211.579,192.058 211.579 C 195.993 211.579,196.474 210.895,193.571 209.424 C 170.163 197.562,163.467 175.953,176.667 154.871 C 178.254 152.337,182.217 146.711,185.474 142.368 C 202.271 119.978,205.071 110.498,198.637 97.801 L 197.351 95.263 199.108 95.263 C 212.265 95.263,222.135 117.891,218.630 140.019 C 217.213 148.970,218.325 151.964,222.878 151.451 C 230.386 150.605,233.504 142.024,231.246 128.421 L 230.940 126.579 232.348 128.421 C 246.768 147.289,243.450 179.647,224.860 201.447 C 223.564 202.967,222.740 204.211,223.030 204.211 C 223.319 204.211,223.880 203.818,224.278 203.338 C 224.675 202.858,227.842 200.165,231.316 197.355 C 242.035 188.682,246.808 182.853,252.368 171.646 C 269.753 136.602,269.164 90.815,250.989 64.443 C 248.023 60.139,234.434 46.842,233.002 46.842 C 232.878 46.842,233.708 49.151,234.846 51.974 C 241.077 67.431,240.007 80.255,231.781 88.719 C 224.631 96.076,219.584 90.118,218.423 72.948 C 216.264 41.037,205.356 19.885,186.138 10.346 C 178.320 6.466,169.967 5.217,163.953 7.030 M137.105 235.350 C 129.765 239.399,131.058 249.847,139.113 251.579 C 144.238 252.681,281.964 252.063,284.037 250.929 C 289.691 247.836,289.788 239.713,284.216 235.921 L 282.476 234.737 210.317 234.753 C 158.716 234.764,137.858 234.934,137.105 235.350 " stroke="none" fill="#000000" fill-rule="evenodd"></path></g></svg>