<svg id="svg" version="1.1" xmlns="http://www.w3.org/2000/svg" xmlns:xlink="http://www.w3.org/1999/xlink" width="400" height="400" viewBox="0, 0, 400,400"><g id="svgg"><path id="path0" d="M163.940 2.425 C -17.145 35.217,-60.851 278.994,97.564 372.652 C 141.679 398.733,151.563 396.986,151.563 363.107 L 151.563 341.840 145.703 342.948 C 115.220 348.712,94.587 339.771,81.963 315.328 C 75.134 302.107,71.711 297.970,57.813 286.139 L 52.344 281.484 56.433 279.922 C 66.695 276.003,80.361 283.801,92.867 300.712 C 111.644 326.102,145.729 329.337,153.950 306.510 C 155.910 301.066,159.107 294.917,161.055 292.844 C 165.454 288.161,166.351 288.687,147.256 284.757 C 105.510 276.165,82.270 253.503,75.540 214.826 C 70.545 186.116,74.454 163.345,87.600 144.579 C 93.617 135.989,93.803 135.366,91.986 129.913 C 89.297 121.843,89.782 102.398,92.940 91.643 L 95.624 82.504 102.890 83.572 C 112.432 84.973,128.140 91.266,139.979 98.429 L 149.490 104.184 163.417 101.228 C 182.627 97.151,217.373 97.151,236.583 101.228 L 250.510 104.184 260.640 98.030 C 272.448 90.856,286.918 85.122,297.047 83.603 L 304.197 82.531 307.013 92.438 C 310.249 103.823,310.735 121.653,308.033 129.818 C 306.262 135.168,306.487 135.877,313.077 145.705 C 323.818 161.721,325.799 169.152,325.680 192.969 C 325.409 247.405,300.462 276.965,247.266 285.883 C 235.091 287.924,234.268 288.629,239.030 292.939 C 246.735 299.913,248.438 309.965,248.438 348.496 C 248.437 395.192,249.606 396.683,277.239 385.244 C 363.467 349.550,413.750 257.383,397.581 164.665 C 378.729 56.557,272.471 -17.229,163.940 2.425 " stroke="none" fill="#000000" fill-rule="evenodd"></path></g></svg>