<?xml version="1.0"?>
<svg xmlns="http://www.w3.org/2000/svg" xmlns:xlink="http://www.w3.org/1999/xlink" xmlns:svgjs="http://svgjs.com/svgjs" version="1.1" width="512" height="512" x="0" y="0" viewBox="0 0 24 24" style="enable-background:new 0 0 512 512" xml:space="preserve" class=""><circle r="12" cx="12" cy="12" fill="#e7b1a5" shape="circle"/><g transform="matrix(0.7,0,0,0.7,3.5999949932098385,3.5999918151414025)"><path xmlns="http://www.w3.org/2000/svg" d="m5.111 18.907h.129c.585 0 1.176 0 1.762.005.074 0 .143-.019.166.098.328 1.636 1.383 2.559 2.9 2.995 1.241.356 2.495.366 3.749.084 1.558-.347 2.582-1.327 3.136-2.831.369-1.008.494-2.053.508-3.117.005-.272.014-2.203-.009-2.475l-.041-.014c-.037.07-.079.136-.115.206-1.019 2.02-2.826 3.159-4.861 3.239-4.75.188-7.812-2.672-7.932-8.259-.023-1.111.083-2.198.383-3.267.95-3.333 3.44-5.541 7.097-5.569 2.826-.019 4.681 1.814 5.359 3.295.023.052.06.108.11.089v-2.888h2.043c0 13.139.005 15.572.005 15.572-.005 3.68-1.232 6.736-4.75 7.603-3.205.792-7.332.225-9.039-2.681-.369-.633-.544-1.327-.599-2.086zm6.747-17.194c-2.421-.023-5.004 1.908-5.304 6.272-.189 2.766.683 5.728 3.298 6.966 1.273.605 3.427.703 4.995-.408 2.195-1.556 2.891-4.547 2.527-7.219-.448-3.333-2.205-5.625-5.516-5.611z" fill="#4e342e" data-original="#4e342e" style="" class=""/></g></svg>
