<?xml version="1.0" ?><svg enable-background="new 0 0 32 32" version="1.1" viewBox="0 0 32 32" xml:space="preserve" xmlns="http://www.w3.org/2000/svg" xmlns:xlink="http://www.w3.org/1999/xlink"><g id="Style_2_copy_4"><g><g><path d="M16,0C7.163,0,0,7.163,0,16c0,8.836,7.163,16,16,16s16-7.164,16-16C32,7.163,24.837,0,16,0z" fill="#333333"/></g></g><g id="flat"><g id="goodreads"><path d="M15.947,19.682c2.127-0.016,3.64-1.001,4.537-2.955h0.047v2.98c0,0.222-0.016,0.566-0.047,1.034     c-0.064,0.484-0.235,1.006-0.512,1.564c-0.278,0.525-0.727,0.973-1.345,1.342c-0.612,0.402-1.465,0.611-2.561,0.628     c-1.056,0-1.949-0.255-2.679-0.764c-0.747-0.501-1.183-1.314-1.31-2.438h-0.929c0.095,1.461,0.599,2.504,1.512,3.127     c0.889,0.599,2.016,0.899,3.382,0.899c1.349,0,2.402-0.234,3.156-0.702c0.746-0.451,1.281-1.014,1.608-1.687     c0.325-0.673,0.52-1.314,0.583-1.921c0.048-0.607,0.072-1.042,0.072-1.305V7.196h-0.929v2.709h-0.047     c-0.357-0.993-0.949-1.744-1.775-2.253c-0.833-0.501-1.755-0.751-2.762-0.751c-1.755,0.033-3.089,0.661-4.001,1.884     c-0.937,1.215-1.405,2.713-1.405,4.494c0,1.831,0.444,3.345,1.333,4.543C12.772,19.046,14.129,19.665,15.947,19.682     L15.947,19.682z M12.589,9.45c0.73-1.108,1.849-1.683,3.358-1.724c1.548,0.041,2.695,0.599,3.441,1.675     c0.746,1.076,1.119,2.368,1.119,3.879s-0.373,2.795-1.119,3.854c-0.747,1.125-1.893,1.699-3.441,1.724     c-1.461-0.025-2.573-0.583-3.335-1.674c-0.77-1.059-1.155-2.36-1.155-3.903C11.457,11.834,11.835,10.558,12.589,9.45L12.589,9.45     z" fill="#FFFFFF"/></g></g></g></svg>