<svg id="svg" version="1.1" xmlns="http://www.w3.org/2000/svg" xmlns:xlink="http://www.w3.org/1999/xlink" width="400" height="400" viewBox="0, 0, 400,400"><g id="svgg"><path id="path0" d="M182.031 3.968 C 31.594 18.243,-47.554 188.837,38.704 312.891 C 108.250 412.908,252.673 425.504,339.088 339.088 C 430.604 247.573,410.518 94.997,298.318 29.407 C 264.452 9.609,221.531 0.220,182.031 3.968 M136.422 107.240 C 153.329 115.939,151.392 141.152,133.336 147.409 C 113.870 154.155,95.645 138.818,101.047 120.235 C 104.900 106.981,122.996 100.333,136.422 107.240 M264.776 165.351 C 281.116 169.607,292.556 182.008,297.820 201.172 C 299.475 207.200,299.546 208.982,299.815 251.367 L 300.094 295.313 278.563 295.313 L 257.031 295.313 257.031 257.771 C 257.031 215.900,256.714 212.559,252.084 205.684 C 244.907 195.029,226.337 194.903,217.981 205.453 C 211.930 213.094,212.137 211.392,211.874 255.664 L 211.639 295.313 190.092 295.313 L 168.546 295.313 169.030 292.383 C 169.296 290.771,169.518 261.768,169.523 227.930 L 169.531 166.406 190.625 166.406 L 211.719 166.406 211.744 175.586 L 211.768 184.766 213.494 182.422 C 225.380 166.277,244.234 160.001,264.776 165.351 M145.313 230.859 L 145.313 295.313 123.828 295.313 L 102.344 295.313 102.344 230.859 L 102.344 166.406 123.828 166.406 L 145.313 166.406 145.313 230.859 " stroke="none" fill="#000000" fill-rule="evenodd"></path></g></svg>