<svg id="svg" xmlns="http://www.w3.org/2000/svg" xmlns:xlink="http://www.w3.org/1999/xlink" width="400" height="400" viewBox="0, 0, 400,400"><g id="svgg"><path id="path0" d="M98.000 31.630 C 93.050 33.546,89.000 36.138,89.000 37.390 C 89.000 38.642,88.181 40.417,87.179 41.333 C 86.122 42.302,85.962 41.952,86.797 40.500 C 89.961 35.003,84.031 38.481,77.034 46.226 C 65.581 58.903,62.042 68.495,62.361 86.000 L 62.634 101.000 63.841 83.988 C 65.123 65.927,70.335 53.522,80.222 44.998 C 83.738 41.966,83.472 42.692,79.120 48.000 C 69.324 59.950,66.092 69.464,66.044 86.500 L 66.000 102.000 209.286 102.000 L 352.572 102.000 351.507 86.465 C 350.239 67.972,346.988 59.421,336.778 47.721 L 329.168 39.000 336.606 45.913 C 346.819 55.406,351.825 66.757,353.973 85.288 L 355.793 101.000 355.079 85.872 C 353.963 62.235,342.785 43.877,323.090 33.331 C 311.613 27.187,113.351 25.688,98.000 31.630 M314.428 32.085 C 318.513 33.220,322.323 34.904,322.894 35.829 C 323.465 36.753,320.267 36.246,315.786 34.702 C 306.827 31.616,107.033 31.457,99.000 34.530 C 96.800 35.372,97.700 34.737,101.000 33.120 C 108.414 29.488,301.700 28.550,314.428 32.085 M136.500 105.499 C 175.825 105.802,240.175 105.802,279.500 105.499 C 318.825 105.196,286.650 104.948,208.000 104.948 C 129.350 104.948,97.175 105.196,136.500 105.499 M136.500 113.499 C 175.825 113.802,240.175 113.802,279.500 113.499 C 318.825 113.196,286.650 112.948,208.000 112.948 C 129.350 112.948,97.175 113.196,136.500 113.499 M62.783 142.000 C 62.783 156.850,63.098 162.925,63.483 155.500 C 63.868 148.075,63.868 135.925,63.483 128.500 C 63.098 121.075,62.783 127.150,62.783 142.000 M66.000 142.000 L 66.000 168.000 209.000 168.000 L 352.000 168.000 352.000 142.000 L 352.000 116.000 209.000 116.000 L 66.000 116.000 66.000 142.000 M354.777 141.000 C 354.781 155.300,355.099 160.888,355.485 153.417 C 355.871 145.946,355.868 134.246,355.479 127.417 C 355.089 120.588,354.774 126.700,354.777 141.000 M136.500 171.499 C 175.825 171.802,240.175 171.802,279.500 171.499 C 318.825 171.196,286.650 170.948,208.000 170.948 C 129.350 170.948,97.175 171.196,136.500 171.499 M136.500 179.499 C 175.825 179.802,240.175 179.802,279.500 179.499 C 318.825 179.196,286.650 178.948,208.000 178.948 C 129.350 178.948,97.175 179.196,136.500 179.499 M62.783 208.000 C 62.783 222.850,63.098 228.925,63.483 221.500 C 63.868 214.075,63.868 201.925,63.483 194.500 C 63.098 187.075,62.783 193.150,62.783 208.000 M66.000 208.000 L 66.000 234.000 209.000 234.000 L 352.000 234.000 352.000 208.000 L 352.000 182.000 209.000 182.000 L 66.000 182.000 66.000 208.000 M354.777 209.000 C 354.781 223.300,355.099 228.888,355.485 221.417 C 355.871 213.946,355.868 202.246,355.479 195.417 C 355.089 188.588,354.774 194.700,354.777 209.000 M136.500 237.499 C 175.825 237.802,240.175 237.802,279.500 237.499 C 318.825 237.196,286.650 236.948,208.000 236.948 C 129.350 236.948,97.175 237.196,136.500 237.499 M136.500 245.499 C 175.825 245.802,240.175 245.802,279.500 245.499 C 318.825 245.196,286.650 244.948,208.000 244.948 C 129.350 244.948,97.175 245.196,136.500 245.499 M66.044 261.500 C 66.091 276.051,70.011 287.274,79.470 299.943 C 83.218 304.963,83.562 305.977,80.663 303.456 C 72.184 296.083,65.228 279.724,63.885 264.000 L 62.604 249.000 62.321 262.000 C 61.987 277.389,67.386 290.881,79.038 303.779 C 85.854 311.323,92.185 315.154,88.809 309.691 C 87.918 308.249,88.261 307.925,89.724 308.829 C 91.012 309.625,91.571 311.076,90.967 312.053 C 86.829 318.749,102.443 320.994,157.500 321.618 L 212.000 322.235 212.408 345.618 L 212.817 369.000 214.000 343.000 L 215.183 317.000 215.592 342.500 L 216.000 368.000 228.391 368.000 C 239.093 368.000,241.613 367.251,246.891 362.500 L 253.000 357.000 247.207 363.415 C 241.981 369.202,240.120 369.898,228.207 370.524 L 215.000 371.217 228.399 371.608 L 241.797 372.000 266.399 348.809 C 279.929 336.055,290.804 324.891,290.564 324.001 C 290.324 323.112,291.622 321.172,293.448 319.692 C 296.256 317.415,296.507 317.434,295.073 319.812 C 293.669 322.142,295.271 322.428,304.434 321.483 C 333.418 318.491,353.591 295.646,355.079 264.128 L 355.793 249.000 353.973 264.712 C 351.825 283.243,346.819 294.594,336.606 304.087 L 329.168 311.000 336.778 302.279 C 346.988 290.579,350.239 282.028,351.507 263.535 L 352.572 248.000 209.286 248.000 L 66.000 248.000 66.044 261.500 M321.230 314.982 C 317.094 318.113,300.555 321.222,298.574 319.241 C 297.892 318.558,299.958 317.949,303.167 317.887 C 306.375 317.825,312.150 316.582,316.000 315.126 C 325.236 311.631,325.671 311.619,321.230 314.982 M202.000 318.652 C 208.050 318.977,189.600 319.351,161.000 319.481 C 132.400 319.612,107.450 319.107,105.557 318.359 C 102.357 317.096,177.309 317.324,202.000 318.652 M272.000 341.000 C 263.805 349.250,256.650 356.000,256.100 356.000 C 255.550 356.000,261.805 349.250,270.000 341.000 C 278.195 332.750,285.350 326.000,285.900 326.000 C 286.450 326.000,280.195 332.750,272.000 341.000 " stroke="none" fill="#000000" fill-rule="evenodd"></path></g></svg>