<?xml version="1.0"?>
<svg xmlns="http://www.w3.org/2000/svg" id="Layer_1" enable-background="new 0 0 256 256" height="512px" viewBox="0 0 256 256" width="512px" class=""><g><path d="m47.811 26.286c-.974 11.564-13.024 13.39-13.024 13.39 10.347.487 12.925 14.059 12.925 14.059.221-9.677 13.321-14.202 13.321-14.202-9.813-.587-13.222-13.247-13.222-13.247z" fill="#d7e057" data-original="#D7E057" class=""/><path d="m61.123 38.035c-8.604-.514-11.832-12.024-11.863-12.14-.19-.702-.849-1.159-1.584-1.102-.725.066-1.298.642-1.359 1.367-.859 10.215-11.313 11.964-11.754 12.033-.763.115-1.313.79-1.273 1.56s.657 1.384 1.428 1.421c9.027.425 11.498 12.718 11.521 12.842.138.711.76 1.217 1.473 1.217.042 0 .084-.001.126-.005.765-.064 1.357-.693 1.375-1.46.193-8.509 12.191-12.777 12.313-12.819.676-.235 1.092-.914.994-1.623-.1-.707-.683-1.248-1.397-1.291zm-13.566 10.346c-1.356-3.131-3.709-6.907-7.587-8.876 2.931-1.405 6.409-3.913 8.202-8.273 1.551 3.071 4.199 6.88 8.334 8.722-3.008 1.64-6.923 4.405-8.949 8.427z" fill="#3a312a" data-original="#3A312A" class="active-path" data-old_color="#3a312a" style="fill:#FFFFFF"/><path d="m26.113 43.267c-.689 8.179-9.212 9.47-9.212 9.47 7.318.344 9.142 9.944 9.142 9.944.156-6.844 9.422-10.045 9.422-10.045-6.942-.415-9.352-9.369-9.352-9.369z" fill="#d7e057" data-original="#D7E057" class=""/><path d="m35.555 51.139c-5.767-.345-7.973-8.185-7.995-8.264-.19-.702-.864-1.161-1.581-1.102-.726.065-1.3.643-1.361 1.368-.578 6.871-7.646 8.066-7.941 8.113-.763.115-1.313.79-1.273 1.56s.657 1.384 1.428 1.421c6.035.284 7.723 8.644 7.738 8.726.136.713.759 1.22 1.473 1.22.041 0 .083-.001.124-.005.766-.063 1.359-.694 1.377-1.461.13-5.709 8.332-8.634 8.413-8.662.676-.234 1.093-.913.996-1.622-.1-.708-.684-1.249-1.398-1.292zm-9.585 6.795c-.924-1.885-2.34-3.947-4.447-5.279 1.855-1.042 3.697-2.63 4.87-4.917 1.058 1.874 2.655 3.955 4.941 5.224-1.85 1.1-3.988 2.74-5.364 4.972z" fill="#3a312a" data-original="#3A312A" class="active-path" data-old_color="#3a312a" style="fill:#FFFFFF"/><path d="m26.113 16.609c-.689 8.18-9.213 9.471-9.213 9.471 7.318.344 9.142 9.944 9.142 9.944.156-6.845 9.422-10.045 9.422-10.045-6.941-.416-9.351-9.37-9.351-9.37z" fill="#d7e057" data-original="#D7E057" class=""/><path d="m35.555 24.481c-5.767-.345-7.973-8.185-7.995-8.265-.19-.702-.864-1.16-1.581-1.102-.726.066-1.3.643-1.361 1.368-.578 6.871-7.646 8.067-7.941 8.114-.763.115-1.313.79-1.273 1.56s.657 1.384 1.428 1.421c6.035.284 7.723 8.644 7.738 8.726.136.713.759 1.22 1.473 1.22.041 0 .083-.002.124-.005.766-.063 1.359-.694 1.377-1.461.13-5.709 8.332-8.634 8.412-8.662.677-.234 1.094-.913.997-1.622-.1-.707-.684-1.249-1.398-1.292zm-9.585 6.795c-.924-1.886-2.34-3.947-4.447-5.28 1.855-1.041 3.697-2.63 4.87-4.916 1.058 1.873 2.655 3.954 4.941 5.224-1.85 1.1-3.988 2.74-5.364 4.972z" fill="#3a312a" data-original="#3A312A" class="active-path" data-old_color="#3a312a" style="fill:#FFFFFF"/><path d="m143.117 16.558h-30.434c-4.575 0-8.283 3.708-8.283 8.283v32.995c0 4.575 3.709 8.283 8.283 8.283h30.434c4.575 0 8.283-3.708 8.283-8.283v-32.995c0-4.574-3.708-8.283-8.283-8.283z" fill="#f16c7a" data-original="#F16C7A" class=""/><path d="m143.117 15.058h-30.434c-5.395 0-9.783 4.389-9.783 9.783v7.971c0 .829.672 1.5 1.5 1.5s1.5-.671 1.5-1.5v-7.971c0-3.74 3.043-6.783 6.783-6.783h30.434c3.74 0 6.783 3.043 6.783 6.783v32.995c0 3.74-3.043 6.783-6.783 6.783h-30.434c-3.74 0-6.783-3.043-6.783-6.783v-11.782c0-.829-.672-1.5-1.5-1.5s-1.5.671-1.5 1.5v11.783c0 5.395 4.389 9.783 9.783 9.783h30.434c5.395 0 9.783-4.389 9.783-9.783v-32.996c0-5.394-4.388-9.783-9.783-9.783z" fill="#3a312a" data-original="#3A312A" class="active-path" data-old_color="#3a312a" style="fill:#FFFFFF"/><path d="m209.617 103.027h-30.434c-4.575 0-8.283 3.708-8.283 8.283v32.995c0 4.575 3.708 8.283 8.283 8.283h30.434c4.575 0 8.283-3.708 8.283-8.283v-32.995c0-4.574-3.708-8.283-8.283-8.283z" fill="#d7e057" data-original="#D7E057" class=""/><path d="m209.617 101.527h-30.434c-5.395 0-9.783 4.389-9.783 9.783v32.995c0 5.395 4.389 9.783 9.783 9.783h30.434c5.395 0 9.783-4.389 9.783-9.783v-32.995c0-5.394-4.388-9.783-9.783-9.783zm6.783 42.779c0 3.74-3.043 6.783-6.783 6.783h-30.434c-3.74 0-6.783-3.043-6.783-6.783v-32.996c0-3.74 3.043-6.783 6.783-6.783h30.434c3.74 0 6.783 3.043 6.783 6.783z" fill="#3a312a" data-original="#3A312A" class="active-path" data-old_color="#3a312a" style="fill:#FFFFFF"/><path d="m143.117 103.027h-30.434c-4.575 0-8.283 3.708-8.283 8.283v32.995c0 4.575 3.709 8.283 8.283 8.283h30.434c4.575 0 8.283-3.708 8.283-8.283v-32.995c0-4.574-3.708-8.283-8.283-8.283z" fill="#d7e057" data-original="#D7E057" class=""/><path d="m143.117 101.527h-30.434c-5.395 0-9.783 4.389-9.783 9.783v32.995c0 5.395 4.389 9.783 9.783 9.783h30.434c5.395 0 9.783-4.389 9.783-9.783v-32.995c0-5.394-4.388-9.783-9.783-9.783zm6.783 42.779c0 3.74-3.043 6.783-6.783 6.783h-30.434c-3.74 0-6.783-3.043-6.783-6.783v-32.996c0-3.74 3.043-6.783 6.783-6.783h30.434c3.74 0 6.783 3.043 6.783 6.783z" fill="#3a312a" data-original="#3A312A" class="active-path" data-old_color="#3a312a" style="fill:#FFFFFF"/><path d="m76.617 103.027h-30.434c-4.575 0-8.283 3.708-8.283 8.283v32.995c0 4.575 3.709 8.283 8.283 8.283h30.434c4.575 0 8.283-3.708 8.283-8.283v-32.995c0-4.574-3.708-8.283-8.283-8.283z" fill="#d7e057" data-original="#D7E057" class=""/><g fill="#3a312a"><path d="m76.617 101.527h-30.433c-5.395 0-9.783 4.389-9.783 9.783v32.995c0 5.395 4.389 9.783 9.783 9.783h30.434c5.394 0 9.783-4.389 9.783-9.783v-32.995c-.001-5.394-4.389-9.783-9.784-9.783zm6.783 42.779c0 3.74-3.043 6.783-6.783 6.783h-30.433c-3.74 0-6.783-3.043-6.783-6.783v-32.996c0-3.74 3.043-6.783 6.783-6.783h30.434c3.74 0 6.783 3.043 6.783 6.783v32.996z" data-original="#000000" class="" data-old_color="#000000" style="fill:#FFFFFF"/><path d="m127.9 65.058c-.828 0-1.5.671-1.5 1.5v36c0 .829.672 1.5 1.5 1.5s1.5-.671 1.5-1.5v-36c0-.829-.671-1.5-1.5-1.5z" data-original="#000000" class="" data-old_color="#000000" style="fill:#FFFFFF"/><path d="m129.22 65.844c-.395-.73-1.308-.999-2.033-.605l-66.5 36c-.728.395-1 1.305-.605 2.033.271.502.788.787 1.32.787.241 0 .486-.059.713-.181l66.5-36c.728-.395.999-1.305.605-2.034z" data-original="#000000" class="" data-old_color="#000000" style="fill:#FFFFFF"/><path d="m195.114 101.239-66.5-36c-.728-.393-1.639-.125-2.033.605-.395.729-.123 1.639.605 2.033l66.5 36c.227.123.472.181.713.181.532 0 1.049-.285 1.32-.787.395-.728.124-1.638-.605-2.032z" data-original="#000000" class="" data-old_color="#000000" style="fill:#FFFFFF"/></g><path d="m42.604 189.716h-17.671c-4.575 0-8.283 3.708-8.283 8.283v32.995c0 4.575 3.708 8.283 8.283 8.283h17.671c4.575 0 8.283-3.708 8.283-8.283v-32.994c0-4.575-3.708-8.284-8.283-8.284z" fill="#8ac6dd" data-original="#8AC6DD" class=""/><path d="m42.604 188.216h-17.67c-5.395 0-9.783 4.389-9.783 9.783v9.813c0 .829.672 1.5 1.5 1.5s1.5-.671 1.5-1.5v-9.812c0-3.74 3.043-6.783 6.783-6.783h17.671c3.74 0 6.783 3.043 6.783 6.783v32.996c0 3.74-3.043 6.783-6.783 6.783h-17.671c-3.74 0-6.783-3.043-6.783-6.783v-9.941c0-.829-.672-1.5-1.5-1.5s-1.5.671-1.5 1.5v9.941c0 5.395 4.389 9.783 9.783 9.783h17.671c5.395 0 9.783-4.389 9.783-9.783v-32.996c0-5.395-4.389-9.784-9.784-9.784z" fill="#3a312a" data-original="#3A312A" class="active-path" data-old_color="#3a312a" style="fill:#FFFFFF"/><path d="m97.867 189.716h-17.671c-4.575 0-8.283 3.708-8.283 8.283v32.995c0 4.575 3.708 8.283 8.283 8.283h17.671c4.575 0 8.283-3.708 8.283-8.283v-32.994c0-4.575-3.708-8.284-8.283-8.284z" fill="#8ac6dd" data-original="#8AC6DD" class=""/><path d="m97.867 188.216h-17.671c-5.395 0-9.783 4.389-9.783 9.783v32.996c0 5.395 4.389 9.783 9.783 9.783h17.671c5.394 0 9.783-4.389 9.783-9.783v-32.995c0-5.395-4.388-9.784-9.783-9.784zm6.783 42.779c0 3.74-3.043 6.783-6.783 6.783h-17.671c-3.74 0-6.783-3.043-6.783-6.783v-32.995c0-3.74 3.043-6.783 6.783-6.783h17.671c3.74 0 6.783 3.043 6.783 6.783z" fill="#3a312a" data-original="#3A312A" class="active-path" data-old_color="#3a312a" style="fill:#FFFFFF"/><path d="m62.434 151.364c-.659-.503-1.601-.374-2.103.286l-27.375 36c-.501.659-.373 1.6.286 2.102.271.206.591.306.907.306.452 0 .899-.204 1.195-.592l27.375-36c.502-.659.374-1.6-.285-2.102z" fill="#3a312a" data-original="#3A312A" class="active-path" data-old_color="#3a312a" style="fill:#FFFFFF"/><path d="m90.095 187.65-27.375-36c-.504-.66-1.443-.789-2.102-.286-.659.501-.787 1.442-.286 2.102l27.375 36c.296.388.743.592 1.195.592.316 0 .636-.1.907-.306.659-.502.787-1.442.286-2.102z" fill="#3a312a" data-original="#3A312A" class="active-path" data-old_color="#3a312a" style="fill:#FFFFFF"/><path d="m175.604 189.716h-17.671c-4.575 0-8.283 3.708-8.283 8.283v32.995c0 4.575 3.708 8.283 8.283 8.283h17.671c4.575 0 8.283-3.708 8.283-8.283v-32.994c0-4.575-3.708-8.284-8.283-8.284z" fill="#8ac6dd" data-original="#8AC6DD" class=""/><path d="m175.604 188.216h-17.671c-5.395 0-9.783 4.389-9.783 9.783v32.996c0 5.395 4.389 9.783 9.783 9.783h17.671c5.395 0 9.783-4.389 9.783-9.783v-32.995c.001-5.395-4.388-9.784-9.783-9.784zm6.784 42.779c0 3.74-3.043 6.783-6.783 6.783h-17.671c-3.74 0-6.783-3.043-6.783-6.783v-32.995c0-3.74 3.043-6.783 6.783-6.783h17.671c3.74 0 6.783 3.043 6.783 6.783z" fill="#3a312a" data-original="#3A312A" class="active-path" data-old_color="#3a312a" style="fill:#FFFFFF"/><path d="m230.867 189.716h-17.671c-4.575 0-8.283 3.708-8.283 8.283v32.995c0 4.575 3.708 8.283 8.283 8.283h17.671c4.575 0 8.283-3.708 8.283-8.283v-32.994c0-4.575-3.708-8.284-8.283-8.284z" fill="#8ac6dd" data-original="#8AC6DD" class=""/><path d="m230.867 188.216h-17.671c-5.395 0-9.783 4.389-9.783 9.783v32.996c0 5.395 4.389 9.783 9.783 9.783h17.671c5.395 0 9.783-4.389 9.783-9.783v-32.995c0-5.395-4.388-9.784-9.783-9.784zm6.783 42.779c0 3.74-3.043 6.783-6.783 6.783h-17.671c-3.74 0-6.783-3.043-6.783-6.783v-32.995c0-3.74 3.043-6.783 6.783-6.783h17.671c3.74 0 6.783 3.043 6.783 6.783z" fill="#3a312a" data-original="#3A312A" class="active-path" data-old_color="#3a312a" style="fill:#FFFFFF"/><path d="m195.434 151.364c-.66-.503-1.6-.374-2.103.286l-27.375 36c-.501.659-.373 1.6.286 2.102.271.206.591.306.907.306.452 0 .899-.204 1.195-.592l27.375-36c.502-.659.374-1.6-.285-2.102z" fill="#3a312a" data-original="#3A312A" class="active-path" data-old_color="#3a312a" style="fill:#FFFFFF"/><path d="m223.095 187.65-27.375-36c-.503-.66-1.443-.789-2.103-.286-.659.501-.787 1.442-.286 2.102l27.375 36c.296.388.743.592 1.195.592.316 0 .636-.1.907-.306.66-.502.788-1.442.287-2.102z" fill="#3a312a" data-original="#3A312A" class="active-path" data-old_color="#3a312a" style="fill:#FFFFFF"/><path d="m143.12 18.058h-15c3.74 0 6.78 3.04 6.78 6.78v33c0 3.74-3.04 6.78-6.78 6.78h15c3.74 0 6.78-3.04 6.78-6.78v-33c0-3.74-3.04-6.78-6.78-6.78z" fill="#d34e5c" data-original="#D34E5C" class="" data-old_color="#d34e5c" style="fill:#D34E5C"/><path d="m209.62 104.528h-15c3.74 0 6.78 3.04 6.78 6.78v33c0 3.7-2.97 6.71-6.65 6.77.02 0 .03.01.05.01h14.82c3.74 0 6.78-3.04 6.78-6.78v-33c0-3.74-3.04-6.78-6.78-6.78z" fill="#b9c239" data-original="#B9C239"/><path d="m230.87 191.218h-15c3.74 0 6.78 3.04 6.78 6.78v33c0 3.74-3.04 6.78-6.78 6.78h15c3.74 0 6.78-3.04 6.78-6.78v-33c0-3.74-3.04-6.78-6.78-6.78z" fill="#6ca8bf" data-original="#6CA8BF" class="" style="fill:#6CA8BF" data-old_color="#6ca8bf"/></g> </svg>
