<?xml version="1.0"?>
<svg xmlns="http://www.w3.org/2000/svg" viewBox="0 0 128 128" width="512" height="512"><path d="M114.677,83.743a8.988,8.988,0,0,0-2.5-.982V49.224a8.967,8.967,0,1,0-8.572-14.836L74.572,17.625a8.973,8.973,0,1,0-17.145,0L28.392,34.388A8.979,8.979,0,1,0,19.82,49.225V82.762a8.974,8.974,0,1,0,8.572,14.85l29.035,16.763a8.974,8.974,0,1,0,17.145,0l29.036-16.763a8.973,8.973,0,1,0,11.069-13.869Z" fill="#e6e7e8"/><path d="M99.286,40.473a7.975,7.975,0,0,1,.546-8.8l-30.484-17.6a7.977,7.977,0,0,1-14.7,0l-30.485,17.6A7.976,7.976,0,0,1,16.82,44.4V79.6a7.976,7.976,0,0,1,7.347,12.727l30.485,17.6a7.977,7.977,0,0,1,14.7,0l30.484-17.6A7.977,7.977,0,0,1,107.18,79.6V44.4A7.976,7.976,0,0,1,99.286,40.473Z" fill="#d4fbff"/><circle cx="62" cy="10.973" r="7.973" fill="#6dc9f7"/><circle cx="62" cy="113.027" r="7.973" fill="#0089ef"/><circle cx="106.191" cy="36.486" r="7.973" fill="#0089ef"/><circle cx="17.809" cy="87.514" r="7.973" fill="#6dc9f7"/><circle cx="106.191" cy="87.513" r="7.973" fill="#6dc9f7"/><circle cx="17.809" cy="36.487" r="7.973" fill="#0089ef"/><path d="M62,92A30,30,0,1,1,92,62,30,30,0,0,1,62,92Z" fill="#ffd7e5"/><path d="M62,35A30,30,0,0,1,91.962,63.5c.024-.5.038-1,.038-1.5a30,30,0,0,0-60,0q0,.755.038,1.5A30,30,0,0,1,62,35Z" fill="#fff"/><path d="M84.5,64.36V59.639a1.314,1.314,0,0,0-1.315-1.314H80.008a18.256,18.256,0,0,0-2.679-6.457l2.25-2.249a1.316,1.316,0,0,0,0-1.86l-3.338-3.338a1.315,1.315,0,0,0-1.86,0l-2.249,2.25a18.256,18.256,0,0,0-6.457-2.679V40.815A1.315,1.315,0,0,0,64.36,39.5H59.639a1.314,1.314,0,0,0-1.314,1.315v3.177a18.256,18.256,0,0,0-6.457,2.679l-2.25-2.25a1.313,1.313,0,0,0-1.859,0l-3.338,3.338a1.315,1.315,0,0,0,0,1.86l2.249,2.249a18.273,18.273,0,0,0-2.678,6.457H40.815A1.314,1.314,0,0,0,39.5,59.639V64.36a1.315,1.315,0,0,0,1.315,1.315h3.177a18.273,18.273,0,0,0,2.678,6.457l-2.249,2.249a1.315,1.315,0,0,0,0,1.86l3.338,3.338a1.315,1.315,0,0,0,1.859,0l2.25-2.25a18.256,18.256,0,0,0,6.457,2.679v3.177A1.314,1.314,0,0,0,59.639,84.5H64.36a1.315,1.315,0,0,0,1.315-1.315V80.008a18.256,18.256,0,0,0,6.457-2.679l2.249,2.25a1.316,1.316,0,0,0,1.86,0l3.338-3.338a1.316,1.316,0,0,0,0-1.86l-2.25-2.249a18.256,18.256,0,0,0,2.679-6.457h3.177A1.315,1.315,0,0,0,84.5,64.36ZM62,72.757A10.757,10.757,0,1,1,72.757,62,10.757,10.757,0,0,1,62,72.757Z" fill="#fa759e"/><path d="M16.82,65.125a1,1,0,0,0,1-1V53.75a1,1,0,0,0-2,0V64.125A1,1,0,0,0,16.82,65.125Z" fill="#3a2c60"/><path d="M110.677,79.743a8.92,8.92,0,0,0-2.5-.979V45.222a8.966,8.966,0,1,0-8.572-14.834L70.572,13.625a8.973,8.973,0,1,0-17.144,0L24.392,30.388A8.98,8.98,0,1,0,15.82,45.222v4.4a1,1,0,0,0,2,0V45.456a8.98,8.98,0,0,0,7.2-3.651l9.653,5.573a30.934,30.934,0,0,0,0,29.244L25.029,82.19a8.982,8.982,0,0,0-7.209-3.639v-9.8a1,1,0,0,0-2,0V78.764a8.973,8.973,0,0,0-.333,17.417,9.025,9.025,0,0,0,2.337.309,8.986,8.986,0,0,0,6.568-2.878l29.036,16.763a8.973,8.973,0,1,0,17.144,0L99.608,93.612a8.973,8.973,0,1,0,11.069-13.869ZM98.971,82.19l-9.645-5.568a30.934,30.934,0,0,0,0-29.244l9.652-5.573a8.981,8.981,0,0,0,7.2,3.651v33.1A8.982,8.982,0,0,0,98.971,82.19ZM102.7,30.448a6.928,6.928,0,0,1,3.475-.938,7,7,0,0,1,1.816.241,6.973,6.973,0,1,1-5.291.7Zm-4.28,1.566a8.979,8.979,0,0,0-.453,8.064l-9.65,5.571A31.007,31.007,0,0,0,63,31.025V19.887a8.98,8.98,0,0,0,6.756-4.423ZM62,4a6.973,6.973,0,1,1-6.973,6.973A6.981,6.981,0,0,1,62,4ZM23.848,39.973A6.971,6.971,0,1,1,21.3,30.448,6.983,6.983,0,0,1,23.848,39.973Zm2.181.1a8.98,8.98,0,0,0-.453-8.063L54.243,15.463A8.981,8.981,0,0,0,61,19.887V31.025A31.007,31.007,0,0,0,35.679,45.649ZM62,33A29,29,0,1,1,33,62,29.033,29.033,0,0,1,62,33ZM21.3,93.552a6.972,6.972,0,1,1,2.552-9.525A6.979,6.979,0,0,1,21.3,93.552Zm4.28-1.566a8.98,8.98,0,0,0,.453-8.063l9.65-5.572A31.007,31.007,0,0,0,61,92.975v11.138a8.981,8.981,0,0,0-6.757,4.424ZM62,120a6.973,6.973,0,1,1,6.973-6.973A6.981,6.981,0,0,1,62,120Zm1-15.887V92.975A31.007,31.007,0,0,0,88.321,78.351l9.65,5.571a8.979,8.979,0,0,0,.453,8.064l-28.668,16.55A8.98,8.98,0,0,0,63,104.113ZM112.229,91a6.972,6.972,0,1,1,.7-5.291A6.927,6.927,0,0,1,112.229,91Z" fill="#3a2c60"/><path d="M45.4,71.99l-1.685,1.685a2.319,2.319,0,0,0,0,3.273l3.339,3.339a2.316,2.316,0,0,0,3.272,0L52.01,78.6a19.182,19.182,0,0,0,5.314,2.206v2.377A2.318,2.318,0,0,0,59.639,85.5h4.722a2.317,2.317,0,0,0,2.314-2.315V80.808A19.188,19.188,0,0,0,71.99,78.6l1.684,1.685a2.32,2.32,0,0,0,3.274,0l3.339-3.339a2.319,2.319,0,0,0,0-3.273L78.6,71.99a19.133,19.133,0,0,0,2.206-5.315h2.377A2.318,2.318,0,0,0,85.5,64.36V59.639a2.317,2.317,0,0,0-2.315-2.314H80.808A19.133,19.133,0,0,0,78.6,52.01l1.685-1.685a2.319,2.319,0,0,0,0-3.273l-3.338-3.338a2.319,2.319,0,0,0-3.274,0L71.99,45.4a19.191,19.191,0,0,0-5.315-2.2V40.815A2.317,2.317,0,0,0,64.361,38.5H59.639a2.318,2.318,0,0,0-2.315,2.315v2.377A19.169,19.169,0,0,0,52.01,45.4l-1.684-1.684a2.368,2.368,0,0,0-3.274,0l-3.338,3.338a2.317,2.317,0,0,0,0,3.274L45.4,52.01a19.158,19.158,0,0,0-2.206,5.315H40.815A2.317,2.317,0,0,0,38.5,59.639V64.36a2.317,2.317,0,0,0,2.315,2.315h2.377A19.158,19.158,0,0,0,45.4,71.99Zm-4.9-7.63V59.639a.315.315,0,0,1,.315-.314h3.177a1,1,0,0,0,.98-.8,17.229,17.229,0,0,1,2.532-6.1,1,1,0,0,0-.126-1.259l-2.25-2.249a.316.316,0,0,1,0-.446l3.338-3.338a.267.267,0,0,1,.445,0l2.25,2.249a1,1,0,0,0,1.259.127,17.211,17.211,0,0,1,6.1-2.532,1,1,0,0,0,.8-.98V40.815a.316.316,0,0,1,.315-.315h4.722a.315.315,0,0,1,.314.315v3.177a1,1,0,0,0,.8.98,17.211,17.211,0,0,1,6.1,2.532,1,1,0,0,0,1.259-.127l2.249-2.249a.274.274,0,0,1,.445,0l3.339,3.338a.317.317,0,0,1,0,.446l-2.25,2.249A1,1,0,0,0,76.5,52.42a17.2,17.2,0,0,1,2.533,6.1,1,1,0,0,0,.98.8h3.177a.315.315,0,0,1,.315.314V64.36a.315.315,0,0,1-.315.315H80.008a1,1,0,0,0-.98.8,17.2,17.2,0,0,1-2.533,6.1,1,1,0,0,0,.127,1.259l2.249,2.249a.317.317,0,0,1,0,.446l-3.339,3.338a.315.315,0,0,1-.445,0l-2.249-2.249A1,1,0,0,0,71.58,76.5a17.226,17.226,0,0,1-6.1,2.532,1,1,0,0,0-.8.98v3.177a.315.315,0,0,1-.314.315H59.639a.316.316,0,0,1-.315-.315V80.008a1,1,0,0,0-.8-.98,17.226,17.226,0,0,1-6.1-2.532,1,1,0,0,0-1.259.127l-2.25,2.249a.316.316,0,0,1-.445,0l-3.338-3.338a.316.316,0,0,1,0-.446l2.25-2.249A1,1,0,0,0,47.5,71.58a17.229,17.229,0,0,1-2.532-6.1,1,1,0,0,0-.98-.8H40.815A.315.315,0,0,1,40.5,64.36Z" fill="#3a2c60"/><path d="M62,73.757A11.757,11.757,0,1,0,50.243,62,11.77,11.77,0,0,0,62,73.757Zm0-21.514A9.757,9.757,0,1,1,52.243,62,9.768,9.768,0,0,1,62,52.243Z" fill="#3a2c60"/></svg>
