<?xml version="1.0" encoding="iso-8859-1"?>
<!-- Generator: Adobe Illustrator 19.0.0, SVG Export Plug-In . SVG Version: 6.00 Build 0)  -->
<svg version="1.1" id="Layer_1" xmlns="http://www.w3.org/2000/svg" xmlns:xlink="http://www.w3.org/1999/xlink" x="0px" y="0px"
	 viewBox="0 0 512 512" style="enable-background:new 0 0 512 512;" xml:space="preserve">
<circle style="fill:#175D76;" cx="256" cy="256" r="256"/>
<path style="fill:#00263F;" d="M512,256c0-13.374-1.029-26.507-3.006-39.327L398.429,106.106L217.212,64.359l-72.692,27.87
	l-62.061,71.39L62.923,277.837l47.895,125.388l105.751,105.751c12.853,1.988,26.021,3.022,39.429,3.022
	C397.384,511.998,511.998,397.384,512,256z"/>
<path style="fill:#B9EAFF;" d="M256,49.131C141.933,49.131,49.131,141.933,49.131,256S141.933,462.869,256,462.869
	S462.869,370.067,462.869,256S370.067,49.131,256,49.131z M377.147,241.635c-0.755-19.611-3.044-38.393-6.675-56.013
	c31.897,14.152,54.479,33.918,61.414,56.011L377.147,241.635z M348.381,241.636l-78.015,0.002v-78.019
	c24.061,1.055,46.94,4.729,67.562,10.454C343.652,194.693,347.326,217.574,348.381,241.636z M270.365,134.851V80.113
	c22.094,6.935,41.862,29.517,56.011,61.414C308.758,137.897,289.976,135.606,270.365,134.851z M241.633,80.113v54.739
	c-19.611,0.755-38.393,3.044-56.011,6.675C199.773,109.628,219.539,87.047,241.633,80.113z M241.633,163.619v78.019l-78.015,0.002
	c1.055-24.062,4.729-46.944,10.454-67.567C194.693,168.346,217.572,164.673,241.633,163.619z M134.851,241.64H80.11
	c6.934-22.097,29.515-41.865,61.416-56.018C137.895,203.242,135.606,222.025,134.851,241.64z M134.851,270.37
	c0.755,19.609,3.044,38.39,6.675,56.006c-31.896-14.15-54.475-33.914-61.412-56.006H134.851z M163.619,270.37l78.015-0.002v78.012
	c-24.061-1.055-46.94-4.729-67.562-10.454C168.346,317.307,164.674,294.429,163.619,270.37z M241.633,377.147v54.739
	c-22.094-6.935-41.862-29.517-56.011-61.414C203.24,374.103,222.022,376.394,241.633,377.147z M270.365,431.887v-54.739
	c19.611-0.755,38.393-3.044,56.011-6.675C312.227,402.372,292.459,424.951,270.365,431.887z M270.365,348.381v-78.012l78.015-0.002
	c-1.055,24.061-4.729,46.938-10.454,67.56C317.306,343.652,294.426,347.326,270.365,348.381z M377.147,270.367l54.739-0.002
	c-6.935,22.094-29.517,41.862-61.414,56.011C374.103,308.758,376.392,289.978,377.147,270.367z M416.346,178.441
	c-15.386-11.014-34.071-20.349-55.244-27.543c-7.194-21.173-16.529-39.858-27.543-55.244
	C369.576,113.147,398.853,142.422,416.346,178.441z M178.441,95.654c-11.014,15.386-20.349,34.071-27.543,55.244
	c-21.173,7.194-39.858,16.529-55.244,27.543C113.145,142.422,142.422,113.147,178.441,95.654z M95.653,333.559
	c15.386,11.014,34.071,20.349,55.244,27.543c7.194,21.173,16.529,39.858,27.543,55.244
	C142.422,398.853,113.145,369.576,95.653,333.559z M333.559,416.346c11.014-15.386,20.349-34.071,27.543-55.244
	c21.173-7.194,39.858-16.529,55.244-27.543C398.853,369.576,369.576,398.853,333.559,416.346z"/>
<path style="fill:#35CCFF;" d="M256,49.131c-0.191,0-0.383,0.007-0.574,0.007v413.724c0.191,0,0.383,0.007,0.574,0.007
	c114.067,0,206.869-92.801,206.869-206.869S370.067,49.131,256,49.131z M416.346,178.441
	c-15.386-11.014-34.071-20.349-55.244-27.543c-7.194-21.173-16.529-39.858-27.543-55.244
	C369.576,113.147,398.853,142.422,416.346,178.441z M431.887,241.635h-54.739c-0.755-19.611-3.044-38.393-6.675-56.013
	C402.37,199.773,424.951,219.539,431.887,241.635z M270.365,80.113c22.094,6.935,41.86,29.517,56.011,61.414
	c-17.618-3.631-36.4-5.922-56.011-6.675V80.113z M270.365,163.618c24.061,1.055,46.94,4.729,67.562,10.454
	c5.725,20.621,9.399,43.501,10.454,67.563h-78.015L270.365,163.618L270.365,163.618z M270.365,270.369h78.015
	c-1.055,24.061-4.729,46.94-10.454,67.56c-20.621,5.725-43.501,9.399-67.562,10.454L270.365,270.369L270.365,270.369z
	 M270.365,431.887v-54.739c19.611-0.755,38.393-3.046,56.011-6.675C312.227,402.372,292.459,424.951,270.365,431.887z
	 M333.559,416.346c11.014-15.386,20.349-34.071,27.543-55.244c21.173-7.194,39.858-16.529,55.244-27.543
	C398.853,369.576,369.576,398.853,333.559,416.346z M370.473,326.378c3.631-17.618,5.92-36.4,6.675-56.011l54.739-0.002
	C424.951,292.459,402.37,312.227,370.473,326.378z"/>
<circle style="fill:#FFFFFF;" cx="296.098" cy="296.098" r="68.546"/>
<path style="fill:#E0E0E0;" d="M246.793,248.517c-25.909,26.831-25.64,69.575,0.84,96.056c26.479,26.481,69.225,26.748,96.056,0.84
	L246.793,248.517z"/>
<path style="fill:#FF6838;" d="M415.756,390.156l-53.82-53.82c18.153-29.706,14.41-69.12-11.267-94.799
	c-30.087-30.087-79.043-30.086-109.13,0c-30.087,30.087-30.087,79.043,0,109.13c15.045,15.045,34.804,22.566,54.565,22.566
	c13.971,0,27.931-3.779,40.234-11.297l53.82,53.82c3.534,3.534,8.168,5.301,12.8,5.301c4.632,0,9.266-1.767,12.8-5.301
	C422.824,408.686,422.824,397.226,415.756,390.156z M253.726,338.477c-23.366-23.366-23.366-61.383,0-84.749
	c11.685-11.685,27.027-17.523,42.375-17.523c15.344,0,30.694,5.842,42.375,17.523c23.366,23.366,23.366,61.383,0,84.749
	C315.113,361.841,277.094,361.843,253.726,338.477z"/>
<path style="fill:#AE4E32;" d="M337.592,339.316c-23.43,22.504-60.788,22.237-83.866-0.84c-23.076-23.076-23.345-60.437-0.84-83.866
	l-12.19-12.19c-29.225,30.155-28.958,78.448,0.84,108.246c15.045,15.045,34.804,22.566,54.565,22.566
	c13.971,0,27.931-3.779,40.234-11.297l53.82,53.82c3.534,3.534,8.168,5.301,12.8,5.301c4.251,0,8.492-1.507,11.895-4.484
	L337.592,339.316z"/>
<g>
</g>
<g>
</g>
<g>
</g>
<g>
</g>
<g>
</g>
<g>
</g>
<g>
</g>
<g>
</g>
<g>
</g>
<g>
</g>
<g>
</g>
<g>
</g>
<g>
</g>
<g>
</g>
<g>
</g>
</svg>
