<?xml version="1.0"?>
<svg xmlns="http://www.w3.org/2000/svg" xmlns:xlink="http://www.w3.org/1999/xlink" version="1.1" id="Capa_1" x="0px" y="0px" viewBox="0 0 512 512" style="enable-background:new 0 0 512 512;" xml:space="preserve" width="512px" height="512px" class=""><g><path style="fill:#579ADD;" d="M492.842,505.541H19.158c-6.6,0-12.001-5.4-12.001-12.001V19.855c0-6.6,5.4-12.001,12.001-12.001  h473.685c6.6,0,12.001,5.4,12.001,12.001V493.54C504.843,500.14,499.442,505.541,492.842,505.541z" data-original="#579ADD" class=""/><path style="fill:#4987CE;" d="M27.159,493.54V19.855c0-6.6,5.4-12.001,12.001-12.001H19.158c-6.6,0-12.001,5.4-12.001,12.001  V493.54c0,6.6,5.4,12.001,12.001,12.001h20.001C32.559,505.541,27.159,500.14,27.159,493.54z" data-original="#4987CE"/><path d="M132.18,186.836c0.818,0,1.481-0.663,1.481-1.481v-7.691c0-0.989-0.802-1.791-1.791-1.791H56.369  c-0.383,0-0.693,0.31-0.693,0.693v9.496c0,0.428,0.347,0.775,0.775,0.775L132.18,186.836L132.18,186.836z" data-original="#000000" class="active-path" style="fill:#FFFFFF" data-old_color="#000000"/><path d="M57.335,336.127h75.853c0.599,0,1.085-0.486,1.085-1.085v-8.767c0-0.614-0.498-1.112-1.112-1.112H57.174  c-0.49,0-0.887,0.397-0.887,0.887v9.03C56.288,335.658,56.757,336.127,57.335,336.127z" data-original="#000000" class="active-path" style="fill:#FFFFFF" data-old_color="#000000"/><path d="M167.12,249.835c0,0.543,0.44,0.983,0.983,0.983h84.594c0.453,0,0.888-0.154,1.238-0.443  c1.59-1.316,6.241-5.367,8.462-9.479c0.254-0.471-0.085-1.042-0.62-1.042h-93.561c-0.605,0-1.095,0.49-1.095,1.095v8.886H167.12z" data-original="#000000" class="active-path" style="fill:#FFFFFF" data-old_color="#000000"/><path d="M55.676,206.38c0,0.982,0.796,1.779,1.779,1.779h74.064c1.183,0,2.142-0.959,2.142-2.142v-6.754  c0-1.142-0.926-2.068-2.068-2.068H57.631c-1.08,0-1.955,0.875-1.955,1.955C55.676,199.149,55.676,206.38,55.676,206.38z" data-original="#000000" class="active-path" style="fill:#FFFFFF" data-old_color="#000000"/><path d="M79.185,282.503c-0.607,0-1.099,0.492-1.099,1.099v8.639c0,0.677,0.549,1.227,1.227,1.227h31.592  c0.529,0,0.958-0.429,0.958-0.958v-8.989c0-0.562-0.456-1.018-1.018-1.018L79.185,282.503L79.185,282.503z" data-original="#000000" class="active-path" style="fill:#FFFFFF" data-old_color="#000000"/><path d="M111.863,241.341c0-0.821-0.666-1.487-1.487-1.487H79.591c-0.831,0-1.505,0.674-1.505,1.505v8.076  c0,0.763,0.619,1.382,1.383,1.382h30.947c0.799,0,1.447-0.648,1.447-1.447V241.341z" data-original="#000000" class="active-path" style="fill:#FFFFFF" data-old_color="#000000"/><path d="M111.863,219.879c0-0.753-0.611-1.364-1.364-1.364h-31.28c-0.625,0-1.132,0.507-1.132,1.132v8.585  c0,0.698,0.566,1.264,1.264,1.264h31.642c0.481,0,0.871-0.39,0.871-0.871L111.863,219.879L111.863,219.879z" data-original="#000000" class="active-path" style="fill:#FFFFFF" data-old_color="#000000"/><path d="M167.12,292.255c0,0.67,0.543,1.212,1.212,1.212h31.36c0.662,0,1.199-0.537,1.199-1.199v-8.758  c0-0.557-0.451-1.008-1.008-1.008h-31.428c-0.737,0-1.334,0.597-1.334,1.334v8.418H167.12z" data-original="#000000" class="active-path" style="fill:#FFFFFF" data-old_color="#000000"/><path d="M111.863,262.505c0-0.731-0.593-1.324-1.324-1.324H79.387c-0.718,0-1.3,0.582-1.3,1.3v8.159  c0,0.831,0.673,1.504,1.504,1.504h30.662c0.889,0,1.611-0.721,1.611-1.611L111.863,262.505L111.863,262.505z" data-original="#000000" class="active-path" style="fill:#FFFFFF" data-old_color="#000000"/><path d="M168.568,229.497h31.4c0.51,0,0.924-0.414,0.924-0.924v-8.974c0-0.598-0.485-1.083-1.083-1.083h-31.58  c-0.612,0-1.107,0.496-1.107,1.107v8.426C167.12,228.849,167.768,229.497,168.568,229.497z" data-original="#000000" class="active-path" style="fill:#FFFFFF" data-old_color="#000000"/><path d="M167.12,270.937c0,0.667,0.541,1.208,1.208,1.208h93.539c0.493,0,0.802-0.526,0.57-0.962c-2.141-4.011-6.641-8-8.362-9.441  c-0.436-0.365-0.981-0.562-1.55-0.562h-84.318c-0.601,0-1.088,0.487-1.088,1.088v8.669H167.12z" data-original="#000000" class="active-path" style="fill:#FFFFFF" data-old_color="#000000"/><path d="M377.525,219.1l-3.354,9.204c-0.211,0.58,0.218,1.193,0.835,1.193h58.014c0.491,0,0.889-0.398,0.889-0.889v-9.204  c0-0.491-0.398-0.889-0.889-0.889H378.36C377.987,218.515,377.653,218.749,377.525,219.1z" data-original="#000000" class="active-path" style="fill:#FFFFFF" data-old_color="#000000"/><path d="M384.892,197.815l-3.096,9.171c-0.194,0.576,0.234,1.173,0.842,1.173h72.184c0.491,0,0.889-0.398,0.889-0.889v-9.171  c0-0.491-0.398-0.889-0.889-0.889h-69.088C385.353,197.21,385.014,197.454,384.892,197.815z" data-original="#000000" class="active-path" style="fill:#FFFFFF" data-old_color="#000000"/><path d="M454.823,175.873h-61.122c-0.374,0-0.707,0.234-0.835,0.585l-3.344,9.187c-0.211,0.58,0.218,1.193,0.835,1.193h64.466  c0.491,0,0.889-0.398,0.889-0.889v-9.187C455.712,176.27,455.314,175.873,454.823,175.873z" data-original="#000000" class="active-path" style="fill:#FFFFFF" data-old_color="#000000"/><path d="M356.159,219.1c-0.128-0.351-0.461-0.585-0.835-0.585h-53.945c-0.729,0-1.319,0.591-1.319,1.319v8.002  c0,0.916,0.743,1.659,1.659,1.659h56.949c0.617,0,1.046-0.613,0.835-1.192L356.159,219.1z" data-original="#000000" class="active-path" style="fill:#FFFFFF" data-old_color="#000000"/><path d="M144.71,198.58v8.314c0,0.698,0.566,1.264,1.264,1.264h121.679c0.57,0,0.996-0.521,0.881-1.079  c-0.436-2.117-1.541-6.811-3.189-9.165c-0.318-0.455-0.856-0.704-1.411-0.704H146.08C145.324,197.21,144.71,197.824,144.71,198.58z" data-original="#000000" class="active-path" style="fill:#FFFFFF" data-old_color="#000000"/><path d="M343.61,186.836c0.617,0,1.046-0.613,0.835-1.193l-3.344-9.187c-0.128-0.351-0.461-0.585-0.835-0.585h-61.401  c-0.675,0-1.222,0.547-1.222,1.222v8.497c0,0.688,0.558,1.246,1.246,1.246H343.61z" data-original="#000000" class="active-path" style="fill:#FFFFFF" data-old_color="#000000"/><path d="M145.905,175.873c-0.66,0-1.195,0.535-1.195,1.195v8.383c0,0.765,0.62,1.385,1.385,1.385H254  c0.648,0,0.944-0.808,0.444-1.22c-3.471-2.857-13.072-9.744-24.987-9.744H145.905z" data-original="#000000" class="active-path" style="fill:#FFFFFF" data-old_color="#000000"/><path d="M363.549,325.164c-0.252,0-0.428,0.25-0.343,0.487l3.737,10.449l0.669,0.011l3.844-10.574  c0.066-0.181-0.068-0.373-0.261-0.373H363.549z" data-original="#000000" class="active-path" style="fill:#FFFFFF" data-old_color="#000000"/><path d="M390.647,271.553l3.249-9.187c0.205-0.578-0.224-1.185-0.838-1.185h-51.819c-0.62,0-1.049,0.619-0.832,1.199l3.43,9.187  c0.13,0.347,0.462,0.578,0.833,0.578h45.14C390.185,272.145,390.521,271.908,390.647,271.553z" data-original="#000000" class="active-path" style="fill:#FFFFFF" data-old_color="#000000"/><path d="M382.894,292.883l3.344-9.187c0.211-0.58-0.218-1.193-0.835-1.193H348.9c-0.616,0-1.045,0.611-0.836,1.19l3.315,9.187  c0.127,0.352,0.461,0.587,0.836,0.587h29.844C382.433,293.468,382.767,293.234,382.894,292.883z" data-original="#000000" class="active-path" style="fill:#FFFFFF" data-old_color="#000000"/><path d="M370.303,240.441l-2.321,6.4c-0.283,0.78-1.387,0.781-1.67,0.001l-2.329-6.402c-0.128-0.351-0.461-0.585-0.835-0.585h-61.73  c-0.75,0-1.359,0.608-1.359,1.359v8.077c0,0.844,0.684,1.528,1.528,1.528h31.35c0.491,0,0.889-0.398,0.889-0.889  c0-1,1.396-1.238,1.727-0.294l0.207,0.589c0.125,0.356,0.461,0.594,0.838,0.594h60.629c0.37,0,0.701-0.229,0.831-0.575l0.365-0.967  c0.349-0.925,1.72-0.675,1.72,0.314v0.339c0,0.491,0.398,0.889,0.889,0.889h31.988c0.491,0,0.889-0.398,0.889-0.889v-9.187  c0-0.491-0.398-0.889-0.889-0.889h-61.881C370.764,239.855,370.43,240.089,370.303,240.441z" data-original="#000000" class="active-path" style="fill:#FFFFFF" data-old_color="#000000"/><path d="M375.417,314.209l3.193-9.204c0.2-0.577-0.228-1.18-0.84-1.18h-21.182c-0.619,0-1.048,0.617-0.833,1.198l3.412,9.204  c0.129,0.348,0.462,0.58,0.833,0.58h14.578C374.956,314.806,375.293,314.566,375.417,314.209z" data-original="#000000" class="active-path" style="fill:#FFFFFF" data-old_color="#000000"/><path d="M401.031,272.145h31.988c0.491,0,0.889-0.398,0.889-0.889v-9.187c0-0.491-0.398-0.889-0.889-0.889h-31.988  c-0.491,0-0.889,0.398-0.889,0.889v9.187C400.142,271.748,400.54,272.145,401.031,272.145z" data-original="#000000" class="active-path" style="fill:#FFFFFF" data-old_color="#000000"/><path d="M134.273,304.636c0-0.448-0.363-0.812-0.812-0.812H57.093c-0.445,0-0.805,0.361-0.805,0.805v9.101  c0,0.594,0.481,1.075,1.075,1.075h76.173c0.407,0,0.737-0.33,0.737-0.737V304.636z" data-original="#000000" class="active-path" style="fill:#FFFFFF" data-old_color="#000000"/><path d="M455.435,325.164H401.03c-0.491,0-0.889,0.398-0.889,0.889v9.187c0,0.491,0.398,0.889,0.889,0.889h54.404  c0.491,0,0.889-0.398,0.889-0.889v-9.187C456.324,325.562,455.926,325.164,455.435,325.164z" data-original="#000000" class="active-path" style="fill:#FFFFFF" data-old_color="#000000"/><path d="M400.142,292.579c0,0.491,0.398,0.889,0.889,0.889h31.988c0.491,0,0.889-0.398,0.889-0.889v-9.187  c0-0.491-0.398-0.889-0.889-0.889h-31.988c-0.491,0-0.889,0.398-0.889,0.889V292.579z" data-original="#000000" class="active-path" style="fill:#FFFFFF" data-old_color="#000000"/><path d="M333.825,262.07c0-0.491-0.398-0.889-0.889-0.889h-31.39c-0.821,0-1.487,0.666-1.487,1.487v7.785  c0,0.934,0.757,1.691,1.691,1.691h31.186c0.491,0,0.889-0.398,0.889-0.889V262.07z" data-original="#000000" class="active-path" style="fill:#FFFFFF" data-old_color="#000000"/><path d="M456.324,304.713c0-0.491-0.398-0.889-0.889-0.889H401.03c-0.491,0-0.889,0.398-0.889,0.889v9.204  c0,0.491,0.398,0.889,0.889,0.889h54.404c0.491,0,0.889-0.398,0.889-0.889V304.713z" data-original="#000000" class="active-path" style="fill:#FFFFFF" data-old_color="#000000"/><path d="M268.937,218.515h-34.218c-0.538,0-0.974,0.436-0.974,0.974v9.067c0,0.519,0.421,0.94,0.94,0.94h32.143  c0.417,0,0.788-0.263,0.92-0.66c0.52-1.566,1.759-5.673,1.901-9.599C269.662,218.842,269.334,218.515,268.937,218.515z" data-original="#000000" class="active-path" style="fill:#FFFFFF" data-old_color="#000000"/><path d="M269.633,292.408c-0.192-3.703-1.312-7.495-1.84-9.105c-0.157-0.48-0.603-0.8-1.109-0.8h-31.582  c-0.75,0-1.358,0.608-1.358,1.358v8.059c0,0.855,0.693,1.548,1.548,1.548h33.35C269.217,293.468,269.662,292.982,269.633,292.408z" data-original="#000000" class="active-path" style="fill:#FFFFFF" data-old_color="#000000"/><path d="M265.217,314.278c1.807-2.41,2.987-7.701,3.38-9.684c0.079-0.4-0.226-0.77-0.633-0.77H145.682  c-0.537,0-0.972,0.435-0.972,0.972v9.049c0,0.53,0.43,0.96,0.96,0.96h118.478C264.569,314.806,264.965,314.614,265.217,314.278z" data-original="#000000" class="active-path" style="fill:#FFFFFF" data-old_color="#000000"/><path d="M145.826,325.164c-0.616,0-1.116,0.5-1.116,1.116v8.813c0,0.562,0.456,1.018,1.018,1.018h83.73  c12.186,0,21.95-7.191,25.214-9.917c0.419-0.35,0.166-1.03-0.38-1.03H145.826z" data-original="#000000" class="active-path" style="fill:#FFFFFF" data-old_color="#000000"/><path d="M277.643,206.961c0,0.661,0.536,1.198,1.198,1.198h72.17c0.608,0,1.036-0.597,0.842-1.173l-3.096-9.171  c-0.122-0.361-0.461-0.604-0.842-0.604H279.03c-0.766,0-1.387,0.621-1.387,1.387V206.961z" data-original="#000000" class="active-path" style="fill:#FFFFFF" data-old_color="#000000"/><path d="M333.825,304.51c0-0.379-0.307-0.686-0.686-0.686h-53.742c-0.63,0-1.141,0.511-1.141,1.141v8.545  c0,0.716,0.58,1.296,1.296,1.296h53.587c0.379,0,0.686-0.307,0.686-0.686L333.825,304.51L333.825,304.51z" data-original="#000000" class="active-path" style="fill:#FFFFFF" data-old_color="#000000"/><path d="M333.825,283.391c0-0.491-0.398-0.889-0.889-0.889h-31.342c-0.848,0-1.536,0.688-1.536,1.536v7.952  c0,0.815,0.661,1.476,1.476,1.476h31.401c0.491,0,0.889-0.398,0.889-0.889v-9.187H333.825z" data-original="#000000" class="active-path" style="fill:#FFFFFF" data-old_color="#000000"/><path d="M279.405,325.164c-0.635,0-1.149,0.515-1.149,1.149v8.692c0,0.62,0.503,1.122,1.122,1.122h53.951  c0.274,0,0.495-0.222,0.495-0.495v-9.837c0-0.349-0.283-0.632-0.632-0.632L279.405,325.164L279.405,325.164z" data-original="#000000" class="active-path" style="fill:#FFFFFF" data-old_color="#000000"/><path d="M492.499,0H273.501c-4.143,0-7.5,3.357-7.5,7.5s3.357,7.5,7.5,7.5h218.997c2.439,0,4.5,2.061,4.5,4.5v218.997  c0,4.143,3.357,7.5,7.5,7.5s7.5-3.357,7.5-7.5V19.501C512,8.749,503.251,0,492.499,0z" data-original="#000000" class="active-path" style="fill:#FFFFFF" data-old_color="#000000"/><path d="M504.5,266c-4.143,0-7.5,3.357-7.5,7.5v218.997c0,2.439-2.061,4.5-4.5,4.5H19.501c-2.439,0-4.5-2.061-4.5-4.5V19.501  c0-2.439,2.061-4.5,4.5-4.5h218.997c4.143,0,7.5-3.357,7.5-7.5s-3.357-7.5-7.5-7.5H19.501C8.749,0,0,8.749,0,19.501v472.998  C0,503.251,8.749,512,19.501,512h472.998c10.753,0,19.501-8.749,19.501-19.501V273.501C512,269.358,508.642,266,504.5,266z" data-original="#000000" class="active-path" style="fill:#FFFFFF" data-old_color="#000000"/></g> </svg>
