<?xml version="1.0" encoding="iso-8859-1"?>
<!-- Generator: Adobe Illustrator 19.0.0, SVG Export Plug-In . SVG Version: 6.00 Build 0)  -->
<svg version="1.1" id="Capa_1" xmlns="http://www.w3.org/2000/svg" xmlns:xlink="http://www.w3.org/1999/xlink" x="0px" y="0px"
	 viewBox="0 0 480 480" style="enable-background:new 0 0 480 480;" xml:space="preserve">
<g>
	<path style="fill:#FFEDB9;" d="M258.089,0.676c1.073,0.08,2.141,0.181,3.21,0.275C260.23,0.857,259.162,0.756,258.089,0.676z"/>
	<path style="fill:#FFEDB9;" d="M246.08,0.077c0.765,0.019,1.525,0.058,2.288,0.084C247.605,0.135,246.845,0.096,246.08,0.077z"/>
	<path style="fill:#FFEDB9;" d="M252.11,0.303c0.956,0.048,1.907,0.116,2.86,0.175C254.017,0.42,253.067,0.351,252.11,0.303z"/>
	<path style="fill:#FFEDB9;" d="M0.146,247.974c-0.022-0.667-0.054-1.333-0.07-2.001C0.092,246.642,0.124,247.306,0.146,247.974z"/>
	<path style="fill:#FFEDB9;" d="M1.438,266.279c-0.095-0.869-0.191-1.738-0.276-2.609C1.247,264.542,1.344,265.41,1.438,266.279z"/>
	<path style="fill:#FFEDB9;" d="M303.561,8.525c38.557,10.583,73.23,30.554,101.437,57.281C395.485,64.659,385.822,64,376,64
		c-11.109,0-22.036,0.772-32.743,2.233c0.449,0.587,0.89,1.186,1.311,1.809c9.12,13.473,8.019,30.146-2.46,37.24
		c-10.479,7.094-26.368,1.922-35.488-11.551c-3.803-5.618-5.822-11.79-6.132-17.594c-18.17,6.019-35.374,14.151-51.329,24.104
		C253.44,105.681,256,112.539,256,120c0,17.673-14.327,32-32,32c-9.635,0-18.268-4.264-24.135-11.001
		C160.234,183.802,136,241.067,136,304c0,68.614,28.84,130.454,75.002,174.194c-77.915-9.391-144.343-56.085-180.868-121.708
		C71.109,430.151,149.727,480,240,480c132.548,0,240-107.452,240-240C480,129.458,405.259,36.388,303.561,8.525z M186.32,186.32
		c3.039-2.961,8.32-2.961,11.359,0c1.438,1.52,2.32,3.598,2.32,5.68c0,2.078-0.883,4.16-2.32,5.68
		c-1.523,1.438-3.602,2.32-5.68,2.32s-4.164-0.883-5.68-2.32c-1.445-1.52-2.32-3.602-2.32-5.68
		C184,189.84,184.875,187.84,186.32,186.32z M181.68,389.679c-1.523,1.438-3.602,2.32-5.68,2.32s-4.164-0.883-5.68-2.32
		c-1.445-1.52-2.32-3.602-2.32-5.68c0-2.082,0.875-4.16,2.32-5.68c3.039-2.961,8.32-2.961,11.359,0c1.438,1.52,2.32,3.598,2.32,5.68
		C184,386.078,183.117,388.16,181.68,389.679z M184,300c0-24.3,19.699-44,44-44c24.3,0,44,19.699,44,44c0,24.301-19.699,44-44,44
		C203.699,344,184,324.301,184,300z M268.277,438.911c-19.656,5.263-38.845-2.626-42.861-17.622
		c-4.016-14.996,8.663-31.419,28.319-36.683c19.656-5.263,38.845,2.626,42.861,17.622S287.933,433.647,268.277,438.911z
		 M325.68,293.68c-1.523,1.438-3.602,2.32-5.68,2.32s-4.164-0.883-5.68-2.32c-1.445-1.52-2.32-3.602-2.32-5.68
		c0-2.082,0.875-4.16,2.32-5.68c3.039-2.961,8.32-2.961,11.359,0c1.438,1.52,2.32,3.598,2.32,5.68
		C328,290.078,327.117,292.16,325.68,293.68z M312,216c-13.255,0-24-10.745-24-24s10.745-24,24-24s24,10.745,24,24
		S325.255,216,312,216z M378.398,146.32c2.797-2.883,8.242-2.961,11.281,0c1.438,1.52,2.32,3.598,2.32,5.68
		c0,2.078-0.883,4.16-2.32,5.68c-1.523,1.438-3.602,2.32-5.68,2.32c-2.164,0-4.164-0.883-5.68-2.32
		c-1.445-1.52-2.32-3.602-2.32-5.68C376,149.84,376.875,147.84,378.398,146.32z M383.856,352.573
		c-8.994,8.994-21.755,10.817-28.5,4.071c-6.746-6.746-4.923-19.506,4.071-28.5c8.995-8.994,21.755-10.817,28.5-4.072
		S392.85,343.578,383.856,352.573z M388.289,267.636c-12.304-2.028-20.085-16.971-17.381-33.376
		c2.704-16.405,14.871-28.059,27.174-26.031s20.085,16.971,17.381,33.376C412.759,258.01,400.592,269.664,388.289,267.636z"/>
	<path style="fill:#FFEDB9;" d="M0.435,254.289c-0.047-0.793-0.101-1.583-0.14-2.378C0.334,252.706,0.389,253.496,0.435,254.289z"/>
	<path style="fill:#FFEDB9;" d="M298.142,7.107c1.735,0.432,3.462,0.883,5.182,1.353C301.604,7.991,299.877,7.539,298.142,7.107z"/>
	<path style="fill:#FFEDB9;" d="M287.051,4.624c1.539,0.306,3.071,0.631,4.599,0.967C290.121,5.255,288.589,4.929,287.051,4.624z"/>
	<path style="fill:#FFEDB9;" d="M264.009,1.192c1.172,0.117,2.338,0.254,3.506,0.387C266.348,1.446,265.182,1.309,264.009,1.192z"/>
	<path style="fill:#FFEDB9;" d="M0.866,260.34c-0.071-0.843-0.146-1.684-0.208-2.529C0.72,258.656,0.796,259.498,0.866,260.34z"/>
	<path style="fill:#FFEDB9;" d="M292.635,5.805c1.633,0.366,3.259,0.75,4.879,1.149C295.894,6.556,294.269,6.171,292.635,5.805z"/>
	<path style="fill:#FFEDB9;" d="M269.87,1.849c1.265,0.157,2.523,0.334,3.782,0.511C272.393,2.183,271.135,2.006,269.87,1.849z"/>
	<path style="fill:#FFEDB9;" d="M275.664,2.642c1.355,0.202,2.703,0.423,4.05,0.648C278.367,3.065,277.019,2.844,275.664,2.642z"/>
	<path style="fill:#FFEDB9;" d="M281.394,3.568c1.446,0.252,2.885,0.522,4.322,0.8C284.279,4.091,282.84,3.82,281.394,3.568z"/>
	<path style="fill:#FFEDB9;" d="M3.982,283.7c-0.167-0.907-0.327-1.817-0.484-2.728C3.655,281.883,3.815,282.792,3.982,283.7z"/>
	<path style="fill:#FFEDB9;" d="M2.149,272.147c-0.119-0.886-0.236-1.772-0.345-2.66C1.914,270.375,2.031,271.261,2.149,272.147z"/>
	<path style="fill:#FFEDB9;" d="M14.108,321.229c-1.555-4.322-2.983-8.704-4.293-13.136
		C11.125,312.526,12.554,316.907,14.108,321.229z"/>
	<path style="fill:#FFEDB9;" d="M17.864,330.98c-0.519-1.265-1.035-2.533-1.533-3.809C16.829,328.448,17.345,329.715,17.864,330.98z
		"/>
	<path style="fill:#FFEDB9;" d="M20.031,336.094c-0.549-1.254-1.093-2.512-1.621-3.777
		C18.938,333.582,19.482,334.839,20.031,336.094z"/>
	<path style="fill:#FFEDB9;" d="M15.854,325.916c-0.506-1.318-1.009-2.638-1.492-3.967
		C14.845,323.278,15.349,324.597,15.854,325.916z"/>
	<path style="fill:#FFEDB9;" d="M5.1,289.396c-0.192-0.919-0.375-1.841-0.557-2.764C4.725,287.555,4.907,288.477,5.1,289.396z"/>
	<path style="fill:#FFEDB9;" d="M7.731,300.627c-0.249-0.956-0.482-1.918-0.72-2.879C7.249,298.709,7.482,299.671,7.731,300.627z"/>
	<path style="fill:#FFEDB9;" d="M6.349,295.035c-0.219-0.931-0.424-1.867-0.632-2.802C5.925,293.168,6.131,294.104,6.349,295.035z"
		/>
	<path style="fill:#FFEDB9;" d="M2.998,277.952c-0.143-0.898-0.281-1.799-0.414-2.7C2.717,276.154,2.855,277.053,2.998,277.952z"/>
	<path style="fill:#FFEDB9;" d="M9.242,306.163c-0.29-1.011-0.56-2.031-0.837-3.047C8.681,304.133,8.952,305.152,9.242,306.163z"/>
	<path style="fill:#FFEDB9;" d="M24.746,346.221c-0.636-1.286-1.262-2.579-1.876-3.878C23.483,343.643,24.11,344.935,24.746,346.221
		z"/>
	<path style="fill:#FFEDB9;" d="M29.933,356.127c-0.771-1.391-1.526-2.791-2.269-4.198
		C28.407,353.336,29.163,354.736,29.933,356.127z"/>
	<path style="fill:#FFEDB9;" d="M27.283,351.207c-0.696-1.327-1.378-2.663-2.05-4.004C25.905,348.545,26.588,349.88,27.283,351.207z
		"/>
	<path style="fill:#FFEDB9;" d="M22.327,341.18c-0.588-1.263-1.168-2.53-1.735-3.804C21.158,338.651,21.739,339.917,22.327,341.18z"
		/>
	<path style="fill:#FFD586;" d="M211.002,478.194C164.84,434.454,136,372.614,136,304c0-62.933,24.234-120.197,63.865-163
		C205.732,147.736,214.365,152,224,152c17.673,0,32-14.327,32-32c0-7.461-2.56-14.319-6.841-19.761
		c15.954-9.953,33.158-18.085,51.329-24.104c0.31,5.804,2.329,11.977,6.132,17.594c9.12,13.473,25.009,18.645,35.488,11.551
		c10.479-7.094,11.581-23.766,2.46-37.24c-0.422-0.623-0.862-1.222-1.311-1.809C353.964,64.772,364.891,64,376,64
		c9.822,0,19.485,0.659,28.998,1.806c-28.207-26.727-62.88-46.698-101.437-57.281c-0.079-0.022-0.158-0.043-0.237-0.064
		c-1.72-0.47-3.447-0.921-5.182-1.353c-0.209-0.052-0.418-0.102-0.627-0.153c-1.62-0.399-3.246-0.783-4.879-1.149
		c-0.328-0.073-0.658-0.143-0.986-0.215c-1.528-0.336-3.06-0.66-4.599-0.967c-0.444-0.088-0.89-0.17-1.334-0.256
		c-1.437-0.278-2.876-0.548-4.322-0.8c-0.558-0.097-1.12-0.185-1.679-0.278c-1.347-0.225-2.696-0.446-4.05-0.648
		c-0.669-0.1-1.342-0.187-2.013-0.282c-1.259-0.177-2.517-0.354-3.782-0.511c-0.783-0.097-1.57-0.179-2.355-0.269
		c-1.167-0.134-2.333-0.271-3.506-0.387c-0.901-0.09-1.807-0.161-2.71-0.241c-1.069-0.094-2.137-0.195-3.21-0.275
		c-1.036-0.077-2.079-0.134-3.119-0.198c-0.953-0.059-1.904-0.127-2.86-0.175c-1.244-0.062-2.494-0.099-3.743-0.142
		c-0.763-0.026-1.523-0.065-2.288-0.084C244.059,0.027,242.033,0,240,0C107.452,0,0,107.452,0,240c0,1.997,0.027,3.988,0.076,5.973
		c0.016,0.669,0.049,1.334,0.07,2.001c0.043,1.314,0.086,2.628,0.15,3.937c0.039,0.795,0.093,1.585,0.14,2.378
		c0.069,1.176,0.137,2.351,0.223,3.522c0.062,0.845,0.137,1.686,0.208,2.529c0.093,1.112,0.187,2.223,0.296,3.33
		c0.085,0.872,0.181,1.74,0.276,2.609c0.117,1.071,0.236,2.141,0.367,3.208c0.109,0.889,0.226,1.775,0.345,2.66
		c0.139,1.037,0.282,2.072,0.434,3.105c0.133,0.902,0.271,1.802,0.414,2.7c0.16,1.009,0.327,2.015,0.5,3.02
		c0.157,0.911,0.316,1.821,0.484,2.728c0.18,0.98,0.37,1.957,0.562,2.932c0.182,0.923,0.364,1.845,0.557,2.764
		c0.198,0.948,0.408,1.893,0.617,2.837c0.208,0.935,0.414,1.871,0.632,2.802c0.213,0.907,0.439,1.81,0.662,2.713
		c0.237,0.96,0.471,1.923,0.72,2.879c0.217,0.833,0.448,1.659,0.673,2.489c0.277,1.017,0.547,2.036,0.837,3.047
		c0.185,0.646,0.384,1.286,0.574,1.929c1.31,4.433,2.738,8.814,4.293,13.136c0.086,0.239,0.167,0.481,0.254,0.72
		c0.483,1.329,0.986,2.649,1.492,3.967c0.16,0.418,0.315,0.839,0.477,1.255c0.498,1.276,1.014,2.544,1.533,3.809
		c0.183,0.445,0.361,0.893,0.546,1.336c0.528,1.266,1.072,2.523,1.621,3.777c0.187,0.427,0.371,0.856,0.561,1.282
		c0.567,1.274,1.147,2.542,1.735,3.804c0.181,0.388,0.36,0.776,0.543,1.163c0.614,1.299,1.24,2.592,1.876,3.878
		c0.162,0.328,0.324,0.655,0.488,0.981c0.672,1.342,1.354,2.677,2.05,4.004c0.126,0.241,0.254,0.481,0.381,0.722
		c0.744,1.407,1.498,2.808,2.269,4.198c0.067,0.12,0.134,0.239,0.201,0.359C66.659,422.109,133.088,468.803,211.002,478.194z
		 M309.08,56.49c9.987-6.761,24.821-2.287,34.093,9.802c-14.663,2.007-28.895,5.336-42.589,9.867
		C300.151,68.043,302.97,60.626,309.08,56.49z M202.32,34.32c2.961-2.961,8.32-2.961,11.359,0c1.438,1.52,2.32,3.598,2.32,5.68
		c0,2.078-0.883,4.16-2.32,5.68C212.156,47.117,210.078,48,208,48s-4.164-0.883-5.68-2.32C200.875,44.16,200,42.16,200,40
		S200.875,35.758,202.32,34.32z M192.042,118.353c0.829-16.363,13.949-29.482,30.312-30.312C222.899,88.014,223.448,88,224,88
		c10.219,0,19.213,4.878,25.072,12.335c-18.131,11.324-34.64,24.989-49.102,40.593c-4.9-5.622-7.97-12.884-7.97-20.928
		C192,119.448,192.014,118.899,192.042,118.353z M104.201,100.201c9.404-9.404,23.699-10.357,31.927-2.128
		c8.229,8.229,7.276,22.523-2.128,31.927s-23.699,10.357-31.927,2.128S94.797,109.605,104.201,100.201z M120,287.9
		c0,2.078-0.883,4.16-2.32,5.68c-1.523,1.438-3.602,2.32-5.68,2.32s-4.164-0.883-5.68-2.32c-1.445-1.52-2.32-3.602-2.32-5.68
		c0-2.082,0.875-4.16,2.32-5.68c2.961-2.961,8.398-2.961,11.359,0C119.117,283.74,120,285.818,120,287.9z M48,224
		c0-17.673,12.536-32,28-32s28,14.327,28,32s-12.536,32-28,32S48,241.673,48,224z M77.087,325.087
		c9.373-9.373,27.101-6.84,39.598,5.657s15.03,30.225,5.657,39.598c-9.373,9.373-27.101,6.84-39.598-5.657
		C70.247,352.188,67.714,334.459,77.087,325.087z"/>
	<ellipse style="fill:#E7B27E;" cx="76" cy="224" rx="28" ry="32"/>
	
		<ellipse transform="matrix(0.7071 0.7071 -0.7071 0.7071 275.076 31.3344)" style="fill:#E7B27E;" cx="99.714" cy="347.714" rx="32" ry="24"/>
	
		<ellipse transform="matrix(-0.7071 -0.7071 0.7071 -0.7071 393.7608 843.8184)" style="fill:#FFD586;" cx="371.641" cy="340.359" rx="17.274" ry="23.032"/>
	<path style="fill:#FFD586;" d="M192,200c2.078,0,4.156-0.883,5.68-2.32c1.438-1.52,2.32-3.602,2.32-5.68
		c0-2.082-0.883-4.16-2.32-5.68c-3.039-2.961-8.32-2.961-11.359,0c-1.445,1.52-2.32,3.52-2.32,5.68c0,2.078,0.875,4.16,2.32,5.68
		C187.836,199.117,189.922,200,192,200z"/>
	<path style="fill:#E7B27E;" d="M106.32,282.221c-1.445,1.52-2.32,3.598-2.32,5.68c0,2.078,0.875,4.16,2.32,5.68
		c1.516,1.438,3.602,2.32,5.68,2.32s4.156-0.883,5.68-2.32c1.438-1.52,2.32-3.602,2.32-5.68c0-2.082-0.883-4.16-2.32-5.68
		C114.719,279.26,109.281,279.26,106.32,282.221z"/>
	<path style="fill:#FFD586;" d="M314.32,282.32c-1.445,1.52-2.32,3.598-2.32,5.68c0,2.078,0.875,4.16,2.32,5.68
		c1.516,1.438,3.602,2.32,5.68,2.32s4.156-0.883,5.68-2.32c1.438-1.52,2.32-3.602,2.32-5.68c0-2.082-0.883-4.16-2.32-5.68
		C322.641,279.359,317.359,279.359,314.32,282.32z"/>
	<path style="fill:#FFD586;" d="M384,160c2.078,0,4.156-0.883,5.68-2.32c1.438-1.52,2.32-3.602,2.32-5.68
		c0-2.082-0.883-4.16-2.32-5.68c-3.039-2.961-8.484-2.883-11.281,0c-1.523,1.52-2.398,3.52-2.398,5.68c0,2.078,0.875,4.16,2.32,5.68
		C379.836,159.117,381.836,160,384,160z"/>
	<path style="fill:#E7B27E;" d="M208,48c2.078,0,4.156-0.883,5.68-2.32c1.438-1.52,2.32-3.602,2.32-5.68
		c0-2.082-0.883-4.16-2.32-5.68c-3.039-2.961-8.398-2.961-11.359,0C200.875,35.758,200,37.84,200,40s0.875,4.16,2.32,5.68
		C203.836,47.117,205.922,48,208,48z"/>
	<path style="fill:#FFD586;" d="M170.32,378.32c-1.445,1.52-2.32,3.598-2.32,5.68c0,2.078,0.875,4.16,2.32,5.68
		c1.516,1.438,3.602,2.32,5.68,2.32s4.156-0.883,5.68-2.32c1.438-1.52,2.32-3.602,2.32-5.68c0-2.082-0.883-4.16-2.32-5.68
		C178.641,375.359,173.359,375.359,170.32,378.32z"/>
	<circle style="fill:#FFD586;" cx="228" cy="300" r="44"/>
	<circle style="fill:#FFD586;" cx="312" cy="192" r="24"/>
	
		<ellipse transform="matrix(-0.2587 -0.966 0.966 -0.2587 -69.2244 770.3907)" style="fill:#FFD586;" cx="261.006" cy="411.759" rx="28.109" ry="36.844"/>
	
		<ellipse transform="matrix(0.1627 -0.9867 0.9867 0.1627 94.4669 587.1804)" style="fill:#FFD586;" cx="393.186" cy="237.933" rx="30.104" ry="22.578"/>
	<path style="fill:#E7B27E;" d="M199.97,140.928c14.461-15.604,30.97-29.269,49.102-40.593C243.213,92.878,234.219,88,224,88
		c-0.552,0-1.101,0.014-1.647,0.042c-16.363,0.829-29.482,13.949-30.312,30.312C192.014,118.899,192,119.448,192,120
		C192,128.043,195.07,135.306,199.97,140.928z"/>
	
		<ellipse transform="matrix(0.7071 0.7071 -0.7071 0.7071 116.272 -50.5046)" style="fill:#E7B27E;" cx="119.1" cy="115.1" rx="21.071" ry="24.081"/>
	<path style="fill:#E7B27E;" d="M300.584,76.159c13.694-4.531,27.926-7.86,42.589-9.867c-9.272-12.089-24.106-16.563-34.093-9.802
		C302.97,60.626,300.151,68.043,300.584,76.159z"/>
</g>
<g>
</g>
<g>
</g>
<g>
</g>
<g>
</g>
<g>
</g>
<g>
</g>
<g>
</g>
<g>
</g>
<g>
</g>
<g>
</g>
<g>
</g>
<g>
</g>
<g>
</g>
<g>
</g>
<g>
</g>
</svg>
