<svg id="Capa_1" enable-background="new 0 0 512 512" height="512" viewBox="0 0 512 512" width="512" xmlns="http://www.w3.org/2000/svg"><g><g><path d="m377.218 214.34h.172c14.806 0 26.803-12.007 26.803-26.803 0-14.806-11.997-26.814-26.803-26.814-.193 0-.385 0-.578.01h-245.438c-.193-.01-.385-.01-.578-.01-14.806 0-26.803 12.007-26.803 26.814 0 14.796 11.997 26.803 26.803 26.803h.172" fill="#f1b986"/><path d="m371.053 90.73c-77.973-7.559-155.946-7.559-233.919 0-6.051 48.481-7.833 96.961-5.347 145.442 1.81 35.291 30.05 63.382 65.349 65.049 37.972 1.793 75.943 1.793 113.915 0 35.298-1.667 63.539-29.757 65.349-65.049 2.486-48.481.704-96.962-5.347-145.442z" fill="#f1d0a5"/><path d="m137.138 90.722c38.98-3.78 77.971-5.665 116.962-5.665-19.74 0-39.48 1.908-59.22 5.723-3.071 48.948-3.967 97.897-2.71 146.834.826 32.21 12.598 58.475 28.045 64.466-7.689-.209-15.39-.5-23.078-.861-35.292-1.663-63.535-29.755-65.35-65.048-2.477-48.482-.697-96.966 5.351-145.449z" fill="#f1b986"/><path d="m254.093 262.279c-13.63 0-26.214-7.958-32.059-20.275-1.829-3.855-.187-8.464 3.668-10.293 3.856-1.829 8.463-.187 10.293 3.668 3.3 6.954 10.404 11.447 18.099 11.447s14.799-4.493 18.1-11.447c1.829-3.854 6.437-5.497 10.293-3.667 3.855 1.83 5.497 6.438 3.667 10.293-5.847 12.316-18.431 20.274-32.061 20.274z" fill="#c32430"/><g fill="#454045"><ellipse cx="197.021" cy="193.574" rx="11.16" ry="16.612"/><ellipse cx="311.166" cy="193.574" rx="11.16" ry="16.612"/></g><path d="m319.038 131.045c-44.817 17.313-108.479 9.679-140.563-22.405 0 0-7.619 52.092-47.092 52.092l-17.213 5.789c-45.973-180.457 52.084-132.24 52.084-132.24 9.258-17.941 22.742-25.368 36.831-27.16 1.24-.153 2.481-.268 3.729-.345.1 0 .199-.008.299-.015 9.924-.528 19.97 1.485 28.898 4.357 3.109 1.003 6.087 2.106 8.875 3.247 11.218 4.587 19.388 9.74 21.103 10.843.222.153.337.23.337.23 10.092-13.355 19.717-25.438 30.299-25.438 4.342 0 7.343 1.662 9.357 4.319 7.634 10.008 1.363 34.074.858 35.966l-.023.084c.008-.015.015-.046.031-.084l.054-.138c1.354-3.416 16.516-40.147 43.706-40.147 1.715 0 3.254.161 4.625.467 20.268 4.479 4.403 39.932 2.657 43.684l-.046.107c-.046.092-.077.161-.092.191.865-1.103 34.81-44.197 49.894-24.426.008.015.008.015.015.023 15.216 20.055-43.829 93.694-88.623 110.999z" fill="#f4dd45"/><g fill="#ecc32e"><path d="m407.646 20.023h-.008c-7.627-7.619-34.044 28.347-49.909 24.449l.115-.214c-.046.092-.077.161-.092.191.866-1.102 34.81-44.196 49.894-24.426z"/><path d="m355.233.467c-11.457-2.602-22.077 19.206-28.078 34.687-2.902 7.487-11.89 10.491-18.715 6.261l-1.639-1.016.015-.031.023-.084h.008l.054-.138c1.355-3.415 16.517-40.146 43.707-40.146 1.715 0 3.255.161 4.625.467z"/><path d="m203.083 7.121c-32.788 5.781-45.177 80.952-24.61 101.519 0 0-7.619 52.092-47.092 52.092l-17.213 5.789c-45.974-180.457 52.084-132.24 52.084-132.24 9.257-17.941 22.742-25.368 36.831-27.16z"/><path d="m305.982 4.319c-11.524-11.524-19.204 47.574-45.147 57.038-25.942 9.464-28.37-2.634-28.37-2.634v-.008c12.772-4.724 23.553-19.656 33.852-33.286.008.008.008.008.008.008.314-.421.628-.835.942-1.248.39-.528.796-1.057 1.194-1.577 9.328-12.183 18.332-22.612 28.164-22.612 4.342 0 7.343 1.662 9.357 4.319z"/><path d="m207.134 6.769c-.107 0-.214 0-.322.008.1 0 .199-.008.299-.015z"/></g></g><path d="m409.069 243.772-133.901 29.019-.002.001v-.003h-38.333v.002l-.002-.001-133.901-29.019c-13.656-2.966-26.568 7.448-26.568 21.419v161.203c0 10.318 7.2 19.244 17.28 21.428l143.189 31.031.002-.001v.001h38.333v-.001l.002.001 143.189-31.031c10.08-2.184 17.28-11.11 17.28-21.428v-161.202c0-13.971-12.912-24.385-26.568-21.419z" fill="#dfeaef"/><path d="m450.055 281.188v174.142c0 11.147-7.778 20.789-18.667 23.148l-154.681 33.522-19.965-12.628v-196.807l19.965-13.166 144.648-31.348c14.752-3.205 28.7 8.045 28.7 23.137z" fill="#da4a54"/><path d="m256.742 302.565v196.807l-21.449 12.628-154.681-33.522c-10.889-2.359-18.667-12.002-18.667-23.148v-174.142c0-15.092 13.949-26.342 28.701-23.138l144.648 31.348z" fill="#c32430"/><path d="m235.295 512v-222.603h41.41v222.603" fill="#dd636e"/><path d="m328.93 348.285c-3.558 0-6.759-2.472-7.543-6.091-.904-4.17 1.744-8.284 5.914-9.188l85.556-18.543c4.174-.904 8.284 1.744 9.188 5.914s-1.744 8.284-5.914 9.188l-85.556 18.543c-.553.12-1.103.177-1.645.177z" fill="#454045"/><path d="m328.93 376.996c-3.558 0-6.759-2.472-7.543-6.091-.904-4.17 1.744-8.284 5.914-9.188l85.556-18.543c4.174-.903 8.284 1.744 9.188 5.914s-1.744 8.284-5.914 9.188l-85.556 18.543c-.553.12-1.103.177-1.645.177z" fill="#454045"/><g><g><path d="m57.695 365.329h-8.101c-11.963 0-21.66-9.698-21.66-21.66v-19.443c0-11.963 9.698-21.66 21.66-21.66h8.101c11.963 0 21.66 9.698 21.66 21.66v19.443c0 11.963-9.698 21.66-21.66 21.66z" fill="#f1d0a5"/><path d="m61.857 364.921c-1.339.278-2.74.412-4.162.412h-8.108c-11.96 0-21.654-9.704-21.654-21.665v-19.44c0-11.971 9.694-21.665 21.654-21.665h8.108c1.422 0 2.823.134 4.162.412-9.962 1.937-17.482 10.714-17.482 21.253v19.44c0 10.54 7.52 19.317 17.482 21.253z" fill="#f1b986"/></g><g><path d="m462.407 365.329h-8.101c-11.963 0-21.66-9.698-21.66-21.66v-19.443c0-11.963 9.698-21.66 21.66-21.66h8.101c11.963 0 21.66 9.698 21.66 21.66v19.443c0 11.963-9.698 21.66-21.66 21.66z" fill="#f1d0a5"/><path d="m466.569 364.921c-1.339.278-2.74.412-4.162.412h-8.108c-11.96 0-21.654-9.704-21.654-21.665v-19.44c0-11.971 9.694-21.665 21.654-21.665h8.108c1.422 0 2.823.134 4.162.412-9.962 1.937-17.482 10.714-17.482 21.253v19.44c0 10.54 7.52 19.317 17.482 21.253z" fill="#f1b986"/></g></g></g></svg>