<?xml version="1.0" encoding="iso-8859-1"?>
<!-- Generator: Adobe Illustrator 19.0.0, SVG Export Plug-In . SVG Version: 6.00 Build 0)  -->
<svg version="1.1" id="Layer_1" xmlns="http://www.w3.org/2000/svg" xmlns:xlink="http://www.w3.org/1999/xlink" x="0px" y="0px"
	 viewBox="0 0 464 464" style="enable-background:new 0 0 464 464;" xml:space="preserve">
<path style="fill:#66CEDB;" d="M436,128h-56.504l19.744-85.056c3.504-15.096-5.44-30.288-20.344-34.544
	c-15.992-4.568-32.56,5.184-36.32,21.384L319.784,128H188.992l19.744-85.056c3.504-15.096-5.44-30.288-20.344-34.544
	c-15.992-4.568-32.56,5.184-36.32,21.384L129.28,128H64c-15.464,0-28,12.536-28,28s12.536,28,28,28h52.28l-22.288,96H28
	c-15.464,0-28,12.536-28,28s12.536,28,28,28h52.992l-19.744,85.056c-3.504,15.096,5.44,30.288,20.344,34.544
	c15.992,4.568,32.56-5.184,36.32-21.392L140.704,336h130.792l-19.744,85.056c-3.504,15.096,5.44,30.288,20.344,34.544
	c15.992,4.568,32.56-5.184,36.32-21.392L331.208,336H396c15.464,0,28-12.536,28-28s-12.536-28-28-28h-51.792l22.288-96H436
	c15.464,0,28-12.536,28-28S451.464,128,436,128z M284.496,280H153.704l22.288-96h130.792L284.496,280z"/>
<g>
</g>
<g>
</g>
<g>
</g>
<g>
</g>
<g>
</g>
<g>
</g>
<g>
</g>
<g>
</g>
<g>
</g>
<g>
</g>
<g>
</g>
<g>
</g>
<g>
</g>
<g>
</g>
<g>
</g>
</svg>
