<?xml version="1.0" encoding="iso-8859-1"?>
<!-- Generator: Adobe Illustrator 19.0.0, SVG Export Plug-In . SVG Version: 6.00 Build 0)  -->
<svg version="1.1" id="Capa_1" xmlns="http://www.w3.org/2000/svg" xmlns:xlink="http://www.w3.org/1999/xlink" x="0px" y="0px"
	 viewBox="0 0 512 512" style="enable-background:new 0 0 512 512;" xml:space="preserve">
<path style="fill:#00CC71;" d="M458.579,30.933v450.135c0,17.058-13.875,30.933-30.923,30.933H84.354
	c-17.058,0-30.933-13.875-30.933-30.933V30.933C53.421,13.875,67.296,0,84.354,0h343.302C444.704,0,458.579,13.875,458.579,30.933z"
	/>
<path style="fill:#00AB94;" d="M458.579,30.933v450.135c0,17.058-13.875,30.933-30.923,30.933H255.995V0h171.661
	C444.704,0,458.579,13.875,458.579,30.933z"/>
<path style="fill:#51FAFF;" d="M458.579,301.048v180.02c0,17.058-13.875,30.933-30.923,30.933H84.354
	c-17.058,0-30.933-13.875-30.933-30.933v-180.02H458.579z"/>
<path style="fill:#00E7F0;" d="M458.579,301.048v180.02c0,17.058-13.875,30.933-30.923,30.933H255.995V301.048H458.579z"/>
<g>
	<path style="fill:#7C75DA;" d="M217.1,396.696h-77.886c-8.293,0-15.016-6.723-15.016-15.016c0-8.293,6.723-15.016,15.016-15.016
		H217.1c8.293,0,15.016,6.723,15.016,15.016C232.116,389.973,225.393,396.696,217.1,396.696z"/>
	<path style="fill:#7C75DA;" d="M292.513,429.473c0,8.299-6.717,15.016-15.016,15.016H139.212c-8.289,0-15.016-6.717-15.016-15.016
		c0-8.289,6.727-15.016,15.016-15.016h138.286C285.796,414.457,292.513,421.184,292.513,429.473z"/>
</g>
<path style="fill:#615AD3;" d="M371.756,444.491h-37.353c-8.293,0-15.016-6.723-15.016-15.016c0-8.293,6.723-15.016,15.016-15.016
	h37.353c8.293,0,15.016,6.723,15.016,15.016C386.772,437.768,380.049,444.491,371.756,444.491z"/>
<g>
	<path style="fill:#FFFFFF;" d="M127.285,242.391c0-0.495,0.162-1.397,0.495-2.719l45.971-150.766
		c1.316-4.116,4.325-7.291,9.021-9.515c4.697-2.224,10.091-3.337,16.189-3.337c6.093,0,11.492,1.112,16.189,3.337
		c4.695,2.224,7.7,5.399,9.022,9.515l46.218,150.766c0.328,1.32,0.495,2.224,0.495,2.719c0,4.287-2.68,7.993-8.032,11.122
		c-5.357,3.131-10.917,4.696-16.683,4.696c-7.086,0-11.288-2.387-12.605-7.168l-8.404-30.895h-52.151l-8.404,30.895
		c-1.32,4.781-5.523,7.168-12.604,7.168c-5.77,0-11.331-1.565-16.684-4.696C129.962,250.384,127.285,246.677,127.285,242.391z
		 M180.92,190.487h36.085l-18.042-66.238L180.92,190.487z"/>
	<path style="fill:#FFFFFF;" d="M276.319,226.437c0-13.173,4.982-22.457,14.954-27.855c9.966-5.395,24.26-8.095,42.881-8.095h8.898
		V187.9c0-5.178-1.483-9.666-4.449-13.466c-2.966-3.796-7.661-5.696-14.088-5.696c-7.908,0-14.419,1.525-19.526,4.572
		c-5.109,3.051-8.241,4.572-9.392,4.572c-3.954,0-7.086-1.935-9.392-5.808c-2.31-3.87-3.461-8.28-3.461-13.223
		c0-5.438,4.572-10.092,13.717-13.965c9.145-3.87,18.661-5.808,28.547-5.808c18.946,0,33.077,4.615,42.388,13.841
		c9.307,9.23,13.964,20.761,13.964,34.602v58.823c0,3.297-1.773,6.097-5.314,8.404c-3.546,2.309-8.032,3.461-13.47,3.461
		c-4.781,0-8.817-1.231-12.111-3.696c-3.298-2.464-4.943-5.453-4.943-8.97v-5.808c-11.369,13.965-23.893,20.946-37.568,20.946
		c-9.064,0-16.602-2.916-22.615-8.754C279.324,246.091,276.319,237.595,276.319,226.437z M314.876,221.398
		c0,6.418,3.213,9.623,9.639,9.623c4.116,0,8.238-2.135,12.358-6.415c4.116-4.279,6.18-9.168,6.18-14.667v-0.915h-0.988
		c-5.439,0-9.929,0.231-13.47,0.688c-3.546,0.459-6.716,1.646-9.516,3.553C316.274,215.173,314.876,217.884,314.876,221.398z"/>
</g>
<path style="fill:#615AD3;" d="M292.513,429.473c0,8.299-6.717,15.016-15.016,15.016h-21.503v-30.032h21.503
	C285.796,414.457,292.513,421.184,292.513,429.473z"/>
<g>
</g>
<g>
</g>
<g>
</g>
<g>
</g>
<g>
</g>
<g>
</g>
<g>
</g>
<g>
</g>
<g>
</g>
<g>
</g>
<g>
</g>
<g>
</g>
<g>
</g>
<g>
</g>
<g>
</g>
</svg>
