<svg height="512" viewBox="0 0 60 60" width="512" xmlns="http://www.w3.org/2000/svg"><g id="002---Remote-Lighting" fill="none"><g id="Icons" transform="translate(1 1)"><path id="Shape" d="m58 8v38c0 2.209139-1.790861 4-4 4h-6v-7.2c.0429702-2.4747696 1.0303605-4.8394978 2.76-6.61 3.3261401-3.5513932 4.1766363-8.7605863 2.152769-13.1854662-2.0238672-4.4248799-6.5208673-7.1882162-11.382769-6.9945338-6.3072907.3030617-11.3246721 5.3987717-11.53 11.71-.0739258 3.2004345 1.136031 6.2973477 3.36 8.6 1.6573981 1.6497676 2.6047307 3.8817405 2.64 6.22v7.46h-32c-2.209139 0-4-1.790861-4-4v-38z" fill="#f5f5f5"/><path id="Shape" d="m55 8v38c0 2.209139-1.790861 4-4 4h3c2.209139 0 4-1.790861 4-4v-38z" fill="#cfd8dc"/><path id="Shape" d="m16 15v4c0 .5522847-.4477153 1-1 1h-5v-6h5c.5522847 0 1 .4477153 1 1z" fill="#02a9f4"/><path id="Shape" d="m15 14h-3c.5522847 0 1 .4477153 1 1v4c0 .5522847-.4477153 1-1 1h3c.5522847 0 1-.4477153 1-1v-4c0-.5522847-.4477153-1-1-1z" fill="#0377bc"/><path id="Shape" d="m10 14v6h-5c-.55228475 0-1-.4477153-1-1v-4c0-.5522847.44771525-1 1-1z" fill="#ef314c"/><path id="Shape" d="m58 4v4h-58v-4c0-2.209139 1.790861-4 4-4h50c2.209139 0 4 1.790861 4 4z" fill="#02a9f4"/><path id="Shape" d="m54 0h-3c2.209139 0 4 1.790861 4 4v4h3v-4c0-2.209139-1.790861-4-4-4z" fill="#0377bc"/><path id="Shape" d="m54 28c.0050769 3.0435022-1.1541183 5.9736902-3.24 8.19-1.7296395 1.7705022-2.7170298 4.1352304-2.76 6.61v1.2h-12v-1.46c-.0352693-2.3382595-.9826019-4.5702324-2.64-6.22-2.223969-2.3026523-3.4339258-5.3995655-3.36-8.6.07732-6.6274169 5.5125831-11.9373197 12.14-11.8599998 6.6274169.0773198 11.9373198 5.5125829 11.86 12.1399998z" fill="#ffeb3a"/><path id="Shape" d="m41.53 16.01c-.362.014-.72.048-1.074.095 4.4817209.541656 8.2782462 3.5570798 9.8203101 7.799868 1.542064 4.2427882.5677137 8.992212-2.5203101 12.285132-1.7281755 1.7711312-2.7141036 4.1357848-2.756 6.61v1.2h3v-1.2c.0429702-2.4747696 1.0303605-4.8394978 2.76-6.61 3.3261401-3.5513932 4.1766363-8.7605863 2.152769-13.1854662-2.0238672-4.4248799-6.5208673-7.1882162-11.382769-6.9945338z" fill="#fdd834"/><path id="Rectangle-path" d="m36 44h12v4h-12z" fill="#9e9e9e"/><path id="Rectangle-path" d="m45 44h3v4h-3z" fill="#707070"/><path id="Shape" d="m48 48v4c-.0032948 1.1032019-.8967981 1.9967052-2 2h-8c-1.1032019-.0032948-1.9967052-.8967981-2-2v-4z" fill="#7f8e94"/><path id="Shape" d="m45 48v4c-.0032948 1.1032019-.8967981 1.9967052-2 2h3c1.1032019-.0032948 1.9967052-.8967981 2-2v-4z" fill="#545c60"/><path id="Shape" d="m46 54c0 2.209139-1.790861 4-4 4s-4-1.790861-4-4z" fill="#37474f"/><g fill="#ffeb3a"><circle id="Oval" cx="10" cy="32" r="6"/><path id="Shape" d="m10 26c-.50644964.0029108-1.01048026.0701149-1.5.2 2.6423033.6854867 4.4873193 3.0702273 4.4873193 5.8s-1.845016 5.1145133-4.4873193 5.8c2.2562168.5974295 4.6541441-.167743 6.1473104-1.961591s1.8105762-4.2908052.8137097-6.4011828-3.1270873-3.4511621-5.4610201-3.4372262z"/></g></g><g id="Layer_9" fill="#000"><path id="Shape" d="m6 22h10c1.1045695 0 2-.8954305 2-2v-4c0-1.1045695-.8954305-2-2-2h-10c-1.1045695 0-2 .8954305-2 2v4c0 1.1045695.8954305 2 2 2zm10-2h-4v-4h4zm-10-4h4v4h-4z"/><path id="Shape" d="m55 0h-50c-2.76005315.00330612-4.99669388 2.23994685-5 5v42c.00330612 2.7600532 2.23994685 4.9966939 5 5h31v1c.0043199 1.2995171.8467182 2.4477646 2.085 2.842.4035536 2.3999632 2.4813445 4.1575431 4.915 4.1575431s4.5114464-1.7575799 4.915-4.1575431c1.2382818-.3942354 2.0806801-1.5424829 2.085-2.842v-1h5c2.7600532-.0033061 4.9966939-2.2399468 5-5v-42c-.0033061-2.76005315-2.2399468-4.99669388-5-5zm-50 2h50c1.6568542 0 3 1.34314575 3 3v3h-56v-3c0-1.65685425 1.34314575-3 3-3zm33 44h10v2h-10zm10-2.2v.2h-2v-7c0-.5522847-.4477153-1-1-1s-1 .4477153-1 1v7h-2v-7c0-.5522847-.4477153-1-1-1s-1 .4477153-1 1v7h-2v-.462c-.0365554-2.5975132-1.083588-5.078611-2.919-6.917-2.0458894-2.1044172-3.1566591-4.9449736-3.081-7.879.2051558-5.7775411 4.7943578-10.4388293 10.568-10.734 4.4578475-.1791236 8.5817086 2.3542763 10.4369347 6.4116924s1.0737009 8.8337708-1.9779347 12.0883076c-1.9008069 1.9564887-2.983443 4.5645438-3.027 7.292zm-5 14.2c-1.2709888-.0015506-2.4036464-.8022983-2.829-2h5.658c-.4253536 1.1977017-1.5580112 1.9984494-2.829 2zm5-5c0 .5522847-.4477153 1-1 1h-8c-.5522847 0-1-.4477153-1-1v-3h10zm7-3h-5v-6.2c.0437596-2.2202361.9324592-4.3402405 2.485-5.928 3.6008638-3.8470552 4.5216612-9.4879642 2.331069-14.2803915s-7.0587326-7.7872446-12.324069-7.5816085c-6.8260431.3476403-12.2517391 5.8593344-12.492 12.69-.0904523 3.4677879 1.2210829 6.8255776 3.638 9.314 1.4750874 1.464547 2.3222196 3.4457319 2.362 5.524v6.462h-31c-1.65685425 0-3-1.3431458-3-3v-37h56v37c0 1.6568542-1.3431458 3-3 3z"/><path id="Shape" d="m47 6h2c.5522847 0 1-.44771525 1-1s-.4477153-1-1-1h-2c-.5522847 0-1 .44771525-1 1s.4477153 1 1 1z"/><path id="Shape" d="m53 6c0 .55228475.4477153 1 1 1s1-.44771525 1-1c.5522847 0 1-.44771525 1-1s-.4477153-1-1-1c0-.55228475-.4477153-1-1-1s-1 .44771525-1 1c-.5522847 0-1 .44771525-1 1s.4477153 1 1 1z"/><path id="Shape" d="m5.02 6.006c.55228475 0 1-.44771525 1-1s-.44771525-1-1-1h-.01c-.55228475.00276142-.99776142.45271525-.995 1.005s.45271525.99776142 1.005.995z"/><path id="Shape" d="m8.02 6.006c.55228475 0 1-.44771525 1-1s-.44771525-1-1-1h-.01c-.55228475.00276142-.99776142.45271525-.995 1.005s.45271525.99776142 1.005.995z"/><path id="Shape" d="m11.02 6.006c.5522847 0 1-.44771525 1-1s-.4477153-1-1-1h-.01c-.5522847.00276142-.9977614.45271525-.995 1.005s.4527153.99776142 1.005.995z"/><path id="Shape" d="m18 6h24c.5522847 0 1-.44771525 1-1s-.4477153-1-1-1h-24c-.5522847 0-1 .44771525-1 1s.4477153 1 1 1z"/><path id="Shape" d="m52 29c.0000376-1.523663-.387441-3.0223037-1.126-4.355-.1693679-.3200654-.4985335-.5235622-.86055-.5320095-.3620166-.0084472-.7003155.1794752-.8844276.4912925-.1841122.3118173-.1852682.6988052-.0030224 1.011717.5733913 1.0357103.874139 2.2001616.874 3.384 0 .5522847.4477153 1 1 1s1-.4477153 1-1z"/><path id="Shape" d="m46.376 20.658c-1.0719526-.4363963-2.2186234-.6598884-3.376-.658-.5522847 0-1 .4477153-1 1s.4477153 1 1 1c.8994176-.0012915 1.790545.1719078 2.624.51.1192424.0491698.2470182.0743172.376.074.4778374-.0007266.8883945-.3394082.9799512-.8083927s-.1614727-.9372136-.6039512-1.1176073z"/><path id="Shape" d="m41 32c-.5522847 0-1 .4477153-1 1v1c0 .5522847.4477153 1 1 1s1-.4477153 1-1v-1c0-.5522847-.4477153-1-1-1z"/><path id="Shape" d="m45 32c-.5522847 0-1 .4477153-1 1v1c0 .5522847.4477153 1 1 1s1-.4477153 1-1v-1c0-.5522847-.4477153-1-1-1z"/><path id="Shape" d="m13 36c.4043959-.0000863.7689341-.2437275.923678-.6173454.1547439-.373618.0692299-.8036603-.216678-1.0896546l-1.707-1.707v-2.586c0-.5522847-.4477153-1-1-1s-1 .4477153-1 1v3c.0000566.2651948.1054506.5195073.293.707l2 2c.1874927.1875494.4418052.2929434.707.293z"/><path id="Shape" d="m12 44v-4.08c3.6338264-.5244977 6.2449516-3.7674331 5.9820277-7.4294903-.2629238-3.6620572-3.3105441-6.4987129-6.9820277-6.4987129-3.67148362 0-6.71910386 2.8366557-6.98202774 6.4987129-.26292387 3.6620572 2.34820136 6.9049926 5.98202774 7.4294903v4.08c0 1.6568542 1.3431458 3 3 3h20c.5522847 0 1-.4477153 1-1s-.4477153-1-1-1h-20c-.5522847 0-1-.4477153-1-1zm-6-11c0-2.7614237 2.23857625-5 5-5 2.7614237 0 5 2.2385763 5 5s-2.2385763 5-5 5c-2.76005315-.0033061-4.99669388-2.2399468-5-5z"/><path id="Shape" d="m21 30h1c.5522847 0 1-.4477153 1-1s-.4477153-1-1-1h-1c-.5522847 0-1 .4477153-1 1s.4477153 1 1 1z"/><path id="Shape" d="m26 28c-.5522847 0-1 .4477153-1 1s.4477153 1 1 1h1c.5522847 0 1-.4477153 1-1s-.4477153-1-1-1z"/><path id="Shape" d="m21 38h1c.5522847 0 1-.4477153 1-1s-.4477153-1-1-1h-1c-.5522847 0-1 .4477153-1 1s.4477153 1 1 1z"/><path id="Shape" d="m27 36h-1c-.5522847 0-1 .4477153-1 1s.4477153 1 1 1h1c.5522847 0 1-.4477153 1-1s-.4477153-1-1-1z"/><path id="Shape" d="m21 34h6c.5522847 0 1-.4477153 1-1s-.4477153-1-1-1h-6c-.5522847 0-1 .4477153-1 1s.4477153 1 1 1z"/><path id="Shape" d="m22 17h1c.5522847 0 1-.4477153 1-1s-.4477153-1-1-1h-1c-.5522847 0-1 .4477153-1 1s.4477153 1 1 1z"/><path id="Shape" d="m33 15h-6c-.5522847 0-1 .4477153-1 1s.4477153 1 1 1h6c.5522847 0 1-.4477153 1-1s-.4477153-1-1-1z"/><path id="Shape" d="m22 21h7c.5522847 0 1-.4477153 1-1s-.4477153-1-1-1h-7c-.5522847 0-1 .4477153-1 1s.4477153 1 1 1z"/></g></g></svg>