<svg id="Capa_1" enable-background="new 0 0 512 512" height="512" viewBox="0 0 512 512" width="512" xmlns="http://www.w3.org/2000/svg"><g><g><path d="m124.269 93.488c-12.041 4.827-17.604 10.391-22.432 22.432-1.221 3.047-5.51 3.047-6.731 0-4.827-12.041-10.391-17.604-22.432-22.432-3.047-1.221-3.047-5.51 0-6.731 12.041-4.827 17.604-10.391 22.432-22.432 1.221-3.047 5.51-3.047 6.731 0 4.827 12.041 10.391 17.604 22.432 22.432 3.046 1.221 3.046 5.509 0 6.731z" fill="#e175a5"/><path d="m114.339 298.566-15.105 31.235c-1.391 2.877-4.306 4.705-7.501 4.705h-29.853c-2.728 0-4.939 2.211-4.939 4.939v28.311h378.67l-62.113-70.014c-1.637-1.845-3.985-2.901-6.452-2.901h-246.769c-2.53 0-4.837 1.447-5.938 3.725z" fill="#ffd064"/><path d="m373.497 297.742c-1.637-1.845-3.985-2.901-6.452-2.901h-32.98c2.467 0 4.815 1.056 6.452 2.901l62.113 70.014h32.98z" fill="#ffc250"/><path d="m237.839 251.743h67.12c2.107 0 4.082 1.026 5.293 2.75l28.342 40.347h-106.146v-37.707c0-2.976 2.413-5.39 5.391-5.39z" fill="#5766cc"/><path d="m145.863 227.866h26.11c1.786 0 3.234 1.448 3.234 3.234v63.741h-32.578v-63.741c0-1.786 1.448-3.234 3.234-3.234z" fill="#efedef"/><path d="m455.493 466.68h-401.126l-31.793-91.164c-1.323-3.794 1.494-7.76 5.512-7.76h469.225c5.448 0 8.911 5.83 6.304 10.614z" fill="#5766cc"/><path d="m497.311 367.756h-32.98c5.448 0 8.911 5.83 6.304 10.614l-48.122 88.309h32.98l48.122-88.309c2.607-4.784-.856-10.614-6.304-10.614z" fill="#3d4ec4"/><path d="m7.5 456.293h23.201.75c11.456 0 17.369-14.424-1.172-21.915-3.004-1.214-3.614-4.757-1.232-6.782 26.96-22.93 56.509 28.697 70.091 28.697h8.439c11.456 0 17.369-14.424-1.172-21.915-3.004-1.214-3.614-4.757-1.232-6.782 26.96-22.93 56.509 28.697 70.091 28.697h8.439c11.456 0 17.369-14.424-1.172-21.915-3.004-1.214-3.614-4.757-1.232-6.782 26.96-22.93 56.509 28.697 70.091 28.697h8.439c11.456 0 17.369-14.424-1.172-21.915-3.004-1.214-3.614-4.757-1.232-6.782 26.96-22.93 56.509 28.697 70.091 28.697h8.439c11.456 0 17.369-14.424-1.172-21.915-3.004-1.214-3.614-4.757-1.232-6.782 26.96-22.93 56.509 28.697 70.091 28.697h8.439c11.456 0 17.369-14.424-1.172-21.915-3.004-1.214-3.614-4.757-1.232-6.782 26.96-22.93 56.509 28.697 70.091 28.697h24.732v39.026h-497z" fill="#75cff9"/><ellipse cx="435.889" cy="158.796" fill="#80b6fc" rx="15.936" ry="15.936" transform="matrix(.383 -.924 .924 .383 122.373 500.736)"/></g><g><path d="m62.888 90.125c0 4.57 2.745 8.623 6.994 10.327 10.111 4.054 14.207 8.149 18.261 18.261 1.703 4.249 5.757 6.994 10.327 6.994s8.623-2.745 10.327-6.994c4.054-10.112 8.15-14.207 18.261-18.261 4.249-1.704 6.994-5.757 6.994-10.327s-2.745-8.623-6.994-10.327c-10.111-4.053-14.207-8.149-18.261-18.261-1.703-4.249-5.757-6.994-10.327-6.994s-8.624 2.745-10.327 6.994c-4.054 10.112-8.15 14.208-18.261 18.261-4.249 1.704-6.994 5.757-6.994 10.327zm35.582-15.366c3.823 6.829 8.537 11.543 15.366 15.366-6.829 3.823-11.542 8.536-15.365 15.366-3.823-6.83-8.537-11.543-15.366-15.366 6.829-3.823 11.542-8.536 15.365-15.366z"/><path d="m61.603 41.268c1.389 2.406 3.91 3.751 6.502 3.751 1.272 0 2.562-.324 3.743-1.006 3.587-2.071 4.816-6.658 2.745-10.245l-12.028-20.833c-2.072-3.588-6.658-4.817-10.245-2.745-3.587 2.071-4.816 6.658-2.745 10.245z"/><path d="m13.669 97.625h24.056c4.142 0 7.5-3.358 7.5-7.5s-3.358-7.5-7.5-7.5h-24.056c-4.142 0-7.5 3.358-7.5 7.5s3.358 7.5 7.5 7.5z"/><path d="m52.32 170.06c1.181.682 2.471 1.006 3.743 1.006 2.592 0 5.113-1.346 6.502-3.751l12.028-20.833c2.071-3.587.842-8.174-2.745-10.245-3.587-2.072-8.174-.843-10.245 2.745l-12.028 20.833c-2.072 3.587-.843 8.174 2.745 10.245z"/><path d="m135.338 138.982c-2.071-3.588-6.658-4.817-10.245-2.745-3.587 2.071-4.816 6.658-2.745 10.245l12.028 20.833c1.389 2.406 3.91 3.751 6.502 3.751 1.272 0 2.562-.324 3.743-1.006 3.587-2.071 4.816-6.658 2.745-10.245z"/><path d="m151.715 90.125c0 4.142 3.358 7.5 7.5 7.5h24.056c4.142 0 7.5-3.358 7.5-7.5s-3.358-7.5-7.5-7.5h-24.056c-4.142 0-7.5 3.358-7.5 7.5z"/><path d="m125.093 44.013c1.181.682 2.471 1.006 3.743 1.006 2.592 0 5.113-1.345 6.502-3.751l12.028-20.833c2.071-3.587.842-8.174-2.745-10.245-3.588-2.072-8.174-.841-10.245 2.745l-12.028 20.833c-2.072 3.588-.843 8.175 2.745 10.245z"/><path d="m98.47 30.516c4.142 0 7.5-3.358 7.5-7.5v-1.028c0-4.142-3.358-7.5-7.5-7.5s-7.5 3.358-7.5 7.5v1.028c0 4.143 3.358 7.5 7.5 7.5z"/><path d="m35.712 62.552.891.514c1.182.682 2.471 1.006 3.743 1.006 2.592 0 5.113-1.346 6.502-3.751 2.071-3.587.842-8.174-2.745-10.245l-.891-.514c-3.589-2.072-8.175-.842-10.245 2.745-2.071 3.587-.842 8.174 2.745 10.245z"/><path d="m36.603 117.184-.891.514c-3.587 2.071-4.816 6.658-2.745 10.245 1.389 2.406 3.91 3.751 6.502 3.751 1.272 0 2.562-.324 3.743-1.006l.891-.514c3.587-2.071 4.816-6.658 2.745-10.245s-6.658-4.817-10.245-2.745z"/><path d="m152.838 130.174.891.514c1.182.682 2.471 1.006 3.743 1.006 2.592 0 5.113-1.346 6.502-3.751 2.071-3.587.842-8.174-2.745-10.245l-.891-.514c-3.589-2.073-8.175-.842-10.245 2.745-2.071 3.588-.842 8.175 2.745 10.245z"/><path d="m156.595 64.072c1.272 0 2.562-.324 3.743-1.006l.891-.514c3.587-2.071 4.816-6.658 2.745-10.245-2.071-3.588-6.658-4.817-10.245-2.745l-.891.514c-3.587 2.071-4.816 6.658-2.745 10.245 1.389 2.406 3.91 3.751 6.502 3.751z"/><path d="m90.97 149.53v83.632c0 4.142 3.358 7.5 7.5 7.5s7.5-3.358 7.5-7.5v-83.632c0-4.142-3.358-7.5-7.5-7.5s-7.5 3.358-7.5 7.5z"/><path d="m348.919 338.799h4.239c4.142 0 7.5-3.358 7.5-7.5s-3.358-7.5-7.5-7.5h-4.239c-4.142 0-7.5 3.358-7.5 7.5s3.358 7.5 7.5 7.5z"/><path d="m312.413 323.799h-4.239c-4.142 0-7.5 3.358-7.5 7.5s3.358 7.5 7.5 7.5h4.239c4.142 0 7.5-3.358 7.5-7.5s-3.357-7.5-7.5-7.5z"/><path d="m271.669 323.799h-4.239c-4.142 0-7.5 3.358-7.5 7.5s3.358 7.5 7.5 7.5h4.239c4.142 0 7.5-3.358 7.5-7.5s-3.358-7.5-7.5-7.5z"/><path d="m230.925 323.799h-4.239c-4.142 0-7.5 3.358-7.5 7.5s3.358 7.5 7.5 7.5h4.239c4.142 0 7.5-3.358 7.5-7.5s-3.358-7.5-7.5-7.5z"/><path d="m190.181 323.799h-4.239c-4.142 0-7.5 3.358-7.5 7.5s3.358 7.5 7.5 7.5h4.239c4.142 0 7.5-3.358 7.5-7.5s-3.358-7.5-7.5-7.5z"/><path d="m149.437 323.799h-4.239c-4.142 0-7.5 3.358-7.5 7.5s3.358 7.5 7.5 7.5h4.239c4.142 0 7.5-3.358 7.5-7.5s-3.358-7.5-7.5-7.5z"/><path d="m504.494 448.791h-24.567c-.994-.242-2.658-1.371-4.577-2.893l34.836-63.934c2.507-4.592 2.411-10.019-.259-14.517-2.67-4.5-7.389-7.187-12.623-7.187h-58.323l-59.879-67.495c-3.058-3.446-7.454-5.422-12.061-5.422h-24.554l-26.101-37.158c-2.612-3.719-6.885-5.939-11.431-5.939h-67.119c-7.107 0-12.89 5.783-12.89 12.89v30.207h-42.24v-56.24c0-5.919-4.815-10.734-10.734-10.734h-26.11c-5.919 0-10.734 4.815-10.734 10.734v56.24h-14.852c-5.371 0-10.352 3.124-12.69 7.959l-15.106 31.234c-.138.286-.432.47-.75.47h-29.851c-6.859 0-12.439 5.58-12.439 12.439v20.814h-21.35c-4.311 0-8.377 2.097-10.875 5.609s-3.144 8.039-1.727 12.121l14.005 40.153c-1.993 1.136-3.764 2.427-5.307 3.74-3.118 2.652-4.598 6.594-3.958 10.546.648 4.005 3.354 7.333 7.24 8.903 5.789 2.339 7.369 5.02 7.201 5.885-.128.661-1.318 1.576-3.219 1.576h-23.95c-4.142 0-7.5 3.358-7.5 7.5s3.358 7.5 7.5 7.5h23.95c8.995 0 16.374-5.639 17.943-13.713 1.187-6.11-1.187-14.043-10.58-19.8 10.527-4.182 22.109 5.267 36.683 18.68 9.004 8.288 16.116 14.833 23.639 14.833h8.439c8.995 0 16.374-5.639 17.943-13.713 1.187-6.11-1.187-14.043-10.58-19.8 10.525-4.182 22.11 5.267 36.683 18.68 9.004 8.288 16.116 14.833 23.639 14.833h8.439c8.995 0 16.373-5.639 17.943-13.713 1.187-6.11-1.187-14.043-10.58-19.8 10.53-4.182 22.11 5.267 36.684 18.68 9.004 8.288 16.116 14.833 23.639 14.833h8.439c8.995 0 16.374-5.639 17.944-13.714 1.188-6.11-1.186-14.042-10.58-19.8 10.529-4.182 22.11 5.267 36.684 18.68 9.004 8.288 16.116 14.833 23.639 14.833h8.439c8.995 0 16.374-5.639 17.943-13.713 1.188-6.11-1.186-14.042-10.58-19.8 10.53-4.182 22.11 5.267 36.684 18.68 9.004 8.288 16.116 14.833 23.639 14.833h8.439c8.995 0 16.374-5.639 17.943-13.713 1.188-6.11-1.186-14.043-10.58-19.8 10.529-4.183 22.111 5.268 36.684 18.68 9.004 8.287 16.116 14.833 23.639 14.833h24.734c4.142 0 7.5-3.358 7.5-7.5s-3.358-7.5-7.5-7.5zm-264.549-189.547h64.474l19.737 28.097h-84.211zm-89.818-23.877h17.578v51.974h-17.578zm289.676 182.597c-16.145-7.626-27.941-2.079-34.991 3.917-3.119 2.651-4.599 6.594-3.959 10.546.648 4.005 3.354 7.333 7.24 8.903 5.789 2.339 7.369 5.02 7.201 5.885-.128.661-1.318 1.576-3.219 1.576h-8.272c-2.498-.608-9.199-6.775-13.648-10.87-7.795-7.174-16.63-15.306-26.476-19.957-16.145-7.626-27.941-2.079-34.991 3.917-3.119 2.651-4.599 6.594-3.959 10.546.648 4.005 3.354 7.333 7.24 8.903 5.789 2.339 7.369 5.02 7.201 5.885-.128.661-1.318 1.576-3.219 1.576h-8.272c-2.499-.608-9.199-6.775-13.648-10.87-7.795-7.174-16.63-15.306-26.476-19.957-16.144-7.626-27.941-2.079-34.991 3.917-3.119 2.652-4.599 6.594-3.959 10.546.648 4.005 3.355 7.333 7.241 8.903 5.788 2.338 7.369 5.02 7.201 5.885-.128.661-1.318 1.576-3.219 1.576h-8.272c-2.499-.608-9.199-6.775-13.648-10.87-7.795-7.174-16.63-15.306-26.476-19.957-16.146-7.627-27.941-2.08-34.992 3.918-3.118 2.652-4.598 6.594-3.958 10.546.648 4.005 3.354 7.333 7.24 8.903 5.789 2.339 7.369 5.02 7.201 5.885-.128.661-1.318 1.576-3.219 1.576h-8.273c-2.499-.608-9.199-6.775-13.648-10.87-7.795-7.174-16.63-15.306-26.476-19.957-16.146-7.627-27.941-2.08-34.992 3.918-3.118 2.652-4.598 6.594-3.958 10.546.648 4.005 3.354 7.333 7.24 8.903 5.789 2.339 7.369 5.02 7.201 5.885-.128.661-1.319 1.576-3.219 1.576h-8.273c-2.499-.608-9.199-6.775-13.648-10.87-7.795-7.174-16.63-15.306-26.476-19.957-5.577-2.634-10.634-3.696-15.156-3.711l-13.6-38.993h273.494c4.142 0 7.5-3.358 7.5-7.5s-3.358-7.5-7.5-7.5h-239.48v-18.254h27.291c6.032 0 11.627-3.509 14.253-8.94l14.858-30.724h246.199c.322 0 .629.138.842.378l51.047 57.539h-79.023c-4.142 0-7.5 3.358-7.5 7.5s3.358 7.5 7.5 7.5h156.852l-32.921 60.419c-7.186-6.572-15.202-13.544-24.035-17.716z"/><path d="m70.594 487.817h-63.094c-4.142 0-7.5 3.358-7.5 7.5s3.358 7.5 7.5 7.5h63.094c4.142 0 7.5-3.358 7.5-7.5s-3.358-7.5-7.5-7.5z"/><path d="m504.494 487.817h-397.915c-4.142 0-7.5 3.358-7.5 7.5s3.358 7.5 7.5 7.5h397.914c4.142 0 7.5-3.358 7.5-7.5s-3.357-7.5-7.499-7.5z"/><path d="m435.883 182.234c12.923 0 23.436-10.513 23.436-23.436s-10.514-23.436-23.436-23.436-23.436 10.514-23.436 23.436 10.513 23.436 23.436 23.436zm0-31.872c4.652 0 8.436 3.785 8.436 8.436s-3.785 8.436-8.436 8.436-8.436-3.784-8.436-8.436 3.784-8.436 8.436-8.436z"/><path d="m428.383 211.361v91.619c0 4.142 3.358 7.5 7.5 7.5s7.5-3.358 7.5-7.5v-91.619c0-4.142-3.358-7.5-7.5-7.5s-7.5 3.358-7.5 7.5z"/><path d="m435.883 117.77c4.142 0 7.5-3.358 7.5-7.5v-4.329c0-4.142-3.358-7.5-7.5-7.5s-7.5 3.358-7.5 7.5v4.329c0 4.142 3.358 7.5 7.5 7.5z"/><path d="m393.748 130.83c1.464 1.464 3.384 2.197 5.303 2.197s3.839-.732 5.303-2.197c2.929-2.929 2.929-7.678 0-10.606l-3.061-3.061c-2.929-2.929-7.678-2.929-10.606 0-2.929 2.929-2.929 7.678 0 10.606z"/><path d="m379.467 169.858h4.329c4.142 0 7.5-3.358 7.5-7.5s-3.358-7.5-7.5-7.5h-4.329c-4.142 0-7.5 3.358-7.5 7.5s3.358 7.5 7.5 7.5z"/><path d="m393.748 193.886-3.061 3.061c-2.929 2.929-2.929 7.678 0 10.606 1.464 1.464 3.384 2.197 5.303 2.197s3.839-.732 5.303-2.197l3.061-3.061c2.929-2.929 2.929-7.678 0-10.606-2.928-2.928-7.677-2.928-10.606 0z"/><path d="m470.472 207.554c1.464 1.464 3.384 2.197 5.303 2.197s3.839-.732 5.303-2.197c2.929-2.929 2.929-7.678 0-10.606l-3.061-3.061c-2.929-2.929-7.678-2.929-10.606 0-2.929 2.929-2.929 7.678 0 10.606z"/><path d="m480.471 162.358c0 4.142 3.358 7.5 7.5 7.5h4.329c4.142 0 7.5-3.358 7.5-7.5s-3.358-7.5-7.5-7.5h-4.329c-4.142 0-7.5 3.358-7.5 7.5z"/><path d="m472.715 133.026c1.919 0 3.839-.732 5.303-2.197l3.061-3.061c2.929-2.929 2.929-7.678 0-10.606-2.929-2.929-7.678-2.929-10.606 0l-3.061 3.061c-2.929 2.929-2.929 7.678 0 10.606 1.464 1.465 3.383 2.197 5.303 2.197z"/></g></g></svg>