<?xml version="1.0" encoding="iso-8859-1"?>
<!-- Generator: Adobe Illustrator 19.0.0, SVG Export Plug-In . SVG Version: 6.00 Build 0)  -->
<svg version="1.1" id="Layer_1" xmlns="http://www.w3.org/2000/svg" xmlns:xlink="http://www.w3.org/1999/xlink" x="0px" y="0px"
	 viewBox="0 0 512 512" style="enable-background:new 0 0 512 512;" xml:space="preserve">
<path style="fill:#6DC82A;" d="M495.304,512H16.696C7.479,512,0,504.527,0,495.304V16.696C0,7.473,7.479,0,16.696,0h478.609
	C504.521,0,512,7.473,512,16.696v478.609C512,504.527,504.521,512,495.304,512z"/>
<path style="fill:#61B325;" d="M495.304,0H256v512h239.304c9.217,0,16.696-7.473,16.696-16.696V16.696
	C512,7.473,504.521,0,495.304,0z"/>
<path style="fill:#FFFFFF;" d="M183.663,450.783c-4.641,0-9.261-1.924-12.565-5.69c-94.511-107.799-94.511-270.386,0-378.184
	c6.087-6.93,16.62-7.63,23.565-1.549c6.924,6.076,7.62,16.626,1.544,23.56c-83.511,95.25-83.511,238.913,0,334.163
	c6.076,6.934,5.38,17.484-1.544,23.56C191.489,449.418,187.566,450.783,183.663,450.783z"/>
<path style="fill:#FFE6B3;" d="M328.337,450.783c-3.902,0-7.826-1.365-11-4.142c-6.924-6.076-7.62-16.626-1.544-23.56
	c83.511-95.25,83.511-238.913,0-334.163c-6.076-6.934-5.38-17.484,1.544-23.56c6.957-6.082,17.489-5.38,23.565,1.549
	c94.511,107.799,94.511,270.386,0,378.184C337.598,448.858,332.978,450.783,328.337,450.783z"/>
<g>
</g>
<g>
</g>
<g>
</g>
<g>
</g>
<g>
</g>
<g>
</g>
<g>
</g>
<g>
</g>
<g>
</g>
<g>
</g>
<g>
</g>
<g>
</g>
<g>
</g>
<g>
</g>
<g>
</g>
</svg>
