<svg id="Capa_1" enable-background="new 0 0 512 512" height="512" viewBox="0 0 512 512" width="512" xmlns="http://www.w3.org/2000/svg"><g><path d="m109.006 321.23 4.829 9.973s76.575 62.18 142.164 62.18 142.509-62.18 142.509-62.18l4.478-9.973h.001c-7.361-22.001-16.402-52.206-22.744-84.108l-14.015-7.881h-222.517l-11.961 7.878c-6.342 31.903-15.384 62.109-22.745 84.111z" fill="#365e7d"/><path d="m174.043 232.626 5.139-3.385h-35.471l-11.961 7.878c-6.342 31.903-15.384 62.109-22.745 84.111h.001l4.829 9.973s11.786 9.569 30.067 21.199c10.714-35.789 21.64-77.016 30.141-119.776z" fill="#294b64"/><path d="m507.06 161.463-238.266-80.525c-8.298-2.804-17.289-2.804-25.587 0l-238.267 80.525c-6.151 2.079-6.694 10.568-.858 13.413l234.407 114.282c11.052 5.388 23.97 5.388 35.022 0l234.407-114.282c5.836-2.845 5.294-11.334-.858-13.413z" fill="#477b9e"/><path d="m76.195 174.876c-5.837-2.845-5.294-11.334.858-13.413l215.003-72.663-23.263-7.862c-8.298-2.805-17.289-2.805-25.587 0l-238.266 80.525c-6.151 2.079-6.694 10.568-.858 13.413l234.407 114.282c11.052 5.388 23.97 5.388 35.022 0l18.546-9.042z" fill="#3f6d8e"/><g><path d="m454.265 363.847c-4.267 0-7.726-3.459-7.726-7.726v-142.891c0-3.668-2.478-6.877-6.027-7.804l-174.376-45.978c-4.126-1.088-6.589-5.315-5.501-9.441s5.312-6.592 9.441-5.501l174.36 45.973c10.33 2.698 17.556 12.055 17.556 22.75v142.89c-.001 4.269-3.46 7.728-7.727 7.728z" fill="#ecf4ff"/></g><path d="m467.791 373.295h-27.052l-3.217 50.033c-.266 4.146 2.931 7.66 6.97 7.66h19.546c4.039 0 7.236-3.514 6.969-7.66z" fill="#ffd064"/><path d="m455.127 423.328 3.217-50.033h-17.605l-3.217 50.033c-.266 4.146 2.931 7.659 6.97 7.659h17.605c-4.039 0-7.236-3.513-6.97-7.659z" fill="#ebb044"/><path d="m460.527 337.336h-12.523c-6.239 0-11.343 5.105-11.343 11.344v22.517c0 2.048 1.661 3.709 3.709 3.709h27.792c2.048 0 3.709-1.661 3.709-3.709v-22.517c-.001-6.24-5.105-11.344-11.344-11.344z" fill="#ffe07d"/><path d="m456.577 371.196v-22.517c0-4.944 3.211-9.165 7.647-10.709-1.161-.404-2.402-.635-3.697-.635h-12.523c-6.239 0-11.344 5.105-11.344 11.344v22.517c0 2.049 1.661 3.709 3.709 3.709h19.917c-2.049 0-3.709-1.66-3.709-3.709z" fill="#ffd064"/><path d="m257.593 130.48c-14.856-.9-27.184 10.881-27.184 25.542v.13c.033 6.593 5.557 11.849 12.151 11.849h26.881c6.374 0 12.518-4.932 12.119-13.233-.618-12.91-11.065-23.507-23.967-24.288z" fill="#3f6d8e"/><path d="m253.589 156.152c0-.043 0-.086 0-.13 0-9.942 5.673-18.553 13.954-22.79-3.031-1.552-6.39-2.536-9.949-2.752-14.856-.9-27.184 10.881-27.184 25.542v.13c.033 6.593 5.557 11.849 12.151 11.849h23.179c-6.594 0-12.118-5.256-12.151-11.849z" fill="#365e7d"/><path d="m402.988 321.231c-26.853 22.071-70.519 46.774-117.692 61.976-18.698 6.027-39.422 6.18-58.597 0-47.066-15.168-90.716-39.814-117.692-61.976-2.581 7.713-4.957 14.422-6.935 19.835-3.399 9.299-.471 19.752 7.313 25.87 43.127 33.896 88.65 52.416 117.314 61.654 9.466 3.051 19.353 4.577 29.298 4.577 9.946 0 19.832-1.526 29.298-4.577 28.664-9.238 74.187-27.758 117.314-61.654 7.784-6.118 10.712-16.571 7.313-25.87-1.978-5.414-4.353-12.123-6.934-19.835z" fill="#ffe07d"/><path d="m145.642 346.551c-14.087-8.37-26.531-17.019-36.636-25.321-2.581 7.713-4.956 14.422-6.935 19.835-3.399 9.299-.471 19.752 7.313 25.87 8.135 6.393 16.354 12.238 24.53 17.579 3.812-11.808 7.765-24.528 11.728-37.963z" fill="#ffd064"/></g></svg>