<?xml version="1.0" encoding="UTF-8"?>
<svg xmlns="http://www.w3.org/2000/svg" xmlns:xlink="http://www.w3.org/1999/xlink" width="128pt" height="128pt" viewBox="0 0 128 128" version="1.1">
<g id="surface1">
<path style=" stroke:none;fill-rule:nonzero;fill:rgb(0%,0%,100%);fill-opacity:1;" d="M 19.070312 9.8125 L 33.941406 9.8125 C 35.703125 9.8125 36.878906 11.21875 36.574219 12.953125 L 22.699219 91.644531 C 22.394531 93.378906 20.71875 94.785156 18.957031 94.785156 L 4.089844 94.785156 C 2.328125 94.785156 1.148438 93.378906 1.457031 91.644531 L 15.332031 12.953125 C 15.636719 11.21875 17.3125 9.8125 19.070312 9.8125 Z M 19.070312 9.8125 "/>
<path style=" stroke:none;fill-rule:nonzero;fill:rgb(0%,0%,100%);fill-opacity:1;" d="M 34.695312 9.8125 L 81.425781 9.8125 C 83.1875 9.8125 84.367188 11.21875 84.0625 12.953125 L 81.421875 27.917969 C 81.117188 29.652344 79.441406 31.054688 77.683594 31.054688 L 30.949219 31.054688 C 29.1875 31.054688 28.007812 29.652344 28.316406 27.917969 L 30.953125 12.953125 C 31.257812 11.21875 32.933594 9.8125 34.695312 9.8125 Z M 34.695312 9.8125 "/>
<path style=" stroke:none;fill-rule:nonzero;fill:rgb(0%,0%,100%);fill-opacity:1;" d="M 35.746094 46.347656 L 50.617188 46.347656 C 52.378906 46.347656 53.554688 47.75 53.25 49.484375 L 51.546875 59.140625 C 51.242188 60.875 49.566406 62.277344 47.808594 62.277344 L 32.9375 62.277344 C 31.179688 62.277344 30 60.875 30.304688 59.140625 L 32.007812 49.484375 C 32.3125 47.75 33.988281 46.347656 35.746094 46.347656 Z M 35.746094 46.347656 "/>
<path style=" stroke:none;fill-rule:nonzero;fill:rgb(0%,0%,100%);fill-opacity:1;" d="M 61.425781 33.085938 L 76.296875 33.085938 C 78.054688 33.085938 79.234375 34.492188 78.929688 36.226562 L 65.054688 114.921875 C 64.746094 116.652344 63.074219 118.058594 61.3125 118.058594 L 46.445312 118.058594 C 44.683594 118.058594 43.503906 116.652344 43.8125 114.921875 L 57.6875 36.226562 C 57.992188 34.492188 59.667969 33.085938 61.425781 33.085938 Z M 61.425781 33.085938 "/>
<path style=" stroke:none;fill-rule:nonzero;fill:rgb(0%,0%,100%);fill-opacity:1;" d="M 77.046875 33.085938 L 123.78125 33.085938 C 125.542969 33.085938 126.722656 34.492188 126.414062 36.226562 L 123.777344 51.191406 C 123.472656 52.925781 121.796875 54.328125 120.035156 54.328125 L 73.304688 54.328125 C 71.542969 54.328125 70.363281 52.925781 70.667969 51.191406 L 73.308594 36.226562 C 73.613281 34.492188 75.289062 33.085938 77.046875 33.085938 Z M 77.046875 33.085938 "/>
<path style=" stroke:none;fill-rule:nonzero;fill:rgb(0%,0%,100%);fill-opacity:1;" d="M 78.101562 69.621094 L 92.972656 69.621094 C 94.730469 69.621094 95.910156 71.023438 95.605469 72.757812 L 93.902344 82.414062 C 93.597656 84.148438 91.921875 85.550781 90.164062 85.550781 L 75.292969 85.550781 C 73.535156 85.550781 72.355469 84.148438 72.660156 82.414062 L 74.363281 72.757812 C 74.667969 71.023438 76.34375 69.621094 78.101562 69.621094 Z M 78.101562 69.621094 "/>
</g>
</svg>
