<?xml version="1.0" ?><!DOCTYPE svg  PUBLIC '-//W3C//DTD SVG 1.1//EN'  'http://www.w3.org/Graphics/SVG/1.1/DTD/svg11.dtd'><svg height="8.4666mm" style="shape-rendering:geometricPrecision; text-rendering:geometricPrecision; image-rendering:optimizeQuality; fill-rule:evenodd; clip-rule:evenodd" version="1.1" viewBox="0 0 847 847" width="8.4666mm" xml:space="preserve" xmlns="http://www.w3.org/2000/svg" xmlns:xlink="http://www.w3.org/1999/xlink"><defs><style type="text/css">
   <![CDATA[
    .fil1 {fill:#FEFEFE}
    .fil2 {fill:black}
    .fil0 {fill:#01A1EE}
   ]]>
  </style></defs><g id="Layer_x0020_1"><circle class="fil0" cx="423" cy="423" r="342"/><path class="fil1" d="M536 629c15,-13 37,-30 57,-37l11 -6c6,-3 15,-11 13,-21 -3,-16 -31,-10 -31,-39 0,-14 -6,-18 -10,-25 2,-7 3,-11 3,-19 3,-22 0,-35 -9,-55 -12,-26 -34,-57 -52,-81 -7,-9 -12,-16 -15,-29 -4,-16 -2,-37 -4,-54 -6,-60 -32,-80 -66,-81 -34,-1 -65,12 -71,52 -3,17 -1,35 1,53 1,11 2,43 -2,53 -2,4 -25,33 -30,40 -2,3 -4,6 -6,9 -13,19 -40,70 -33,105 -5,2 -9,8 -12,13 -9,22 -41,13 -47,29 -3,10 4,18 3,29 -1,25 -30,40 38,49 9,1 18,4 26,6 22,7 51,25 71,8 4,-4 5,-8 8,-9l7 -1c33,-6 58,-7 91,-1 1,1 3,1 4,1 2,1 1,2 5,7 4,6 8,9 14,11 13,4 26,1 36,-7z"/><path class="fil2" d="M299 505c6,-2 15,9 17,12 5,5 9,12 12,18l18 29c7,10 14,16 19,26 3,8 2,17 -3,23 -2,2 -5,5 -8,7 -7,5 -29,-3 -36,-6 -26,-9 -15,-9 -47,-14 -6,-1 -20,-3 -24,-5 -7,-4 0,-18 1,-24 5,-19 -6,-28 3,-33 4,-2 6,-2 9,-3 6,-2 14,-3 18,-5 4,-2 5,-3 8,-7 3,-5 6,-12 8,-15 1,-1 3,-3 5,-3zm211 -67c-5,-15 -15,-27 -43,-35 22,4 31,8 38,15 -8,-23 -30,-77 -42,-96 -2,-5 -5,-4 -11,0 -12,5 -33,21 -42,22 -13,0 -28,-13 -37,-20 2,15 -5,31 -13,43 -11,16 -14,32 -21,47 8,-5 20,-8 39,-11 -16,4 -36,13 -45,28 -10,18 -17,45 -10,64l5 7c15,19 53,35 48,53 0,3 -2,6 -4,7 -2,2 -5,3 -8,4l15 17c4,5 3,5 11,6 23,2 52,-1 70,-11 11,-7 18,-13 26,-23 5,-5 4,-3 4,-12 0,-11 0,-21 1,-31 1,-6 1,-10 5,-12 4,-2 10,-2 14,-1 4,-6 5,-33 4,-42 0,-7 -3,-13 -4,-19zm44 160c-2,2 -4,3 -6,5 -2,2 -4,4 -6,6 -4,3 -9,7 -13,10 -24,13 -34,-9 -29,-30 2,-13 5,-25 6,-40 0,-7 -1,-14 -1,-22 -1,-10 -1,-13 5,-14 3,0 4,-1 6,-5 16,-31 15,-76 0,-112 19,36 17,86 1,114 -4,6 -4,11 -4,16 0,9 8,17 25,15 8,-1 14,-4 20,-7 4,-4 9,-11 11,-16 3,1 4,4 5,7 1,3 0,7 1,11 1,8 5,16 12,20 3,1 6,2 9,5 17,12 -4,15 -27,28 -6,4 -10,6 -15,9zm-145 -310c4,-1 17,5 22,7 5,2 26,8 20,16 -1,1 -12,7 -14,8 -6,3 -12,7 -19,11 -10,5 -12,6 -22,0 -4,-4 -23,-16 -16,-22 7,-5 21,-18 29,-20zm-22 2c-5,4 -6,8 -11,3 -11,-11 -11,-33 1,-44 12,-11 28,5 25,27 0,2 -1,3 -4,5 -3,1 -4,3 -6,4 2,-4 3,-11 -1,-17 -4,-7 -9,-8 -13,-4 -6,5 -5,25 9,26zm45 -6c-2,0 -6,-2 -8,-3 -2,-1 -2,0 -3,-3 0,-1 -1,-2 -1,-4 -2,-10 1,-20 9,-27 14,-13 36,0 35,23 -1,8 -5,18 -11,21 -2,2 -4,0 -7,-1 0,0 0,0 1,-1 2,-1 3,-2 4,-5 8,-15 -9,-33 -19,-17 -3,6 -2,11 0,17zm104 345c15,-13 37,-30 57,-37l11 -6c6,-3 15,-11 13,-21 -3,-16 -31,-10 -31,-39 0,-14 -6,-18 -10,-25 2,-7 3,-11 3,-19 3,-22 0,-35 -9,-55 -12,-26 -34,-57 -52,-81 -7,-9 -12,-16 -15,-29 -4,-16 -2,-37 -4,-54 -6,-60 -32,-80 -66,-81 -34,-1 -65,12 -71,52 -3,17 -1,35 1,53 1,11 2,43 -2,53 -2,4 -25,33 -30,40 -2,3 -4,6 -6,9 -13,19 -40,70 -33,105 -5,2 -9,8 -12,13 -9,22 -41,13 -47,29 -3,10 4,18 3,29 -1,25 -30,40 38,49 9,1 18,4 26,6 22,7 51,25 71,8 4,-4 5,-8 8,-9l7 -1c33,-6 58,-7 91,-1 1,1 3,1 4,1 2,1 1,2 5,7 4,6 8,9 14,11 13,4 26,1 36,-7z"/></g></svg>