<svg height="64" viewBox="0 0 32 32" width="64" xmlns="http://www.w3.org/2000/svg" xmlns:xlink="http://www.w3.org/1999/xlink"><clipPath id="a"><path clip-rule="evenodd" d="m343.58008-477.68018s60.70996 8.52002 60.70996 8.52002c-3.24024-13.72998-13.18994-22.58984-30.1499-25.35986 0 0-30.56006 16.83984-30.56006 16.83984z"/></clipPath><clipPath id="b"><path clip-rule="evenodd" d="m221.02979-362.1001s-4.32959 51.56006-4.32959 51.56006c8.16992 11.16016 19.40966 12.12988 31.1997 11.26025-8.52978-21.22998-25.56982-63.68017-26.87011-62.82031z"/></clipPath><clipPath id="c"><path clip-rule="evenodd" d="m271.50977-373.62988s30.56005 58.95996 30.56005 58.95996c18.07032-9.80029 32.22022-21.74024 45.18018-34.53028 0 0-75.74023-24.42968-75.74023-24.42968z"/></clipPath><clipPath id="d"><path clip-rule="evenodd" d="m328.3501-426.27979c17.61963 10.82959 53.12988 32.57959 53.8501 32.97999 1.11962.62988 15.30957-23.93018 18.52978-37.81006 0 0-72.37988 4.83007-72.37988 4.83007z"/></clipPath><clipPath id="e"><path clip-rule="evenodd" d="m401.12012-430.8999c7.7998-23.54004 9.59961-57.31006-27.18018-63.58008 0 0-30.18017 16.66992-30.18017 16.66992s57.36035 46.91016 57.36035 46.91016z"/></clipPath><clipPath id="f"><path clip-rule="evenodd" d="m328.24023-426.3999s19.48975 77.1997 19.48975 77.1997c22.93018-24.10986 43.51025-50.02978 53.58984-82.08984 0 0-73.07959 4.89014-73.07959 4.89014z"/></clipPath><clipPath id="g"><path clip-rule="evenodd" d="m248.68018-297.91016s22.85986-75.71972 22.85986-75.71972 75.91992 24.38965 75.91992 24.38965c-27.45019 25.74023-57.97998 47.5-98.77978 51.33007z"/></clipPath><clipPath id="h"><path clip-rule="evenodd" d="m250-453.24023c29.43018-29.17969 67.37012-46.41993 81.93018-31.72998 14.5498 14.69042-.88038 50.39013-30.31006 79.56005-29.43018 29.16993-66.89991 47.36036-81.4502 32.66993-14.56006-14.67969.3999-51.32959 29.83008-80.5z"/></clipPath><clipPath id="i"><path clip-rule="evenodd" d="m210.37988-393.66992s-2.6997 56.46972-2.6997 56.46972 14.12988-25.77001 14.12988-25.77001-11.43018-30.69971-11.43018-30.69971z"/></clipPath><clipPath id="j"><path clip-rule="evenodd" d="m319.16992-494.77002s55.01026.25 55.01026.25-33.72998 18.64014-33.72998 18.64014-21.28028-18.89014-21.28028-18.89014z"/></clipPath><clipPath id="k"><path clip-rule="evenodd" d="m327.68018-426.18994s73.31982-4.79004 73.31982-4.79004-57.3501-46.83984-57.3501-46.83984-15.96972 51.62988-15.96972 51.62988z"/></clipPath><clipPath id="l"><path clip-rule="evenodd" d="m266.00977-375.27979s81.87011 26.16993 81.87011 26.16993-21.1997-83.04004-21.1997-83.04004-60.67041 56.87011-60.67041 56.87011z"/></clipPath><clipPath id="m"><path clip-rule="evenodd" d="m221.02002-362.52002s27.66016 64.64014 27.66016 64.64014 23.03955-75.47998 23.03955-75.47998-50.69971 10.83984-50.69971 10.83984z"/></clipPath><clipPath id="n"><path clip-rule="evenodd" d="m248.5498-297.8999s146.39014-9.8501 146.39014-9.8501-92.22998-7.24023-92.22998-7.24023-54.16016 17.09033-54.16016 17.09033z"/></clipPath><clipPath id="o"><path clip-rule="evenodd" d="m347.89014-349.35986s46.87988 41.60986 46.87988 41.60986-12.58984-86.89014-12.58984-86.89014-34.29004 45.28028-34.29004 45.28028z"/></clipPath><clipPath id="p"><path clip-rule="evenodd" d="m248.06006-297.70996s146.46973-9.93994 146.46973-9.93994 11.28027-147.68994 11.28027-147.68994-44.62988 90.45996-44.62988 90.45996-113.12012 67.16992-113.12012 67.16992z"/></clipPath><linearGradient id="q" gradientTransform="matrix(-41.8 -73.80005 73.80005 -41.8 381.75049 -279.74512)" gradientUnits="userSpaceOnUse" spreadMethod="pad" x1="0" x2="1" y1="0" y2="0"><stop offset="0" stop-color="#fb7655"/><stop offset=".41" stop-color="#e42b1e"/><stop offset=".99001" stop-color="#900"/><stop offset="1" stop-color="#900"/></linearGradient><linearGradient id="r"><stop offset="0" stop-color="#871101"/><stop offset=".99001" stop-color="#911209"/><stop offset="1" stop-color="#911209"/></linearGradient><linearGradient id="s" gradientTransform="matrix(-53.86887 -36.14926 36.14926 -53.86887 402.57422 -341.73389)" gradientUnits="userSpaceOnUse" spreadMethod="pad" x1="0" x2="1" xlink:href="#r" y1="0" y2="0"/><linearGradient id="t" gradientTransform="matrix(-53.86887 -36.14926 36.14926 -53.86887 359.47363 -277.50684)" gradientUnits="userSpaceOnUse" spreadMethod="pad" x1="0" x2="1" xlink:href="#r" y1="0" y2="0"/><linearGradient id="u" gradientTransform="matrix(8.35098 54.27298 -54.27298 8.35098 246.37646 -367.89844)" gradientUnits="userSpaceOnUse" spreadMethod="pad" x1="0" x2="1" y1="0" y2="0"><stop offset="0" stop-color="#fff"/><stop offset=".23" stop-color="#e57252"/><stop offset=".46001" stop-color="#de3b20"/><stop offset=".99001" stop-color="#a60003"/><stop offset="1" stop-color="#a60003"/></linearGradient><linearGradient id="v" gradientTransform="matrix(3.077 55.39 -55.39 3.077 303.8125 -418.5791)" gradientUnits="userSpaceOnUse" spreadMethod="pad" x1="0" x2="1" y1="0" y2="0"><stop offset="0" stop-color="#fff"/><stop offset=".23" stop-color="#e4714e"/><stop offset=".56" stop-color="#be1a0d"/><stop offset=".99001" stop-color="#a80d00"/><stop offset="1" stop-color="#a80d00"/></linearGradient><linearGradient id="w" gradientTransform="matrix(9.21103 39.69502 -39.69502 9.21103 354.78418 -469.7666)" gradientUnits="userSpaceOnUse" spreadMethod="pad" x1="0" x2="1" y1="0" y2="0"><stop offset="0" stop-color="#fff"/><stop offset=".17999" stop-color="#e46342"/><stop offset=".39999" stop-color="#c82410"/><stop offset=".99001" stop-color="#a80d00"/><stop offset="1" stop-color="#a80d00"/></linearGradient><linearGradient id="x" gradientTransform="matrix(39.69395 -19.84702 19.84702 39.69394 326.65625 -483.74756)" gradientUnits="userSpaceOnUse" spreadMethod="pad" x1="0" x2="1" y1="0" y2="0"><stop offset="0" stop-color="#fff"/><stop offset=".53999" stop-color="#c81f11"/><stop offset=".99001" stop-color="#bf0905"/><stop offset="1" stop-color="#bf0905"/></linearGradient><linearGradient id="y" gradientTransform="matrix(3.26703 32.70995 -32.70995 3.26703 211.58398 -381.73486)" gradientUnits="userSpaceOnUse" spreadMethod="pad" x1="0" x2="1" y1="0" y2="0"><stop offset="0" stop-color="#fff"/><stop offset=".31" stop-color="#de4024"/><stop offset=".99001" stop-color="#bf190b"/><stop offset="1" stop-color="#bf190b"/></linearGradient><linearGradient id="z" gradientTransform="matrix(153.57416 -157.91714 157.91714 153.57416 189.11963 -340.18066)" gradientUnits="userSpaceOnUse" spreadMethod="pad" x1="0" x2="1" y1="0" y2="0"><stop offset="0" stop-color="#bd0012"/><stop offset=".07001" stop-color="#fff"/><stop offset=".27" stop-color="#c82f1c"/><stop offset=".33" stop-color="#820c01"/><stop offset=".46001" stop-color="#a31601"/><stop offset=".72" stop-color="#b31301"/><stop offset=".99001" stop-color="#e82609"/><stop offset="1" stop-color="#e82609"/></linearGradient><linearGradient id="A" gradientTransform="matrix(-46.25406 -11.41588 11.41588 -46.25406 306.75684 -324.25684)" gradientUnits="userSpaceOnUse" spreadMethod="pad" x1="0" x2="1" y1="0" y2="0"><stop offset="0" stop-color="#8c0c01"/><stop offset=".53999" stop-color="#990c00"/><stop offset=".99001" stop-color="#a80d0e"/><stop offset="1" stop-color="#a80d0e"/></linearGradient><linearGradient id="B" gradientTransform="matrix(-41.09381 -36.83124 36.83124 -41.09381 386.20557 -379.77637)" gradientUnits="userSpaceOnUse" spreadMethod="pad" x1="0" x2="1" y1="0" y2="0"><stop offset="0" stop-color="#7e110b"/><stop offset=".99001" stop-color="#9e0c00"/><stop offset="1" stop-color="#9e0c00"/></linearGradient><linearGradient id="C" gradientTransform="matrix(-20.47006 -21.88396 21.88396 -20.47006 401.30273 -447.35352)" gradientUnits="userSpaceOnUse" spreadMethod="pad" x1="0" x2="1" y1="0" y2="0"><stop offset="0" stop-color="#79130d"/><stop offset=".99001" stop-color="#9e120b"/><stop offset="1" stop-color="#9e120b"/></linearGradient><radialGradient id="D" cx="351.50977" cy="-415.8999" gradientUnits="userSpaceOnUse" r="50.36" spreadMethod="pad"><stop offset="0" stop-color="#a80d00"/><stop offset=".99001" stop-color="#7e0e08"/><stop offset="1" stop-color="#7e0e08"/></radialGradient><radialGradient id="E" cx="281.77002" cy="-349.54004" gradientUnits="userSpaceOnUse" r="66.9469" spreadMethod="pad"><stop offset="0" stop-color="#a30c00"/><stop offset=".99001" stop-color="#800e08"/><stop offset="1" stop-color="#800e08"/></radialGradient><linearGradient id="F" gradientTransform="matrix(-16.68208 -56.59695 56.59695 -16.68208 234.35107 -297.95117)" gradientUnits="userSpaceOnUse" spreadMethod="pad" x1="0" x2="1" y1="0" y2="0"><stop offset="0" stop-color="#8b2114"/><stop offset=".42999" stop-color="#9e100a"/><stop offset=".99001" stop-color="#b3100c"/><stop offset="1" stop-color="#b3100c"/></linearGradient><linearGradient id="G" gradientTransform="matrix(37.39998 16.509 -16.509 37.39998 362.32275 -485.4917)" gradientUnits="userSpaceOnUse" spreadMethod="pad" x1="0" x2="1" y1="0" y2="0"><stop offset="0" stop-color="#b31000"/><stop offset=".44" stop-color="#910f08"/><stop offset=".99001" stop-color="#791c12"/><stop offset="1" stop-color="#791c12"/></linearGradient><g transform="matrix(.1620974 0 0 .1620974 -33.66790520086 80.28591026786)"><g clip-path="url(#p)"><path d="m248.06006-297.70996s146.46973-9.93994 146.46973-9.93994 11.28027-147.68994 11.28027-147.68994-44.62988 90.45996-44.62988 90.45996-113.12012 67.16992-113.12012 67.16992z" fill="url(#q)" fill-rule="evenodd"/></g><g clip-path="url(#o)"><path d="m347.89014-349.35986s46.87988 41.60986 46.87988 41.60986-12.58984-86.89014-12.58984-86.89014-34.29004 45.28028-34.29004 45.28028z" fill="url(#s)" fill-rule="evenodd"/></g><g clip-path="url(#n)"><path d="m248.5498-297.8999s146.39014-9.8501 146.39014-9.8501-92.22998-7.24023-92.22998-7.24023-54.16016 17.09033-54.16016 17.09033z" fill="url(#t)" fill-rule="evenodd"/></g><g clip-path="url(#m)"><path d="m221.02002-362.52002s27.66016 64.64014 27.66016 64.64014 23.03955-75.47998 23.03955-75.47998-50.69971 10.83984-50.69971 10.83984z" fill="url(#u)" fill-rule="evenodd"/></g><g clip-path="url(#l)"><path d="m266.00977-375.27979s81.87011 26.16993 81.87011 26.16993-21.1997-83.04004-21.1997-83.04004-60.67041 56.87011-60.67041 56.87011z" fill="url(#v)" fill-rule="evenodd"/></g><g clip-path="url(#k)"><path d="m327.68018-426.18994s73.31982-4.79004 73.31982-4.79004-57.3501-46.83984-57.3501-46.83984-15.96972 51.62988-15.96972 51.62988z" fill="url(#w)" fill-rule="evenodd"/></g><g clip-path="url(#j)"><path d="m319.16992-494.77002s55.01026.25 55.01026.25-33.72998 18.64014-33.72998 18.64014-21.28028-18.89014-21.28028-18.89014z" fill="url(#x)" fill-rule="evenodd"/></g><g clip-path="url(#i)"><path d="m210.37988-393.66992s-2.6997 56.46972-2.6997 56.46972 14.12988-25.77001 14.12988-25.77001-11.43018-30.69971-11.43018-30.69971z" fill="url(#y)" fill-rule="evenodd"/></g><g><path d="m209.62012-394.64014s11.5 32.62012 11.5 32.62012 49.96972-11.20996 49.96972-11.20996 57.0503-53.02002 57.0503-53.02002 16.10009-51.14014 16.10009-51.14014-25.35009-17.8999-25.35009-17.8999-43.1001 16.12988-43.1001 16.12988c-13.58008 12.63037-39.93018 37.62012-40.87988 38.09034-.93995.47998-17.40039 31.58984-25.29004 46.42968z" fill="#fff" fill-rule="evenodd"/><g clip-path="url(#h)"><path d="m250-453.24023c29.43018-29.17969 67.37012-46.41993 81.93018-31.72998 14.5498 14.69042-.88038 50.39013-30.31006 79.56005-29.43018 29.16993-66.89991 47.36036-81.4502 32.66993-14.56006-14.67969.3999-51.32959 29.83008-80.5z" fill="url(#z)" fill-rule="evenodd"/></g><g clip-path="url(#g)"><path d="m248.68018-297.91016s22.85986-75.71972 22.85986-75.71972 75.91992 24.38965 75.91992 24.38965c-27.45019 25.74023-57.97998 47.5-98.77978 51.33007z" fill="url(#A)" fill-rule="evenodd"/></g><g clip-path="url(#f)"><path d="m328.24023-426.3999s19.48975 77.1997 19.48975 77.1997c22.93018-24.10986 43.51025-50.02978 53.58984-82.08984 0 0-73.07959 4.89014-73.07959 4.89014z" fill="url(#B)" fill-rule="evenodd"/></g><g clip-path="url(#e)"><path d="m401.12012-430.8999c7.7998-23.54004 9.59961-57.31006-27.18018-63.58008 0 0-30.18017 16.66992-30.18017 16.66992s57.36035 46.91016 57.36035 46.91016z" fill="url(#C)" fill-rule="evenodd"/></g><path d="m207.68018-337.54004c1.07959 38.8501 29.10986 39.43018 41.0498 39.77002 0 0-27.58008-64.41016-27.58008-64.41016s-13.46972 24.64014-13.46972 24.64014z" fill="#9e1209" fill-rule="evenodd"/><g clip-path="url(#d)"><path d="m328.3501-426.27979c17.61963 10.82959 53.12988 32.57959 53.8501 32.97999 1.11962.62988 15.30957-23.93018 18.52978-37.81006 0 0-72.37988 4.83007-72.37988 4.83007z" fill="url(#D)" fill-rule="evenodd"/></g><g clip-path="url(#c)"><path d="m271.50977-373.62988s30.56005 58.95996 30.56005 58.95996c18.07032-9.80029 32.22022-21.74024 45.18018-34.53028 0 0-75.74023-24.42968-75.74023-24.42968z" fill="url(#E)" fill-rule="evenodd"/></g><g clip-path="url(#b)"><path d="m221.02979-362.1001s-4.32959 51.56006-4.32959 51.56006c8.16992 11.16016 19.40966 12.12988 31.1997 11.26025-8.52978-21.22998-25.56982-63.68017-26.87011-62.82031z" fill="url(#F)" fill-rule="evenodd"/></g><g clip-path="url(#a)"><path d="m343.58008-477.68018s60.70996 8.52002 60.70996 8.52002c-3.24024-13.72998-13.18994-22.58984-30.1499-25.35986 0 0-30.56006 16.83984-30.56006 16.83984z" fill="url(#G)" fill-rule="evenodd"/></g></g></g></svg>