<?xml version="1.0" ?><!DOCTYPE svg  PUBLIC '-//W3C//DTD SVG 1.1//EN'  'http://www.w3.org/Graphics/SVG/1.1/DTD/svg11.dtd'><svg height="43.3492mm" style="shape-rendering:geometricPrecision; text-rendering:geometricPrecision; image-rendering:optimizeQuality; fill-rule:evenodd; clip-rule:evenodd" version="1.1" viewBox="0 0 707 707" width="43.3492mm" xml:space="preserve" xmlns="http://www.w3.org/2000/svg" xmlns:xlink="http://www.w3.org/1999/xlink"><defs><style type="text/css">
   <![CDATA[
    .fil2 {fill:none}
    .fil3 {fill:#1B5F7D}
    .fil0 {fill:#21759A}
    .fil1 {fill:white}
   ]]>
  </style></defs><g id="Layer_x0020_1"><g id="_446909456"><rect class="fil0" height="707" rx="76" ry="76" width="707"/><path class="fil1" d="M363 577c-20,0 -26,1 -47,-3l-25 -5c3,-15 49,-142 57,-169 2,-5 8,-21 9,-25l1 0c1,4 11,30 13,36 1,4 3,8 4,12 15,37 29,81 43,118 3,8 6,17 9,24 -5,1 -8,3 -14,4 -17,4 -31,8 -50,8zm-20 -473l22 0c16,1 33,3 51,8 23,6 25,8 44,16l19 10c30,18 59,43 79,72 6,9 18,28 22,38 18,45 23,61 23,114 0,38 -14,85 -34,117 -29,49 -77,91 -131,110 -25,8 -49,13 -74,14l-22 0c-28,-1 -56,-8 -84,-19l-21 -10c-11,-7 -13,-7 -28,-17 -47,-32 -83,-85 -97,-142 -8,-30 -8,-41 -8,-70 0,-20 4,-38 8,-54 5,-20 15,-45 26,-63 29,-49 77,-91 131,-110 25,-8 49,-13 74,-14zm-213 259c0,-34 2,-58 15,-91 1,-3 2,-6 4,-8l53 144c8,25 18,49 26,73 5,12 9,24 14,36l13 37c-15,-3 -56,-36 -67,-50 -6,-8 -10,-10 -18,-23 -22,-32 -40,-75 -40,-118zm421 -114l3 4c13,26 23,62 23,91 0,33 -1,48 -11,81 -4,9 -6,17 -11,26 -12,25 -26,43 -46,63l-20 17c-7,6 -14,11 -22,15 2,-10 61,-179 69,-199 12,-31 16,-48 16,-85 0,-6 -1,-8 -1,-13zm-87 -24c0,42 40,63 40,112 0,22 -1,25 -7,47 -4,12 -7,23 -11,34l-15 51c-1,5 -4,13 -5,18 -3,-2 -9,-25 -11,-29l-60 -179c-2,-5 -9,-26 -10,-30 6,0 16,-1 21,-2 10,-1 12,-2 12,-11 0,-4 -3,-8 -7,-8 -17,0 -31,2 -49,2l-24 0c-19,0 -34,-2 -52,-2 -2,0 -6,4 -6,10 0,8 5,8 12,9 5,0 17,0 20,3l31 84c3,9 4,8 1,17l-34 103c-2,6 -11,31 -11,35 -3,-2 -3,-3 -4,-6l-7 -23c-4,-10 -7,-19 -10,-30 -7,-20 -14,-40 -21,-60 -3,-11 -38,-110 -40,-121 5,0 26,-1 30,-4 5,-5 5,-12 0,-15 -4,-4 -16,-2 -21,-1l-59 1c10,-15 19,-26 31,-38 3,-3 6,-5 9,-8 6,-6 23,-18 31,-22 7,-4 14,-8 22,-12 69,-31 152,-27 215,16 8,5 24,15 28,22 -13,0 -20,4 -27,11 -6,5 -12,15 -12,26z"/><line class="fil2" x1="155" x2="357" y1="505" y2="707"/><line class="fil2" x1="533" x2="707" y1="180" y2="354"/><path class="fil3" d="M603 362c0,38 -14,85 -34,117 -29,49 -77,91 -131,110 -25,8 -49,13 -74,14l-22 0c-28,-1 -56,-8 -84,-19l-21 -10c-11,-7 -13,-7 -28,-17 -2,-1 -4,-3 -6,-4l154 154 274 0 76 -76 0 -277 -174 -174c9,9 18,20 25,30 6,9 18,28 22,38 18,45 23,62 23,114z"/><path class="fil3" d="M418 541c-14,-37 -28,-81 -43,-118l-4 -12c-2,-6 -12,-32 -12,-36l-3 0c0,4 -6,20 -8,25 -8,27 -54,154 -57,169l25 5c21,4 27,3 47,3 19,0 33,-4 50,-8 6,-1 9,-3 14,-4 -3,-7 -6,-16 -9,-24z"/><path class="fil3" d="M228 481c-8,-24 -18,-48 -26,-73l-53 -144c-2,2 -3,5 -4,8 -13,33 -15,57 -15,91 0,43 18,86 40,118 8,13 12,15 18,23 11,14 52,47 67,50l-14 -37c-4,-12 -8,-24 -13,-36z"/><path class="fil3" d="M257 370l21 60 10 30 7 23c1,3 1,4 4,6 0,-4 9,-29 11,-35l34 -103c3,-9 2,-8 -1,-17l-31 -84c-3,-3 -15,-3 -20,-3 -7,-1 -12,-1 -12,-9 0,-6 4,-10 6,-10 18,0 33,2 52,2l24 0c18,0 32,-2 49,-2 4,0 7,4 7,8 0,9 -2,10 -12,11 -5,1 -15,2 -21,2 1,4 8,25 10,30l60 179c2,4 8,27 11,29 1,-5 4,-13 5,-18l15 -51 11 -34c6,-22 7,-25 7,-47 0,-49 -40,-70 -40,-112 0,-11 6,-21 12,-26 7,-7 14,-11 27,-11 -4,-7 -20,-17 -28,-22 -63,-43 -146,-47 -215,-16 -8,4 -15,8 -22,12 -8,4 -25,16 -31,22 -3,3 -6,5 -9,8 -12,12 -21,23 -31,38l59 -1c5,-1 17,-3 21,1 5,3 5,10 0,15 -4,3 -25,4 -30,4 2,11 37,110 40,121z"/><path class="fil3" d="M536 347c-8,20 -67,189 -69,199 8,-4 15,-9 22,-15l20 -17c20,-20 34,-38 46,-63 5,-9 7,-17 11,-26 10,-33 11,-48 11,-81 0,-29 -10,-65 -23,-91l-3 -4c0,5 1,7 1,13 0,37 -4,54 -16,85z"/></g></g></svg>