<svg width="472.8799560546875px" height="128.62999267578124px" xmlns="http://www.w3.org/2000/svg" viewBox="13.560021972656244 10.68500366210938 472.8799560546875 128.62999267578124" style="background: none;" preserveAspectRatio="xMidYMid"><defs><filter id="editing-extrusion" x="-100%" y="-100%" width="300%" height="300%"><feFlood result="color1" flood-color="#404040"></feFlood><feConvolveMatrix order="4,4" divisor="1" kernelMatrix="1 0 0 0 0 1 0 0 0 0 1 0 0 0 0 1" in="SourceAlpha" result="extrude"></feConvolveMatrix><feComposite in="color1" in2="extrude" result="comp-extrude" operator="in"></feComposite><feOffset dx="2" dy="2" in="comp-extrude" result="offset-extrude"></feOffset><feMerge><feMergeNode in="offset-extrude"></feMergeNode><feMergeNode in="SourceGraphic"></feMergeNode></feMerge></filter></defs><g filter="url(#editing-extrusion)"><g transform="translate(76.33249086141586, 102.60312461853027)"><path d="M13.95 7.30L13.95 7.30Q11.58 7.30 9.79 6.91L9.79 6.91L9.79 6.91Q8 6.53 6.69 5.06L6.69 5.06L6.69 5.06Q5.38 3.58 5.38 0.51L5.38 0.51L5.38 0.51Q5.38-3.78 7.97-11.01L7.97-11.01L7.97-11.01Q10.56-18.24 14.78-25.54L14.78-25.54L14.78-25.54Q11.58-25.34 9.73-24.58L9.73-24.58L9.73-24.58Q7.87-23.81 7.30-22.21L7.30-22.21L7.30-22.21Q7.55-22.21 7.84-21.57L7.84-21.57L7.84-21.57Q8.13-20.93 8.13-20.22L8.13-20.22L8.13-20.22Q8.13-19.07 7.10-18.40L7.10-18.40L7.10-18.40Q6.08-17.73 4.54-17.73L4.54-17.73L4.54-17.73Q2.75-17.73 1.66-18.69L1.66-18.69L1.66-18.69Q0.58-19.65 0.58-21.44L0.58-21.44L0.58-21.44Q0.58-23.62 2.27-25.41L2.27-25.41L2.27-25.41Q3.97-27.20 6.98-28.26L6.98-28.26L6.98-28.26Q9.98-29.31 13.63-29.31L13.63-29.31L13.63-29.31Q14.98-29.31 16.96-29.12L16.96-29.12L16.96-29.12Q22.21-37.44 28.06-42.72L28.06-42.72L28.06-42.72Q33.92-48 39.23-48L39.23-48L39.23-48Q42.30-48 44.29-47.10L44.29-47.10L34.24 0L25.02 0L29.95-23.23L29.95-23.23Q27.58-24.32 25.60-24.83L25.60-24.83L25.60-24.83Q23.62-25.34 21.38-25.54L21.38-25.54L21.38-25.54Q17.73-17.66 15.39-9.44L15.39-9.44L15.39-9.44Q13.06-1.22 13.06 3.71L13.06 3.71L13.06 3.71Q13.06 6.14 13.95 7.30L13.95 7.30ZM30.53-26.05L34.24-43.46L34.24-43.46Q31.49-41.98 28.51-37.98L28.51-37.98L28.51-37.98Q25.54-33.98 22.72-28.29L22.72-28.29L22.72-28.29Q27.33-27.39 30.53-26.05L30.53-26.05ZM65.86 0.38L65.86 0.38Q61.95 0.38 60.13-1.70L60.13-1.70L60.13-1.70Q58.30-3.78 58.30-6.85L58.30-6.85L58.30-6.85Q58.30-8.19 58.62-9.89L58.62-9.89L58.62-9.89Q58.94-11.58 59.30-13.18L59.30-13.18L59.30-13.18Q59.65-14.78 59.78-15.23L59.78-15.23L59.78-15.23Q60.29-17.47 60.74-19.65L60.74-19.65L60.74-19.65Q61.18-21.82 61.18-23.17L61.18-23.17L61.18-23.17Q61.18-26.43 58.88-26.43L58.88-26.43L58.88-26.43Q57.22-26.43 55.94-24.80L55.94-24.80L55.94-24.80Q54.66-23.17 53.89-20.54L53.89-20.54L49.54 0L40.32 0L47.10-32L56.32-32L55.62-28.67L55.62-28.67Q58.82-32.26 63.10-32.26L63.10-32.26L63.10-32.26Q66.37-32.26 68.29-30.46L68.29-30.46L68.29-30.46Q70.21-28.67 70.21-25.02L70.21-25.02L70.21-25.02Q70.21-23.17 69.76-20.90L69.76-20.90L69.76-20.90Q69.31-18.62 68.48-15.36L68.48-15.36L68.48-15.36Q67.97-13.38 67.55-11.49L67.55-11.49L67.55-11.49Q67.14-9.60 67.14-8.51L67.14-8.51L67.14-8.51Q67.14-7.23 67.71-6.53L67.71-6.53L67.71-6.53Q68.29-5.82 69.70-5.82L69.70-5.82L69.70-5.82Q71.62-5.82 72.77-7.20L72.77-7.20L72.77-7.20Q73.92-8.58 75.07-11.46L75.07-11.46L77.76-11.46L77.76-11.46Q75.39-4.42 72.29-2.02L72.29-2.02L72.29-2.02Q69.18 0.38 65.86 0.38L65.86 0.38ZM98.18 0.38L98.18 0.38Q94.27 0.38 92.45-1.70L92.45-1.70L92.45-1.70Q90.62-3.78 90.62-6.85L90.62-6.85L90.62-6.85Q90.62-8.19 90.94-9.89L90.94-9.89L90.94-9.89Q91.26-11.58 91.62-13.18L91.62-13.18L91.62-13.18Q91.97-14.78 92.10-15.23L92.10-15.23L92.10-15.23Q92.61-17.47 93.06-19.65L93.06-19.65L93.06-19.65Q93.50-21.82 93.50-23.17L93.50-23.17L93.50-23.17Q93.50-26.43 91.20-26.43L91.20-26.43L91.20-26.43Q89.54-26.43 88.26-24.80L88.26-24.80L88.26-24.80Q86.98-23.17 86.21-20.54L86.21-20.54L81.86 0L72.64 0L81.92-43.52L91.39-44.80L87.94-28.67L87.94-28.67Q91.14-32.26 95.42-32.26L95.42-32.26L95.42-32.26Q98.69-32.26 100.61-30.46L100.61-30.46L100.61-30.46Q102.53-28.67 102.53-25.02L102.53-25.02L102.53-25.02Q102.53-23.17 102.08-20.90L102.08-20.90L102.08-20.90Q101.63-18.62 100.80-15.36L100.80-15.36L100.80-15.36Q100.29-13.38 99.87-11.49L99.87-11.49L99.87-11.49Q99.46-9.60 99.46-8.51L99.46-8.51L99.46-8.51Q99.46-7.23 100.03-6.53L100.03-6.53L100.03-6.53Q100.61-5.82 102.02-5.82L102.02-5.82L102.02-5.82Q103.94-5.82 105.09-7.20L105.09-7.20L105.09-7.20Q106.24-8.58 107.39-11.46L107.39-11.46L110.08-11.46L110.08-11.46Q107.71-4.42 104.61-2.02L104.61-2.02L104.61-2.02Q101.50 0.38 98.18 0.38L98.18 0.38ZM108.61-14.21L109.76-19.26L122.56-19.26L121.47-14.21L108.61-14.21ZM136 0L145.09-42.37L144.32-42.37L144.32-42.37Q138.62-42.37 135.46-39.52L135.46-39.52L135.46-39.52Q132.29-36.67 132.29-29.44L132.29-29.44L132.29-29.44Q132.29-27.07 132.74-26.14L132.74-26.14L132.74-26.14Q133.18-25.22 133.18-25.09L133.18-25.09L133.18-25.09Q129.73-25.09 128.03-26.53L128.03-26.53L128.03-26.53Q126.34-27.97 126.34-31.30L126.34-31.30L126.34-31.30Q126.34-35.84 128.58-39.58L128.58-39.58L128.58-39.58Q130.82-43.33 135.71-45.63L135.71-45.63L135.71-45.63Q140.61-47.94 148.16-47.94L148.16-47.94L148.16-47.94Q152.38-47.94 157.25-47.17L157.25-47.17L157.25-47.17Q161.34-46.46 164.54-46.46L164.54-46.46L164.54-46.46Q168.64-46.46 171.97-47.81L171.97-47.81L171.97-47.81Q171.84-43.65 169.86-41.66L169.86-41.66L169.86-41.66Q167.87-39.68 163.97-39.68L163.97-39.68L163.97-39.68Q161.92-39.68 159.87-40L159.87-40L159.87-40Q157.82-40.32 154.05-41.09L154.05-41.09L145.22 0L136 0ZM179.84 0.38L179.84 0.38Q175.94 0.38 174.11-1.70L174.11-1.70L174.11-1.70Q172.29-3.78 172.29-6.85L172.29-6.85L172.29-6.85Q172.29-8.19 172.61-9.89L172.61-9.89L172.61-9.89Q172.93-11.58 173.28-13.18L173.28-13.18L173.28-13.18Q173.63-14.78 173.76-15.23L173.76-15.23L173.76-15.23Q174.27-17.47 174.72-19.65L174.72-19.65L174.72-19.65Q175.17-21.82 175.17-23.17L175.17-23.17L175.17-23.17Q175.17-26.43 172.86-26.43L172.86-26.43L172.86-26.43Q171.20-26.43 169.92-24.80L169.92-24.80L169.92-24.80Q168.64-23.17 167.87-20.54L167.87-20.54L163.52 0L154.30 0L163.58-43.52L173.06-44.80L169.60-28.67L169.60-28.67Q172.80-32.26 177.09-32.26L177.09-32.26L177.09-32.26Q180.35-32.26 182.27-30.46L182.27-30.46L182.27-30.46Q184.19-28.67 184.19-25.02L184.19-25.02L184.19-25.02Q184.19-23.17 183.74-20.90L183.74-20.90L183.74-20.90Q183.30-18.62 182.46-15.36L182.46-15.36L182.46-15.36Q181.95-13.38 181.54-11.49L181.54-11.49L181.54-11.49Q181.12-9.60 181.12-8.51L181.12-8.51L181.12-8.51Q181.12-7.23 181.70-6.53L181.70-6.53L181.70-6.53Q182.27-5.82 183.68-5.82L183.68-5.82L183.68-5.82Q185.60-5.82 186.75-7.20L186.75-7.20L186.75-7.20Q187.90-8.58 189.06-11.46L189.06-11.46L191.74-11.46L191.74-11.46Q189.38-4.42 186.27-2.02L186.27-2.02L186.27-2.02Q183.17 0.38 179.84 0.38L179.84 0.38ZM199.74-35.46L199.74-35.46Q197.63-35.46 196.16-36.93L196.16-36.93L196.16-36.93Q194.69-38.40 194.69-40.51L194.69-40.51L194.69-40.51Q194.69-42.62 196.16-44.13L196.16-44.13L196.16-44.13Q197.63-45.63 199.74-45.63L199.74-45.63L199.74-45.63Q201.86-45.63 203.36-44.13L203.36-44.13L203.36-44.13Q204.86-42.62 204.86-40.51L204.86-40.51L204.86-40.51Q204.86-38.40 203.36-36.93L203.36-36.93L203.36-36.93Q201.86-35.46 199.74-35.46L199.74-35.46ZM195.39 0.38L195.39 0.38Q192.32 0.38 190.43-1.54L190.43-1.54L190.43-1.54Q188.54-3.46 188.54-7.30L188.54-7.30L188.54-7.30Q188.54-8.90 189.06-11.46L189.06-11.46L193.41-32L202.62-32L198.02-10.24L198.02-10.24Q197.76-9.28 197.76-8.19L197.76-8.19L197.76-8.19Q197.76-6.91 198.37-6.37L198.37-6.37L198.37-6.37Q198.98-5.82 200.38-5.82L200.38-5.82L200.38-5.82Q202.24-5.82 203.84-7.39L203.84-7.39L203.84-7.39Q205.44-8.96 206.14-11.46L206.14-11.46L208.83-11.46L208.83-11.46Q206.46-4.54 202.75-2.08L202.75-2.08L202.75-2.08Q199.04 0.38 195.39 0.38L195.39 0.38ZM243.58 0.83L243.58 0.83Q239.74 0.83 235.78-2.56L235.78-2.56L235.26 0L226.05 0L234.75-40.70L244.22-41.98L236.54-6.08L236.54-6.08Q238.34-4.80 240.19-4.80L240.19-4.80L240.19-4.80Q243.84-4.80 246.62-9.02L246.62-9.02L246.62-9.02Q249.41-13.25 250.94-19.78L250.94-19.78L250.94-19.78Q252.48-26.30 252.48-32.96L252.48-32.96L252.48-32.96Q252.48-39.23 250.02-42.14L250.02-42.14L250.02-42.14Q247.55-45.06 243.14-45.06L243.14-45.06L243.14-45.06Q238.34-45.06 234.53-43.17L234.53-43.17L234.53-43.17Q230.72-41.28 228.54-37.76L228.54-37.76L228.54-37.76Q226.37-34.24 226.37-29.50L226.37-29.50L226.37-29.50Q226.37-27.14 226.82-26.21L226.82-26.21L226.82-26.21Q227.26-25.28 227.26-25.15L227.26-25.15L227.26-25.15Q223.94-25.15 222.18-26.56L222.18-26.56L222.18-26.56Q220.42-27.97 220.42-31.10L220.42-31.10L220.42-31.10Q220.42-35.46 223.68-39.36L223.68-39.36L223.68-39.36Q226.94-43.26 232.42-45.63L232.42-45.63L232.42-45.63Q237.89-48 244.22-48L244.22-48L244.22-48Q252.99-48 257.15-42.82L257.15-42.82L257.15-42.82Q261.31-37.63 261.31-29.57L261.31-29.57L261.31-29.57Q261.31-22.27 258.85-15.20L258.85-15.20L258.85-15.20Q256.38-8.13 252.29-3.65L252.29-3.65L252.29-3.65Q248.19 0.83 243.58 0.83L243.58 0.83ZM273.15-35.46L273.15-35.46Q271.04-35.46 269.57-36.93L269.57-36.93L269.57-36.93Q268.10-38.40 268.10-40.51L268.10-40.51L268.10-40.51Q268.10-42.62 269.57-44.13L269.57-44.13L269.57-44.13Q271.04-45.63 273.15-45.63L273.15-45.63L273.15-45.63Q275.26-45.63 276.77-44.13L276.77-44.13L276.77-44.13Q278.27-42.62 278.27-40.51L278.27-40.51L278.27-40.51Q278.27-38.40 276.77-36.93L276.77-36.93L276.77-36.93Q275.26-35.46 273.15-35.46L273.15-35.46ZM268.80 0.38L268.80 0.38Q265.73 0.38 263.84-1.54L263.84-1.54L263.84-1.54Q261.95-3.46 261.95-7.30L261.95-7.30L261.95-7.30Q261.95-8.90 262.46-11.46L262.46-11.46L266.82-32L276.03-32L271.42-10.24L271.42-10.24Q271.17-9.28 271.17-8.19L271.17-8.19L271.17-8.19Q271.17-6.91 271.78-6.37L271.78-6.37L271.78-6.37Q272.38-5.82 273.79-5.82L273.79-5.82L273.79-5.82Q275.65-5.82 277.25-7.39L277.25-7.39L277.25-7.39Q278.85-8.96 279.55-11.46L279.55-11.46L282.24-11.46L282.24-11.46Q279.87-4.54 276.16-2.08L276.16-2.08L276.16-2.08Q272.45 0.38 268.80 0.38L268.80 0.38ZM302.66 0.38L302.66 0.38Q298.75 0.38 296.93-1.70L296.93-1.70L296.93-1.70Q295.10-3.78 295.10-6.85L295.10-6.85L295.10-6.85Q295.10-8.19 295.42-9.89L295.42-9.89L295.42-9.89Q295.74-11.58 296.10-13.18L296.10-13.18L296.10-13.18Q296.45-14.78 296.58-15.23L296.58-15.23L296.58-15.23Q297.09-17.47 297.54-19.65L297.54-19.65L297.54-19.65Q297.98-21.82 297.98-23.17L297.98-23.17L297.98-23.17Q297.98-26.43 295.68-26.43L295.68-26.43L295.68-26.43Q294.02-26.43 292.74-24.80L292.74-24.80L292.74-24.80Q291.46-23.17 290.69-20.54L290.69-20.54L286.34 0L277.12 0L283.90-32L293.12-32L292.42-28.67L292.42-28.67Q295.62-32.26 299.90-32.26L299.90-32.26L299.90-32.26Q303.17-32.26 305.09-30.46L305.09-30.46L305.09-30.46Q307.01-28.67 307.01-25.02L307.01-25.02L307.01-25.02Q307.01-23.17 306.56-20.90L306.56-20.90L306.56-20.90Q306.11-18.62 305.28-15.36L305.28-15.36L305.28-15.36Q304.77-13.38 304.35-11.49L304.35-11.49L304.35-11.49Q303.94-9.60 303.94-8.51L303.94-8.51L303.94-8.51Q303.94-7.23 304.51-6.53L304.51-6.53L304.51-6.53Q305.09-5.82 306.50-5.82L306.50-5.82L306.50-5.82Q308.42-5.82 309.57-7.20L309.57-7.20L309.57-7.20Q310.72-8.58 311.87-11.46L311.87-11.46L314.56-11.46L314.56-11.46Q312.19-4.42 309.09-2.02L309.09-2.02L309.09-2.02Q305.98 0.38 302.66 0.38L302.66 0.38ZM334.98 0.38L334.98 0.38Q331.07 0.38 329.25-1.70L329.25-1.70L329.25-1.70Q327.42-3.78 327.42-6.85L327.42-6.85L327.42-6.85Q327.42-8.19 327.74-9.89L327.74-9.89L327.74-9.89Q328.06-11.58 328.42-13.18L328.42-13.18L328.42-13.18Q328.77-14.78 328.90-15.23L328.90-15.23L328.90-15.23Q329.41-17.47 329.86-19.65L329.86-19.65L329.86-19.65Q330.30-21.82 330.30-23.17L330.30-23.17L330.30-23.17Q330.30-26.43 328-26.43L328-26.43L328-26.43Q326.34-26.43 325.06-24.80L325.06-24.80L325.06-24.80Q323.78-23.17 323.01-20.54L323.01-20.54L318.66 0L309.44 0L318.72-43.52L328.19-44.80L324.74-28.67L324.74-28.67Q327.94-32.26 332.22-32.26L332.22-32.26L332.22-32.26Q335.49-32.26 337.41-30.46L337.41-30.46L337.41-30.46Q339.33-28.67 339.33-25.02L339.33-25.02L339.33-25.02Q339.33-23.17 338.88-20.90L338.88-20.90L338.88-20.90Q338.43-18.62 337.60-15.36L337.60-15.36L337.60-15.36Q337.09-13.38 336.67-11.49L336.67-11.49L336.67-11.49Q336.26-9.60 336.26-8.51L336.26-8.51L336.26-8.51Q336.26-7.23 336.83-6.53L336.83-6.53L336.83-6.53Q337.41-5.82 338.82-5.82L338.82-5.82L338.82-5.82Q340.74-5.82 341.89-7.20L341.89-7.20L341.89-7.20Q343.04-8.58 344.19-11.46L344.19-11.46L346.88-11.46L346.88-11.46Q344.51-4.42 341.41-2.02L341.41-2.02L341.41-2.02Q338.30 0.38 334.98 0.38L334.98 0.38Z" fill="#ffffff"></path></g></g><style>text {
  font-size: 64px;
  font-family: Arial Black;
  dominant-baseline: central;
  text-anchor: middle;
}</style></svg>