<?xml version="1.0" standalone="no"?>
<svg
  width="100"
  height="100"
  viewBox="0 0 500 500"
  xmlns="http://www.w3.org/2000/svg"
>
  <g transform="translate(300,300)">
    <path d="M81.5,-134.1C97.7,-116.3,97.5,-80.4,89.6,-53.8C81.7,-27.2,66.1,-10,80.7,24.2C95.4,58.3,140.3,109.4,136.9,125.4C133.6,141.5,82,122.6,43.5,121.9C5,121.2,-20.5,138.8,-39.4,133.5C-58.3,128.3,-70.7,100.2,-87,77.5C-103.3,54.9,-123.4,37.8,-142.1,10.9C-160.9,-16,-178.2,-52.7,-178.2,-93.3C-178.1,-133.9,-160.7,-178.4,-128.1,-188.7C-95.5,-199,-47.8,-175,-7.6,-163.2C32.6,-151.4,65.2,-151.8,81.5,-134.1Z" fill="#F0DD3E" />
  </g>
</svg>
